<?xml version="1.0" encoding="utf-8"?>
<!-- Generator: Adobe Illustrator 25.2.1, SVG Export Plug-In . SVG Version: 6.00 Build 0)  -->
<svg version="1.1" id="Ñëîé_1" xmlns="http://www.w3.org/2000/svg" xmlns:xlink="http://www.w3.org/1999/xlink" x="0px" y="0px"
	 viewBox="0 0 1133.9 1133.9" style="enable-background:new 0 0 1133.9 1133.9;" xml:space="preserve">
<style type="text/css">
	.st0{fill:#FCF0ED;}
	.st1{fill:#2C3A64;}
	.st2{fill:#F99746;}
	.st3{fill:#ED7D2B;}
	.st4{fill:#FFB27D;}
	.st5{fill:#233862;}
	.st6{fill:#ED975D;}
	.st7{fill:#2B478B;}
	.st8{fill:#D1A586;}
	.st9{fill:#E5BD9E;}
	.st10{fill:#DFB697;}
	.st11{fill:#A0795F;}
	.st12{fill:#82B378;}
	.st13{fill:#A8D29F;}
	.st14{fill:#F1A34F;}
	.st15{fill:#FFB973;}
	.st16{fill:#D86713;}
	.st17{fill:#ED985F;}
	.st18{fill:#A53D38;}
	.st19{fill:#912F2F;}
	.st20{fill:#A5A2A2;}
	.st21{fill:#C0C0C0;}
	.st22{fill:#6F706F;}
	.st23{fill:#163560;}
	.st24{fill:#739AF0;}
	.st25{fill:#5FABB7;}
	.st26{fill:#EF9E67;}
	.st27{fill:#678FE5;}
	.st28{fill:#E73251;}
	.st29{fill:#383938;}
	.st30{fill:url(#SVGID_1_);}
	.st31{fill:#2F302F;}
</style>
<path class="st0" d="M265.7,796.8c22.3-18.9,35.4-47.9,29.6-101.3c-8.5-78.9,7.8-142,40.5-174.3c17.3-17,38.5-24.8,61.7-23.3
	c77.7,5,114,39.5,165,88c42.7,40.7,102.3,73.1,196.1,84.3c14.2,1.2,29.3,1.8,45.7,1.6c81.2-1,133.1,45.4,166,94.3
	c50.4,74.9,58.9,179.9,54.8,271.7H183.5C122.1,843.5,203.9,849.2,265.7,796.8z"/>
<g>
	<g>
		<path class="st1" d="M384.6,1000.2c0,0-7.9,7.3-6.4,12.6c1.5,5.2,8.7,8.7,9.7,15.1s4.8,9.8,8.3,9.8s16.6,0,16.6,0s2.6-4.5-3.6-5.8
			c-6.2-1.4-8.5-8.8-8.1-15.8s-0.6-16.2-0.6-16.2l-13.1-3.1L384.6,1000.2z"/>
		<path class="st1" d="M481.7,1020.2c0,0-1.9,15.4,1.5,17.2c3.5,1.7,45,1.2,45,1.2s0-5.2-7.1-6.4c-7.1-1.2-19.7-5.4-21.8-14.9
			C497.2,1007.9,481.7,1020.2,481.7,1020.2z"/>
		<path class="st2" d="M519.3,784.4c0,0-2.3,29.3-5.1,64.5c-3.7,47.8-8.3,106.5-8.7,117.6c-0.8,19.3-3.9,50.2-3.9,50.2
			s-7.3,7.3-22,4.2c0,0-13.1-44.1-16.8-90.8c-0.1-0.8-0.1-1.5-0.2-2.3c-3.5-47.5-8.9-147.5-8.9-147.5L519.3,784.4z"/>
		<path class="st3" d="M519.3,784.4c0,0-2.3,29.3-5.1,64.5l-51.4,81.3c-0.1-0.8-0.1-1.5-0.2-2.3c-3.5-47.5-8.9-147.5-8.9-147.5
			L519.3,784.4z"/>
		<path class="st2" d="M508.6,787.8c0,0-42.3,106-70.1,155.8c-27.8,49.8-36.5,63.7-36.5,63.7s-15.9-6.4-17.4-10.7
			c0,0,10.6-96.2,29.3-119.6c10.5-13.2,22.9-53,23.5-66.9s3.8-41.4,3.8-41.4L508.6,787.8z"/>
	</g>
	<g>
		<path class="st4" d="M561.7,822.4c0,0,9.6,13.5,10.4,16.1c0.9,2.6,0.8,12.9,0.1,13.3c-0.7,0.4-1.4,0.2-2.1-1.2
			c-0.7-1.5-2.1-6.7-2.6-6.2c-0.5,0.6,2.6,16.1-0.2,17.5s-11.5-4.3-14.6-10.8s-0.8-22.8-1.1-24C548.5,817.2,561.7,822.4,561.7,822.4
			z"/>
		<path class="st5" d="M558.5,829.4c5.4-1.1,5.9-1.9,5.9-1.9s-0.9-52.9-0.8-57.8c0.1-5,21.1-71.9,21.1-71.9l-35.9-36.2
			c0,0-13.2,94.8-13.3,107.4c-0.2,20.8,15.2,60.1,15.2,60.1S554.3,830.3,558.5,829.4z"/>
	</g>
	<path class="st4" d="M561.1,652.5c0,0,9.6,33.6,25,41.4c0,0,1.7-10.1-0.6-17.8c2.1-1.5,4-2.9,5.6-4.2c5.4-4.3,8.2-7,8.2-7
		l-1.9-16.3l-1.3-11.1c-2.6,2.8-5.3,5.2-8,7.1C574.3,654.2,561.1,652.5,561.1,652.5z"/>
	<path class="st6" d="M588.1,644.5c0,0-5.6,14.3,3,27.3c5.4-4.3,8.2-7,8.2-7l-1.9-16.3C591.8,645.3,588.1,644.5,588.1,644.5z"/>
	<path class="st4" d="M603.2,668.1c0,0-22.7-15.9-12.6-29.8c10.1-14,14-25.4,28.9-15.9s13.8,16.9,11.6,22.4
		C628.8,650.2,609.3,671.9,603.2,668.1z"/>
	<path class="st7" d="M438.1,782.8c6.6,17,77.4,54.8,78.9,44.5c0.6-3.9,1.8-10.8,4.8-19.8c0.7-2.1,1.5-4.3,2.5-6.7
		c5.1-12.8,13.8-28.6,28.8-45.8c1.1-1.3,2.3-2.6,3.5-3.9c6-6.6,11.6-13.8,16.2-21c8.9-13.8,14.6-27.8,14.2-37.9c0-0.1,0-0.1,0-0.1
		c-14-11.2-13.2-41-13.2-41s-56.2-3.5-103.9,61c0,0-4.8,7.2-10.7,17.1c-7.2,12-16,28-19.8,40C437.6,775,436.9,779.8,438.1,782.8z"/>
	<path class="st7" d="M594,608.6c-0.1-0.4-0.5-0.9-1.7-1.6c0,0,1.3-0.1,2.5,0.5c1.1-1.5,3.5-4.1,6.8-3.3c0,0-2,0-3.1,1.7
		c5.1-1.7,13.4-0.5,32.1,11.2c24.6,15.5,7.4,27.7,3.1,28c-4.4,0.3-9.9-9.6-16.3-12.3c-6.5-2.7-12.4,5.7-15.1,5.9
		c-2.8,0.2-0.8-1.6-2.9-4.4c-2.2-2.8-4.9,1.9-5.7,5.4s-6.9,5.6-6.9,5.6s0,0-1.7-6.4s4.1-26.6,8-29.6
		C593.3,609.1,593.7,608.8,594,608.6z"/>
</g>
<g>
	<path class="st8" d="M748.4,860.5c1-25.7,3.3-48,6-63.6c4.3-24.8,8.2-39.1,8.2-39.2c0.6-2.2,8.7-11,26.9-10.7s16.4,11.9,16.4,11.9
		l0,0c0,0.4-0.1,0.8-0.1,1c-0.2,0.6-16.8,61-16.1,139.1c0,1.1,0.1,3,0.1,4.3c0,0-42.1,1.1-42.1,0
		C746.1,896.3,746.9,877.4,748.4,860.5z"/>
	<path class="st9" d="M743.1,898.5c0,1.1,0.6,2,1.3,2l0,0c0.7,0,1.3-0.9,1.3-2h36.1c0,1.1,0.6,2,1.3,2l0,0c0.7,0,1.3-0.9,1.3-2
		c-0.2-22.3,1.1-43.2,3-61.6c4.8-45.9,13.7-76.6,13.8-77c0.1-0.3,0.1-0.6,0.1-1c0,0,1.7-11.6-16.4-11.9
		c-18.2-0.3-26.3,8.6-26.9,10.7c0,0.1-2.2,8.2-5.1,22.7c-1,4.8-2,10.3-3.1,16.5c-2.7,15.6-4.9,37.9-6,63.6
		C742.2,877.4,741.6,891.7,743.1,898.5z"/>
	<path class="st10" d="M743.1,898.5c0,1.1,0.6,2,1.3,2l0,0c0.7,0,1.3-0.9,1.3-2h36.1c0,1.1,0.6,2,1.3,2l0,0c0.7,0,1.3-0.9,1.3-2
		c-0.2-22.3,1.1-43.2,3-61.6c-6-29.1-29-51.4-34.5-56.4c-1,4.8-2,10.3-3.1,16.5c-2.7,15.6-4.9,37.9-6,63.6
		C742.2,877.4,741.6,891.7,743.1,898.5z"/>
	<g>
		<path class="st8" d="M779.4,898.1L779.4,898.1c-0.1-0.1-0.2-0.1-0.2-0.3l0,0c0-0.3-0.1-0.6-0.3-0.8c-1.1-1.2-5.5-1.1-11-1.1
			c-6,0.1-13.5,0.2-21-1.2c-3.9-0.7-1.3-30.5,1.5-58.4c0.5-4.7,0.8-8.5,1-10.7c1.8-23.6,12.1-65.8,12.2-66.2
			c0.5-1.8,6.7-8.4,20.2-8.1c5.1,0.1,8.7,1.3,10.7,3.7c2.1,2.5,1.7,5.2,1.7,5.3c0,0.3,0,0.6-0.1,0.8s-9.4,54.7-10.9,67.8
			c-2.5,21.5-3.5,66.2-3.6,68.6v0.1v0.1L779.4,898.1z M771.4,895.6c4,0,6.9,0.2,7.9,1.2l0,0c0-1,0.1-3,0.2-6.6
			c0.1-4.3,0.3-10.9,0.6-18.4c0.5-13.1,1.4-31.2,2.8-42.7c1.6-13.4,10.9-67.7,10.9-67.8c0.1-0.2,0.1-0.5,0.1-0.7
			c0-0.1,0.4-2.7-1.6-5s-5.5-3.5-10.4-3.6c-0.2,0-0.4,0-0.6,0c-12.8,0-18.7,6.1-19.2,7.8c-0.1,0.4-10.4,42.3-12.2,66.1h-0.2h0.2
			c-0.2,2.2-0.5,6-1,10.7c-1.8,18.6-5.6,57.3-1.8,57.9c7.5,1.3,14.9,1.2,21,1.2C769.2,895.6,770.3,895.6,771.4,895.6z"/>
	</g>
	<path class="st9" d="M787,900.5H645.6c0,0,3.3-13.3,85.2-11.3C788.7,890.5,787,900.5,787,900.5z"/>
	<g>
		<path class="st8" d="M798.5,1039.7c-16.4-83-12.2-133.9-12.2-134.6c0-1.3-2.3-2.4-3.6-2.5c-1.3,0-6.9-0.4-7.6,0.7
			c-0.9,1.4-4.2,64.2,20.3,136.3L798.5,1039.7L798.5,1039.7z"/>
	</g>
	<g>
		<path class="st8" d="M666.5,1039.7c16.4-83,12.2-133.9,12.2-134.6c0-1.3,2.3-2.4,3.6-2.5c1.3,0,6.9-0.4,7.6,0.7
			c0.9,1.4,4.2,64.2-20.3,136.3L666.5,1039.7L666.5,1039.7z"/>
	</g>
	<g>
		<path class="st11" d="M636.9,1039.7c16.4-83,12.2-133.9,12.2-134.6c0-1.3,2.3-2.4,3.6-2.5c1.3,0,6.9-0.4,7.6,0.7
			c0.9,1.4,4.2,64.2-20.3,136.3L636.9,1039.7L636.9,1039.7z"/>
	</g>
	<g>
		<path class="st11" d="M772.1,1039.7c-16.4-83-12.2-133.9-12.2-134.6c0-1.3-2.3-2.4-3.6-2.5c-1.3,0-6.9-0.4-7.6,0.7
			c-0.9,1.4-4.2,64.2,20.3,136.3L772.1,1039.7L772.1,1039.7z"/>
	</g>
	<path class="st8" d="M646.4,904.7h139.5c2.1,0,3.8-1.7,3.8-3.8l0,0c0-2.1-1.7-3.8-3.8-3.8H646.4c-2.1,0-3.8,1.7-3.8,3.8l0,0
		C642.6,903,644.3,904.7,646.4,904.7z"/>
</g>
<g>
	<g>
		<path class="st12" d="M161.4,959.5c0,0,12.6-14.7,0.8-24c0,0-8.6-5.2-15.7-4.8c0,0,10,16.7,6.8,18.4s-9.8-19.4-9.8-19.4
			s-19.7-1.9-26,1.1c0,0,16.8,13.7,13.3,14.6c-3.5,0.8-21.7-12.7-21.7-12.7s-18.3,3.1-17.3,14.3s7.3,14.6,10,14.3
			c2.8-0.3,19-6.5,19.3-4.2c0.4,2.3-9.4,9.7-16.2,10c0,0,12.9,14.2,21.5,10.1c8.6-4.1,9.3-10.6,14.6-13.1c5.3-2.4,9.9-2.4,7.7,0.1
			s-11.9,4.9-14.9,10.3s-5.8,9,3.1,7.7c8.9-1.3,23.3-7.8,23.9-15.3C161.4,959.5,161.4,959.5,161.4,959.5z"/>
		<g>
			<path class="st12" d="M100.7,947.2c0,0,49.7-1.9,60.7,12.3c0,0,2.4,7.3,9.9,13.9l1.2,3.2c0,0-8.6-9.1-11.7-9.6
				C160.7,966.9,165.5,949.3,100.7,947.2z"/>
			<path class="st12" d="M171.2,973.4c0,0,10.7,7.9,11.4,22l-1.9,0.2c0,0-3.4-14.6-9.6-20.3C165,969.6,171.2,973.4,171.2,973.4z"/>
		</g>
	</g>
	<g>
		<path class="st13" d="M205.4,941c0,0-20-11.2-10.7-26.5c0,0,7.5-9.4,15.5-11.8c0,0-4.3,22.7,0,23.3c4.3,0.5,2.9-25.7,2.9-25.7
			s21.1-10.2,29.4-9.4c0,0-13.1,22.2-8.8,21.6c4.3-0.5,19-23,19-23s21.6-4,25.1,8.8s-2.1,19.2-5.3,20c-3.2,0.8-23.8,0.5-23.3,3.2
			s14.4,6.9,22.2,4.5c0,0-8.6,21.1-19.8,20s-14.7-8-21.6-8.6c-6.9-0.5-12,1.3-8.6,3.2c3.5,1.9,15.2,0.6,20.8,5.4
			c5.6,4.8,10.2,7.7-0.3,9.8c-10.4,2.1-29.1,0.8-32.9-7.2C205.4,941,205.4,941,205.4,941z"/>
		<g>
			<path class="st12" d="M267.9,902.5c0,0-56.1,18.2-62.5,38.5c0,0,0.3,9.1-5.3,19.5v4c0,0,5.9-13.6,9.1-15.5
				C209.1,949,196.6,931.4,267.9,902.5z"/>
			<path class="st12" d="M200.1,960.5c0,0-8.7,13.1-3.7,29.1l2.2-0.6c0,0-2.2-17.6,2.4-26.5C205.5,953.7,200.1,960.5,200.1,960.5z"
				/>
		</g>
	</g>
	<g>
		<path class="st13" d="M173.5,925.6c0,0,26.4-14.8,14.1-34.9c0,0-9.9-12.3-20.4-15.5c0,0,5.6,29.9,0,30.6
			c-5.6,0.7-3.9-33.8-3.9-33.8s-27.8-13.4-38.8-12.3c0,0,17.3,29.2,11.6,28.5c-5.6-0.7-25-30.3-25-30.3s-28.5-5.3-33.1,11.6
			c-4.6,16.9,2.8,25.4,7,26.4c4.2,1.1,31.4,0.7,30.6,4.2c-0.7,3.5-19,9.2-29.2,6c0,0,11.3,27.8,26.1,26.4
			c14.8-1.4,19.4-10.6,28.5-11.3c9.2-0.7,15.9,1.8,11.3,4.2c-4.6,2.5-20.1,0.8-27.5,7.1c-7.4,6.3-13.4,10.2,0.4,13
			c13.7,2.8,38.4,1.1,43.3-9.5C173.5,925.6,173.5,925.6,173.5,925.6z"/>
		<g>
			<path class="st12" d="M91.1,874.8c0,0,74,24,82.4,50.7c0,0-0.4,12,7,25.7v5.3c0,0-7.8-18-12-20.4
				C168.6,936.1,185.1,912.9,91.1,874.8z"/>
			<path class="st12" d="M180.6,951.3c0,0,11.4,17.3,4.9,38.4l-2.9-0.8c0,0,2.8-23.2-3.1-34.9C173.4,942.3,180.6,951.3,180.6,951.3z
				"/>
		</g>
	</g>
	<path class="st14" d="M174.4,1035.4c-28.6,0-51.8-23.2-51.8-51.8h103.5C226.2,1012.2,203,1035.4,174.4,1035.4z"/>
	<path class="st15" d="M161.7,1035c2.1,0.3,4.3,0.4,6.4,0.4c28.6,0,51.8-23.2,51.8-51.8H207C207,1010.1,187.2,1031.9,161.7,1035z"/>
	<path class="st14" d="M121.9,1038h104.9l0,0c0-3.5-2.9-6.4-6.4-6.4h-92.2C124.8,1031.7,121.9,1034.5,121.9,1038L121.9,1038z"/>
	<rect x="121.4" y="983.6" class="st16" width="106.4" height="1.6"/>
</g>
<g>
	<g>
		<path class="st1" d="M794.5,692.7c8.7-2.2,18.3-15.3,18.2-18c0-0.3-0.2-1.2-0.5-2.5l-33.9-23.9c0,0,9.1-22.5,21.7-23.1
			c1.3-4.5,5.9-13.8,20.2-10.7c0,0-6,0.3-9.6,2.7c0,0,13.4-4.4,24,9.1s-3.3,38.7-0.4,44.6c2.8,6,17.9,10.3,12.5,26.4
			c-5.5,16.1-56.6,26.6-56.6,40.9c0,0-11.7-28.9,1.9-39.3c-2.3,1.7-6.8,5.5-8.5,10.7C783.4,709.6,784.7,695.2,794.5,692.7z
			 M793.3,697.9c0,0-0.1,0.1-0.4,0.2C793,698.1,793.1,698,793.3,697.9z"/>
		<g>
			<path class="st17" d="M810.6,705.7c7.1-12.6,22-22.6,26.7-9c0.8,2.5,1.1,5.1,0.6,8c-3,15.9-47.6,70.3-52.9,74.8
				c-9.7,8.2-58.6,31.3-58.6,31.3l-5.6-6.4c0,0,41.2-36.5,46.6-39.4c5.1-2.7,17.4-30.1,29.1-53.1C799.5,706.4,808,710.3,810.6,705.7
				z"/>
			<path class="st17" d="M727.1,804.1c0,0-12.5-2.4-16-0.4s-13,9.5-12.5,11.1s13-2.4,14.2-1.9s11.7,2.6,13.9-0.4
				C729,809.7,727.1,804.1,727.1,804.1z"/>
		</g>
		<path class="st7" d="M814.6,1026.1l9.5-1.4c0,0,31.9-25.3,36.6-72.6c0.5-4.8,0.6-9.7,0.2-14.6c0-0.6,0-1.1,0.3-1.6l0,0
			c1-1.6,3.6-5.5,7-11s9.2-15.9,15.6-27.5c11.5-21,24.9-46,29.4-54c14.6-25.4,7.6-42.6,7.6-42.6s-40.8-4-52-13.8l-4,6.2
			c0,0-8.8,39.1-8.4,39.3c-0.4,1.3-0.9,2.7-1.3,4.1c-7,21.5-15,48.4-19.4,70.3c-2.5,12.3-3.8,23.1-3.1,30.4
			c0.2,2.5-0.1,6.4-0.7,11.1C828,976.4,814.6,1026.1,814.6,1026.1z"/>
		<path class="st5" d="M794.8,1038.1h39.5c0,0,0.9-6-1.1-10.6c-2-4.4-4.8-4.5-0.4-11.4c-2.5,2.6-10.6,3.7-16.3,2.9
			c-0.7,1.1-4.5,8.8-6.9,10.4C807.1,1031.2,795.6,1030.6,794.8,1038.1z"/>
		<path class="st5" d="M855.1,836.5c3.5,19,11.6,50.7,28.7,60.8c11.5-21,24.9-46,29.4-54c14.6-25.4,7.6-42.6,7.6-42.6
			s-40.8-4-52-13.8l-4,6.2c0,0-8.8,39.1-8.4,39.3C856,833.8,855.6,835.1,855.1,836.5z"/>
		<path class="st3" d="M805.3,701.8c0,0-6.7,4.5-10.7,10.8c0,0,3.3,26.9,23,34.5C817.6,747.1,810.3,702.9,805.3,701.8z"/>
		<path class="st7" d="M882.9,803.7l-0.1-7.4c14.7,1.9,50.8-17.6,50.8-17.6s15.4,10.3,17.5,39.5c1,14.3,7.5,74.7,8.3,92.8
			c0.3,6.5,0.3,11.2,0.4,13.1l0,0c0,0.6,0.3,1.1,0.6,1.5c3,3.9,5.7,8,8,12.2c22.5,41.8,10.7,98.6,10.7,98.6l-5.2-1.3
			c0,0-19-58.9-31.4-84.4c-2.1-4.3-4-7.7-5.6-9.6c-4.7-5.7-9.6-15.3-14.4-26.9c-9.2-21.9-18.1-50.8-24.4-73.2
			C897.4,841.1,882.9,803.7,882.9,803.7z"/>
		<path class="st4" d="M813.6,729.9c24.7-0.3,16.8-36.6,15.4-36.3c-3.1-1.4-9-8.7-13-21.2l-1,0.6l-17.2,9.5c0,0,2.3,5.7,4,11.1
			c1.4,4.3,2.4,8.4,1.9,9.6C802.2,703.8,807,729.9,813.6,729.9z"/>
		<path class="st17" d="M797.7,682.4c0,0,2.3,5.6,4,11.1c10.2-3.6,12.6-14.7,13.2-20.6L797.7,682.4z"/>
		<path class="st4" d="M795.9,688.7c0,0,24.5-7.4,19.6-22.6c-4.8-15.2-5-26.3-20.8-22.2s-17,10.8-16.6,16.3
			C778.5,665.6,789.4,690.2,795.9,688.7z"/>
		<path class="st1" d="M776.1,651.5c2.3-5.8,5.5-5.7,7.5-4.8c10.9-11.6,29.3-3.7,29.3-3.7c5.1,10.3,8.6,14.2,8.6,14.2
			s-3.6,4.2-14.6,4.8c-3.4,0.2-6.9-1.1-10.1-3.1c6.4,5.6,13.6,8.8,13.6,8.8c-14-1.7-24.4-17.1-25.4-18.8c-1.1,1.8-3.1,5.6-3,8.8
			c0,4.2,2,12.4-0.4,12.8C781.6,670.6,772.7,660.1,776.1,651.5z"/>
		<path class="st5" d="M947.6,1038.1h39.5c0,0,0.9-6-1.1-10.6c-2-4.4-5.1-6.4-4.3-11.7c-2.5,2.6-6.6,5.5-12.3,4.7
			c-0.7,1.1-4.5,7.2-6.9,8.9C959.9,1031.2,948.4,1030.6,947.6,1038.1z"/>
		<path class="st2" d="M805.1,755.5c4.6,2.8,11.4,5.3,18.3,7.6c9.9,3.3,20.2,6.3,25.3,9.7c1.8,1.2,3,2.5,3.1,3.9
			c0.8,7.7,10.5,28.1,10.5,28.1c67.9,11.5,79.9-22.1,79.9-22.1C908.3,720.2,835,688.4,835,688.4s-5-3.5-21.1,4.5
			c-10.8,5.3-10.2,8.4-10.2,8.4S791.6,747.2,805.1,755.5z"/>
		<path class="st3" d="M815.7,760.8c9.9,3.3,28,8.6,33,12c9.5-33.1-0.8-61.7-0.8-61.7S820.6,748.6,815.7,760.8z"/>
		<path class="st4" d="M832,699.7c0,0,19.8,14.5,13.2,30.2s-63.1,62.7-69.5,66.2c-11.8,6.3-67.2,19.3-67.2,19.3l-4.3-7.8
			c0,0,50.4-28.5,56.7-30.3C770.7,774.5,821.4,700.3,832,699.7z"/>
		<path class="st2" d="M840.9,739.1c-0.3,0.3-24.7-5.2-34.2-19.7c0,0,14.9-32.5,29.9-21.6s19.5,19.7,15.5,27.6
			C848.1,733.2,840.9,739.1,840.9,739.1z"/>
	</g>
</g>
<g>
	<g>
		<polygon class="st18" points="717.3,815.5 642.9,815.5 629.5,768.7 703.8,768.7 		"/>
		<polygon class="st19" points="642.4,813.7 740.4,813.7 740.4,815.5 642.9,815.5 		"/>
	</g>
	<path class="st19" d="M666.5,791.3c-0.5-1.6,0.5-3,2.1-3s3.4,1.3,3.8,3c0.5,1.6-0.5,3-2.1,3S667,793,666.5,791.3z"/>
</g>
<g>
	<polygon class="st20" points="912.6,1040.1 806.1,1040 806.1,827.4 912.6,827.4 	"/>
	<rect x="374" y="827.4" class="st21" width="439.8" height="212.6"/>
	<rect x="827.4" y="815.5" class="st22" width="98.5" height="11.9"/>
	<rect x="362.7" y="815.5" class="st20" width="467" height="11.9"/>
</g>
<g>
	<g>
		<path class="st23" d="M326.4,571.2c-4.4-1.4-9.2-0.7-12.5,0.1c0.7-1.1,2.3-1.7,2.3-1.7c-2.1,0.1-6.3,3.1-6.3,3.1
			c-30.8-5.2-26.8,37.7-24.2,47.3c2.6,9.6-12.3,37.6-22.6,51.3c-28.8,38.3,17.2,78.1,17.2,78.1c37.3,31.3,20.4-29.4,20.4-29.4
			c-2.3-7.7,25.7-56.7,42.2-73c3.3-7.7,2.5-20.1,2.4-21.1c1.1,9.7,0.6,15.4-0.3,18.7C358.1,626.5,338,575,326.4,571.2z"/>
		<path class="st24" d="M402.9,712.3c0,4.1-2.1,9.5-5.1,14.9c-7.4,13.6-20.4,28.3-20.4,28.3l-7.5-10.7c0,0,4.6-11.3,7.6-20.7
			c1.8-5.6,3.1-10.5,2.5-11.8c-1.6-3.4-34.2-41.9-34.2-41.9l-8.8-29.8c0,0,21.7,1.1,30.9,14.6C377.1,668.7,402.9,701.1,402.9,712.3z
			"/>
		<path class="st4" d="M397.9,727.2c-7.4,13.6-20.4,28.3-20.4,28.3l-7.5-10.7c0,0,4.6-11.3,7.6-20.7
			C381.2,726.3,387.5,728.3,397.9,727.2z"/>
		<polygon class="st4" points="307.9,980.9 315.7,1013.7 327.3,1013.6 327.8,980.9 		"/>
		<polygon class="st4" points="406,982.3 428.2,1013.7 436.8,1002.6 423.5,977.9 		"/>
		<path class="st4" d="M338.5,650.2c0.1,0-9.4,5-16.5,3c-6.7-1.8-11.1-10.5-11-10.5c2.8-0.6,3.7-4.5,3.6-21.2l1.3,0.3l21.5,4.3
			c0,0-0.5,6.8-0.5,13.2C337,644.5,337.3,649.6,338.5,650.2z"/>
		<path class="st25" d="M304,582.8c0,0,8.2-13.2,23.4-5.3C327.4,577.5,319.5,577.8,304,582.8z"/>
		<path class="st26" d="M337.5,626c0,0-0.5,6.8-0.5,13.2c-12.1-0.3-18.4-11.3-21-17.4L337.5,626z"/>
		<path class="st23" d="M311.5,622.5c0,0-8.2-8.5-11.3-16.6c-2.3-5.8-3.7-28.5,19.2-29.8c0,0,6.6-0.7,13.5,2.2
			c5.5,2.3,13.9,7.9,10,28.8l-0.7,6.9L311.5,622.5z"/>
		<path class="st18" d="M434.8,995.4c0,0-5.7,1-10.4,1.3c-1,0.1-2,0.1-2.9,0.1c-2.3,0-6.3-0.9-9.1-1.5h-0.2
			c-1.2-0.3-2.1-0.5-2.5-0.6h-0.1c0,0-28.5-31.8-44.6-82.7c-0.4-1.2-0.8-2.4-1.2-3.6c-8.8-25.6-26.9-57.6-36.5-86.6
			c-1.5-4.6-2.9-9-4.1-13.1c-0.4-1.3-0.8-2.6-1.1-3.9c-7.1-24.5-9.1-40.6-11-57.8l57.6,14.6C368.6,761.6,392.8,866.4,434.8,995.4z"
			/>
		<path class="st4" d="M341.3,629.4c0,0-27.9,6.1-31.4-11.3c-3.5-17.4-9.5-28.3,8.1-33c17.6-4.6,22.5,1.3,25,6.8
			C345.7,597.5,348.4,627.4,341.3,629.4z"/>
		<path class="st23" d="M330.7,582.1c0,0-3.5,22-14.7,27.4c-11.1,5.4-16.9,3.3-16.9,3.3s1.5-9.4,0.9-22.3
			C300,590.5,322.9,573.6,330.7,582.1z"/>
		<path class="st23" d="M329.1,584.2c0,0,6.6,3.4,8.9,7.6c2.3,4.2,4.8,13.2,7.4,12.3c0,0,3-15-5.1-21.6
			C331.7,575.5,329.1,584.2,329.1,584.2z"/>
		<path class="st4" d="M315.3,1011.8c0,0,0.9,6.5-1.5,13.5c0,0-1.9,8.7,6.7,8.9c8.6,0.2,10.7-0.6,9.7-6c-1-5.3-2.8-14.6-2.8-14.6
			L315.3,1011.8z"/>
		<path class="st5" d="M313.8,1025.3c0,0-1.9,9.1-0.9,13.5c0,0,2.9,1,9.1,1c5.9,0,9.4-1,9.4-1s-0.2-9.9-1.8-13.7
			C329.6,1025.1,323.5,1034.2,313.8,1025.3z"/>
		<path class="st4" d="M457.5,1029c0,0-15.8-17.5-20.7-26.5l-11.8,6l26.3,24.7l6.1-0.8L457.5,1029z"/>
		<path class="st5" d="M467.5,1039.3c0,0-17,0-19.9-0.3s-5.3-4.5-8.4-10.8c-1.3-2.6-4.2-4-7.2-4.8l0.1,15.4h-4.7l-4.1-16.3
			c-2.8-5.1-0.2-9.8,1.7-13.9c2.3,0,8.5,1.6,20.1,14.7c3.8,4.3,8.1,5.9,12.3,5.7c0.1,0,0.1,0.1,0.2,0.1
			C467.4,1033.5,467.5,1039.3,467.5,1039.3z"/>
		<path class="st19" d="M424.3,996.8c-1,0.1-2,0.1-2.9,0.1c-2.3,0-6.3-0.9-9.1-1.5h-0.2l-2.5-0.6h-0.1c0,0-28.5-31.8-44.6-82.7
			c-0.4-1.2-0.8-2.4-1.2-3.6c-8.8-25.6-26.9-57.6-36.5-86.6c-1.5-4.6-2.9-9-4.1-13.1c-0.4-1.3-0.8-2.6-1.1-3.9l10.2-7.7
			c0,0,30.6,49.5,40,96.1C380.1,931.7,413.9,981.7,424.3,996.8z"/>
		<path class="st18" d="M333.3,897.4c0.2,22.6-1,74.7-3.9,96.3c0,0-2.8,2.5-9.7,2.5c-7.1,0-10.3-2.6-10.3-2.6
			c-7.4-37.5-12.7-68.5-16.5-95.2c-3.1-21.9-5.9-40.7-8.1-56.9c-1.9-14.3-3.3-26.6-4-37.2c-0.1-1.4-0.2-2.8-0.2-4.2
			c-0.1-1.8-0.1-3.6-0.2-5.3c0-1.7,0-3.4,0-5h0.2l14.3-1.4l45.2-4.4C339.3,823.6,333.2,884.3,333.3,897.4z"/>
		<path class="st19" d="M319.7,996.2c-6,0.3-10.3-2.6-10.3-2.6c-7.4-37.5-12.7-68.5-16.5-95.2c-3.1-21.9-5.9-40.7-8.1-56.9
			c-1.9-14.3-3.3-26.6-4-37.2c-0.1-5.2-0.1-10.2-0.2-14.6c-0.1-4.4-0.1-8.1-0.3-10.7l14.6,9.3l15.3,9.8c0,0-21.7,19.8-16.4,57.1
			C299.2,892.6,312.2,990.9,319.7,996.2z"/>
		<path class="st24" d="M376.6,794c-17.3,4.5-98.2,13.4-98.9-6.9c-0.2-4.9,0-10.9,0.4-17.4c1.2-20,4.5-44.7,6.1-58.3
			c0.7-6.2-1.7-34.2,0.2-49.4c0.3-2.3,0.6-4.2,1.1-5.8c3.5-11.5,19.2-14.6,27.2-14.9l24.3-0.8c0,0,25.1,28,28.6,36.7
			c3.5,8.6,4.6,38.1,7.3,52.4S385,791.8,376.6,794z"/>
		<path class="st27" d="M328.8,725.6c0,0-13.5,41.5-50.7,44.2c1.2-20,4.5-44.7,6.1-58.3c0.7-6.2-1.7-34.2,0.2-49.4
			c0.5,0.1,0.9,0.4,1.4,0.5C326.7,670.5,332.5,716.9,328.8,725.6z"/>
		<g>
			
				<rect x="303.7" y="692.6" transform="matrix(0.1059 -0.9944 0.9944 0.1059 -409.1941 973.4416)" class="st7" width="66.1" height="43.4"/>
			<polygon class="st23" points="318.6,679.1 315.9,678.9 309.4,744.5 311.6,744.8 			"/>
		</g>
		<g>
			<path class="st4" d="M282.2,708.2c0,0,30.5,9.3,59.6,13.5c0,0,9.6,4.2,5.1,5.3c-1.2,0.3-59.5,13-68.1,4.8L282.2,708.2z"/>
			<path class="st24" d="M312.7,641.4c0,0-16,0.1-22.9,7.9c-12.5,14.2-15,74.8-11,82.4c1.7,3.3,14.7,3.5,20.2-12.3
				C301.8,711.2,314.2,656.3,312.7,641.4z"/>
		</g>
		<path class="st4" d="M338.9,721.2c0,0,3.6-0.3,4.3-1.5c1.4-2.3,3.5-2.3,5.3-2.6s3.8-2.3,4.2-1.9c0.4,0.4-1.3,2.6-2.3,3.4
			c0,0,1.9,0.1,3.2-0.5c1.3-0.6,5.1-5.6,5.8-3.5c1.6,5.5-0.1,10.9-4.5,11.3c-4.8,0.5-16.7,2.8-16.7,2.8L338.9,721.2z"/>
	</g>
</g>
<path class="st4" d="M644.2,791.6c-0.4,0-0.9-0.1-1.4-0.1c-0.4,0-0.7,0-0.9-0.1c-3.3-0.3-6.2-0.9-6.2-0.9l-1-3.4
	c-3.6,0.7-13.1,4-13.1,4s-6.8,8.6,1.2,8.5c0.9,0,12.4,5.3,17.9,4.5c5.5-0.9,6.7-8.4,6.3-10.7C646.8,792.1,645.5,791.7,644.2,791.6z"
	/>
<path class="st5" d="M551.7,756.7l-3.2-59.8l-14.9,3.8c3.2-6.2,4.8-10.2,4.8-10.2s18.4,9.8-1.3-31.7
	c-61.3,19.4-93.9,98.4-97.7,110.4c22.2-1.2,40.2-9.6,54.6-20.5c17.7-13.4,42.4-11.2,56.3,6.1C550.7,755.5,551.2,756.1,551.7,756.7z"
	/>
<path class="st7" d="M623.2,796.1c0.4-5.8-0.8-9.7-0.8-9.7s-35.5-29.4-38.5-33.7c-3.1-4.3-10.8-65.9-10.8-65.9s-2.1-24.8-15.4-29.6
	c-11.5-4.2-20.7,0.4-27.2,6.5c-7.7,7.2-10.1,18.5-6.2,28.3c8.8,22,26.6,65.8,32.6,73.7c13.3,17.7,61.4,37.6,61.4,37.6
	S622.8,800.9,623.2,796.1z"/>
<path class="st21" d="M823.4,519.6l-26.6-29.9c5-7.4,9.1-15.6,12.2-24.4c5.5-15.6,7.2-31.6,5.7-47l37.7-13.7L834,353.7l-37.8,13.7
	c-7.7-11.3-17.6-21.2-29.3-29l13.4-37.9l-51.1-18l-13.4,37.9c-20.9-1.9-41.5,2.4-59.6,11.7l-26.8-30l-40.4,36l26.7,29.9
	c-5,7.5-9.2,15.8-12.4,24.7c-5.5,15.5-7.2,31.4-5.7,46.7L560,453l18.5,50.9l37.5-13.6c7.7,11.4,17.7,21.4,29.4,29.3l-13.3,37.6
	l51.1,18l13.3-37.6c21,1.9,41.7-2.5,59.9-11.9l26.6,29.8L823.4,519.6z M684.1,491.5c-34.5-12.2-52.6-50.1-40.5-84.6
	c12.2-34.5,50.1-52.6,84.6-40.5c34.5,12.2,52.6,50.1,40.5,84.6C756.5,485.6,718.6,503.7,684.1,491.5z"/>
<path class="st21" d="M1003,476.8l-16-18c3-4.5,5.5-9.4,7.4-14.7c3.3-9.4,4.4-19,3.4-28.3l22.8-8.2l-11.1-30.7l-22.8,8.3
	c-4.6-6.8-10.6-12.8-17.6-17.5l8.1-22.9l-30.8-10.9l-8.1,22.9c-12.6-1.1-25,1.5-35.9,7.1l-16.1-18.1l-24.4,21.7l16.1,18
	c-3,4.5-5.6,9.5-7.5,14.9c-3.3,9.3-4.3,18.9-3.5,28.2l-22.7,8.2l11.1,30.7l22.6-8.2c4.7,6.9,10.6,12.9,17.7,17.6l-8,22.7l30.8,10.9
	l8-22.7c12.7,1.1,25.1-1.5,36.1-7.2l16,18L1003,476.8z M919,459.9c-20.8-7.4-31.7-30.2-24.4-51c7.4-20.8,30.2-31.7,51-24.4
	c20.8,7.4,31.7,30.2,24.4,51C962.7,456.4,939.9,467.3,919,459.9z"/>
<path class="st21" d="M1048.9,360.3l-6.6-12.2c2.3-2.1,4.3-4.5,6.1-7.2c3.1-4.8,5-10.1,5.7-15.4l13.8-1.6l-2.1-18.7l-13.9,1.6
	c-1.7-4.4-4.2-8.6-7.5-12.2l7.6-11.7l-15.8-10.2l-7.6,11.7c-6.9-2.3-14.2-2.5-21-0.9l-6.6-12.3l-16.6,8.9l6.6,12.3
	c-2.3,2.1-4.4,4.6-6.2,7.3c-3.1,4.8-5,10-5.7,15.3l-13.8,1.6l2.1,18.7l13.8-1.5c1.7,4.5,4.2,8.6,7.6,12.3l-7.5,11.6l15.8,10.2
	l7.5-11.6c6.9,2.3,14.3,2.5,21.2,0.8l6.6,12.2L1048.9,360.3z M1004.2,339.5c-10.7-6.9-13.7-21.2-6.8-31.8
	c6.9-10.7,21.2-13.7,31.8-6.8c10.7,6.9,13.7,21.2,6.8,31.8C1029.1,343.4,1014.8,346.4,1004.2,339.5z"/>
<path class="st21" d="M698.2,294.9l-6.3-23.3c4.7-2.7,9.1-6,13.1-9.9c7.2-6.9,12.4-15.1,15.7-23.8l24,2.8l3.7-32.4l-24.1-2.8
	c-1.1-8.2-3.8-16.2-8-23.5l17.4-16.9L711,141.6l-17.4,16.9c-10.8-6.6-23-9.8-35.3-9.7l-6.4-23.4l-31.5,8.6l6.4,23.3
	c-4.7,2.7-9.2,6-13.3,10c-7.1,6.9-12.3,15-15.6,23.7l-23.9-2.8l-3.7,32.4l23.9,2.7c1.1,8.2,3.8,16.3,8,23.7l-17.3,16.7l22.7,23.5
	l17.3-16.7c10.8,6.7,23.2,9.9,35.5,9.7l6.3,23.2L698.2,294.9z M630.6,242.3c-15.4-15.9-14.9-41.2,0.9-56.5
	c15.9-15.4,41.2-14.9,56.5,0.9c15.4,15.9,14.9,41.2-0.9,56.5C671.3,258.6,645.9,258.2,630.6,242.3z"/>
<g>
	<path class="st28" d="M769.1,431.9h-35.2V425h27.9c-2-10.7-11.4-18.4-22.3-18.3c-9.8,0-16.8,6.9-23.4,15.6l-4.3-6
		c7.2-9.1,15.5-16.5,27.6-16.5c8.4-0.1,16.5,3.3,22.2,9.5c0.9,1.1,1.9,2.2,2.7,3.4L752.2,383l-45.8-19l-45.8,19l-12.9,31.1
		c5.7-8.9,15.6-14.3,26.2-14.2c15,0,24.7,10.7,34.9,25.5s18.3,24.8,30.6,24.8c8.3,0.1,16.1-4.2,20.3-11.3h7.3l2.8-7H769.1
		L769.1,431.9z"/>
	<path class="st29" d="M739.4,457c-15,0-24.3-10.3-34.9-25.5s-18.3-24.7-30.6-24.7c-12.6-0.1-23,9.6-23.1,21.7
		c0.1,12.1,10.5,21.8,23.1,21.7c10,0,17.2-6.9,23.9-15.6l4.3,6.1c-7.3,9.1-15.9,16.4-28.2,16.4c-11.3,0.2-21.8-6-27.2-16l13.9,33.6
		l45.8,19l45.8-19l12.6-30.4C758.9,452.4,749.4,457.2,739.4,457z"/>
	
		<linearGradient id="SVGID_1_" gradientUnits="userSpaceOnUse" x1="706.2" y1="2525.1646" x2="706.2" y2="2672.2283" gradientTransform="matrix(1 0 0 -1 0 3027.4646)">
		<stop  offset="0" style="stop-color:#E73251"/>
		<stop  offset="0.21" style="stop-color:#C6334C"/>
		<stop  offset="0.68" style="stop-color:#733740"/>
		<stop  offset="1" style="stop-color:#383938"/>
	</linearGradient>
	<path class="st30" d="M706.3,502.3l-52-21.5l-21.5-52l21.5-51.9l51.9-21.5l51.9,21.5l21.5,51.9l-21.3,51.9L706.3,502.3z
		 M657.2,477.9l49,20.3l49.1-20.3l20.3-49.1l-20.3-49l-49.1-20.3l-49,20.2l-20.3,49L657.2,477.9z"/>
</g>
<path class="st31" d="M58.4,1037.8h1017.2c1.2,0,2.1,1.3,2.1,3v2.2c0,1.7-0.9,3-2.1,3H58.4c-1.2,0-2.1-1.3-2.1-3v-2.2
	C56.3,1039.2,57.2,1037.8,58.4,1037.8z"/>
</svg>
