<?xml version="1.0" encoding="utf-8"?>
<!-- Generator: Adobe Illustrator 25.2.1, SVG Export Plug-In . SVG Version: 6.00 Build 0)  -->
<svg version="1.1" id="Ñëîé_1" xmlns="http://www.w3.org/2000/svg" xmlns:xlink="http://www.w3.org/1999/xlink" x="0px" y="0px"
	 viewBox="0 0 1133.9 1133.9" style="enable-background:new 0 0 1133.9 1133.9;" xml:space="preserve">
<style type="text/css">
	.st0{fill:#F299A8;}
	.st1{fill:#9C9C9C;}
	.st2{fill:url(#SVGID_1_);}
	.st3{fill:#FF8E4B;}
	.st4{fill:#003B72;}
	.st5{fill:#0C3563;}
	.st6{fill:#C0C0C0;}
	.st7{fill:#A9A6A6;}
	.st8{fill:#A4A8AA;}
	.st9{fill:#FFB079;}
	.st10{fill:#004D99;}
	.st11{fill:#606060;}
	.st12{fill:#E73251;}
	.st13{fill:#FA9960;}
	.st14{fill:#E25345;}
	.st15{fill:#C33F3B;}
	.st16{fill:#D04339;}
	.st17{fill:#EB8D5A;}
	.st18{fill:#FFFFFF;}
	.st19{fill:#8D9192;}
	.st20{fill:#A5A2A2;}
	.st21{fill:#00448C;}
	.st22{fill:#003261;}
	.st23{fill:#FF973D;}
	.st24{fill:#FF7E1C;}
	.st25{fill:#F3C6A6;}
	.st26{fill:#D49D7A;}
	.st27{fill:#039DAE;}
	.st28{fill:#FFB27B;}
	.st29{fill:#1F3765;}
	.st30{fill:#26468D;}
	.st31{fill:#FF9759;}
	.st32{fill:#21B7C0;}
	.st33{fill:#0D458D;}
	.st34{fill:#2F302F;}
	.st35{fill:#2776CE;}
</style>
<g>
	<path class="st0" d="M673.9,760.2h-35.2v-6.9h27.9c-2-10.7-11.4-18.4-22.3-18.3c-9.8,0-16.8,6.9-23.4,15.6l-4.3-6
		c7.2-9.1,15.5-16.5,27.6-16.5c8.4-0.1,16.5,3.3,22.2,9.5c0.9,1.1,1.9,2.2,2.7,3.4L657,711.3l-45.8-19l-45.8,19l-12.9,31.1
		c5.7-8.9,15.6-14.3,26.2-14.2c15,0,24.7,10.7,34.9,25.5s18.3,24.8,30.6,24.8c8.3,0.1,16.1-4.2,20.3-11.3h7.3l2.8-7L673.9,760.2
		L673.9,760.2z"/>
	<path class="st1" d="M644.2,785.3c-15,0-24.3-10.3-34.9-25.5s-18.3-24.7-30.6-24.7c-12.6-0.1-23,9.6-23.1,21.7
		c0.1,12.1,10.5,21.8,23.1,21.7c10,0,17.2-6.9,23.9-15.6l4.3,6.1c-7.3,9.1-15.9,16.4-28.2,16.4c-11.3,0.2-21.8-6-27.2-16l13.9,33.6
		l45.8,19l45.8-19l12.6-30.4C663.7,780.7,654.2,785.5,644.2,785.3z"/>
	
		<linearGradient id="SVGID_1_" gradientUnits="userSpaceOnUse" x1="611" y1="-1065.4" x2="611" y2="-1212.4637" gradientTransform="matrix(1 0 0 1 0 1896)">
		<stop  offset="0" style="stop-color:#E73251"/>
		<stop  offset="0.21" style="stop-color:#F299A8"/>
		<stop  offset="1" style="stop-color:#9C9C9C"/>
	</linearGradient>
	<path class="st2" d="M611.1,830.6l-52-21.5l-21.5-52l21.5-51.9l51.9-21.5l51.9,21.5l21.5,51.9L663.1,809L611.1,830.6z M562,806.2
		l49,20.3l49.1-20.3l20.3-49.1l-20.3-49L611,687.8L562,708l-20.3,49L562,806.2z"/>
</g>
<g>
	<g>
		<path class="st3" d="M217.9,773.9l4.7,3.9c0,0,13-4.6,15.9,10.8c0,0,0.8,6.5-3.4,6.5s-2.5-0.8-8.3-0.6c-5.9,0.2-10.8-2.9-11.7-7.7
			l-2.8-4.1L217.9,773.9z"/>
		<path class="st4" d="M217.4,782.1c3.8-4,3.5-6.8,3.5-6.8s-43.8-35.8-48.2-38.8c-3-2-35.3-30.6-50.4-48c-7.5-8.6-16.8-5.3-27.4-2.3
			l-8.7,2.5c-10.5,3-13.3,17.8-4.6,24.9c24.4,20.2,64.9,42.9,72.5,47.7c18.9,11.8,55.7,26,55.7,26
			C212.5,786,215.2,784.3,217.4,782.1z"/>
		<path class="st5" d="M267.4,1002.6c0,0,10.6,8,26.9,3.8c0,0,13.2-3,16,3.6c0,0-20.2,10.2-25.2,13.1c-3.9,2.3-7.4,4.9-10.7,8.1
			c-2.2,2-5.5,1.8-7.5-0.4c-0.1-0.1-0.1-0.2-0.2-0.2c-0.9-1.1-1.9-2.4-3-3.9c-3.1-4.2-10.3-17.8-10.3-17.8L267.4,1002.6z"/>
		<path class="st6" d="M273.7,998.5c0,0-6.4,15-21.4,12.2c0,0-30.5-25.2-51.5-51.4c-6.8-8.5-12.6-17.1-16-24.9
			c-13.8-32.1-51.4-80.1-75.1-104.3l59.6-21.5c0,0,19,38.4,44.4,85.5C232.1,928,253.6,966.6,273.7,998.5z"/>
		<path class="st7" d="M277.1,715c0.4-3.6,0.5-7.3,0.4-11c-0.1-1.7,0.9-3.2,2.4-3.9l17.6-8.1c1.9-0.9,2.8-3,2.1-5l-6.1-16.7
			c-0.7-1.9-2.7-2.9-4.6-2.5l-17.3,4.3c-1.7,0.4-3.5-0.3-4.4-1.8c-4-6.4-8.9-12.3-14.7-17.2c-1.4-1.2-1.8-3.2-1-4.8l4.8-9.8
			c0.9-1.9,0.3-4.1-1.4-5.2l-14.9-9.5c-1.8-1.1-4.1-0.7-5.4,0.9l-10.4,13.7c-7.6-1.9-15.4-2.6-23.3-2c-1.6,0.1-3.2-0.8-3.9-2.3
			l-6.6-14.2c-0.9-1.9-3.1-2.8-5.1-2.2l-16.4,6c-2,0.8-3.1,2.8-2.7,4.9l3.6,14.5c0.4,1.6-0.3,3.4-1.7,4.3c-4.6,3-8.9,6.5-12.8,10.5
			c-1.2,1.2-3.1,1.6-4.7,0.9l-15.8-7.8c-1.9-0.9-4.2-0.3-5.2,1.5l-9.4,14.9c-1.1,1.8-0.8,4.2,0.9,5.5l15.4,11.8
			c1.3,0.9,1.9,2.7,1.4,4.3c-0.9,3.5-1.6,7.1-2,10.8c-0.2,2-0.4,3.9-0.4,5.9c0,1.6-0.9,3-2.4,3.7l-16.9,7.9c-1.9,0.9-2.7,3-2.1,5
			l6,16.5c0.8,2,2.8,3.1,4.9,2.7l13.7-3.4c1.8-0.5,3.7,0.4,4.5,2.1c3.4,6.5,7.8,12.6,13,17.8c1.2,1.2,1.6,3.1,0.9,4.7l-7,14.3
			c-0.9,1.9-0.3,4.3,1.5,5.4l14.8,9.4c1.8,1.1,4.1,0.8,5.4-0.9l10.2-13.5c1-1.3,2.8-2,4.5-1.4c4,1.1,8.1,2,12.3,2.5
			c2.3,0.3,4.5,0.4,6.8,0.4c1.5,0,2.9,0.9,3.6,2.4l6.6,14.4c0.9,2,3.1,2.8,5.2,2.2l16.4-6c2-0.8,3-2.7,2.6-4.8l-2.8-11.6
			c-0.5-1.8,0.4-3.7,2.1-4.5c8.4-4.4,15.8-10.4,21.9-17.7c1.2-1.4,3.2-1.9,4.9-1l12.8,6.3c1.9,0.9,4.1,0.3,5.2-1.4l9.3-15.3
			c1.1-1.8,0.8-4.2-0.9-5.5l-14.8-11.3c-1.2-0.9-1.8-2.5-1.5-4C276.6,719,276.9,717,277.1,715z M221.4,743.1
			c-37,13.2-67.7-25.2-46.4-58.4c3.2-5,10.3-10.8,15.9-12.8c37-13.6,67.9,24.6,47.1,57.9C234.8,734.9,227.3,741,221.4,743.1z"/>
		<path class="st8" d="M213.8,894.1l-12.9,65.3c-6.8-8.5-12.6-17.1-16-24.9c-13.8-32.1-51.4-80.1-75.1-104.3l59.6-21.5
			C169.2,808.5,188.4,846.9,213.8,894.1z"/>
		<path class="st5" d="M165.1,1011.2c0,0-0.7,11.9,13.7,13.5c0,0,8.7,0.2,8.7,7.8H145c0,0-1.2-3-1.5-9.7c-0.2-5,4.8-18.2,4.8-18.2
			L165.1,1011.2z"/>
		<path class="st6" d="M149.7,808.5c0,0,26.5,29.2,43.4,81.7c9.2,28.6-16.8,100.5-21.9,125.4c0,0-17.4,1.5-29.4-3.1
			c0,0-0.9-51.6,6.1-91.4c3.9-22.3-35-47.6-51.9-87.8c-11.6-27.4,2.6-26.9,19.8-27.6L149.7,808.5z"/>
		<path class="st9" d="M119.1,678.5c-14.8,8.3-45,0.7-45,0.7s12.2-14,6.7-36.7l11.6,5.9l12.4,6.3c0.7,3.7,1.1,7.4,1.3,11.2
			c0.1,1.9,0.3,3.9,0.4,6.2C111.1,673.3,115.3,675.5,119.1,678.5z"/>
		<path class="st10" d="M173.2,807c0,2.6-2.9,3.8-3.6,4c-6,1.1-22.6,7.6-37.5,9c-12.6,1.3-24.4,0.1-37.1-2.6c-1.7-0.4-5.7-1.4-6-3
			c-0.4-1.8-49.7-100.5-11.3-142.8c0.9-0.9,8.4,0.8,15.4,2.5c5.9,1.4,11.9,0.9,17.4-1.4l6.4,3.4c8,4.5,23,20.2,24.8,32.6
			c0.9,6.3,4.5,10.9,5.5,16.5c0.4,2.1,0.8,4.1,1.1,6c0.8,3.8,1.6,7.4,2.5,10.9c2.3,9.4,4.6,17.4,7,24.4c2.5,7.4,4.9,13.6,7.1,18.7
			c2.8,6.6,5.2,11.7,6.7,15.4C172.5,802.6,173,804.8,173.2,807z"/>
		<path class="st4" d="M171.6,800.5C102,767.7,78,704.8,78,704.8s56.5,20.8,70.4,26.2c0.8,3.8,1.6,7.4,2.5,10.9
			c2.3,9.4,4.6,17.4,7,24.4c2.5,7.4,4.9,13.6,7.1,18.7C167.7,791.7,170.1,796.7,171.6,800.5z"/>
		<path class="st9" d="M212.2,781.5l6,2.2c0,0,12-8.5,19.5,5.3c0,0,2.7,6.1-1.6,7.4s-2.7,0.1-8.7,2.1s-11.9,0.6-14.2-3.8l-4.1-3
			L212.2,781.5z"/>
		<path class="st10" d="M217.2,790l3.2-8.4c0,0-45.4-37-50-40.2c-3.1-2.2-34.6-25.6-49.8-43.9c-7.6-9.1-19.5-13.2-31.2-10.8l-9.6,2
			c-7.7,1.6-12.6,9.2-10.9,16.9c0.7,3,2.3,5.8,4.5,7.8c25.2,21.6,67.6,46.5,75.5,51.7c19.6,12.9,63,31,63,31
			C214.4,794.7,216.2,792.6,217.2,790z"/>
		<path class="st3" d="M106.2,665.8c-14.5,0.9-24-11.2-24-11.2c3.5-1.9,6.9-4.1,10.1-6.3l12.4,6.3
			C105.4,658.4,105.9,662.1,106.2,665.8z"/>
		<path class="st9" d="M112.4,650.9c0,0-22,15.8-31.7,1.9c-9.7-13.9-19-21.1-5.3-31.8c13.6-10.7,20.1-7.3,24.4-3.4
			C104.2,621.4,117.9,646.4,112.4,650.9z"/>
		<path class="st5" d="M102.2,605.1c-0.5-3.1-1.3-6.2-2.6-9.1c0,0-1.4,5.7-11.8,4.9s-27,1-32.5,12.9c-0.4,0.8-0.7,1.5-0.9,2.4
			c-0.7-2.2-1.1-4.4-1.2-6.6c-2,5.1,0,11.6,0,11.6l0,0c0,0.2,0,0.4-0.1,0.6c-2.3,2-4.3,8.1-4.3,8.1c0.9-1.6,2.2-2.8,3.9-3.5
			c0,9.3,3.7,18.3,10.3,21c9.7,4,9.6,0.9,19.2,7.4c0,0,2.7-3.2,0.9-5.4c-1.8-2.2-8.4-5.3-4.7-8.5c3.7-3.2,5.1,0.4,6.5-1.8
			s-5.5-8.5,3.3-14.4S103,610.4,102.2,605.1z"/>
	</g>
	<path class="st11" d="M886.4,823.9l-48-29c-4-2.5-6.3-6.9-5.9-11.6c0.5-6,0.8-11.9,0.8-18c0-11.1-0.8-22.1-2.6-33
		c-0.9-5,1.5-10,5.8-12.5l50.2-30.3c5.4-3.2,7.4-10.1,4.5-15.7l-23.6-48.1c-2.7-5.4-9-8-14.7-6l-50.8,18.5c-5,1.9-10.6,0.2-13.7-4.1
		c-14-18.1-30.9-33.9-49.8-46.8c-4.6-3.2-6.4-9.1-4.5-14.3l11.3-30.9c2.1-5.9-0.5-12.5-6.2-15.4l-47.9-23.3c-0.9-0.5-2-0.9-3-1
		c-5-1-10.1,1.2-12.7,5.6l-21.7,35.9l-5.2,8.7c-10-1.4-20.1-2.2-30.2-2.2c-13.6,0-27,1.2-40.3,3.7c-4.9,0.9-10-1.2-12.5-5.6
		L541.3,508c-3.3-5.5-10.3-7.6-16.1-4.7l-36.8,18.1l-10.5,5.2c-5.8,2.8-8.4,9.6-6.3,15.5l15.4,42.5c1.9,4.8,0.4,10.3-3.7,13.6
		c-11.9,9.7-22.8,20.7-32.4,32.7c-0.9,0.9-1.7,2-2.5,3c-0.3,0.4-0.6,0.7-0.9,0.9c-3.4,3.6-8.6,4.8-13.2,3l-50.1-18.2
		c-0.6-0.2-1.1-0.4-1.7-0.5c-5.5-1-11,1.6-13.6,6.6l-23.4,47.7c-2.8,5.8-0.8,12.7,4.7,16l50.1,30.2c4.3,2.6,6.5,7.4,5.7,12.3
		c-1.7,11-2.6,22.1-2.6,33.2c0,6,0.3,11.9,0.8,17.8c0.4,4.7-2,9.4-6.1,11.8L350,824.2c-5.3,3.2-7.3,10-4.5,15.6l23.5,47.6
		c2.8,5.8,9.6,8.5,15.6,6.3l40.2-14.6c5.3-2,11.4,0,14.5,4.7c12.3,18.7,27.5,35.3,44.9,49.3c4.2,3.3,5.8,8.9,3.9,13.9l-16.4,45.2
		c-2.2,6.1,0.6,12.8,6.3,15.6l47.5,23.3c5.7,2.8,12.5,0.8,15.8-4.6l1.3-2.1l25.1-41.7c2.7-4.5,7.8-6.7,12.9-5.8h0.1
		c12.5,2.3,25.2,3.4,37.9,3.3c6.9,0,13.7-0.4,20.5-0.9c4.7-0.5,9.3,1.8,11.7,5.8l24.7,41c3.4,5.6,10.4,7.7,16.3,4.8l47.4-23.3
		c1.3-0.7,2.5-1.5,3.5-2.6c3.2-3.4,4.3-8.3,2.7-12.7L733,958.5c-1.4-4.2-0.7-8.7,2.2-12.1c0.8-0.9,1.6-1.7,2.6-2.4
		c23.9-15.9,44.3-36.5,60.1-60.4c2.7-4.1,7.5-6.2,12.2-5.3c0.7,0.1,1.3,0.3,2,0.6l40.6,14.8c5.9,2.2,12.4-0.5,15.3-6.2l0.6-1.1
		l22.8-46.4C893.9,834.4,891.8,827.2,886.4,823.9z M506.9,732.4c2.5-8.6,5.7-17.1,9.7-25c8-16,27.6-35.7,43.7-43.7
		c1.7-0.9,3.4-1.6,5.1-2.5c104.9-47.2,206.1,55.9,155.2,160.9c-6.6,13.7-21.4,29.9-35.8,39.8c-3.1,2.2-6.3,4.1-9.8,5.8
		c-13.6,6.7-28.3,11.1-43.4,12.9C550.7,889.6,484.1,815.2,506.9,732.4z"/>
	<path class="st12" d="M891.1,986l-10.7-6.4c-0.9-0.6-1.4-1.5-1.3-2.6c0.1-1.3,0.2-2.7,0.2-4c0-2.5-0.2-4.9-0.6-7.4
		c-0.2-1.1,0.3-2.2,1.3-2.8l11.2-6.7c1.2-0.8,1.6-2.3,1-3.5l-5.3-10.7c-0.6-1.2-2-1.8-3.3-1.3l-11.4,4.1c-1.1,0.4-2.4,0-3-0.9
		c-3.1-4.1-6.9-7.6-11.1-10.4c-1-0.8-1.4-2-1-3.2l2.6-6.9c0.5-1.3-0.1-2.7-1.3-3.4l-10.7-5.2c-0.2-0.1-0.5-0.2-0.7-0.2
		c-1.1-0.2-2.3,0.3-2.8,1.2l-4.8,8.1l-1.1,2c-2.3-0.3-4.5-0.5-6.7-0.5c-3,0-6.1,0.3-9,0.9c-1.1,0.2-2.3-0.3-2.8-1.2l-5.4-9
		c-0.8-1.2-2.3-1.7-3.6-1l-8.2,4l-2.4,1.1c-1.2,0.7-1.9,2.1-1.4,3.5l3.4,9.5c0.4,1,0.1,2.3-0.9,3c-2.7,2.2-5.1,4.6-7.2,7.3
		c-0.2,0.2-0.4,0.5-0.6,0.7c-0.1,0.1-0.1,0.2-0.2,0.2c-0.8,0.8-1.9,1-2.9,0.7l-11.1-4.1c-0.1-0.1-0.3-0.1-0.4-0.1
		c-1.2-0.3-2.5,0.4-3,1.5l-5.2,10.6c-0.7,1.3-0.2,2.8,1,3.6l11.2,6.7c0.9,0.6,1.4,1.6,1.2,2.7c-0.4,2.5-0.6,4.9-0.6,7.4
		c0,1.3,0.1,2.7,0.2,4c0.1,1-0.5,2.1-1.3,2.7l-10.8,6.5c-1.2,0.8-1.6,2.3-1,3.5l5.2,10.6c0.7,1.2,2.2,1.9,3.5,1.4l8.9-3.2
		c1.2-0.5,2.6,0,3.2,1c2.7,4.2,6.2,7.9,10,11c0.9,0.8,1.3,2,0.9,3.1l-3.7,10c-0.5,1.3,0.1,2.8,1.4,3.5l10.6,5.2
		c1.2,0.7,2.8,0.2,3.5-1l0.3-0.5l5.6-9.3c0.6-0.9,1.7-1.5,2.8-1.3l0,0c2.8,0.5,5.6,0.8,8.4,0.8c1.5,0,3-0.1,4.5-0.2
		c1-0.1,2.1,0.4,2.7,1.3l5.5,9.2c0.8,1.2,2.4,1.7,3.6,1l10.6-5.2c0.3-0.2,0.6-0.4,0.8-0.6c0.7-0.8,0.9-1.9,0.6-2.8l-2.7-7.6
		c-0.3-0.9-0.2-2,0.5-2.7c0.2-0.2,0.4-0.4,0.6-0.5c5.3-3.6,9.9-8.1,13.5-13.5c0.6-0.9,1.7-1.3,2.7-1.1c0.2,0,0.3,0.1,0.5,0.1
		l9.1,3.3c1.3,0.5,2.7-0.1,3.4-1.3l0.1-0.3l5.1-10.3C892.8,988.3,892.3,986.7,891.1,986z M806.5,965.5c0.6-1.9,1.2-3.8,2.2-5.6
		c2.3-4.1,5.7-7.5,9.8-9.8c0.4-0.2,0.8-0.4,1.1-0.6c23.4-10.5,46.1,12.5,34.7,35.9c-2,3.5-4.6,6.5-8,8.9c-0.7,0.5-1.4,0.9-2.2,1.3
		c-3,1.5-6.3,2.5-9.7,2.8c-14.2,1.6-27.1-8.6-28.7-22.8C805.1,972.3,805.5,968.8,806.5,965.5z"/>
	<path class="st0" d="M695.5,404.8l-17.1-7.9c-1.4-0.7-2.4-2.1-2.4-3.6c0-2-0.2-4-0.4-6c-0.4-3.7-1-7.3-2-10.9
		c-0.5-1.6,0.1-3.3,1.5-4.4l15.6-11.9c1.7-1.2,2.1-3.6,0.9-5.4l-9.6-15.2c-1.1-1.7-3.3-2.4-5.1-1.4l-16.2,8
		c-1.6,0.9-3.5,0.5-4.7-0.9c-5.3-5.5-11.5-10.1-18.3-13.7c-1.6-0.9-2.5-2.7-2.1-4.5l2.7-10.7c0.5-2.1-0.7-4.2-2.6-4.8l-16.8-6.1
		c-0.4-0.1-0.7-0.2-1-0.2c-1.7-0.2-3.3,0.8-4,2.4l-5.9,12.7l-1.4,3.1c-3.4-0.1-6.7,0-10.1,0.4c-4.5,0.5-8.9,1.4-13.3,2.7
		c-1.6,0.5-3.3-0.1-4.4-1.4l-9.5-12.6c-1.3-1.7-3.7-2.1-5.5-0.9l-11.6,7.3l-3.3,2.1c-1.8,1.1-2.5,3.5-1.5,5.4L554,340
		c0.8,1.5,0.5,3.4-0.8,4.6c-3.6,3.7-6.8,7.7-9.6,12c-0.3,0.4-0.5,0.8-0.7,1c-0.1,0.1-0.2,0.3-0.3,0.4c-0.9,1.3-2.7,1.9-4.3,1.5
		l-17.3-4.3c-0.2-0.1-0.4-0.1-0.6-0.1c-1.9-0.2-3.6,0.9-4.3,2.7l-6.1,16.7c-0.8,2,0.2,4.3,2.2,5.1l17.7,8.2c1.5,0.7,2.5,2.3,2.4,3.9
		c-0.2,3.7,0,7.4,0.4,11.1c0.2,2,0.5,4,0.9,5.9c0.3,1.6-0.3,3.1-1.6,4.2l-15,11.5c-1.6,1.2-2.1,3.6-0.9,5.4l9.5,15
		c1.1,1.8,3.5,2.5,5.4,1.5l12.8-6.3c1.7-0.9,3.8-0.4,5,1c4.7,5.8,10.4,10.7,16.7,14.8c1.5,0.9,2.3,2.7,1.8,4.5l-3.8,15.6
		c-0.5,2.1,0.7,4.3,2.7,5l16.6,6c2,0.8,4.2-0.2,5.1-2.1l0.4-0.8l6.8-14.8c0.8-1.6,2.4-2.6,4.1-2.4l0,0c4.3,0.3,8.5,0.2,12.8-0.3
		c2.3-0.3,4.5-0.6,6.8-1c1.5-0.4,3.1,0.3,4.1,1.5l9.8,12.8c1.3,1.7,3.8,2.2,5.6,1l15-9.5c0.4-0.3,0.8-0.6,1-0.9
		c0.9-1.2,1.1-2.9,0.5-4.4l-5.3-10.8c-0.7-1.3-0.5-2.8,0.3-4.1c0.2-0.3,0.5-0.6,0.8-0.9c7.4-6.2,13.5-13.7,17.8-22.3
		c0.8-1.4,2.3-2.3,3.9-2.2c0.2,0,0.5,0.1,0.7,0.1l14,3.4c2.1,0.5,4.2-0.7,4.8-2.6l0.2-0.4l5.9-16.2
		C698.5,407.9,697.5,405.7,695.5,404.8z M566.1,388c0.5-2.9,1.2-5.9,2.3-8.7c2.1-5.6,7.9-12.9,13-16.1c0.6-0.4,1-0.7,1.6-1
		c33.2-19.4,70.6,11.2,57.4,48c-1.7,4.8-6.1,10.7-10.4,14.5c-0.9,0.9-2,1.6-3,2.3c-4.3,2.7-9,4.7-13.9,5.9
		C586.3,438.7,561.4,416.4,566.1,388z"/>
	<path class="st13" d="M676.8,951.3c0.9,1,1.2,2.7,0.7,3.9l0,0c-0.9,2.6-4,5.4-7.6,8.3c-0.5,0.4-0.9,0.7-1.1,0.9l-0.3,0.2l-0.2,0.2
		c-3.3,3.1-2,3.8-8.1,10c-6.7,7-11.4,7.1-12.8,6.5c-1.1-0.6,1.1-4.3,3.7-8.5l0.4-0.6l0.9-1.7c3-5,2.2-7.5,1.4-15
		c-0.6-6.1-9.6-34.2-9.6-34.2l13.1-2.2c0,0,3.9,22.4,8.3,25.8c2.3,1.8,4.9,1.8,7,3.2l0.5,0.3C674.6,949.1,675.7,950.2,676.8,951.3z"
		/>
	<path class="st14" d="M676.8,951.3c0.9,1,1.2,2.7,0.7,3.9l0,0c-1.1,2.6-4.1,5.4-7.6,8.3c-0.5,0.4-0.9,0.7-1.1,1l-0.3,0.2l-0.2,0.2
		c-3.3,3.1-2,3.8-8.1,10c-6.7,7-11.4,7.1-12.8,6.5c-1.1-0.6,1.1-4.3,3.7-8.5c4.7-1.8,8.9-4.9,12-8.9c4.1-5.2,6.7-11.9,9.6-15.7
		l0.5,0.3C674.6,949.1,675.7,950.2,676.8,951.3z"/>
	<path class="st13" d="M571.9,943.2c-0.8,4.1-6.5,3.4-13,1.7c-6.4-1.6-4.8,0.3-14-0.7c-9.2-0.9-11.9-4.4-12-5.8
		c-0.2-1.1,4.3-1.6,9.1-2.1l1.8-0.2c5.4-0.7,9.5-4.2,14.4-7c4.6-2.8,11.7-13.9,11.7-13.9l12.5,0.9c0,0-6.5,10-9.1,14.3
		c-1.4,2.6-1.4,5.9-1.2,8.5C572.1,940.3,572.1,941.7,571.9,943.2z"/>
	<path class="st14" d="M558.9,944.9c-6.4-1.5-4.8,0.3-14-0.7c-9.2-0.9-11.9-4.4-12-5.8c-0.2-1.1,4.3-1.6,9.1-2.1v0.1
		c3.9,2.6,8.4,3.9,13.1,4.1c6.2,0.2,12.8-1.6,17-1.5c0.2,1.4,0.1,2.9-0.1,4.3C571.1,947.1,565.4,946.5,558.9,944.9z"/>
	<path class="st13" d="M599.7,759.8c0,0-3-7.2-6.3-7.6c-3.3-0.3-13.8-1.9-14.4-0.5s0,6.8,2.2,8.8c2.2,1.9,16,5,16,5L599.7,759.8z"/>
	<path class="st15" d="M619.8,863.3l26.8,72.5c2.8,0.2,5.4-0.1,8.2-0.8c2.8-0.9,5.4-2.2,7.9-3.8c0,0-6.6-69.5-18.9-84
		C631.5,832.8,619.8,863.3,619.8,863.3z"/>
	<path class="st14" d="M726.1,834.1c0,0-77.3-26.1-94.6-20.6c-17.4,5.5-69,108.5-69,108.5c1.1,1.2,2.8,2.2,4.4,2.8
		c3,1.1,10.2,1,10.2,1s46.7-40,52.3-51.7c5.5-11.7,7.8-22.9,13.4-21.6s71.8,27.3,86.9,11.7c15.1-15.6,11.1-35.8,11.1-35.8
		L726.1,834.1z"/>
	<path class="st16" d="M679,712.3c-1.2-2.6-2.7-7-3.3-15.2c0.1,0.8,1.4,11,5.4,16.7c16,10.5,47,45.8,46.3,52.6
		c0,0,10.8-18.4,11-18.5c0,0,20-25.4-3.7-40c-12-7.5-12-16.9-11.5-25.1c0.5-8.3-3.3-43.8-27.5-34.5c0,0-3.9-1.7-5.6-1.4
		c0.8,0.2,1.5,0.5,2.1,0.9c-2.8-0.2-6.7,0-10.2,1.9C673.3,654.8,665.3,699.9,679,712.3z"/>
	<path class="st13" d="M682,714.5c-0.1,0,7.8,4.1,13.7,2.6c5.5-1.5,9.2-8.7,9.1-8.7c-2.3-0.5-3-3.7-3-17.6l-1,0.2l-17.9,3.6
		c0,0,0.4,5.6,0.4,10.9C683.3,709.9,683,714.1,682,714.5z"/>
	<path class="st17" d="M682.7,694.5c0,0,0.4,5.6,0.4,10.9c10-0.3,15.3-9.4,17.5-14.5L682.7,694.5z"/>
	<path class="st16" d="M702.5,689c0,0,5.2-8.3,6.4-15.4c0.9-5-1.6-23.8-20.5-21.1c-3.8,0.5-7.5,1.8-10.6,4c-4.1,2.8-10,8.7-3.4,25
		l1.7,5.5L702.5,689z"/>
	<path class="st13" d="M679.5,699.5c0,0,23.7,0.4,23.7-14.3s3.1-24.6-12-25.4c-15.1-0.9-18.1,4.7-19.3,9.7
		C670.8,674.4,673.5,699.1,679.5,699.5z"/>
	<path class="st16" d="M680.4,659.3c0,0,6.4,17.4,16.4,19.8c10,2.6,14.2-0.1,14.2-0.1c-4.9-4.4-8.2-10.2-9.2-16.6
		C701.8,662.4,685.3,651.1,680.4,659.3z"/>
	<path class="st16" d="M682,660.7c0,0-4.8,3.9-6,7.7c-1.1,3.8-1.7,11.5-4,11.2c0,0-4.8-11.7,0.6-18.4
		C678.5,654.1,682,660.7,682,660.7z"/>
	<path class="st6" d="M734.6,778.2c2.3-9.8-5.6-28.7-13.9-44.5c-7.6-14.2-15.3-25.8-16-25.3c-19.8,11.8-21.5,1.9-21.5,1.9
		s-18,2.4-23.1,11.1c-7,12-14.7,48.6-22.3,48c-3.5-0.2-38.3-13.4-38.3-13.4s-5.8,5.4-4.6,12c0,0,17.2,11.5,31.7,18.9
		c7.8,3.9,14.7,6.5,17.9,5.8c6.6-1.5,17-16.9,22.6-26v-0.1c7.1,40.4-2.7,49.6,2.3,53.9c5.2,4.6,12.6-2.1,28.9,4.9
		c10.7,4.6,25.5,11.3,35.6,12.6c5.2,0.6,9.2-0.3,10.4-3.9C748,824.1,730.2,796.8,734.6,778.2z"/>
	<path class="st18" d="M684.7,690.5c0,0-0.5,1.8-5.1,1.5c0,0-3.9-0.2-3.8-2.3C678.9,689,682,689.3,684.7,690.5z"/>
	<path class="st19" d="M667,766.9c-5.6,9.1-15.9,24.4-22.6,26c-3.3,0.8-10.2-1.9-17.9-5.8c5.3,1.2,10.9,1.5,16.3,0.9
		c5.7-0.6,7.5-7.7,16.5-18.2C665.3,763,666.7,764.7,667,766.9z"/>
	<path class="st13" d="M694.7,789.2c0,0-5-3.9-9.8-3c-4.7,0.9-7,4.2-6.8,5.6s2.8,5.6,6.3,6c3.6,0.4,13.9-2.2,13.9-2.2L694.7,789.2z"
		/>
	<path class="st20" d="M704.8,708.4c0,0,19.3,1.1,25.9,10.5c9.4,13.1,25.7,66.5,21.2,78.8l-58.6-0.3c0,0-1.4-6.6,0.6-9.9
		c2-3.2,34.1-8.4,35.6-9.9c1.5-1.4-18.6-29-18.6-33.5C711,739.6,704.8,708.4,704.8,708.4z"/>
	<polygon class="st21" points="676.8,770.8 605.9,770.8 618.6,815.4 689.7,815.4 	"/>
	<rect x="618.9" y="813.7" class="st22" width="92.9" height="1.7"/>
	<path class="st22" d="M646.9,792.4c-0.5-1.6-1.9-2.8-3.7-2.8c-1.1-0.1-2.1,0.9-2.1,1.9c0,0.3,0,0.6,0.2,0.9
		c0.5,1.6,1.9,2.8,3.7,2.8c1.1,0.1,2.1-0.9,2.1-1.9C647,793,647,792.7,646.9,792.4z"/>
	<g>
		<path class="st23" d="M317.9,903.4h109.5c3.9,0,6.9,3.1,6.9,6.9v18.6c0,3.9-3.1,6.9-6.9,6.9H317.9c-3.9,0-6.9-3.1-6.9-6.9v-18.6
			C311,906.6,314.1,903.4,317.9,903.4z"/>
		<path class="st24" d="M434.5,925.6v3.4c0,3.8-3.1,6.9-6.9,6.9H317.9c-3.9,0-6.9-3.1-6.9-6.9v-3.7h121.5
			C433.1,925.3,433.8,925.4,434.5,925.6z"/>
		<path class="st25" d="M337.3,935.9l-4.9,18.7l0,0l-20.6,77.9h-2.2l11.8-64.6c0-0.1,0-0.1,0-0.2l5.9-31.9L337.3,935.9z"/>
		<path class="st26" d="M337.3,935.9l-4.9,18.7l0,0c-0.3,0.2-9.3,4.7-10.8,13.1l5.9-31.9L337.3,935.9z"/>
		<path class="st25" d="M434.5,1032.5h-2.2l-16.8-63.4l0,0l-3.8-14.4l0,0l-4.9-18.7l9.9-0.2l3.3,18.3l2.6,13.6c0,0.1,0,0.1,0,0.2
			L434.5,1032.5z"/>
		<path class="st26" d="M420,954c-2.9,4.5-4.5,9.7-4.5,15.1l-3.8-14.4l0,0l-4.9-18.7l9.9-0.2L420,954z"/>
		<g id="man">
			<path class="st27" d="M295.9,538.5c2.6-2.7,4.3-1.7,4.3-1.7s30.1,23.2,33,24.8c2.8,1.6,42,2.8,42,2.8s15.6-0.2,19.4,7.9
				c3.3,7,0.9,13-2.5,17.4c-4.1,5.2-11,7.5-17.3,5.6c-14.3-4.2-42.8-12.7-48.2-16c-11.8-7.3-33.4-36.3-33.4-36.3
				C293.8,541.4,294.7,539.8,295.9,538.5z"/>
			<path class="st12" d="M328.3,516.1l-15-9c-1.2-0.8-2-2.2-1.8-3.6c0.2-1.9,0.2-3.7,0.2-5.6c0-3.4-0.3-6.9-0.8-10.3
				c-0.3-1.5,0.5-3.1,1.8-3.9l15.7-9.5c1.7-1,2.3-3.1,1.4-4.9l-7.4-15.1c-0.9-1.7-2.8-2.6-4.6-1.9l-15.8,5.8
				c-1.5,0.6-3.3,0.1-4.3-1.2c-4.4-5.7-9.7-10.6-15.5-14.6c-1.4-1-2-2.8-1.4-4.5l3.5-9.7c0.7-1.8-0.2-3.9-1.9-4.7l-15-7.3
				c-0.3-0.2-0.7-0.3-0.9-0.3c-1.6-0.3-3.1,0.4-4,1.8l-6.8,11.2l-1.6,2.7c-3.1-0.5-6.3-0.7-9.5-0.7c-4.3,0-8.4,0.4-12.6,1.1
				c-1.5,0.3-3.1-0.4-3.9-1.7l-7.6-12.6c-1-1.7-3.2-2.4-5-1.5l-11.5,5.7l-3.3,1.6c-1.8,0.9-2.7,2.9-2,4.8l4.8,13.3
				c0.6,1.5,0.1,3.2-1.1,4.3c-3.7,3-7.1,6.4-10.1,10.2c-0.3,0.3-0.5,0.6-0.8,0.9c-0.1,0.1-0.2,0.2-0.3,0.3c-1,1.1-2.7,1.5-4.2,0.9
				l-15.6-5.7c-0.2-0.1-0.4-0.1-0.6-0.2c-1.7-0.4-3.4,0.5-4.3,2l-7.3,14.9c-0.9,1.8-0.2,4,1.5,5l15.6,9.5c1.3,0.8,2,2.3,1.8,3.9
				c-0.6,3.4-0.8,6.9-0.8,10.3c0,1.9,0.1,3.7,0.2,5.6c0.1,1.5-0.6,2.9-1.9,3.7l-15.1,9.1c-1.7,1-2.3,3.1-1.4,4.8l7.3,14.9
				c0.9,1.8,3,2.7,4.8,2l12.5-4.5c1.7-0.7,3.6,0,4.5,1.4c3.9,5.9,8.5,11,14,15.4c1.3,1,1.8,2.7,1.2,4.4l-5.1,14.1
				c-0.7,1.9,0.2,4,2,4.9l14.8,7.3c1.8,0.9,3.9,0.3,4.9-1.4l0.4-0.7l7.9-13.1c0.9-1.4,2.5-2.1,4.1-1.8l0,0c3.9,0.7,7.9,1,11.8,1
				c2.2,0,4.3-0.1,6.4-0.3c1.4-0.2,2.8,0.6,3.7,1.8l7.8,12.8c1,1.8,3.3,2.5,5.1,1.5l14.8-7.3c0.4-0.2,0.8-0.5,1-0.9
				c1-1,1.3-2.6,0.9-4l-3.9-10.6c-0.6-1.7,0-3.5,1.5-4.5c7.5-4.9,13.8-11.4,18.8-18.9c0.9-1.2,2.3-1.9,3.8-1.6
				c0.2,0,0.4,0.1,0.7,0.2l12.7,4.6c1.8,0.7,3.9-0.2,4.7-1.9l0.2-0.4l7.2-14.5C330.7,519.4,330,517.2,328.3,516.1z M209.8,487.5
				c0.8-2.7,1.8-5.3,3-7.9c2.5-5,8.6-11.2,13.6-13.6l1.6-0.8c32.8-14.7,64.4,17.4,48.5,50.2c-2.1,4.3-6.7,9.3-11.2,12.4
				c-0.9,0.7-2,1.2-3,1.8c-4.3,2.1-8.8,3.4-13.6,4C223.5,536.6,202.7,513.4,209.8,487.5z"/>
			<path class="st28" d="M262.6,546.1c0,0,0-11.1-1.7-14.3s-5.8-7.3-8.1-6s-3,12.1-2.3,14c0.7,2,5.9,9.2,5.9,9.2L262.6,546.1z"/>
			<path class="st29" d="M400.3,903.4c2.5-2.1,0.9-14,0.9-14s-12.8-10.2-14.5-2.4c-1.7,7.9-12.1,11.3-18,12.3
				c-4,0.7-5.2,2.7-5.7,4.1L400.3,903.4L400.3,903.4z"/>
			<path class="st30" d="M401.8,890c-11.8,1.8-16.1-0.9-16.1-0.9c0.2-11.7-3.4-37.8-8.3-67.9c-6.4-39.7-15.3-86.1-20.8-114.8
				c-3.2-16.5-5.3-27-5.3-27l9.7-0.2l48.1-0.9c0,0-3.6,53.3-2.7,79.5c0.2,6.3,0.8,11,1.6,13.2C416.1,790.8,401.8,890,401.8,890z"/>
			<path class="st29" d="M406.3,757.8c-6.5,12.2-22.9,43.7-29,63.4c-6.4-39.7-15.3-86.1-20.8-114.8c0.3-10.8,1.6-20.3,4.4-27.2
				l48.1-0.9C408.9,678.2,405.4,731.4,406.3,757.8z"/>
			<path class="st29" d="M359.8,903.4c2.5-2.1,0.9-14,0.9-14s-12.8-10.2-14.5-2.4c-1.7,7.9-12.1,11.3-18,12.3
				c-3.9,0.7-5.2,2.7-5.7,4.1L359.8,903.4L359.8,903.4z"/>
			<path class="st30" d="M330.2,678.2c0,0,18.9,174.8,15.2,210.1c0,0,4.1,3.1,15.9,2.5c0,0,21.6-100.7,17.1-117
				c-3.2-11.4,9.5-91.4,9.5-91.4L330.2,678.2z"/>
			<path class="st28" d="M376.7,553.2c0,0-24,11.9-35.9,6.5c0,0,5-6.4,10.6-9.2c-0.1-2.2-0.2-4.1-0.2-5.8c-0.1-5.7,0.2-8.9,0.2-8.9
				l10.3-7.6l7-5.1c-0.4,2.9-0.5,5.9-0.3,8.8C369.4,545.8,376.7,553.2,376.7,553.2z"/>
			<path class="st31" d="M368.5,532c0,0-5.6,11.2-17.2,12.8c-0.1-5.7,0.2-8.9,0.2-8.9l10.3-7.6C364.2,529.1,366.5,530.3,368.5,532z"
				/>
			<path class="st28" d="M348.7,535.1c0,0,21.5,7.7,26.1-5.8c4.5-13.5,10.4-21.5-3.1-27c-13.6-5.5-18-1.2-20.6,2.9
				S343.2,532.8,348.7,535.1z"/>
			<path class="st32" d="M410.5,678.2c-3.3,7-77.9,6.7-81.6,1.8c-1.5-2-3.2-22.2-4.2-45.5c-0.6-13-0.9-26.9-0.8-39.3
				c0.1-20.3,1.2-36.6,4.1-37.8c16-6.9,25.9-11.4,46.7-10.7c6.4,0.2,12.2,3.9,15.1,9.8c5,10.3,12.1,28.7,12.7,50.4
				C403.3,640.2,414.6,669.4,410.5,678.2z"/>
			<path class="st27" d="M347.9,581.2c0,0-2.4,35-23.3,53.2c-0.6-13-0.9-26.9-0.8-39.3C330.1,586.7,338.4,580.7,347.9,581.2z"/>
			<path class="st32" d="M358.3,547.3c0,0-22.9,0.1-30.1,6.8c-5.1,4.7-38.3,30.9-40.4,30.5s-23.4-42.9-23.4-42.9s-10.5,0.9-12.3,5.5
				c0,0,10,53.2,31.3,64.7c0,0,54.1-10.2,70.1-28.1C361.8,574.5,358.3,547.3,358.3,547.3z"/>
			<path class="st33" d="M349.7,494.7c0,0,1.2,12.9,5.1,16.4c3.9,3.5,2.8,8.3,3.2,9c0.4,0.7,4.5-1.3,5.1-0.2
				c1.6,2.7-0.9,4.7-2.6,5.4c-1.6,0.7,4.1,11.7,8.2,12.1c7.2,0.7,18.3-19.2,19.2-25c1.2-7.7-3.1-19.5-15.4-19
				C353.2,494.3,349.3,490.1,349.7,494.7z"/>
		</g>
	</g>
	<rect x="796.6" y="336" class="st7" width="33.2" height="207.4"/>
	<rect x="852.6" y="278.2" class="st7" width="33.2" height="265.2"/>
	<rect x="912.1" y="386.1" class="st7" width="33.2" height="157.2"/>
	<path class="st7" d="M884.1,238.5H856c-1.6,0.1-2.9,1.5-2.7,3.2c0.1,1.5,1.2,2.6,2.7,2.7h28.1c1.6-0.1,2.9-1.5,2.7-3.2
		C886.7,239.8,885.6,238.7,884.1,238.5L884.1,238.5z"/>
	<path class="st7" d="M862.4,255c1.6-0.1,2.9-1.5,2.7-3.2c-0.1-1.5-1.2-2.6-2.7-2.7h-6.5c-1.6,0.1-2.9,1.5-2.7,3.2
		c0.1,1.5,1.2,2.6,2.7,2.7H862.4z"/>
	<path class="st7" d="M942.8,355.2h-28.1c-1.6,0-2.9,1.4-2.9,2.9l0,0c0,1.6,1.2,2.9,2.9,2.9h28.1c1.6,0,2.9-1.2,2.9-2.9l0,0
		C945.8,356.5,944.5,355.2,942.8,355.2z"/>
	<path class="st7" d="M914.7,371.7h6.5c1.6,0,2.9-1.2,2.9-2.9c0-1.6-1.2-2.9-2.9-2.9h-6.5c-1.6,0-2.9,1.2-2.9,2.9
		C911.8,370.3,913,371.7,914.7,371.7z"/>
	<path class="st34" d="M74.9,1033h1017.2c1.2,0,2.1,1.3,2.1,3v2.2c0,1.7-0.9,3-2.1,3H74.9c-1.2,0-2.1-1.3-2.1-3v-2.2
		C72.8,1034.4,73.7,1033,74.9,1033z"/>
	<path class="st22" d="M966.7,1013.1c0,0,1.1,19.1,4.9,19.4c0.5,0,18.8,0,18.8,0h23.3c0,0-0.2-5.8-7-6.9s-18.2-6-22.4-15
		C980,1001.1,966.7,1013.1,966.7,1013.1z"/>
	<path class="st27" d="M874.4,856c3.3,6.2,7,12.1,11.2,17.8c12.2,17.2,25.6,31.5,28,44.9c0.6,2.9,1.2,5.8,2.2,8.6
		c0.9,3,2.2,6.3,3.6,9.7c5.2,12.6,13,26.7,20.8,39.6c13.5,22.2,26.1,40.7,26.1,40.7l23.1-1.1c-0.9-2.6-11-33.3-24.5-70.7l-17-47
		c-0.8-2.1-1.5-4.2-2.3-6.3c-1.7-4.7-3.4-9.5-5-14C927.9,843,917.8,815,917.8,815s-50.7-21.4-56-7.6
		C857.2,819,860.7,830.2,874.4,856z"/>
	<path class="st5" d="M916.9,992.3c0,0-8.4,7.9-6.8,13.5c1.6,5.6,9.3,9.3,10.3,16.1s5.2,10.5,8.9,10.5H947c0,0,2.7-4.8-3.9-6.3
		c-6.6-1.4-9.1-9.5-8.7-16.9c0.2-5.8,0-11.6-0.7-17.3l-14-3.3L916.9,992.3z"/>
	<path class="st32" d="M924.4,812.5c0,0,53.4,86.5,53.4,93.4c0,15.3-40.4,102.9-40.4,102.9s-21.4-11.3-20.6-19.2
		c0,0,12.9-61.6,16.6-71.5c3.7-9.9-67.5-47.2-71.2-92.2L924.4,812.5z"/>
	<path class="st13" d="M950.7,767.9c0,0,11,6.3,14.1,6.3s15.2-2.4,18.6-0.7s9.5,8.6,10.6,10.9c2.1,4.1-8.3,2.3-13.2-1.2
		c-0.7-0.5-1.6-0.7-2.5-0.5c-2.6,0.6-7.8,1.5-10.3,0.6c-3.4-1.2-21.4-2.7-21.4-2.7L950.7,767.9z"/>
	<path class="st24" d="M866.9,682.7c0,0,11.4,81.1,30.3,88.3c9.3,3.6,50.5,11.8,62.7,12.5c0,0,3-2.4,2.3-12.3
		c0,0-43.2-15.8-49.3-24.4c-9.1-12.8,5.7-52.4-5.8-64.4C895.7,670.3,876.4,665.2,866.9,682.7z"/>
	<path class="st13" d="M911.5,677.6c-15.3,4-40.6-10.2-40.6-10.2s9.8-6.6,13.5-21c0.2-0.8,0.4-1.5,0.5-2.3l7.9-1.7l11.7,10.4
		c-0.4,4-0.9,7.9-1.7,11.8c-0.3,1.3-0.6,2.7-0.9,4.2C905.6,671.1,908.8,674.1,911.5,677.6z"/>
	<path class="st23" d="M854.8,740.8c2.2,29.4-0.7,74.1,1.8,81.8c2.2,6.6,26.5,2.7,36.2,0.5c3.6-0.9,8-2,12.5-3.4
		c12.6-3.9,26.2-9.5,27.8-13.6c0.1-0.2,0.1-0.3,0.1-0.5c0.1-0.6,0.1-1.1,0-1.7c-0.5-2.1-2.4-4.4-2.6-9.6c-0.3-5.8-0.2-12.6-0.4-20
		c0-0.9,0-1.7-0.1-2.6v-0.8c-0.2-8.2-0.7-16.9-1.1-25.4c-0.3-5.4-0.7-10.7-1.1-15.8c-1.1-13.2-2.6-24.8-4.5-32.2
		c-3.2-12-10.2-19.9-16.7-25.7l-4.6-4c-5.7,1.1-11.6,0.3-16.9-2.3c-6-2.8-8.1-4.8-9.1-4.1C862.2,672.2,852.2,704.9,854.8,740.8z"/>
	<path class="st24" d="M905.3,819.7c12.6-3.9,26.2-9.5,27.8-13.6c0.1-0.2,0.1-0.3,0.1-0.5v-1.7c-0.5-2.1-2.4-4.4-2.6-9.6
		c-0.3-5.8-0.2-12.6-0.4-20c0-0.9,0-1.7-0.1-2.6v-0.8l-50.8-64.6C879.2,706.3,845,777.4,905.3,819.7z"/>
	<path class="st17" d="M904.4,652.9c-0.4,4-0.9,7.9-1.7,11.8c-11.4-3.7-16.5-13.9-18.3-18.3c0.2-0.8,0.4-1.5,0.5-2.3l7.9-1.7
		L904.4,652.9z"/>
	<path class="st13" d="M905.9,659.4c0,0-24.8-4.2-22-19.5s1.5-26.3,17.4-24.4c15.9,2,18,8.4,18.3,13.8
		C920,634.8,912.5,660.1,905.9,659.4z"/>
	
		<rect x="983.9" y="761.8" transform="matrix(0.3092 -0.951 0.951 0.3092 -25.081 1491.4155)" class="st35" width="60.3" height="2.3"/>
	
		<rect x="972.3" y="757.7" transform="matrix(2.128915e-02 -0.9998 0.9998 2.128915e-02 164.332 1746.5199)" class="st35" width="3.8" height="63.2"/>
	<path class="st13" d="M943.8,793.6c0,0,20.3,5.3,28,4.7s13.9-4.2,14.9-6.1c0.9-1.9,2.9-5.2-2.2-4.6c-5.2,0.6-12.2,1.7-12.5,0.8
		c-0.2-0.9,4.3-0.9,4.3-0.9s1.3-2-0.4-2s-6.6-1.4-8.4-0.5c-1.8,0.9-3.5,4.3-4.8,4.2c-1.3-0.2-17-7-17-7L943.8,793.6z"/>
	<path class="st23" d="M871.9,686c0,0,2.4,81.9,20.4,91.2c8.9,4.5,48.9,17.2,60.9,19.3c0,0,3.2-2.1,3.6-11.9
		c0,0-41.1-20.5-46.3-29.8c-7.7-13.7,11.4-51.5,1.3-64.7C901.8,676.9,883.3,669.7,871.9,686z"/>
	<path class="st33" d="M884.4,646.3c0,0-0.3-5.3,3-8.3c0,0-1.1-5.3,0.9-6.2c2.1-0.9,2.6,3.6,3.5,2.8s5.2-4,7.1-8.9
		c1.9-4.9,18.7,1,20.6,1.9c1.9,0.9,8.2-2.4,9.5-4.9c-1.8-1.5-3.5-3.1-5-4.9c-1.6-2.1-12.6-16.2-28-12.2s-17.4,11.4-16.6,17.6
		C880.4,629.5,878.1,644.2,884.4,646.3z"/>
</g>
</svg>
