<?xml version="1.0" encoding="utf-8"?>
<!-- Generator: Adobe Illustrator 25.2.1, SVG Export Plug-In . SVG Version: 6.00 Build 0)  -->
<svg version="1.1" id="Ñëîé_1" xmlns="http://www.w3.org/2000/svg" xmlns:xlink="http://www.w3.org/1999/xlink" x="0px" y="0px"
	 viewBox="0 0 1775.8 849.1" style="enable-background:new 0 0 1775.8 849.1;" xml:space="preserve">
<style type="text/css">
	.st0{fill:#F299A8;}
	.st1{fill:#9C9C9C;}
	.st2{fill:url(#SVGID_1_);}
	.st3{fill:#FF8E4B;}
	.st4{fill:#003B72;}
	.st5{fill:#0C3563;}
	.st6{fill:#C0C0C0;}
	.st7{fill:#A9A6A6;}
	.st8{fill:#A4A8AA;}
	.st9{fill:#FFB079;}
	.st10{fill:#004D99;}
	.st11{fill:#003261;}
	.st12{fill:#039DAE;}
	.st13{fill:#21B7C0;}
	.st14{fill:#FA9960;}
	.st15{fill:#FF7E1C;}
	.st16{fill:#FF973D;}
	.st17{fill:#EB8D5A;}
	.st18{fill:#2776CE;}
	.st19{fill:#0D458D;}
	.st20{fill:#606060;}
	.st21{fill:#E73251;}
	.st22{fill:#FACCD4;}
	.st23{fill:#F7B8C2;enable-background:new    ;}
	.st24{fill:#E25345;}
	.st25{fill:#C33F3B;}
	.st26{fill:#D04339;}
	.st27{fill:#FFFFFF;}
	.st28{fill:#A5A2A2;}
	.st29{fill:#00448C;}
	.st30{fill:#F3C6A6;}
	.st31{fill:#D49D7A;}
	.st32{fill:#FFB27B;}
	.st33{fill:#1F3765;}
	.st34{fill:#26468D;}
	.st35{fill:#FF9759;}
	.st36{fill:#B8AFB0;}
	.st37{fill:#2F302F;}
</style>
<g>
	<path class="st0" d="M1010.2,510.2h-36.6V503h29c-2.1-11.1-11.9-19.1-23.2-19c-10.2,0-17.5,7.2-24.3,16.2l-4.5-6.2
		c7.5-9.5,16.1-17.2,28.7-17.2c8.7-0.1,17.2,3.4,23.1,9.9c0.9,1.1,2,2.3,2.8,3.5l-12.6-30.9L945,439.6l-47.6,19.8l-13.4,32.3
		c5.9-9.3,16.2-14.9,27.2-14.8c15.6,0,25.7,11.1,36.3,26.5s19,25.8,31.8,25.8c8.6,0.1,16.7-4.4,21.1-11.8h7.6l2.9-7.3L1010.2,510.2
		L1010.2,510.2z"/>
	<path class="st1" d="M979.3,536.3c-15.6,0-25.3-10.7-36.3-26.5c-11-15.8-19-25.7-31.8-25.7c-13.1-0.1-23.9,10-24,22.6
		c0.1,12.6,10.9,22.7,24,22.6c10.4,0,17.9-7.2,24.9-16.2l4.5,6.3c-7.6,9.5-16.5,17.1-29.3,17.1c-11.8,0.2-22.7-6.2-28.3-16.6
		l14.5,34.9l47.6,19.8l47.6-19.8l13.1-31.6C999.6,531.5,989.7,536.5,979.3,536.3z"/>
	
		<linearGradient id="SVGID_1_" gradientUnits="userSpaceOnUse" x1="944.782" y1="2160.0227" x2="944.782" y2="2312.9736" gradientTransform="matrix(1 0 0 -1 0 2743.4646)">
		<stop  offset="0" style="stop-color:#E73251"/>
		<stop  offset="0.21" style="stop-color:#F299A8"/>
		<stop  offset="1" style="stop-color:#9C9C9C"/>
	</linearGradient>
	<path class="st2" d="M944.9,583.4l-54.1-22.4L868.4,507l22.4-54l54-22.4l54,22.4l22.4,54L999,561L944.9,583.4z M893.8,558.1
		l51,21.1l51.1-21.1L1017,507l-21.1-51l-51.1-21.1l-51,21l-21.1,51L893.8,558.1z"/>
</g>
<path class="st3" d="M380.3,514l5,4.1c0,0,13.7-4.9,16.8,11.4c0,0,0.8,6.9-3.6,6.9s-2.6-0.8-8.8-0.6s-11.4-3.1-12.3-8.1l-3-4.3
	L380.3,514z"/>
<path class="st4" d="M379.7,522.7c4-4.2,3.7-7.2,3.7-7.2s-46.2-37.8-50.9-40.9c-3.2-2.1-37.2-32.3-53.2-50.7
	c-7.9-9.1-17.7-5.6-28.9-2.4l-9.2,2.6c-11.1,3.2-14,18.8-4.9,26.3c25.7,21.3,68.5,45.3,76.5,50.3c19.9,12.5,58.8,27.4,58.8,27.4
	C374.6,526.8,377.4,525,379.7,522.7z"/>
<path class="st5" d="M432.5,755.3c0,0,11.2,8.4,28.4,4c0,0,13.9-3.2,16.9,3.8c0,0-21.3,10.8-26.6,13.8c-4.1,2.4-7.8,5.2-11.3,8.5
	c-2.3,2.1-5.8,1.9-7.9-0.4c-0.1-0.1-0.1-0.2-0.2-0.2c-0.9-1.2-2-2.5-3.2-4.1c-3.3-4.4-10.9-18.8-10.9-18.8L432.5,755.3z"/>
<path class="st6" d="M439.1,751c0,0-6.8,15.8-22.6,12.9c0,0-32.2-26.6-54.3-54.2c-7.2-9-13.3-18-16.9-26.3
	c-14.6-33.9-54.2-84.5-79.3-110.1l62.9-22.7c0,0,20.1,40.5,46.9,90.2C395.2,676.6,417.9,717.3,439.1,751z"/>
<path class="st7" d="M442.7,451.9c0.4-3.8,0.5-7.7,0.4-11.6c-0.1-1.8,0.9-3.4,2.5-4.1l18.6-8.6c2-0.9,3-3.2,2.2-5.3l-6.4-17.6
	c-0.7-2-2.8-3.1-4.9-2.6l-18.3,4.5c-1.8,0.4-3.7-0.3-4.6-1.9c-4.2-6.8-9.4-13-15.5-18.1c-1.5-1.3-1.9-3.4-1.1-5.1l5.1-10.3
	c1-2,0.3-4.3-1.5-5.5l-15.7-10c-1.9-1.2-4.3-0.7-5.7,1l-11,14.5c-8-2-16.3-2.7-24.6-2.1c-1.7,0.1-3.4-0.8-4.1-2.4l-7-15
	c-0.9-2-3.3-3-5.4-2.3l-17.3,6.3c-2.1,0.8-3.3,3-2.8,5.2l3.8,15.3c0.4,1.7-0.3,3.6-1.8,4.5c-4.9,3.2-9.4,6.9-13.5,11.1
	c-1.3,1.3-3.3,1.7-5,0.9l-16.7-8.2c-2-1-4.4-0.3-5.5,1.6l-9.9,15.7c-1.2,1.9-0.8,4.4,1,5.8l16.3,12.4c1.4,1,2,2.8,1.5,4.5
	c-1,3.7-1.7,7.5-2.1,11.4c-0.2,2.1-0.4,4.1-0.4,6.2c0,1.7-1,3.2-2.5,3.9l-17.8,8.3c-2,0.9-2.9,3.2-2.2,5.3l6.3,17.4
	c0.8,2.1,3,3.3,5.2,2.8l14.5-3.6c1.9-0.5,3.9,0.4,4.8,2.2c3.6,6.9,8.2,13.3,13.7,18.8c1.3,1.3,1.7,3.3,0.9,5l-7.4,15.1
	c-1,2-0.3,4.5,1.6,5.7l15.6,9.9c1.9,1.2,4.3,0.8,5.7-1l10.8-14.2c1.1-1.4,3-2.1,4.7-1.5c4.2,1.2,8.6,2.1,13,2.6
	c2.4,0.3,4.8,0.4,7.2,0.4c1.6,0,3.1,1,3.8,2.5l7,15.2c1,2.1,3.3,3,5.5,2.3l17.3-6.3c2.1-0.8,3.2-2.9,2.7-5.1l-3-12.2
	c-0.5-1.9,0.4-3.9,2.2-4.8c8.9-4.6,16.7-11,23.1-18.7c1.3-1.5,3.4-2,5.2-1.1l13.5,6.6c2,1,4.3,0.3,5.5-1.5L460,480
	c1.2-1.9,0.8-4.4-1-5.8l-15.6-11.9c-1.3-1-1.9-2.6-1.6-4.2C442.2,456.1,442.5,454,442.7,451.9z M384,481.5
	c-39,13.9-71.4-26.6-49-61.6c3.4-5.3,10.9-11.4,16.8-13.5c39-14.4,71.7,26,49.7,61.1C398.1,472.9,390.2,479.3,384,481.5z"/>
<path class="st8" d="M375.9,640.8l-13.6,68.9c-7.2-9-13.3-18-16.9-26.3c-14.6-33.9-54.2-84.5-79.3-110.1l62.9-22.7
	C328.9,550.5,349.1,591,375.9,640.8z"/>
<path class="st5" d="M324.5,764.4c0,0-0.7,12.6,14.5,14.2c0,0,9.2,0.2,9.2,8.2h-44.8c0,0-1.3-3.2-1.6-10.2
	c-0.2-5.3,5.1-19.2,5.1-19.2L324.5,764.4z"/>
<path class="st6" d="M308.3,550.5c0,0,28,30.8,45.8,86.2c9.7,30.2-17.7,106-23.1,132.3c0,0-18.4,1.6-31-3.3c0,0-1-54.4,6.4-96.4
	c4.1-23.5-36.9-50.2-54.8-92.6c-12.2-28.9,2.7-28.4,20.9-29.1L308.3,550.5z"/>
<path class="st9" d="M276,413.3c-15.6,8.8-47.5,0.7-47.5,0.7s12.9-14.8,7.1-38.7l12.2,6.2l13.1,6.7c0.7,3.9,1.2,7.8,1.4,11.8
	c0.1,2,0.3,4.1,0.4,6.5C267.6,407.9,272,410.2,276,413.3z"/>
<path class="st10" d="M333.1,548.9c0,2.7-3.1,4-3.8,4.2c-6.3,1.2-23.8,8-39.6,9.5c-13.3,1.4-25.7,0.1-39.2-2.7
	c-1.8-0.4-6-1.5-6.3-3.2c-0.4-1.9-52.4-106-11.9-150.7c0.9-1,8.9,0.8,16.2,2.6c6.2,1.5,12.6,0.9,18.4-1.5l6.8,3.6
	c8.4,4.7,24.3,21.3,26.2,34.4c0.9,6.6,4.7,11.5,5.8,17.4c0.4,2.2,0.8,4.3,1.2,6.3c0.8,4,1.7,7.8,2.6,11.5c2.4,9.9,4.9,18.4,7.4,25.7
	c2.6,7.8,5.2,14.3,7.5,19.7c3,7,5.5,12.3,7.1,16.3C332.4,544.3,332.9,546.6,333.1,548.9z"/>
<path class="st4" d="M331.4,542.1c-73.4-34.6-98.8-101-98.8-101s59.6,22,74.3,27.7c0.8,4,1.7,7.8,2.6,11.5
	c2.4,9.9,4.9,18.4,7.4,25.7c2.6,7.8,5.2,14.3,7.5,19.7C327.3,532.8,329.8,538.1,331.4,542.1z"/>
<path class="st9" d="M374.3,522l6.3,2.3c0,0,12.7-9,20.6,5.6c0,0,2.9,6.4-1.7,7.8s-2.9,0.1-9.2,2.2s-12.6,0.6-15-4l-4.3-3.2
	L374.3,522z"/>
<path class="st10" d="M379.5,531l3.4-8.9c0,0-47.9-39-52.8-42.4c-3.3-2.3-36.5-27-52.6-46.3c-8-9.6-20.6-13.9-32.9-11.4l-10.1,2.1
	c-8.1,1.7-13.3,9.7-11.5,17.8c0.7,3.2,2.4,6.1,4.8,8.2c26.6,22.8,71.3,49.1,79.7,54.6c20.7,13.6,66.5,32.7,66.5,32.7
	C376.6,536,378.5,533.7,379.5,531z"/>
<path class="st3" d="M262.4,399.9c-15.3,0.9-25.3-11.8-25.3-11.8c3.7-2,7.3-4.3,10.7-6.7l13.1,6.7
	C261.6,392.1,262.1,396,262.4,399.9z"/>
<path class="st9" d="M268.9,384.2c0,0-23.2,16.7-33.4,2s-20-22.3-5.6-33.6s21.2-7.7,25.8-3.6C260.3,353.1,274.7,379.5,268.9,384.2z"
	/>
<path class="st5" d="M258.2,335.9c-0.5-3.3-1.4-6.5-2.7-9.6c0,0-1.5,6-12.5,5.2s-28.5,1.1-34.3,13.6c-0.4,0.8-0.7,1.6-1,2.5
	c-0.7-2.3-1.2-4.6-1.3-7c-2.1,5.4,0,12.2,0,12.2l0,0c0,0.2,0,0.4-0.1,0.6c-2.4,2.1-4.5,8.5-4.5,8.5c0.9-1.7,2.3-3,4.1-3.7
	c0,9.8,3.9,19.3,10.9,22.2c10.2,4.2,10.1,1,20.3,7.8c0,0,2.8-3.4,0.9-5.7s-8.9-5.6-5-9s5.4,0.4,6.9-1.9s-5.8-9,3.5-15.2
	S259,341.5,258.2,335.9z"/>
<path class="st11" d="M1340.3,766.4c0,0,1.2,20.2,5.2,20.5c0.5,0,19.8,0,19.8,0h24.6c0,0-0.2-6.1-7.4-7.3s-19.2-6.3-23.6-15.8
	C1354.3,753.8,1340.3,766.4,1340.3,766.4z"/>
<path class="st12" d="M1242.9,600.6c3.5,6.5,7.4,12.8,11.8,18.8c12.9,18.2,27,33.2,29.5,47.4c0.6,3.1,1.3,6.1,2.3,9.1
	c1,3.2,2.3,6.7,3.8,10.2c5.5,13.3,13.7,28.2,21.9,41.8c14.2,23.4,27.5,43,27.5,43l24.4-1.2c-1-2.7-11.6-35.1-25.9-74.6l-17.9-49.6
	c-0.8-2.2-1.6-4.4-2.4-6.6c-1.8-5-3.6-10-5.3-14.8c-13.4-37.1-24.1-66.7-24.1-66.7s-53.5-22.6-59.1-8
	C1224.8,561.6,1228.5,573.4,1242.9,600.6z"/>
<path class="st5" d="M1287.8,744.5c0,0-8.9,8.3-7.2,14.2s9.8,9.8,10.9,17s5.5,11.1,9.4,11.1h18.7c0,0,2.9-5.1-4.1-6.6
	s-9.6-10-9.2-17.8c0.2-6.1,0-12.2-0.7-18.3l-14.8-3.5L1287.8,744.5z"/>
<path class="st13" d="M1295.7,554.7c0,0,56.3,91.3,56.3,98.6c0,16.1-42.6,108.6-42.6,108.6s-22.6-11.9-21.7-20.3
	c0,0,13.6-65,17.5-75.4s-71.2-49.8-75.1-97.3L1295.7,554.7z"/>
<path class="st14" d="M1323.4,507.7c0,0,11.6,6.6,14.9,6.6s16-2.5,19.6-0.7s10,9.1,11.2,11.5c2.2,4.3-8.8,2.4-13.9-1.3
	c-0.7-0.5-1.7-0.7-2.6-0.5c-2.7,0.6-8.2,1.6-10.9,0.6c-3.6-1.3-22.6-2.8-22.6-2.8L1323.4,507.7z"/>
<path class="st15" d="M1235,417.8c0,0,12,85.6,32,93.2c9.8,3.8,53.3,12.4,66.2,13.2c0,0,3.2-2.5,2.4-13c0,0-45.6-16.7-52-25.8
	c-9.6-13.5,6-55.3-6.1-68S1245,399.3,1235,417.8z"/>
<path class="st14" d="M1282.1,412.4c-16.1,4.2-42.8-10.8-42.8-10.8s10.3-7,14.2-22.2c0.2-0.8,0.4-1.6,0.5-2.4l8.3-1.8l12.3,11
	c-0.4,4.2-1,8.3-1.8,12.4c-0.3,1.4-0.6,2.8-0.9,4.4C1275.8,405.5,1279.2,408.7,1282.1,412.4z"/>
<path class="st16" d="M1222.2,479.1c2.3,31-0.7,78.2,1.9,86.3c2.3,7,28,2.9,38.2,0.5c3.8-0.9,8.4-2.1,13.2-3.6
	c13.3-4.1,27.7-10,29.3-14.3c0.1-0.2,0.1-0.3,0.1-0.5c0.1-0.6,0.1-1.2,0-1.8c-0.5-2.2-2.5-4.6-2.7-10.1c-0.3-6.1-0.2-13.3-0.4-21.1
	c0-0.9,0-1.8-0.1-2.7V511c-0.2-8.7-0.7-17.8-1.2-26.8c-0.3-5.7-0.7-11.3-1.2-16.7c-1.2-13.9-2.7-26.2-4.8-34
	c-3.4-12.7-10.8-21-17.6-27.1l-4.9-4.2c-6,1.2-12.2,0.3-17.8-2.4c-6.3-3-8.5-5.1-9.6-4.3C1230,406.7,1219.5,441.2,1222.2,479.1z"/>
<path class="st15" d="M1275.5,562.3c13.3-4.1,27.7-10,29.3-14.3c0.1-0.2,0.1-0.3,0.1-0.5v-1.8c-0.5-2.2-2.5-4.6-2.7-10.1
	c-0.3-6.1-0.2-13.3-0.4-21.1c0-0.9,0-1.8-0.1-2.7V511l-53.6-68.2C1248,442.7,1211.9,517.7,1275.5,562.3z"/>
<path class="st17" d="M1274.6,386.3c-0.4,4.2-1,8.3-1.8,12.4c-12-3.9-17.4-14.7-19.3-19.3c0.2-0.8,0.4-1.6,0.5-2.4l8.3-1.8
	L1274.6,386.3z"/>
<path class="st14" d="M1276.2,393.2c0,0-26.2-4.4-23.2-20.6s1.6-27.8,18.4-25.7s19,8.9,19.3,14.6S1283.1,393.9,1276.2,393.2z"/>
<rect x="1358.4" y="501.3" transform="matrix(0.3092 -0.951 0.951 0.3092 482.4907 1669.2181)" class="st18" width="63.6" height="2.4"/>
<rect x="1346.2" y="497.1" transform="matrix(2.129086e-02 -0.9998 0.9998 2.129086e-02 789.2336 1867.0464)" class="st18" width="4" height="66.7"/>
<path class="st14" d="M1316.2,534.8c0,0,21.4,5.6,29.5,5s14.7-4.4,15.7-6.4s3.1-5.5-2.3-4.9c-5.5,0.6-12.9,1.8-13.2,0.8
	c-0.2-1,4.5-1,4.5-1s1.4-2.1-0.4-2.1s-7-1.5-8.9-0.5s-3.7,4.5-5.1,4.4c-1.4-0.2-17.9-7.4-17.9-7.4L1316.2,534.8z"/>
<path class="st16" d="M1240.3,421.3c0,0,2.5,86.4,21.5,96.2c9.4,4.8,51.6,18.2,64.3,20.4c0,0,3.4-2.2,3.8-12.6
	c0,0-43.4-21.6-48.9-31.4c-8.1-14.5,12-54.3,1.4-68.3S1252.3,404,1240.3,421.3z"/>
<path class="st19" d="M1253.5,379.4c0,0-0.3-5.6,3.2-8.8c0,0-1.2-5.6,1-6.5s2.7,3.8,3.7,3s5.5-4.2,7.5-9.4s19.7,1.1,21.7,2
	s8.7-2.5,10-5.2c-1.9-1.6-3.7-3.3-5.3-5.2c-1.7-2.2-13.3-17.1-29.5-12.9s-18.4,12-17.5,18.6S1246.8,377.1,1253.5,379.4z"/>
<path class="st20" d="M1227.6,566.8l-50.7-30.6c-4.2-2.6-6.6-7.3-6.2-12.2c0.5-6.3,0.8-12.6,0.8-19c0-11.7-0.8-23.3-2.7-34.8
	c-0.9-5.3,1.6-10.5,6.1-13.2l53-32c5.7-3.4,7.8-10.7,4.8-16.6l-24.9-50.8c-2.8-5.7-9.5-8.4-15.5-6.3l-53.6,19.5
	c-5.3,2-11.2,0.2-14.5-4.3c-14.8-19.1-32.6-35.8-52.6-49.4c-4.9-3.4-6.8-9.6-4.8-15.1l11.9-32.6c2.2-6.2-0.5-13.2-6.5-16.2
	l-50.5-24.6c-1-0.5-2.1-0.9-3.2-1.1c-5.3-1.1-10.7,1.3-13.4,5.9l-22.9,37.9l-5.5,9.2c-10.6-1.5-21.2-2.3-31.9-2.3
	c-14.3,0-28.5,1.3-42.5,3.9c-5.2,1-10.5-1.3-13.2-5.9l-25.7-42.7c-3.5-5.8-10.9-8-17-5l-38.8,19.1l-11.1,5.5
	c-6.1,3-8.9,10.1-6.6,16.4l16.2,44.8c2,5.1,0.4,10.9-3.9,14.4c-12.6,10.2-24.1,21.8-34.2,34.5c-0.9,1-1.8,2.1-2.6,3.2
	c-0.3,0.4-0.6,0.7-0.9,1c-3.6,3.8-9.1,5.1-13.9,3.2l-52.9-19.2c-0.6-0.2-1.2-0.4-1.8-0.5c-5.8-1.1-11.6,1.7-14.3,7l-24.7,50.3
	c-3,6.1-0.8,13.4,5,16.9l52.9,31.9c4.5,2.7,6.9,7.8,6,13c-1.8,11.6-2.7,23.3-2.7,35c0,6.3,0.3,12.6,0.8,18.8c0.4,5-2.1,9.9-6.4,12.5
	l-50.9,30.8c-5.6,3.4-7.7,10.6-4.8,16.5l24.8,50.2c3,6.1,10.1,9,16.5,6.7l42.4-15.4c5.6-2.1,12,0,15.3,5c13,19.7,29,37.2,47.4,52
	c4.4,3.5,6.1,9.4,4.1,14.7L790,744.5c-2.3,6.4,0.6,13.5,6.7,16.5l50.1,24.6c6,3,13.2,0.8,16.7-4.9l1.4-2.2l26.5-44
	c2.8-4.7,8.2-7.1,13.6-6.1h0.1c13.2,2.4,26.6,3.6,40,3.5c7.3,0,14.5-0.4,21.6-1c5-0.5,9.8,1.9,12.3,6.1l26.1,43.3
	c3.6,5.9,11,8.1,17.2,5.1l50-24.6c1.4-0.7,2.6-1.6,3.7-2.7c3.4-3.6,4.5-8.8,2.8-13.4l-13.1-35.7c-1.5-4.4-0.7-9.2,2.3-12.8
	c0.8-0.9,1.7-1.8,2.7-2.5c25.2-16.8,46.7-38.5,63.4-63.7c2.8-4.3,7.9-6.5,12.9-5.6c0.7,0.1,1.4,0.3,2.1,0.6l42.8,15.6
	c6.2,2.3,13.1-0.5,16.1-6.5l0.6-1.2l24.1-49C1235.6,577.8,1233.4,570.3,1227.6,566.8z M827.2,470.2c2.6-9.1,6-18,10.2-26.4
	c8.4-16.9,29.1-37.7,46.1-46.1c1.8-0.9,3.6-1.7,5.4-2.6c110.7-49.8,217.5,59,163.8,169.8c-7,14.5-22.6,31.5-37.8,42
	c-3.3,2.3-6.7,4.3-10.3,6.1c-14.4,7.1-29.9,11.7-45.8,13.6C873.4,636.1,803.1,557.6,827.2,470.2z"/>
<path class="st21" d="M1232.6,737.8l-11.3-6.8c-0.9-0.6-1.5-1.6-1.4-2.7c0.1-1.4,0.2-2.8,0.2-4.2c0-2.6-0.2-5.2-0.6-7.8
	c-0.2-1.2,0.3-2.3,1.4-3l11.8-7.1c1.3-0.8,1.7-2.4,1.1-3.7l-5.6-11.3c-0.6-1.3-2.1-1.9-3.5-1.4l-12,4.3c-1.2,0.4-2.5,0-3.2-1
	c-3.3-4.3-7.3-8-11.7-11c-1.1-0.8-1.5-2.1-1.1-3.4l2.7-7.3c0.5-1.4-0.1-2.9-1.4-3.6l-11.3-5.5c-0.2-0.1-0.5-0.2-0.7-0.2
	c-1.2-0.2-2.4,0.3-3,1.3l-5.1,8.5l-1.2,2.1c-2.4-0.3-4.7-0.5-7.1-0.5c-3.2,0-6.4,0.3-9.5,0.9c-1.2,0.2-2.4-0.3-3-1.3l-5.7-9.5
	c-0.8-1.3-2.4-1.8-3.8-1.1l-8.7,4.2l-2.5,1.2c-1.3,0.7-2,2.2-1.5,3.7l3.6,10c0.4,1.1,0.1,2.4-0.9,3.2c-2.8,2.3-5.4,4.9-7.6,7.7
	c-0.2,0.2-0.4,0.5-0.6,0.7c-0.1,0.1-0.1,0.2-0.2,0.2c-0.8,0.8-2,1.1-3.1,0.7l-11.7-4.3c-0.1-0.1-0.3-0.1-0.4-0.1
	c-1.3-0.3-2.6,0.4-3.2,1.6l-5.5,11.2c-0.7,1.4-0.2,3,1.1,3.8l11.8,7.1c1,0.6,1.5,1.7,1.3,2.9c-0.4,2.6-0.6,5.2-0.6,7.8
	c0,1.4,0.1,2.8,0.2,4.2c0.1,1.1-0.5,2.2-1.4,2.8l-11.4,6.9c-1.3,0.8-1.7,2.4-1.1,3.7l5.5,11.2c0.7,1.3,2.3,2,3.7,1.5l9.4-3.4
	c1.3-0.5,2.7,0,3.4,1.1c2.9,4.4,6.5,8.3,10.6,11.6c1,0.8,1.4,2.1,0.9,3.3l-3.9,10.6c-0.5,1.4,0.1,3,1.5,3.7l11.2,5.5
	c1.3,0.7,3,0.2,3.7-1.1l0.3-0.5l5.9-9.8c0.6-1,1.8-1.6,3-1.4l0,0c3,0.5,5.9,0.8,8.9,0.8c1.6,0,3.2-0.1,4.8-0.2
	c1.1-0.1,2.2,0.4,2.8,1.4l5.8,9.7c0.8,1.3,2.5,1.8,3.8,1.1l11.2-5.5c0.3-0.2,0.6-0.4,0.8-0.6c0.7-0.8,1-2,0.6-3l-2.9-8
	c-0.3-1-0.2-2.1,0.5-2.9c0.2-0.2,0.4-0.4,0.6-0.5c5.6-3.8,10.4-8.6,14.2-14.2c0.6-1,1.8-1.4,2.9-1.2c0.2,0,0.3,0.1,0.5,0.1l9.6,3.5
	c1.4,0.5,2.9-0.1,3.6-1.4l0.1-0.3l5.4-10.9C1234.4,740.2,1233.9,738.6,1232.6,737.8z M1143.3,716.2c0.6-2,1.3-4,2.3-5.9
	c2.4-4.3,6-7.9,10.3-10.3c0.4-0.2,0.8-0.4,1.2-0.6c24.7-11.1,48.6,13.2,36.6,37.9c-2.1,3.7-4.9,6.9-8.4,9.4c-0.7,0.5-1.5,1-2.3,1.4
	c-3.2,1.6-6.7,2.6-10.2,3c-15,1.7-28.6-9.1-30.3-24.1C1141.9,723.4,1142.3,719.7,1143.3,716.2z"/>
<g>
	<path class="st22" d="M1603.9,526.7l-17-10.2c-1.4-0.9-2.2-2.4-2.1-4.1c0.2-2.1,0.3-4.2,0.3-6.3c0-3.9-0.3-7.8-0.9-11.6
		c-0.3-1.7,0.5-3.5,2-4.4l17.7-10.7c1.9-1.1,2.6-3.6,1.6-5.6l-8.3-17c-0.9-1.9-3.2-2.8-5.2-2.1l-17.9,6.5c-1.8,0.7-3.7,0.1-4.9-1.4
		c-5-6.4-10.9-12-17.6-16.5c-1.6-1.1-2.3-3.2-1.6-5l4-10.9c0.7-2.1-0.2-4.4-2.2-5.4l-16.9-8.2c-0.3-0.2-0.7-0.3-1.1-0.4
		c-1.8-0.4-3.6,0.4-4.5,2l-7.7,12.7l-1.9,3.1c-3.5-0.5-7.1-0.8-10.7-0.8c-4.8,0-9.5,0.4-14.2,1.3c-1.8,0.3-3.5-0.5-4.4-2l-8.6-14.3
		c-1.2-1.9-3.6-2.7-5.7-1.7l-13,6.4l-3.7,1.8c-2,1-3,3.4-2.2,5.5l5.4,15c0.7,1.7,0.1,3.6-1.3,4.8c-4.2,3.4-8,7.3-11.4,11.5
		c-0.3,0.4-0.6,0.7-0.9,1.1c-0.1,0.1-0.2,0.2-0.3,0.3c-1.2,1.3-3,1.7-4.7,1.1l-17.7-6.4c-0.2-0.1-0.4-0.1-0.6-0.2
		c-1.9-0.4-3.9,0.6-4.8,2.3l-8.2,16.9c-1,2-0.3,4.5,1.7,5.7l17.7,10.7c1.5,0.9,2.3,2.6,2,4.3c-0.6,3.9-0.9,7.8-0.9,11.7
		c0,2.1,0.1,4.2,0.3,6.3c0.1,1.7-0.7,3.3-2.1,4.2l-17,10.3c-1.9,1.1-2.6,3.5-1.6,5.5l8.3,16.8c1,2,3.4,3,5.5,2.2l14.2-5.1
		c1.9-0.7,4,0,5.1,1.7c4.3,6.6,9.7,12.5,15.8,17.4c1.5,1.2,2,3.1,1.4,4.9l-5.8,16c-0.8,2.1,0.2,4.5,2.2,5.5l16.8,8.2
		c2,1,4.4,0.3,5.6-1.6l0.4-0.7l8.9-14.7c1-1.6,2.8-2.3,4.6-2l0,0c4.4,0.8,8.9,1.2,13.4,1.2c2.4,0,4.8-0.1,7.2-0.3
		c1.6-0.2,3.3,0.6,4.1,2l8.7,14.5c1.2,2,3.7,2.7,5.8,1.7l16.7-8.2c0.5-0.2,0.9-0.5,1.2-0.9c1.1-1.2,1.5-2.9,0.9-4.5l-4.4-12
		c-0.7-1.9,0-4,1.7-5.1c8.4-5.6,15.6-12.9,21.2-21.3c0.9-1.4,2.6-2.2,4.3-1.9c0.2,0,0.5,0.1,0.7,0.2l14.3,5.2
		c2.1,0.8,4.4-0.2,5.4-2.2l0.2-0.4l8.1-16.4C1606.6,530.4,1605.9,527.9,1603.9,526.7z M1470,494.4c0.9-3,2-6,3.4-8.8
		c2.8-5.6,9.7-12.6,15.4-15.4c0.6-0.3,1.2-0.6,1.8-0.9c37-16.6,72.8,19.7,54.8,56.8c-2.4,4.8-7.6,10.5-12.6,14
		c-1.1,0.8-2.3,1.4-3.5,2c-4.8,2.4-10,3.9-15.3,4.5C1485.4,549.9,1461.9,523.6,1470,494.4z"/>
</g>
<path class="st23" d="M802.8,208.3l-18-8.3c-1.5-0.7-2.5-2.2-2.5-3.8c0-2.1-0.2-4.2-0.4-6.3c-0.4-3.9-1.1-7.7-2.1-11.5
	c-0.5-1.7,0.1-3.5,1.6-4.6l16.5-12.6c1.8-1.3,2.2-3.8,1-5.7l-10.1-16c-1.2-1.8-3.5-2.5-5.4-1.5l-17.1,8.4c-1.7,0.9-3.7,0.5-5-0.9
	c-5.6-5.8-12.1-10.7-19.3-14.5c-1.7-0.9-2.6-2.9-2.2-4.8l2.8-11.3c0.5-2.2-0.7-4.4-2.7-5.1l-17.7-6.4c-0.4-0.1-0.7-0.2-1.1-0.2
	c-1.8-0.2-3.5,0.8-4.2,2.5l-6.2,13.4l-1.5,3.3c-3.6-0.1-7.1,0-10.7,0.4c-4.7,0.5-9.4,1.5-14,2.8c-1.7,0.5-3.5-0.1-4.6-1.5l-10-13.3
	c-1.4-1.8-3.9-2.2-5.8-1l-12.2,7.7l-3.5,2.2c-1.9,1.2-2.6,3.7-1.6,5.7l7,14.3c0.8,1.6,0.5,3.6-0.8,4.9c-3.8,3.9-7.2,8.1-10.1,12.7
	c-0.3,0.4-0.5,0.8-0.7,1.1c-0.1,0.1-0.2,0.3-0.3,0.4c-1,1.4-2.8,2-4.5,1.6l-18.3-4.5c-0.2-0.1-0.4-0.1-0.6-0.1c-2-0.2-3.8,1-4.5,2.8
	l-6.4,17.6c-0.8,2.1,0.2,4.5,2.3,5.4l18.7,8.7c1.6,0.7,2.6,2.4,2.5,4.1c-0.2,3.9,0,7.8,0.4,11.7c0.2,2.1,0.5,4.2,0.9,6.2
	c0.3,1.7-0.3,3.3-1.7,4.4l-15.8,12.1c-1.7,1.3-2.2,3.8-1,5.7l10,15.8c1.2,1.9,3.7,2.6,5.7,1.6l13.5-6.6c1.8-0.9,4-0.4,5.3,1.1
	c5,6.1,11,11.3,17.6,15.6c1.6,1,2.4,2.9,1.9,4.7l-4,16.5c-0.5,2.2,0.7,4.5,2.8,5.3l17.5,6.3c2.1,0.8,4.4-0.2,5.4-2.2l0.4-0.8
	l7.2-15.6c0.8-1.7,2.5-2.7,4.3-2.5l0,0c4.5,0.3,9,0.2,13.5-0.3c2.4-0.3,4.8-0.6,7.2-1.1c1.6-0.4,3.3,0.3,4.3,1.6l10.3,13.5
	c1.4,1.8,4,2.3,5.9,1.1l15.8-10c0.4-0.3,0.8-0.6,1.1-1c1-1.3,1.2-3.1,0.5-4.6l-5.6-11.4c-0.7-1.4-0.5-3,0.3-4.3
	c0.2-0.3,0.5-0.6,0.8-0.9c7.8-6.5,14.2-14.5,18.8-23.5c0.8-1.5,2.4-2.4,4.1-2.3c0.2,0,0.5,0.1,0.7,0.1l14.8,3.6
	c2.2,0.5,4.4-0.7,5.1-2.7l0.2-0.4l6.2-17.1C805.9,211.6,804.9,209.2,802.8,208.3z M666.2,190.6c0.5-3.1,1.3-6.2,2.4-9.2
	c2.2-5.9,8.3-13.6,13.7-17c0.6-0.4,1.1-0.7,1.7-1.1c35-20.5,74.5,11.8,60.6,50.6c-1.8,5.1-6.4,11.3-11,15.3c-1,0.9-2.1,1.7-3.2,2.4
	c-4.5,2.9-9.5,5-14.7,6.2C687.6,244.1,661.3,220.5,666.2,190.6z"/>
<g>
	<path class="st14" d="M1010.7,714.2c1,1.1,1.3,2.7,0.7,4l0,0c-1,2.6-4.1,5.6-7.8,8.5c-0.5,0.4-0.9,0.7-1.2,1l-0.3,0.2l-0.2,0.2
		c-3.4,3.2-2.1,3.9-8.3,10.3c-7,7.3-11.8,7.4-13.2,6.8c-1.2-0.6,1.2-4.4,3.8-8.8l0.4-0.6l1-1.8c3.1-5.2,2.3-7.7,1.5-15.5
		c-0.6-6.3-9.9-35.4-9.9-35.4l13.5-2.3c0,0,4,23.1,8.5,26.7c2.4,1.9,5.1,1.9,7.3,3.3l0.5,0.3C1008.4,712,1009.6,713,1010.7,714.2z"
		/>
	<path class="st24" d="M1010.7,714.2c1,1.1,1.3,2.7,0.7,4l0,0c-1.2,2.6-4.2,5.6-7.8,8.5c-0.5,0.4-0.9,0.7-1.2,1.1l-0.3,0.2l-0.2,0.2
		c-3.4,3.2-2.1,3.9-8.3,10.3c-7,7.3-11.8,7.4-13.2,6.8c-1.2-0.6,1.2-4.4,3.8-8.8c4.9-1.9,9.2-5.1,12.5-9.2c4.2-5.4,7-12.3,9.9-16.3
		l0.5,0.3C1008.4,712,1009.6,713,1010.7,714.2z"/>
	<path class="st14" d="M902.2,705.8c-0.8,4.2-6.8,3.5-13.4,1.8s-5,0.3-14.5-0.7s-12.3-4.5-12.5-6c-0.2-1.2,4.4-1.7,9.4-2.2l1.9-0.2
		c5.6-0.7,9.8-4.3,14.9-7.3c4.8-2.8,12.1-14.3,12.1-14.3l12.9,1c0,0-6.8,10.3-9.4,14.8c-1.5,2.6-1.5,6.1-1.3,8.8
		C902.5,702.8,902.5,704.3,902.2,705.8z"/>
	<path class="st24" d="M888.9,707.6c-6.6-1.6-5,0.3-14.5-0.7s-12.3-4.5-12.5-6c-0.2-1.2,4.4-1.7,9.4-2.2v0.1c4,2.6,8.7,4,13.5,4.2
		c6.4,0.2,13.2-1.7,17.6-1.6c0.2,1.5,0.1,3-0.1,4.4C901.4,709.9,895.5,709.2,888.9,707.6z"/>
	<path class="st14" d="M931,516.2c0,0-3.1-7.5-6.5-7.8s-14.2-2-14.9-0.5s0,7.1,2.3,9.1s16.6,5.2,16.6,5.2L931,516.2z"/>
	<path class="st25" d="M951.7,623.2l27.8,74.9c2.8,0.2,5.6-0.1,8.4-0.8c2.9-1,5.6-2.3,8.1-3.9c0,0-6.9-71.9-19.5-86.8
		S951.7,623.2,951.7,623.2z"/>
	<path class="st24" d="M1061.7,593c0,0-79.9-27-97.8-21.3s-71.3,112.2-71.3,112.2c1.2,1.3,2.8,2.3,4.5,2.8
		c3.1,1.2,10.5,1.1,10.5,1.1s48.3-41.4,54-53.5s8-23.6,13.8-22.4s74.2,28.2,89.8,12.1s11.5-37,11.5-37L1061.7,593z"/>
	<path class="st26" d="M1012.9,467.2c-1.3-2.6-2.7-7.3-3.4-15.7c0.1,0.8,1.5,11.4,5.6,17.3c16.6,10.9,48.5,47.4,47.9,54.3
		c0,0,11.2-19,11.4-19.1c0,0,20.7-26.3-3.8-41.4c-12.5-7.7-12.4-17.5-11.9-26s-3.4-45.3-28.4-35.7c0,0-4-1.8-5.8-1.5
		c0.8,0.2,1.6,0.5,2.2,1c-2.9-0.2-7,0-10.5,2C1007,407.6,998.8,454.3,1012.9,467.2z"/>
	<path class="st14" d="M1016.1,469.4c-0.1,0,8,4.2,14.1,2.6c5.7-1.6,9.5-9,9.4-9c-2.4-0.5-3.1-3.8-3.1-18.2l-1.1,0.2l-18.5,3.7
		c0,0,0.4,5.8,0.4,11.3C1017.4,464.6,1017.1,468.9,1016.1,469.4z"/>
	<path class="st17" d="M1016.9,448.7c0,0,0.4,5.8,0.4,11.3c10.3-0.3,15.8-9.7,18-15L1016.9,448.7z"/>
	<path class="st26" d="M1037.3,443c0,0,5.4-8.6,6.7-15.9c0.9-5.2-1.7-24.6-21.2-21.8c-3.9,0.5-7.7,1.9-11,4.1
		c-4.2,2.9-10.3,9-3.5,25.9l1.8,5.7L1037.3,443z"/>
	<path class="st14" d="M1013.5,453.9c0,0,24.5,0.4,24.5-14.8s3.2-25.4-12.4-26.3c-15.6-0.9-18.7,4.9-19.9,10
		S1007.2,453.4,1013.5,453.9z"/>
	<path class="st26" d="M1014.4,412.3c0,0,6.7,17.9,17,20.5c10.3,2.6,14.7-0.1,14.7-0.1c-5.1-4.5-8.4-10.5-9.5-17.2
		C1036.6,415.5,1019.5,403.8,1014.4,412.3z"/>
	<path class="st26" d="M1016.1,413.8c0,0-5,4-6.2,7.9s-1.8,11.9-4.1,11.6c0,0-5-12.1,0.6-19C1012.4,406.9,1016.1,413.8,1016.1,413.8
		z"/>
	<path class="st6" d="M1070.5,535.2c2.4-10.1-5.8-29.7-14.4-46c-7.8-14.7-15.8-26.7-16.6-26.2c-20.5,12.2-22.3,2-22.3,2
		s-18.6,2.5-23.9,11.5c-7.3,12.5-15.2,50.2-23,49.6c-3.6-0.2-39.6-13.8-39.6-13.8s-6,5.6-4.8,12.5c0,0,17.8,11.9,32.8,19.5
		c8,4,15.2,6.8,18.5,6c6.9-1.6,17.6-17.5,23.3-26.9v-0.1c7.4,41.8-2.7,51.3,2.4,55.7c5.4,4.7,13-2.2,29.9,5.1
		c11.1,4.8,26.4,11.7,36.8,13c5.4,0.6,9.5-0.3,10.8-4C1084.3,582.7,1065.9,554.5,1070.5,535.2z"/>
	<path class="st27" d="M1018.9,444.6c0,0-0.5,1.9-5.3,1.6c0,0-4-0.2-3.9-2.4C1012.8,443,1016.1,443.3,1018.9,444.6z"/>
	<path class="st28" d="M1000.6,523.6c-5.8,9.4-16.5,25.2-23.3,26.9c-3.4,0.8-10.6-2-18.5-6c5.5,1.3,11.3,1.6,16.9,0.9
		c5.9-0.6,7.7-7.9,17.1-18.8C998.8,519.5,1000.3,521.3,1000.6,523.6z"/>
	<path class="st14" d="M1029.2,546.6c0,0-5.2-4-10.1-3.1c-4.9,0.9-7.3,4.3-7.1,5.8s2.8,5.8,6.5,6.2s14.4-2.3,14.4-2.3L1029.2,546.6z
		"/>
	<path class="st28" d="M1039.6,463c0,0,19.9,1.2,26.8,10.9c9.7,13.5,26.6,68.8,22,81.5l-60.6-0.3c0,0-1.5-6.9,0.6-10.2
		s35.2-8.7,36.8-10.2s-19.2-30-19.2-34.6S1039.6,463,1039.6,463z"/>
	<polygon class="st29" points="1010.7,527.6 937.4,527.6 950.6,573.7 1024,573.7 	"/>
	<rect x="950.8" y="571.9" class="st11" width="96" height="1.8"/>
	<path class="st11" d="M979.8,549.9c-0.5-1.7-2-2.8-3.8-2.9c-1.2-0.1-2.2,0.9-2.2,2c0,0.3,0,0.6,0.2,0.9c0.5,1.7,2,2.8,3.8,2.9
		c1.2,0.1,2.2-0.9,2.2-2C979.9,550.5,979.9,550.2,979.8,549.9z"/>
</g>
<path class="st16" d="M517.9,650.7h115.6c4.1,0,7.3,3.3,7.3,7.3v19.6c0,4.1-3.3,7.3-7.3,7.3H517.9c-4.1,0-7.3-3.3-7.3-7.3V658
	C510.6,654,513.9,650.7,517.9,650.7z"/>
<path class="st15" d="M640.9,674.1v3.6c0,4-3.3,7.3-7.3,7.3H517.9c-4.1,0-7.3-3.3-7.3-7.3v-3.9h128.2
	C639.5,673.8,640.2,673.9,640.9,674.1z"/>
<path class="st30" d="M538.4,685l-5.2,19.7l0,0l-21.7,82.2h-2.3l12.5-68.2c0-0.1,0-0.1,0-0.2l6.2-33.7L538.4,685z"/>
<path class="st31" d="M538.4,685l-5.2,19.7l0,0c-0.3,0.2-9.8,5-11.4,13.8l6.2-33.7L538.4,685z"/>
<path class="st30" d="M640.9,786.9h-2.3L620.9,720l0,0l-4-15.2l0,0l-5.2-19.7l10.4-0.2l3.5,19.3l2.7,14.4c0,0.1,0,0.1,0,0.2
	L640.9,786.9z"/>
<path class="st31" d="M625.6,704.1c-3.1,4.7-4.7,10.2-4.7,15.9l-4-15.2l0,0l-5.2-19.7l10.4-0.2L625.6,704.1z"/>
<g id="man">
	<path class="st12" d="M494.7,265.6c2.7-2.8,4.5-1.8,4.5-1.8S531,288.3,534,290s44.3,3,44.3,3s16.5-0.2,20.5,8.3
		c3.5,7.4,1,13.7-2.6,18.4c-4.3,5.5-11.6,7.9-18.3,5.9c-15.1-4.4-45.2-13.4-50.9-16.9c-12.5-7.7-35.2-38.3-35.2-38.3
		C492.5,268.7,493.4,267,494.7,265.6z"/>
	<path class="st21" d="M528.9,242l-15.8-9.5c-1.3-0.8-2.1-2.3-1.9-3.8c0.2-2,0.2-3.9,0.2-5.9c0-3.6-0.3-7.3-0.8-10.9
		c-0.3-1.6,0.5-3.3,1.9-4.1l16.6-10c1.8-1.1,2.4-3.3,1.5-5.2l-7.8-15.9c-0.9-1.8-3-2.7-4.9-2l-16.7,6.1c-1.6,0.6-3.5,0.1-4.5-1.3
		c-4.6-6-10.2-11.2-16.4-15.4c-1.5-1.1-2.1-3-1.5-4.7l3.7-10.2c0.7-1.9-0.2-4.1-2-5l-15.8-7.7c-0.3-0.2-0.7-0.3-1-0.3
		c-1.7-0.3-3.3,0.4-4.2,1.9l-7.2,11.8l-1.7,2.9c-3.3-0.5-6.7-0.7-10-0.7c-4.5,0-8.9,0.4-13.3,1.2c-1.6,0.3-3.3-0.4-4.1-1.8l-8-13.3
		c-1.1-1.8-3.4-2.5-5.3-1.6l-12.1,6l-3.5,1.7c-1.9,0.9-2.8,3.1-2.1,5.1l5.1,14c0.6,1.6,0.1,3.4-1.2,4.5c-3.9,3.2-7.5,6.8-10.7,10.8
		c-0.3,0.3-0.5,0.6-0.8,1c-0.1,0.1-0.2,0.2-0.3,0.3c-1.1,1.2-2.8,1.6-4.4,1l-16.5-6c-0.2-0.1-0.4-0.1-0.6-0.2
		c-1.8-0.4-3.6,0.5-4.5,2.1l-7.7,15.7c-0.9,1.9-0.2,4.2,1.6,5.3l16.5,10c1.4,0.8,2.1,2.4,1.9,4.1c-0.6,3.6-0.8,7.3-0.8,10.9
		c0,2,0.1,3.9,0.2,5.9c0.1,1.6-0.6,3.1-2,3.9l-15.9,9.6c-1.8,1.1-2.4,3.3-1.5,5.1l7.7,15.7c0.9,1.9,3.2,2.8,5.1,2.1l13.2-4.8
		c1.8-0.7,3.8,0,4.8,1.5c4.1,6.2,9,11.6,14.8,16.2c1.4,1.1,1.9,2.9,1.3,4.6l-5.4,14.9c-0.7,2,0.2,4.2,2.1,5.2l15.6,7.7
		c1.9,0.9,4.1,0.3,5.2-1.5l0.4-0.7l8.3-13.8c0.9-1.5,2.6-2.2,4.3-1.9l0,0c4.1,0.7,8.3,1.1,12.5,1.1c2.3,0,4.5-0.1,6.8-0.3
		c1.5-0.2,3,0.6,3.9,1.9l8.2,13.5c1.1,1.9,3.5,2.6,5.4,1.6l15.6-7.7c0.4-0.2,0.8-0.5,1.1-0.9c1.1-1.1,1.4-2.7,0.9-4.2l-4.1-11.2
		c-0.6-1.8,0-3.7,1.6-4.8c7.9-5.2,14.6-12,19.8-19.9c0.9-1.3,2.4-2,4-1.7c0.2,0,0.4,0.1,0.7,0.2l13.4,4.9c1.9,0.7,4.1-0.2,5-2
		l0.2-0.4l7.6-15.3C531.4,245.4,530.7,243.1,528.9,242z M403.8,211.8c0.8-2.8,1.9-5.6,3.2-8.3c2.6-5.3,9.1-11.8,14.4-14.4l1.7-0.8
		c34.6-15.5,68,18.4,51.2,53c-2.2,4.5-7.1,9.8-11.8,13.1c-1,0.7-2.1,1.3-3.2,1.9c-4.5,2.2-9.3,3.6-14.3,4.2
		C418.3,263.6,396.3,239.1,403.8,211.8z"/>
	<path class="st32" d="M459.6,273.6c0,0,0-11.7-1.8-15.1s-6.1-7.7-8.5-6.3s-3.2,12.8-2.4,14.8c0.7,2.1,6.2,9.7,6.2,9.7L459.6,273.6z
		"/>
	<path class="st33" d="M604.9,650.7c2.6-2.2,1-14.8,1-14.8s-13.5-10.8-15.3-2.5s-12.8,11.9-19,13c-4.2,0.7-5.5,2.9-6,4.3H604.9z"/>
	<path class="st34" d="M606.4,636.5c-12.5,1.9-17-1-17-1c0.2-12.3-3.6-39.9-8.8-71.7c-6.8-41.9-16.1-90.9-22-121.1
		c-3.4-17.4-5.6-28.5-5.6-28.5l10.2-0.2l50.8-1c0,0-3.8,56.2-2.8,83.9c0.2,6.6,0.8,11.6,1.7,13.9
		C621.5,531.8,606.4,636.5,606.4,636.5z"/>
	<path class="st33" d="M611.2,497c-6.9,12.9-24.2,46.1-30.6,66.9c-6.8-41.9-16.1-90.9-22-121.1c0.3-11.4,1.7-21.4,4.6-28.7l50.8-1
		C613.9,413,610.2,469.2,611.2,497z"/>
	<path class="st33" d="M562.1,650.7c2.6-2.2,1-14.8,1-14.8s-13.5-10.8-15.3-2.5s-12.8,11.9-19,13c-4.1,0.7-5.5,2.9-6,4.3H562.1z"/>
	<path class="st34" d="M530.9,413c0,0,19.9,184.5,16,221.7c0,0,4.3,3.3,16.8,2.6c0,0,22.8-106.3,18-123.5c-3.4-12,10-96.4,10-96.4
		L530.9,413z"/>
	<path class="st32" d="M580,281.1c0,0-25.3,12.6-37.9,6.9c0,0,5.3-6.8,11.2-9.7c-0.1-2.3-0.2-4.3-0.2-6.1c-0.1-6,0.2-9.4,0.2-9.4
		l10.9-8l7.4-5.4c-0.4,3.1-0.5,6.2-0.3,9.3C572.3,273.3,580,281.1,580,281.1z"/>
	<path class="st35" d="M571.3,258.7c0,0-5.9,11.8-18.2,13.5c-0.1-6,0.2-9.4,0.2-9.4l10.9-8C566.8,255.7,569.2,257,571.3,258.7z"/>
	<path class="st32" d="M550.4,262c0,0,22.7,8.1,27.5-6.1c4.8-14.2,11-22.7-3.3-28.5s-19-1.3-21.7,3.1
		C550.2,234.8,544.6,259.6,550.4,262z"/>
	<path class="st13" d="M615.6,413c-3.5,7.4-82.2,7.1-86.1,1.9c-1.6-2.1-3.4-23.4-4.4-48c-0.6-13.7-0.9-28.4-0.8-41.5
		c0.1-21.4,1.3-38.6,4.3-39.9c16.9-7.3,27.3-12,49.3-11.3c6.8,0.2,12.9,4.1,15.9,10.3c5.3,10.9,12.8,30.3,13.4,53.2
		C608,372.9,620,403.7,615.6,413z"/>
	<path class="st12" d="M549.6,310.7c0,0-2.5,36.9-24.6,56.1c-0.6-13.7-0.9-28.4-0.8-41.5C530.8,316.5,539.5,310.1,549.6,310.7z"/>
	<path class="st13" d="M560.5,274.9c0,0-24.2,0.1-31.8,7.2c-5.4,5-40.4,32.6-42.6,32.2S461.4,269,461.4,269s-11.1,0.9-13,5.8
		c0,0,10.5,56.1,33,68.3c0,0,57.1-10.8,74-29.7C564.2,303.6,560.5,274.9,560.5,274.9z"/>
	<path class="st19" d="M551.5,219.4c0,0,1.3,13.6,5.4,17.3c4.1,3.7,3,8.8,3.4,9.5s4.7-1.4,5.4-0.2c1.7,2.9-1,5-2.7,5.7
		s4.3,12.3,8.7,12.8c7.6,0.7,19.3-20.3,20.3-26.4c1.3-8.1-3.3-20.6-16.3-20C555.2,219,551,214.5,551.5,219.4z"/>
</g>
<rect x="1140.3" y="160" class="st36" width="24.2" height="151.1"/>
<rect x="1181.1" y="117.9" class="st36" width="24.2" height="193.2"/>
<rect x="1224.4" y="196.5" class="st36" width="24.2" height="114.5"/>
<path class="st36" d="M1204,89h-20.5c-1.2,0.1-2.1,1.1-2,2.3c0.1,1.1,0.9,1.9,2,2h20.5c1.2-0.1,2.1-1.1,2-2.3
	C1205.9,89.9,1205.1,89.1,1204,89L1204,89z"/>
<path class="st36" d="M1188.2,101c1.2-0.1,2.1-1.1,2-2.3c-0.1-1.1-0.9-1.9-2-2h-4.7c-1.2,0.1-2.1,1.1-2,2.3c0.1,1.1,0.9,1.9,2,2
	H1188.2z"/>
<path class="st36" d="M1246.8,174h-20.5c-1.2,0-2.1,1-2.1,2.1l0,0c0,1.2,0.9,2.1,2.1,2.1h20.5c1.2,0,2.1-0.9,2.1-2.1l0,0
	C1249,174.9,1248,174,1246.8,174z"/>
<path class="st36" d="M1226.3,186h4.7c1.2,0,2.1-0.9,2.1-2.1c0-1.2-0.9-2.1-2.1-2.1h-4.7c-1.2,0-2.1,0.9-2.1,2.1
	C1224.2,185,1225.1,186,1226.3,186z"/>
<path class="st37" d="M111.6,787.4h1552.6c1.8,0,3.2,1.4,3.2,3.2v2.3c0,1.8-1.4,3.2-3.2,3.2H111.6c-1.8,0-3.2-1.4-3.2-3.2v-2.3
	C108.4,788.9,109.8,787.4,111.6,787.4z"/>
</svg>
