<?xml version="1.0" encoding="utf-8"?>
<!-- Generator: Adobe Illustrator 25.2.1, SVG Export Plug-In . SVG Version: 6.00 Build 0)  -->
<svg version="1.1" id="Ñëîé_1" xmlns="http://www.w3.org/2000/svg" xmlns:xlink="http://www.w3.org/1999/xlink" x="0px" y="0px"
	 viewBox="0 0 1680.85 1857.02" style="enable-background:new 0 0 1680.85 1857.02;" xml:space="preserve">
<style type="text/css">
	.st0{fill:#F99370;}
	.st1{fill:#E88064;}
	.st2{fill:#FCCFC3;}
	.st3{fill:#FCB4B4;}
	.st4{fill:#7A5CA2;}
	.st5{fill:#E8C0A6;}
	.st6{fill:#92ABE8;}
	.st7{fill:#8198E2;}
	.st8{fill:#1D3F70;}
	.st9{fill:#10325B;}
	.st10{fill:#3A72AA;}
	.st11{fill:#23659B;}
	.st12{fill:#E57D61;}
	.st13{fill:#8E4A35;}
	.st14{fill:#C16256;}
	.st15{fill:#FDFFDE;}
	.st16{fill:#359BC1;}
	.st17{fill:#4E5B9A;}
	.st18{fill:#FFFFFF;}
	.st19{fill:#EB5648;}
	.st20{fill:#2CA5B6;}
	.st21{fill:#C92828;}
	.st22{fill:#CE3932;}
	.st23{fill:#F9F8F3;}
	.st24{fill:#7640CC;}
	.st25{fill:#AF0D2F;}
	.st26{fill:#E9113E;}
</style>
<path class="st0" d="M582.85,227.8c-6.04-0.78-17.54-1.88-30.12-3.02c-24.68-2.21-53.55-4.53-53.55-4.57
	c-42.03,16.49-87.14-8.82-86.43-23.93c0.58-12.71,24.13-24.73,53.26-28.47c12.31-2.51,92.81-14.79,145.44-23.07
	c14.96-2.34,27.66-4.38,35.91-5.76c4.1-0.69,7.1-1.22,8.73-1.55C707.72,124.89,638.11,225.54,582.85,227.8z"/>
<path class="st1" d="M647.35,138.97l-94.63,85.81c-24.68-2.21-53.55-4.53-53.55-4.57c48.2-46.2,112.23-75.46,112.23-75.46l0.03-0.01
	C626.4,142.39,639.1,140.36,647.35,138.97z"/>
<path class="st0" d="M766.71,95.11c-50.11,46.62-129.47,97.9-162.01,161c-4.11,1.89-8.28,3.75-12.49,5.57
	c-2.19,0.96-4.41,1.91-6.63,2.84c-18.55,7.78-37.53,13.88-54.06,19.06c-16.75,5.27-30.99,9.58-39.68,13.78
	c-31,57.42-91.93,39.41-98.47,25.45c-5.66-12.1,46.81-46.92,57.01-54.71c38.98-28.41,93.98-77.1,131.81-100.36
	C657,124.51,706.72,117.7,766.71,95.11z"/>
<path class="st1" d="M655.65,173.87l-63.45,87.82c-2.19,0.96-4.41,1.91-6.63,2.84c-18.55,7.78-37.53,13.88-54.06,19.06
	C567,226.23,654.29,174.67,655.65,173.87z"/>
<path class="st0" d="M928.57,127.85C810.26,202.97,721.01,235.9,652.72,280.06c-28.05,18.14-52.56,38.18-74.08,63.8
	c-13.39,15.93-25.62,34.01-36.83,55.14c-1.86,78.02-81.64,109.19-62.17,35.24c17.19-81.17,42.23-135.84,94.54-188.75
	c78.35-79.24,200.93-156.81,192.53-150.37C813.13,72.99,961.59,94.31,928.57,127.85z"/>
<path class="st1" d="M654.72,192.01l-2.01,88.05c-28.05,18.14-52.56,38.18-74.08,63.8c-2.41-18.36-2.33-38.36,3.55-56.66
	C599.24,234.12,654.72,192.01,654.72,192.01z"/>
<path class="st0" d="M1689.48,0c-252.67,83.41-576.93,237.78-780.61,306.9c-72.81-77.05-224.92-21.69-231.51-3.46
	c6.72,27.24-6.93,91.33-15.47,123.84c30.09,70.22-30.06,131.11-45.36,23.37c-26.97-101.22-52.26-179.37,38.16-258.61
	c15.93-15.63,33.02-30.27,50.2-44.53c19.98-16.61,40.44-32.85,59.45-50.21C819.19,72.8,894.3,41.38,977.76,0
	C977.76,0,1689.48,0,1689.48,0z"/>
<path class="st2" d="M487.15,403.65c0,0,8.35,10.49,2.31,27.08c-6.04,16.58-9.2,30.93-9.18,39.31
	C480.28,470.04,465.59,463.19,487.15,403.65z"/>
<path class="st2" d="M616.26,448.29c0,0,6.13-3.14,9.29,10.61c3.16,13.74,2.17,29.95,16.89,49.84
	C642.45,508.74,622.61,509.04,616.26,448.29z"/>
<path class="st2" d="M450.38,268.11c0,0,1.9,13.49-15.09,25.12c-16.98,11.64-29.34,16.78-41.93,29.59
	C393.36,322.82,381.64,307.06,450.38,268.11z"/>
<path class="st2" d="M483.59,164.79c0,0-9.76,11.3-25.07,14.4c-15.32,3.1-27.46,4.15-43.29,10.29
	C415.23,189.48,416.12,168.47,483.59,164.79z"/>
<path id="_x39_" class="st3" d="M361.34,964.25c-2.62,17.26-3.45,32.68-2.51,41.31c-7.12-9.03-13.91-17.34-20.35-24.99
	c6.82-7.76,6.71-93.4-2.46-94.23c-8.89,0.28-8.34,73.42-4.05,86.59c-7.31-8.47-14.13-16.05-20.46-22.8
	c6.81-5.6-14.05-98.08-22.68-96.07c-8.52,2.18,8.77,76.96,15.74,88.79c-8.4-8.67-15.8-15.78-22.19-21.57
	c5.45-6.61-34.33-96.53-42.13-92.95c-7.52,3.32,23.32,72.8,32.47,84.52c-18.9-15.03-24.2-21.26-54.83-39.11
	c-61.64-36.07-68.96-25.17-6.7,10.9c29.97,18.65,38.86,15.21,60.59,34.94c-12.86-5.17-97.87-12.48-99.16-4.33
	c0.05,8.33,97.95,15.76,105.52,9.95c6.73,6.09,14.63,13.67,23.66,23.04c-11.44-4.49-99.72-3.6-100.1,5.04
	c0.95,8.36,97.42,6.16,104.45-0.48c6.58,6.96,13.69,14.81,21.35,23.66c-12.65-4.08-97.99-3.07-98.37,5.4
	c1.55,8.28,93.56,6.13,103.1,0.13c6.81,8.01,14,16.76,21.59,26.34c-12.66-4.08-97.97-3.06-98.34,5.4
	c1.63,8.25,92.8,6.13,102.78,0.25c6.25,8.01,12.76,16.56,19.51,25.69c-11.84-4.36-99.19-3.44-99.58,5.15
	c1.45,8.3,94.28,6.13,103.38,0.02c6.32,8.77,13.11,17.58,19.71,25.28c-11.46-3.09-97.4,10.05-96.36,18.89
	c2.57,8.18,92.7-6.85,100.24-14.42c7.95,9,15.93,17.05,23.85,24.28c-8.94-3.81-98.17,17.06-95.94,26.06
	c2.04,8.37,96.72-15.04,98.84-23.43c11.42,10.17,22.65,18.6,33.4,25.61c-11.49-0.54-88.01,33.14-84.44,41.73
	c4.5,7.7,85.49-29.25,89.42-38.56c13.91,8.63,26.88,14.86,38.18,19.35c-11.7,1.87-77.45,47.49-72.31,55.39
	c5.98,6.98,76.26-43.14,78.29-53.11c34.59,12.58,58.47,11.71,59.49,11.66l-0.24-5.61c-0.24,0.01-23.49,0.82-56.58-11.06
	c7.45-9.16,19.57-87.67,10.63-90.2c-9.47-0.86-20.43,76.54-16.69,87.92c-10.92-4.3-23.48-10.28-36.98-18.58
	c8.57-4.87,28.98-87.53,19.83-90.23c-9.56-1.85-27.96,77.68-23.99,87.62c-10.58-6.79-21.67-15.01-32.96-24.94
	c8.96-3.9,37.12-84.04,28.12-87.52c-9.33-2.55-34.7,73.12-32.06,83.99c-7.52-6.86-15.11-14.49-22.68-22.98
	c8.92-1.28,38.27-85.23,29.04-88.15c-9.36-2.68-35.23,74.58-32.02,84.75c-6.45-7.43-12.96-15.61-19.27-24.31
	c8.95-6.47,35.66-82.48,26.93-86.36c-8.86-2.33-32.27,66.16-31.89,79.6c-6.75-9.16-13.26-17.74-19.51-25.79
	c8.18-5.29,21.35-90.55,12.1-92.42C371.71,918.29,365.26,938.43,361.34,964.25z"/>
<path id="_x38__1_" class="st4" d="M657.73,972.49c25.26-17.77,43.76-34.98,41.33-38.44c-6.52-7.21-82.41,46.92-89.03,58.64
	c-1.24-14.22-4.05-28.5-8.38-42.68c10.5-0.5,82.66-72.1,75.88-79.36c-7.69-6.03-73.68,61.38-77.65,73.82
	c-4.55-13.59-10.33-26.61-17.32-39.36c8.96,1.38,70.53-87.15,61.97-92.29c-8.49-5.13-64.78,78.13-63.82,88.98
	c-5.65-9.98-12.09-19.84-19.27-29.55c10.29-4.34,60.47-90.45,52.2-95.9c-8.98-3.79-54.98,77.84-55.82,91.1
	c-6.65-8.68-14.13-17.38-21.82-25.68c9.55-6.36,45.77-98.24,36.83-102.45c-9.39-2.29-41.91,83.63-41.29,97.54
	c-8.02-8.89-15.48-17.4-22.4-25.53c9.62-7.31,45.19-97.59,36.37-101.93c-9.28-2.23-41.13,81.63-41.14,96.28
	c-8.25-9.83-15.68-19.08-22.41-27.76c9.59-6.79,45.52-97.95,36.63-102.23c-9.28-2.23-41.16,81.72-41.15,96.34
	c-7.4-9.74-13.85-18.71-19.47-26.92c9.35-3.99,47.02-99.64,37.83-103.42c-9.43-2.35-42.35,84.76-41.36,98.21
	c-7.52-11.25-13.39-20.93-17.96-29.09c8.86-4.75,35.93-104.32,26.36-107.02c-9.41-1.19-31.73,84.83-30.34,99.69
	c-14.73-25.84-7.46-34.1-18.23-68.83c-18.88-70.08-34-65.99-14.79,4.02c9.78,36.03,15.2,42.06,25.59,64.18
	c-10.58-12.57-79.44-59.81-85.24-52.9c-6.27,7.77,83.64,68.88,91.11,63.91c4.37,7.8,9.91,16.96,16.9,27.51
	c-11.5-10.3-91.28-45.24-95.99-37.18c-4.56,8.88,94.84,51.43,101.54,45.38c5.47,7.94,11.71,16.57,18.82,25.91
	c-13.93-7.7-97.48-25.58-100.38-16.85c-1.49,9.8,96.94,29.96,106.61,24.94c6.44,8.24,13.52,16.99,21.31,26.26
	c-13.2-6.24-102.69-13.34-104.55-4c-0.47,9.93,102.09,16.83,109.69,10.07c6.95,8.15,14.44,16.67,22.5,25.58
	c-14.99-3.66-101.85,3.17-102.19,12.5c1.75,9.69,98.22,1.11,108.05-6.06c7.69,8.33,14.79,16.84,20.99,25.04
	c-10.02-5.79-108.24,1.46-108.18,11.33c0.29,9.97,107.35,0.64,110.84-7.78c7.05,9.6,13.09,19.01,18.27,28.16
	c-11.08-5.37-107.21,1.75-107.34,11.57c1.11,9.88,103.22,0.81,109.86-7.01c7.37,13.65,12.82,26.68,16.8,38.84
	c-9.7-6.52-107.85-7.18-108.62,2.66c0.33,9.93,102.76,9.09,110.04,1.84c4.7,15.46,7.04,29.39,8.04,41.28
	c-11.77-6.62-104.49-14.13-106.32-4.61c0.39,9.78,94.89,16.15,106.75,11.01c1.74,35.39-7.39,58.09-7.49,58.32
	c1.42,0.59,4.29,1.77,5.71,2.36c0.42-1.01,9.96-24.59,7.9-62.03C617.73,997.73,636.75,987.24,657.73,972.49z"/>
<path id="_x37_" class="st5" d="M1027.28,884.1c-21.45,1.74-40.01,4.87-49.7,8.06c7.97-9.61,15.23-18.69,21.81-27.24
	c9.94,5.14,111.52-16.36,109.85-26.45c-3.14-8.97-89.05,10.02-103.47,18.07c7.27-9.68,13.65-18.63,19.25-26.86
	c6.94,6.21,109.26-38.39,104.47-47.52c-1.77-3.99-26.83,3.22-55.97,16.11c-18.57,8.22-34.3,16.75-42.83,22.9
	c7.15-10.93,12.8-20.42,17.26-28.5c7.73,5.08,100.13-58.59,93.59-66.56c-6.11-7.04-76.69,42.08-87.61,55.17
	c10.56-22.83,16.15-29.2,25.98-66.4c19.34-72.36,3.72-76.52-15.3-4.05c-10.89,35.95-3.31,44.33-18.35,71.15
	c1.36-15.24-22.3-104.05-31.98-102.66c-9.84,2.91,18.73,105.36,27.92,110.25c-4.66,8.45-10.66,18.49-18.34,30.14
	c0.98-13.8-33.66-103.64-43.34-101.07c-9.44,4.02,30.03,102.35,39.73,106.47c-5.75,8.51-12.34,17.81-19.91,27.91
	c-0.04-14.99-33.58-101.59-43.11-99.14c-9.11,4.55,28.52,98.22,38.49,105.25c-6.88,9-14.49,18.59-22.94,28.79
	c-0.07-15.03-33.58-101.52-43.11-99.07c-9.05,4.62,28.2,97.37,38.21,104.94c-7.09,8.44-14.72,17.27-22.94,26.49
	c0.59-14.27-33.63-102.89-43.27-100.37c-9.16,4.48,28.77,98.89,38.7,105.47c-7.88,8.63-15.55,17.65-22.35,26.65
	c-0.9-13.59-49.03-97.68-58.22-93.63c-8.45,5.74,43.83,94.12,54.52,98.6c-7.35,10.07-13.92,20.29-19.69,30.62
	c0.96-11.14-57.78-96.8-66.46-91.39c-8.78,5.38,55.33,96.28,64.57,94.82c-7.12,13.2-13.01,26.68-17.6,40.73
	c-4.1-12.75-72.8-81.99-80.62-75.66c-6.89,7.58,67.95,80.88,78.84,81.38c-4.38,14.66-7.18,29.41-8.37,44.09
	c-6.82-12-85.65-67.44-92.26-59.91c-5.45,8.68,81.01,67.69,91.84,66.31c-1.87,38.65,8.13,62.92,8.57,63.96l5.88-2.47
	c-0.1-0.24-9.67-23.6-8.12-60.14c12.18,5.24,109.83-2,110.08-12.08c-2.05-9.81-97.47-1.44-109.68,5.47
	c0.95-12.27,3.28-26.66,8.02-42.65c7.5,7.44,113.33,7.62,113.54-2.64c-0.94-10.15-102.05-8.8-112.11-2.01
	c4.03-12.57,9.57-26.06,17.08-40.19c6.83,8.03,112.39,16.7,113.41,6.5c-0.29-10.14-99.35-16.82-110.84-11.21
	c5.28-9.48,11.45-19.22,18.66-29.18c3.63,8.66,114.23,17.58,114.43,7.28c-0.09-10.2-101.33-17-111.71-10.96
	c6.34-8.51,13.62-17.34,21.49-25.99c10.09,7.33,109.88,15.54,111.54,5.52c-0.51-9.63-90-16.07-105.54-12.2
	c8.25-9.25,15.92-18.1,23.04-26.55c7.82,6.93,113.74-0.89,113.12-11.13C1085.09,882.96,1059.05,881.52,1027.28,884.1z"/>
<g id="_x35_">
	<path class="st6" d="M992.27,1043.37v-59.84H539.55v59.84c-22.89,3.5-40.42,23.28-40.42,47.15v650.79
		c0,42.86,119.44,77.61,266.78,77.61s266.78-34.75,266.78-77.61v-650.79C1032.69,1066.65,1015.16,1046.88,992.27,1043.37z"/>
	<ellipse class="st7" cx="765.91" cy="983.54" rx="226.36" ry="33.42"/>
	<ellipse class="st6" cx="765.91" cy="981.2" rx="206.04" ry="21.56"/>
	<path class="st7" d="M765.91,1082.99c-60.76,0-117.94-3.5-160.99-9.86c-63.56-9.38-71.71-20.9-71.71-29.89
		c0-3.5,2.83-6.33,6.33-6.33c3.41,0,6.19,2.69,6.33,6.07c0.62,1,7.87,10.27,65.64,18.31c41.88,5.83,96.71,9.04,154.4,9.04
		c57.69,0,112.52-3.21,154.4-9.04c57.77-8.04,65.02-17.31,65.64-18.31c0.14-3.37,2.92-6.07,6.33-6.07c3.5,0,6.33,2.84,6.33,6.33
		c0,8.99-8.15,20.51-71.71,29.89C883.84,1079.49,826.67,1082.99,765.91,1082.99z"/>
	<path class="st7" d="M765.91,1052.74c-60.76,0-117.94-3.5-160.99-9.86c-63.56-9.38-71.71-20.9-71.71-29.89
		c0-3.5,2.83-6.33,6.33-6.33c3.41,0,6.19,2.69,6.33,6.07c0.62,1,7.87,10.27,65.64,18.31c41.88,5.83,96.71,9.04,154.4,9.04
		c57.69,0,112.52-3.21,154.4-9.04c57.77-8.04,65.02-17.31,65.64-18.31c0.14-3.37,2.92-6.07,6.33-6.07c3.5,0,6.33,2.84,6.33,6.33
		c0,8.99-8.15,20.51-71.71,29.89C883.84,1049.24,826.67,1052.74,765.91,1052.74z"/>
	<ellipse class="st7" cx="765.97" cy="1746.11" rx="251.52" ry="56.26"/>
</g>
<path class="st0" d="M1344.04,1132.28c0,0,22.86,7.3,21.61,31.61l-18.24,3.78L1344.04,1132.28z"/>
<path class="st0" d="M1280.86,1302.77c-25.8-5.06-52.05-10.38-76.59-19.81c-7.72-2.74-14.63-6.05-18.68-13.98
	c-8.59-15.29-11.13-35.27-12.51-53.09c-1.11-6.56,2.16-18.62-7.72-18.79c-5.99,0.14-6.92,6.59-8.2,11.08
	c-1.68,6.22-2.97,12.48-3.98,18.87c-10.17,71.21,20.06,91.01,82.7,110.95c12.43,3.72,25.03,6.9,37.86,8.88
	C1302.61,1350.81,1309.49,1308.12,1280.86,1302.77z"/>
<path class="st0" d="M1181.88,1173.72c0,0-24.26-0.43-22.85,28.18l14.33,6.34L1181.88,1173.72z"/>
<path class="st0" d="M1202.72,1822.36l57.3,4.43c5.02,0.19,5.37-4.91,4.76-8.94c-2.05-14.49,6.05-46.76,8.22-61.33
	c0.48-2.66-1.44-5.16-4.14-5.36l-25.29-1.95c-2.74-0.21-5.05,2.02-4.92,4.77l1.77,36.98c0.62,16.9-17.37,17.25-28.94,18.59
	c-4.62,0.79-9.5,2.18-11.97,5.4C1197.21,1817.81,1199.05,1822.07,1202.72,1822.36z"/>
<path class="st8" d="M1266.7,1821.33c-0.37,2.79-2.01,5.89-5.26,5.57c0,0-59.44-4.59-59.44-4.59c-3.07-0.23-5.01-3.48-3.7-6.26
	c2.81-6.3,11.75-15.33,39.96-14.74c4,0.7,13.09,2.79,26.54,2.01C1264.81,1803.32,1268.82,1810.84,1266.7,1821.33z"/>
<path class="st5" d="M1216.79,1815.36c0.16,0.01,0.32,0,0.48-0.06c0.67-0.21,1.03-0.92,0.82-1.59c-2.2-6.89-7.1-9.34-7.31-9.44
	c-0.63-0.3-1.39-0.04-1.69,0.58c-0.31,0.63-0.05,1.38,0.58,1.69l0,0c0.17,0.08,4.15,2.13,6,7.93
	C1215.85,1814.99,1216.29,1815.32,1216.79,1815.36z"/>
<path class="st5" d="M1226.7,1814.94c0.12,0.01,0.25,0,0.38-0.03c0.68-0.16,1.11-0.83,0.96-1.51c-1.75-7.69-7.9-11.59-8.16-11.75
	c-0.6-0.37-1.37-0.19-1.74,0.4c-0.37,0.59-0.19,1.37,0.4,1.74c0.06,0.03,5.52,3.52,7.02,10.16
	C1225.69,1814.51,1226.16,1814.9,1226.7,1814.94z"/>
<path class="st5" d="M1237.97,1814.43c0.14,0.01,0.28,0,0.42-0.04c0.68-0.18,1.08-0.87,0.9-1.55c-2.06-7.8-7.7-12.26-7.94-12.45
	c-0.55-0.43-1.34-0.33-1.78,0.22c-0.43,0.55-0.33,1.35,0.22,1.78c0.05,0.04,5.22,4.15,7.05,11.1
	C1236.99,1814.03,1237.45,1814.39,1237.97,1814.43z"/>
<path class="st9" d="M1198.3,1816.04l68.4,5.29c-0.41,2.07-1.15,4.05-2.33,5.79l-62.36-4.82c-3.03-0.23-4.97-3.38-3.74-6.16
	C1198.27,1816.11,1198.29,1816.08,1198.3,1816.04z"/>
<path class="st10" d="M1226.41,1775.76c2.33,7.57,3.82,11.96,3.82,11.96s24.81,10.15,47.77,1.12c0,0-0.11-1.66-0.31-4.67
	c-0.02-0.36-0.05-0.73-0.07-1.12c-0.08-1.18-0.16-2.54-0.26-4.04c-2.01-32.15-6.15-126.79-4.3-150.6
	c2.37-30.58,14.29-56.51,27.21-74.72c4.49-6.31,9.09-11.69,13.46-16.02c25.66-25.45,52.67-24.5,43.17-69.13
	c-1.4-6.57-59.39-3.68-59.39-3.68l-65.44,10.55c0,0-28.84,70.41-34.2,136.89C1193.61,1665.48,1217.49,1746.73,1226.41,1775.76z"/>
<path class="st11" d="M1267.98,1784.17h9.71c-0.02-0.36-0.05-0.73-0.07-1.12c-0.08-1.18-0.16-2.54-0.26-4.04
	c-2.01-32.15-6.15-126.79-4.3-150.6c2.37-30.58,14.29-56.51,27.21-74.72l-1.47-17.58c0,0-25.07,35.54-31.49,67.92
	C1260.9,1636.42,1267.98,1784.17,1267.98,1784.17z"/>
<path class="st11" d="M1226.41,1775.76c2.33,7.57,3.82,11.97,3.82,11.97s24.81,10.16,47.77,1.12c0,0-0.25-3.63-0.63-9.84l-0.01-0.01
	C1277.36,1779,1250.75,1786.76,1226.41,1775.76z"/>
<path class="st0" d="M1511.96,1753.56l24.17-52.14c1.1-2.38-0.02-5.18-2.45-6.17c-12.88-2.88-30.75-13.55-42.11-20.36
	c0,0-17.8,23.63-15.18,24.47l27.9,14.48c4.67,5.94,3.76,3.76,2.22,11.72c-1.53,10.19-6.84,19.57-2.62,28.43
	C1505.77,1757.14,1510.41,1756.9,1511.96,1753.56z"/>
<path class="st8" d="M1533.35,1693.25c2.49,1.32,4.81,3.94,3.38,6.87c0,0-25.07,54.09-25.07,54.09c-1.29,2.8-5.01,3.48-7.16,1.28
	c-4.92-4.83-10.26-16.36,0.15-42.59c2.06-3.5,7.19-11.29,11.16-24.17C1515.81,1688.74,1524.26,1687.61,1533.35,1693.25z"/>
<path class="st5" d="M1510.32,1737.93c0.07-0.14,0.11-0.3,0.12-0.47c0.03-0.7-0.5-1.29-1.2-1.33c-7.22-0.35-11.23,3.39-11.39,3.55
	c-0.5,0.49-0.52,1.28-0.04,1.79c0.48,0.51,1.28,0.53,1.78,0.05l0,0c0.14-0.13,3.44-3.15,9.53-2.85
	C1509.64,1738.69,1510.11,1738.39,1510.32,1737.93z"/>
<path class="st5" d="M1513.39,1728.5c0.05-0.11,0.09-0.23,0.11-0.36c0.09-0.69-0.39-1.33-1.09-1.42
	c-7.82-1.05-13.62,3.35-13.86,3.54c-0.56,0.43-0.66,1.22-0.23,1.77c0.42,0.55,1.22,0.66,1.77,0.23c0.05-0.04,5.23-3.94,11.97-3.03
	C1512.63,1729.3,1513.16,1728.99,1513.39,1728.5z"/>
<path class="st5" d="M1516.85,1717.76c0.06-0.13,0.1-0.26,0.11-0.41c0.07-0.7-0.44-1.31-1.13-1.38c-8.03-0.8-14.18,2.93-14.44,3.09
	c-0.59,0.36-0.78,1.14-0.42,1.74c0.37,0.59,1.14,0.78,1.74,0.42c0.06-0.03,5.71-3.44,12.86-2.73
	C1516.13,1718.54,1516.63,1718.24,1516.85,1717.76z"/>
<path class="st11" d="M1240.33,1784.47l3.05-0.6c-0.24-1.24-24.23-124.7-21.41-178.2c2.81-53.39,35.88-127.34,36.22-128.08
	l-2.84-1.28c-0.34,0.75-33.65,75.21-36.49,129.19C1216.03,1659.39,1240.08,1783.23,1240.33,1784.47z"/>
<path class="st9" d="M1504.5,1755.5l28.85-62.24c1.79,1.11,3.39,2.49,4.61,4.21l-26.3,56.75c-1.28,2.76-4.91,3.47-7.08,1.36
	C1504.55,1755.55,1504.53,1755.52,1504.5,1755.5z"/>
<path class="st10" d="M1276.42,1479.42c18.49,70.05,33.17,124.59,86.48,178.49c35.11,35.5,89.84,52.04,113.22,55.61
	c7.88,1.2,12.63,1.51,12.63,1.51s23.67-19.98,15.2-49.79c0,0-3.98-1.11-10.23-3.17c-19.53-6.39-59.92-22.84-73.72-40.83
	c-43.19-56.33-23.18-104-44.98-153.26L1276.42,1479.42z"/>
<path class="st11" d="M1476.12,1713.52c7.88,1.2,12.63,1.51,12.63,1.51s23.67-19.98,15.2-49.79c0,0-3.98-1.11-10.23-3.17
	C1493.71,1662.08,1496.88,1694.55,1476.12,1713.52z"/>
<path class="st0" d="M1289.56,1301.23c-1.44-12.54,0.53-30.67,2.28-38.08c3.16-14.68,26.47-9,22.59,5.43
	c-0.75-0.47-3.16,26.13-1.5,33.52C1334.8,1308.66,1269.01,1330.21,1289.56,1301.23z"/>
<path class="st12" d="M1314.65,1267.38c-0.03,0.17-0.05,0.34-0.08,0.51c-0.04,0.24-0.09,0.47-0.14,0.7
	c-0.54-0.36-2.06,14.32-2.07,24.97c-10.02,4.55-21.2,2.55-23.24,2.13c-0.45-11.26,1.31-25.22,2.22-30.45
	c0.27-1.22,0.47-1.94,0.5-2.09c0.08-0.33,0.18-0.66,0.28-0.97c1.12-3.34,3.65-5.88,6.75-7.1c0.01,0,0.01,0,0.01,0
	c2.15-0.85,4.57-1.06,6.99-0.47c2.39,0.58,4.43,1.86,5.95,3.57c0.07,0.07,0.13,0.14,0.19,0.21
	C1314.05,1260.81,1315.09,1264.05,1314.65,1267.38z"/>
<path class="st13" d="M1275.15,1240.23c0,0,2.22-12.35,7.48-20.26l6.52,4.62L1275.15,1240.23z"/>
<path class="st0" d="M1269.06,1276.43c7.03,9.92,19.63,14.46,30.38,13.91c3.35-0.12,6.62-0.75,9.64-2.02l0,0
	c1.02-0.43,2-0.91,2.96-1.47l0.01,0c45.99-33.37,2.89-107.23-30.84-54.37C1270.32,1247.14,1254.51,1253.38,1269.06,1276.43z"/>
<path class="st11" d="M1293.75,1520.91c0.05,0,0.08,0,0.11,0c0.43-0.02,0.83-0.21,1.11-0.54c0.28-0.33,0.41-0.76,0.36-1.18
	l-2.38-21.44c-0.1-0.85-0.87-1.46-1.72-1.37c-0.85,0.1-1.47,0.86-1.37,1.72l2.13,19.19c-0.62-0.32-1.35-0.82-2.12-1.64
	c-3.23-3.39-6.86-11.67-5.86-31.89c0.04-0.86-0.62-1.59-1.48-1.63c-0.85-0.05-1.59,0.62-1.63,1.48c-1.07,21.6,3.16,30.62,6.91,34.39
	C1290.55,1520.74,1293.14,1520.91,1293.75,1520.91z"/>
<path class="st14" d="M1291.33,1246.93c-0.27-0.84,0.19-1.75,1.04-2.02c0.84-0.27,1.75,0.2,2.02,1.04c0.27,0.84-0.19,1.75-1.04,2.02
	S1291.6,1247.78,1291.33,1246.93z"/>
<path class="st11" d="M1490.6,1701.92l0.68-3.03c-0.74-0.17-74.11-17-113.94-52.06c-41.21-36.26-54.61-113.64-64.4-170.14
	l-3.06,0.53c9.87,56.95,23.38,134.95,65.41,171.94C1415.73,1684.75,1489.86,1701.75,1490.6,1701.92z"/>
<path class="st14" d="M1278.36,1242.54c-0.27-0.84,0.19-1.75,1.04-2.02c0.84-0.27,1.75,0.2,2.02,1.04c0.27,0.84-0.19,1.75-1.04,2.02
	C1279.53,1243.85,1278.63,1243.38,1278.36,1242.54z"/>
<path class="st14" d="M1280.26,1256.92c0.91,0.26,1.87,0.36,2.71,0.24c0.33-0.05,0.56-0.36,0.51-0.69
	c-0.05-0.33-0.37-0.56-0.69-0.51c-2.11,0.32-4.8-1.15-5.04-2.12c-0.09-0.34,0.4-0.59,0.82-0.74c3.7-1.29,7.02-7.35,7.16-7.61
	c0.16-0.3,0.05-0.66-0.24-0.82c-0.31-0.17-0.66-0.05-0.82,0.24c-0.03,0.06-3.24,5.91-6.49,7.04c-1.77,0.62-1.71,1.73-1.6,2.18
	C1276.86,1255.3,1278.48,1256.41,1280.26,1256.92z"/>
<path class="st12" d="M1283.68,1228.85c9.33-3.13,24.25,3.53,31.92,4.71c0,0-3.75,12.82,7.94,24.29
	c-0.84,12.22,0.29,17.79-14.46,30.46l0,0c1.02-0.43,2-0.91,2.96-1.47l0.01,0C1356.28,1255.09,1317.23,1182.27,1283.68,1228.85z"/>
<path class="st13" d="M1281.42,1201.71c6.52-8.93,22.01-11.84,32.69,2.25c8.22,10.84,18.74,12.48,16.94,22.19
	c18.08,12.03,4.9,31.95,4.9,31.95l-9.59-2.75c-9.71-10.86-7.21-24.09-7.21-24.09l0,0c-2.51-0.28-5.12-0.82-7.35-1.79
	c-6.9-3.01-17.41-5.63-26.02-3.96C1277.18,1227.18,1274.13,1211.69,1281.42,1201.71z"/>
<path class="st0" d="M1336.06,1266.22c-1.87,4.85-6.56,7.56-10.47,6.05c-3.91-1.51-5.56-6.66-3.68-11.52
	c1.87-4.85,6.56-7.56,10.47-6.05C1336.29,1256.21,1337.93,1261.36,1336.06,1266.22z"/>
<path class="st14" d="M1327.54,1258c0.17-0.04,4.11-0.86,5.88,1.4c0.45,0.58,0.7,1.3,0.77,2.14c0,0,0,0,0,0.01
	c0.01,0.08,0.02,0.15,0.02,0.23c0,0,0,0,0,0c0,0,0,0,0,0c0.05,1.56-0.5,3.54-1.68,5.94c-0.13,0.27-0.44,0.4-0.71,0.32
	c-0.03-0.01-0.07-0.02-0.1-0.04c-0.3-0.15-0.43-0.51-0.28-0.81c0.95-1.94,1.46-3.56,1.54-4.84c-3.56,0.06-5.92,3.65-5.95,3.69
	c-0.15,0.23-0.43,0.33-0.68,0.26c-0.05-0.02-0.11-0.04-0.16-0.07c-0.28-0.18-0.37-0.55-0.19-0.84c0.12-0.18,2.7-4.2,6.89-4.29
	c-0.09-0.36-0.22-0.69-0.42-0.95c-1.3-1.67-4.64-0.97-4.67-0.97c-0.33,0.07-0.65-0.14-0.72-0.47
	C1327,1258.4,1327.21,1258.07,1327.54,1258z"/>
<path class="st15" d="M1320.39,1267.06l5.5-3.43c0.03-0.24,0.08-0.49,0.17-0.72c0.57-1.4,2.16-2.07,3.56-1.5
	c1.4,0.57,2.07,2.16,1.5,3.56c-0.55,1.36-2.07,2.02-3.44,1.54l-5.49,3.43c-0.42,0.26-0.92,0.32-1.36,0.19
	c-0.39-0.11-0.74-0.36-0.97-0.73C1319.36,1268.6,1319.6,1267.56,1320.39,1267.06z"/>
<path class="st16" d="M1231.02,1465.32c0.23,3.7,0.58,7.1,1.06,10.09c0,0,75.68,23.81,142.94-7.43c3.3-15.5,0.31-26.77-7.67-57.88
	c-5-17.48-2.46-42.37-3.82-51.01c-7.66-42.05-37.14-53.47-50.69-57.87c-6.95,17.71-27.34,12.93-23.29,0.02
	C1231.12,1316.19,1230.51,1408.68,1231.02,1465.32z"/>
<path class="st14" d="M1298.81,1245.61c0.11,0,0.22-0.02,0.33-0.07c0.39-0.18,0.55-0.64,0.37-1.03c-0.1-0.2-2.4-4.96-7.57-5.91
	c-0.42-0.08-0.82,0.2-0.9,0.62c-0.08,0.42,0.2,0.82,0.62,0.9c4.4,0.81,6.43,5.01,6.45,5.05
	C1298.24,1245.45,1298.52,1245.61,1298.81,1245.61z"/>
<path class="st14" d="M1278.28,1238.45c0.11,0,0.21-0.02,0.32-0.07c3.52-1.58,6.25-0.1,6.37-0.03c0.37,0.21,0.84,0.08,1.05-0.29
	c0.21-0.37,0.08-0.84-0.29-1.05c-0.14-0.08-3.5-1.95-7.76-0.03c-0.39,0.18-0.56,0.63-0.39,1.02
	C1277.7,1238.28,1277.99,1238.45,1278.28,1238.45z"/>
<path class="st0" d="M1347.72,1347.92c29.08-23.71,59.9-55.4,60.45-95.44c-2.83-32.8-19.3-63.22-40.76-87.59
	c-0.72-0.53-2.59-2.96-3.31-3.52c-4.81-6.87-15.69-1.73-12.69,6.27c11.14,25.51,20.47,53.08,19.29,81.2
	c-2.51,24.5-31.97,47.72-49.99,63.48C1297.73,1330.51,1324.04,1365.17,1347.72,1347.92z"/>
<path class="st11" d="M1354.45,1494.29c0.12,0,0.24-0.01,0.35-0.04c19.26-4.48,18.8-16.85,18.78-17.37
	c-0.03-0.49-0.28-0.94-0.69-1.21c-0.41-0.27-0.92-0.33-1.38-0.17c-18.29,6.55-37.04,9.96-37.23,9.99c-0.85,0.15-1.41,0.96-1.25,1.81
	c0.15,0.85,0.97,1.4,1.81,1.26c0.18-0.03,17.59-3.2,35.34-9.29c-0.86,3.24-4.09,9.18-16.06,11.96c-0.84,0.19-1.36,1.03-1.16,1.87
	C1353.1,1493.8,1353.74,1494.29,1354.45,1494.29z"/>
<path class="st16" d="M1314.75,1352.32c24.33,19.46,58.62-3.81,76.35-32.91c38.61-51.57,19.45-121.1-21.83-152.79
	c0,0-5.72,7.41-15.24,7.63c4.67,16.72,14.25,52.34,11.69,76.66c-3.32,26.45-38.73,36.77-49.61,51.31
	C1305.21,1316.75,1304.28,1343.43,1314.75,1352.32z"/>
<path class="st16" d="M1148.94,1270.19c-2.02,41.22,50.04,73.69,97.51,80.86l43.1-49.8c-13.98-6.88-86.3-14.11-98.68-31.06
	c-6.36-7.16-15.52-37-17.15-56.48c0,0-8.58,1.63-16.83-5.46C1152.25,1223.8,1148.04,1242.31,1148.94,1270.19z"/>
<path class="st14" d="M1282.28,1263.11c4.42,0,7.03-2.3,7.18-2.43c0.25-0.23,0.27-0.62,0.04-0.88c-0.23-0.25-0.62-0.27-0.88-0.04
	c-0.19,0.17-4.62,4.02-11.85,0.88c-0.31-0.14-0.68,0.01-0.82,0.32c-0.14,0.31,0.01,0.68,0.32,0.82
	C1278.53,1262.75,1280.54,1263.11,1282.28,1263.11z"/>
<path class="st17" d="M1356.7,1340.8c0,0,3.83,4.63,5.06,9.97c8.11-5.33,19.43-16.43,29.34-31.36
	C1391.1,1319.41,1374.52,1334.73,1356.7,1340.8z"/>
<path class="st17" d="M1205.93,1338.99c10.43,4.32,22.56,8.09,36.59,11.21c0,0,0.76-5.09,3.7-9.21
	C1246.22,1341,1227.33,1344.03,1205.93,1338.99z"/>
<path class="st17" d="M1296.5,1317.36c16.46,0.26,19.6-15.15,19.6-15.15c-2.05-0.7-3.26-0.98-3.26-0.98
	c-5.07,11.93-14.45,12.92-19.45,10.54c-5.98-2.84-4.02-9.79-3.84-10.53c-1.58,0.48-3.15,1.03-4.69,1.62
	C1284.17,1307.89,1284.51,1317.16,1296.5,1317.36z"/>
<path class="st17" d="M1354.02,1174.24c0,0,0.59,1.98,1.51,5.36c11.5,1.46,19.07-8.18,19.07-8.18c-3.25-3.14-5.33-4.8-5.33-4.8
	S1363.55,1174.03,1354.02,1174.24z"/>
<path class="st17" d="M1154.7,1215.83c9.42,7.13,19.76,4.14,19.76,4.14v-0.01c-0.31-2.14-0.56-4.24-0.74-6.26
	c0,0-8.58,1.63-16.83-5.46C1156.88,1208.24,1155.94,1210.99,1154.7,1215.83z"/>
<path class="st17" d="M1231.02,1465.32c0.23,3.7,0.58,7.1,1.06,10.09c0,0,75.68,23.81,142.94-7.43c0,0,1.29-2.2,1.3-9.31
	c0,0-33.22,13.31-72.85,15.93C1280.16,1476.13,1251.05,1470.34,1231.02,1465.32z"/>
<g id="_x33__3_">
	<polygon class="st18" points="983.54,1158.68 968.51,1147.59 950.85,1153.69 956.75,1135.97 945.5,1121.06 964.18,1121.19 
		974.88,1105.88 980.52,1123.69 998.39,1129.13 983.2,1140 	"/>
	<polygon class="st18" points="1001.43,1182.23 995.16,1177.6 987.79,1180.15 990.25,1172.75 985.55,1166.52 993.35,1166.58 
		997.82,1160.19 1000.17,1167.62 1007.63,1169.89 1001.29,1174.43 	"/>
	<polygon class="st18" points="536.46,1113.1 530.18,1108.47 522.81,1111.01 525.27,1103.61 520.57,1097.39 528.37,1097.45 
		532.84,1091.05 535.2,1098.49 542.66,1100.76 536.32,1105.3 	"/>
	<polygon class="st18" points="763.77,1215.46 756.12,1213.95 750.54,1219.4 749.61,1211.66 742.7,1208.04 749.78,1204.76 
		751.08,1197.07 756.39,1202.79 764.11,1201.65 760.31,1208.47 	"/>
	<polygon class="st18" points="787.64,1191.71 775.84,1184.38 763.12,1189.95 766.43,1176.47 757.21,1166.09 771.06,1165.08 
		778.07,1153.1 783.32,1165.96 796.88,1168.93 786.27,1177.89 	"/>
	<polygon class="st18" points="872.21,603.64 865.94,599.01 858.56,601.56 861.03,594.16 856.33,587.93 864.13,587.99 868.6,581.6 
		870.95,589.03 878.41,591.31 872.07,595.85 	"/>
	<polygon class="st18" points="1134.37,1405.66 1126.8,1403.78 1120.96,1408.96 1120.41,1401.18 1113.68,1397.23 1120.91,1394.3 
		1122.58,1386.68 1127.61,1392.64 1135.37,1391.89 1131.25,1398.51 	"/>
	<polygon class="st18" points="595.76,584.18 589.48,579.55 582.11,582.1 584.58,574.7 579.88,568.48 587.68,568.53 592.14,562.14 
		594.5,569.57 601.96,571.85 595.62,576.39 	"/>
	<polygon class="st18" points="1334.9,916.23 1328.62,911.6 1321.25,914.15 1323.72,906.75 1319.02,900.52 1326.82,900.58 
		1331.28,894.19 1333.64,901.62 1341.1,903.9 1334.76,908.44 	"/>
	<polygon class="st18" points="148.23,1067.22 141.95,1062.59 134.58,1065.13 137.04,1057.73 132.34,1051.51 140.14,1051.57 
		144.61,1045.17 146.97,1052.61 154.43,1054.88 148.09,1059.42 	"/>
	<polygon class="st18" points="375.79,872.5 369.52,867.87 362.14,870.42 364.61,863.02 359.91,856.79 367.71,856.85 372.17,850.46 
		374.53,857.89 381.99,860.17 375.65,864.7 	"/>
	<polygon class="st18" points="835.44,882.4 829.16,877.77 821.79,880.31 824.25,872.91 819.55,866.69 827.35,866.74 831.82,860.35 
		834.18,867.79 841.64,870.06 835.29,874.6 	"/>
	<polygon class="st18" points="424.88,1454.56 418.6,1449.93 411.23,1452.48 413.69,1445.08 408.99,1438.85 416.79,1438.91 
		421.26,1432.52 423.62,1439.95 431.08,1442.23 424.73,1446.76 	"/>
	<polygon class="st18" points="992.56,1408.34 986.28,1403.71 978.91,1406.26 981.38,1398.86 976.68,1392.63 984.48,1392.69 
		988.94,1386.3 991.3,1393.73 998.76,1396.01 992.42,1400.54 	"/>
	<polygon class="st18" points="562.85,1467.34 555.32,1465.31 549.38,1470.36 548.99,1462.57 542.35,1458.48 549.63,1455.7 
		551.47,1448.12 556.37,1454.19 564.15,1453.59 559.89,1460.13 	"/>
	<polygon class="st18" points="559.73,1145.92 548.86,1137.91 536.1,1142.31 540.37,1129.5 532.23,1118.73 545.73,1118.82 
		553.47,1107.76 557.55,1120.63 570.46,1124.56 559.48,1132.42 	"/>
	<polygon class="st18" points="1071.78,1042.38 1058.94,1038.22 1048.22,1046.44 1048.22,1032.93 1037.09,1025.29 1049.93,1021.1 
		1053.76,1008.16 1061.71,1019.08 1075.2,1018.72 1067.27,1029.65 	"/>
	<polygon class="st18" points="291.29,1168.87 280.43,1160.86 267.66,1165.26 271.93,1152.45 263.79,1141.68 277.3,1141.77 
		285.03,1130.71 289.11,1143.58 302.03,1147.52 291.05,1155.37 	"/>
	<polygon class="st18" points="459.6,1284.78 448.73,1276.76 435.97,1281.17 440.24,1268.36 432.1,1257.58 445.6,1257.68 
		453.34,1246.61 457.42,1259.48 470.33,1263.42 459.35,1271.28 	"/>
	<polygon class="st18" points="1104.74,1227.32 1093.88,1219.3 1081.11,1223.71 1085.38,1210.9 1077.24,1200.12 1090.75,1200.22 
		1098.48,1189.15 1102.56,1202.03 1115.48,1205.96 1104.5,1213.82 	"/>
	<polygon class="st18" points="1159.63,890.46 1148.76,882.44 1136,886.85 1140.27,874.04 1132.13,863.26 1145.63,863.36 
		1153.37,852.29 1157.45,865.16 1170.36,869.1 1159.38,876.96 	"/>
	<polygon class="st18" points="696.41,771.91 685.55,763.89 672.79,768.3 677.05,755.49 668.92,744.71 682.42,744.81 690.15,733.74 
		694.23,746.61 707.15,750.55 696.17,758.41 	"/>
</g>
<g id="_x32_">
	<path class="st0" d="M273.2,1811.54c-4.63-1.48-7.57-6.02-6.99-10.85c0,0,73.53-220.83,29.72-319.08
		c-13.04-29.25-56.02-29.04-104.92-5.54c-14.5,53.08-8.09,101.63-30.14,137.91c-16.17,26.61-48.9,47.86-110.13,53.22l8.82,54.31
		c0.5,3.08,4.21,4.41,6.55,2.34c6.83-7.7,3.12-18.83,5.31-29.46c0.76-4.8,4.79-8.33,9.65-8.57
		c137.38-6.89,150.67-64.27,162.54-119.65c0,0,13.1,128.84,0.65,240.5c-0.55,4.9-2.06,18.2-1.1,21.12l54.96-0.37
		c3.16-0.02,5.08-3.53,3.36-6.18C294.86,1813.4,283.36,1815.32,273.2,1811.54z"/>
	<path class="st0" d="M237.56,1390.73c-27.62-10.4-62.91-21.24-78.6-47.62c-28.12-47.28,6.08-92.4,35.44-120.14
		c4.33-4.6,10.32-9.68,15.99-3.74c6.04,7.06-3.03,13.6-6.19,19.63c-37.54,61.99-14.6,84.55,42.71,103.6
		C274.69,1351.68,265.61,1398.99,237.56,1390.73z"/>
	<path class="st19" d="M195.01,1222.39c0,0,3.09,7.2,14.41,9.15c0,0-0.51,2.78-2.98,4.01c0,0-9.36-0.21-14.92-9.88
		C191.51,1225.68,192.19,1223.49,195.01,1222.39z"/>
	<path class="st20" d="M258.84,1341.18c0,0-24.85-8.94-52.73-19.99c-27.89-11.06-9.94-43.43-18.1-47.02c0,0-17.04,1.74-26.66-10.9
		c0,0-20.08,4.99-17.79,46.85c2.29,41.86,36.74,70.02,64.63,77.19L258.84,1341.18z"/>
	<path class="st21" d="M278.91,1246.87c0,0,12.69-7.61,22.43,8.76s3.02,18.19,17.1,36.17c14.08,17.98-8.46,40.92-23.19,42.72
		c-14.73,1.8-1.57,21.15-30.24,20.59C236.34,1354.55,179.4,1269.75,278.91,1246.87z"/>
	<path class="st0" d="M284.39,1394.7c29.45,1.97,54.75,0.61,84.39-16.15c40.16-22.71,32.59-83.38,17.34-120.8
		c-2.04-5.98-5.39-13.08-13.01-10.02c-8.42,3.93-2.88,13.63-2.5,20.43c8.5,71.97-19.48,85.72-88.59,75.27
		C253.02,1339.58,255.44,1390.6,284.39,1394.7z"/>
	<path class="st19" d="M385.81,1256.98c0,0-5.79,5.28-16.9,2.37c0,0-0.68,2.74,1.05,4.89c0,0,8.61,3.69,17.67-2.81
		C387.63,1261.43,387.92,1259.14,385.81,1256.98z"/>
	<path class="st0" d="M283.06,1335.94l-1.04,7.48c3.96,3.93,6.35,55.43,5.75,58.07c-1.15,5.1-10.48,11.96-15.38-1.93
		c-1.6-4.52-12.58-56.63-13.55-58.38c0,0,0.16-10.2,0.45-13.53L283.06,1335.94z"/>
	<path class="st19" d="M55.68,1664.71c-1.8,0.52-3.5,1.31-4.96,2.5l8.89,54.76c0.43,2.66,3.37,4.16,5.74,2.87
		c5.53-3.03,12.88-11.63,10.11-37.09c0,0-3.95-8.17-3.69-22.71C71.77,1665.04,62.97,1662.59,55.68,1664.71z"/>
	<path class="st22" d="M65.44,1724.79l-9.76-60.08c-1.8,0.52-3.5,1.31-4.96,2.5l8.89,54.76
		C60.05,1724.66,63.07,1726.16,65.44,1724.79z"/>
	<path class="st19" d="M241.44,1822.51c0.24,1.86,0.76,3.66,1.7,5.28l55.49-0.37c2.7-0.02,4.63-2.69,3.72-5.22
		c-2.15-5.93-9.52-14.51-35.11-15.68c0,0-8.68,2.65-23.01,0.15C244.25,1806.67,240.47,1814.99,241.44,1822.51z"/>
	<path class="st22" d="M302.33,1822.11l-60.89,0.41c0.24,1.86,0.76,3.66,1.7,5.28l55.49-0.37
		C301.38,1827.41,303.32,1824.65,302.33,1822.11z"/>
	<path class="st12" d="M261.21,1307.11c0.01,0.4,0.03,0.81,0.08,1.21c0.57-0.29-2.71,12.96-3.94,23.36
		c10.27,8.38,23.41,6.19,25.45,6.02c1.78-13.14,2-25.27,0.97-33.03C281.33,1291.45,260.76,1293.7,261.21,1307.11z"/>
	<path class="st20" d="M191,1476.07c0,0,15.11-17.48,15.11-53.16c0-18.13,1.8-29.29,2.04-34.22c-3.09-25.92,34.66-41.68,50.7-47.51
		c6.43,10.24,12.25,56.41,21.37,57.72c10.09-2.13,1.75-52.78,2-55.59c6.13,11.31,16.22,29.12,22.06,38.34
		c5.71,9.15,9.27,17.4,9.58,27c0.51,22.25-23.9,40.92-11.05,80.7C302.79,1489.35,258.84,1521.44,191,1476.07z"/>
	<path class="st0" d="M296.66,1327.52c-9.29,6.77-21.92,7-31.38,3.26c-0.54-0.21-1.08-0.43-1.59-0.66
		c-20.25-9.04-20.86-43.01-9.27-58.69c7.22-10.8,23.21-15.43,34.09-7.59c7.52,5.77,9.24,14.71,11.45,24.19
		c0.72,2.49,2.35,5.86,4.09,8.25C310.71,1305.69,308.6,1318.35,296.66,1327.52z"/>
	<path class="st12" d="M272.5,1280.67c-17.99,2.68-18.37,16.81-18.37,16.81l-5.56-8.33l18.72-23.59l15.46-4.62
		c3.5,1.04,6.51,3.07,8.9,5.86C291.65,1266.79,290.49,1277.99,272.5,1280.67z"/>
	<path class="st23" d="M292.56,1313.55l-11.85-8.79C278.21,1312.43,285.56,1318.83,292.56,1313.55z"/>
	<path class="st14" d="M285.67,1294.37c1.19-1.57-1.29-3.4-2.44-1.8C282.04,1294.13,284.52,1295.97,285.67,1294.37z"/>
	<path class="st14" d="M298.6,1294.36c1.19-1.57-1.29-3.4-2.44-1.8C294.96,1294.12,297.45,1295.96,298.6,1294.36z"/>
	<path class="st14" d="M292.46,1314.12c-0.33-0.02-11.82-8.77-12.1-8.9c-0.25-0.19-0.31-0.55-0.12-0.8
		c0.14-1.46,12.34,8.8,12.65,8.67C293.38,1313.42,293.03,1314.23,292.46,1314.12z"/>
	<path class="st14" d="M291.66,1306.57c-0.7-0.19-2.2-0.3-1.87-1.29c0.15-0.28,0.49-0.39,0.77-0.25c1.79,1,6.63,0.45,4.64-1.28
		c-2.92-2.28-4.05-8.71-4.1-8.98c-0.14-0.73,1.01-0.93,1.13-0.19c0.01,0.06,1.11,6.27,3.68,8.27
		C298.97,1305.87,294.4,1306.99,291.66,1306.57z"/>
	<path class="st20" d="M282.21,1343.31c0,0,7.18-1.48,18.29,0c11.12,1.48,45.05-1.98,54.91-10.11c9.85-8.13,9.54-23.57,15.41-25.28
		c0,0,13.97,5.63,27.57,0c0,0,6.74,3.41,4.45,22.76c-2.29,19.34-11.79,64.97-90.25,69.13
		C312.59,1399.81,287.45,1374.53,282.21,1343.31z"/>
	<path class="st4" d="M307.04,1643.58c-3,0.99-5.96,1.88-8.89,2.67c-1.92,0.53-3.81,1-5.7,1.45c-7.07,1.66-13.94,2.79-20.6,3.45
		c-1.86,0.19-3.7,0.35-5.53,0.45c-7.7,0.51-15.1,0.4-22.18-0.18c-1.79-0.14-3.56-0.31-5.3-0.52c-6.88-0.79-13.41-2.03-19.58-3.56
		c-1.74-0.44-3.46-0.9-5.14-1.38c-8.72-2.48-16.62-5.55-23.62-8.78c-1.66-0.76-3.25-1.54-4.8-2.32
		c-7.16-3.58-13.22-7.27-18.07-10.52c-1.6-1.09-3.07-2.11-4.39-3.08c-6.01-4.36-9.21-7.4-9.21-7.4
		c13.27-16.62,15.11-71.23,17.66-100.7c3.26-37.92,32.6-69.62,32.6-69.62c1.56,0.5,3.1,0.97,4.64,1.42
		c1.77,0.53,3.54,1.02,5.28,1.51c6.13,1.67,12.07,3.03,17.77,4.13c1.83,0.36,3.63,0.69,5.4,0.99c3.39,0.57,6.68,1.06,9.86,1.47
		c1.82,0.23,3.59,0.44,5.33,0.61c2.89,0.32,5.67,0.55,8.35,0.73c1.8,0.13,3.57,0.23,5.28,0.31c2.3,0.11,4.51,0.17,6.62,0.2
		c1.89,0.03,3.69,0.03,5.4,0.02c3.38-0.03,6.42-0.15,9.09-0.3c2.03-0.12,3.84-0.26,5.43-0.4c5.03-0.45,7.8-0.96,7.8-0.96
		s13.31,35.04,16.12,75.58C321.69,1601.34,307.04,1643.58,307.04,1643.58z"/>
	<path class="st20" d="M282.21,1343.31c0,0,5.7-5.37,13.63-0.47c0,0,6.13,54.42-15.63,64.92c0,0-24.72-4.8-31.64-70.34
		c0,0,8.34-0.35,10.28,3.76c0,0,12.19,23.88,21.36,55.43C280.21,1396.61,283.7,1369.95,282.21,1343.31z"/>
	<path class="st21" d="M288.5,1263.83c0-15.98-31.87-48.14-62.91-11.23c-22.57,29.44-75.84,57.28-36.67,82.09
		c15.47,5.44,0.46,18.52,9.57,27.92s24.18,4.44,21.8,22.92c-2.38,18.48,8.55,24.62,21.44,25.69c12.89,1.07,33.41-30.82,20.73-45.05
		c-12.68-14.23,1.23-21.71-3.17-38.52c-4.41-16.81-11.94-20.98-11.94-20.98l5.34-14.12C256.1,1274.23,286.73,1280.98,288.5,1263.83z
		"/>
	<path class="st0" d="M239.82,1298.08c0.55,11.64,14.75,11.04,14.31-0.61C253.58,1285.84,239.39,1286.44,239.82,1298.08z"/>
	<path class="st14" d="M243,1301c-0.24-0.04-0.44-0.24-0.47-0.49c-1.36-7.58,3.02-9.92,7.41-7.2c0.64,0.37,0.05,1.37-0.59,0.98
		c-3.76-2.33-6.82-0.26-5.68,6.07C243.72,1300.73,243.37,1301.07,243,1301z"/>
	<path class="st14" d="M248.41,1301.09c-1-0.31-0.88-4.55-5.17-5.72c-0.31-0.07-0.5-0.38-0.43-0.69c0.07-0.31,0.38-0.51,0.69-0.43
		C247.8,1295.34,250.17,1301.13,248.41,1301.09z"/>
	<path class="st15" d="M244.29,1305.31c0.06,3.6,5.72,3.42,5.55-0.18C249.78,1301.52,244.12,1301.71,244.29,1305.31z"/>
	<path class="st0" d="M230.02,1207.43c-2.33-2.26-6.73,4.08-9.64,4.66c0.6-5.19,2.71-10.24,2.69-10.27
		c3.53-5.42,7.35-10.64,11.4-15.69c1.43-9.73-13.69,9.87-15.52,11.52c-0.03-0.02-0.06-0.03-0.09-0.05
		c2.43-6.32,5.22-12.52,8.5-18.45c-0.74-10.31-12.44,14.68-13.75,16.88c-0.02,0-0.03,0-0.05-0.01c1.28-6.33,3.34-12.51,6.02-18.4
		c-1.67-10.32-11.58,15.98-12.12,18.52c-0.03,0-0.05,0.01-0.08,0.01c0.28-5.12,1.22-10.2,2.4-15.2c-2.93-9.39-8.27,14.58-8.51,16.96
		c-0.99,1.56-4.3,12.24-4.94,22.44c-0.24,3.78,10.92,11.67,14.09,9.71c2.96-1.84,10.68-9.61,11.88-10.84
		C225.05,1217.22,231.35,1211.11,230.02,1207.43z"/>
	<path class="st0" d="M355.47,1229.2c2.87-1.52,5.33,5.79,7.96,7.16c0.86-5.15,0.24-10.59,0.27-10.61
		c-1.88-6.19-4.1-12.26-6.59-18.24c1.33-9.74,10.4,13.28,11.71,15.38c0.03-0.01,0.06-0.01,0.1-0.02
		c-0.58-6.75-1.53-13.48-3.04-20.08c3.58-9.7,7.86,17.56,8.51,20.04c0.02,0,0.03,0.01,0.05,0.01c0.53-6.44,0.27-12.95-0.67-19.35
		c4.47-9.45,6.68,18.57,6.49,21.16c0.02,0.01,0.05,0.02,0.07,0.03c1.15-5,1.67-10.14,1.92-15.27c5.43-8.2,3.89,16.31,3.46,18.66
		c0.52,1.77,1.12,15.85-1.1,25.82c-0.83,3.7-13.44,6.65-15.93,3.89c-2.34-2.59-8.28-13.58-9.09-15.09
		C357.52,1239.99,353.17,1232.36,355.47,1229.2z"/>
	<path class="st14" d="M279.7,1289.73c-0.25,0-0.49-0.13-0.61-0.37c-0.18-0.34-0.05-0.75,0.29-0.93c0.18-0.09,4.49-2.32,8.53-2.08
		c0.38,0.02,0.67,0.35,0.65,0.73c-0.02,0.38-0.34,0.68-0.73,0.65c-3.65-0.22-7.77,1.91-7.81,1.93
		C279.92,1289.71,279.81,1289.73,279.7,1289.73z"/>
	<path class="st14" d="M300.29,1289.73c-0.2,0-0.41-0.09-0.54-0.26c-1.75-2.22-5.51-1.77-5.55-1.77c-0.37,0.05-0.72-0.22-0.77-0.6
		c-0.05-0.38,0.22-0.72,0.59-0.77c0.19-0.02,4.57-0.56,6.81,2.28c0.24,0.3,0.18,0.73-0.11,0.97
		C300.58,1289.68,300.43,1289.73,300.29,1289.73z"/>
	<path class="st24" d="M214.21,1446.48c-6.68,11.02-21.82,37.99-27.09,63.97c-1.86,9.13-2.49,20.49-3.16,32.5
		c-1.39,25.11-3.04,54.85-16.33,81.4c-1.6-1.09-3.07-2.11-4.39-3.08c12.51-25.5,14.1-54.28,15.45-78.61
		c0.68-12.21,1.32-23.75,3.25-33.26c5.31-26.15,19.8-52.49,26.99-64.42C210.71,1445.5,212.47,1445.99,214.21,1446.48z"/>
	<path class="st24" d="M310.42,1559.63c-1.6,31.87-7.91,66.02-12.26,86.62c-1.92,0.53-3.81,1-5.7,1.45
		c4.33-20.05,11.04-55.44,12.7-88.33c2.03-40.3-12.5-88.53-17.84-104.73c2.03-0.12,3.84-0.26,5.43-0.4
		C298.48,1471.88,312.44,1519.49,310.42,1559.63z"/>
	<path class="st24" d="M287.02,1556.6c-3.02,40.59-11.47,79.1-15.17,94.55c-1.86,0.19-3.7,0.35-5.53,0.45
		c3.4-13.97,12.33-53.57,15.44-95.39c3.05-40.99-5.01-83.68-8.94-101.3c1.89,0.03,3.69,0.03,5.4,0.02
		C282.31,1473.63,290.05,1515.96,287.02,1556.6z"/>
	<path class="st24" d="M237.39,1451.6c-8.13,16.36-23.01,50.12-28.68,87.81l-0.41,2.75c-6,39.86-11.06,73.59-17.79,95.02
		c-1.66-0.76-3.25-1.54-4.8-2.32c6.53-21.32,11.67-55.5,17.38-93.48l0.41-2.75c5.62-37.34,20.09-70.87,28.49-88.02
		C233.81,1450.96,235.62,1451.29,237.39,1451.6z"/>
	<path class="st24" d="M252.58,1453.67c-5.49,17.38-19.16,65.39-23.38,124.87c-2.24,31.47-6.11,53.61-9.93,68.8
		c-1.74-0.44-3.46-0.9-5.14-1.38c3.75-14.87,7.6-36.7,9.82-67.79c4.18-58.89,17.54-106.69,23.3-125.11
		C249.07,1453.29,250.84,1453.51,252.58,1453.67z"/>
	<path class="st24" d="M266.21,1454.71c-0.8,25.82-4.83,122.7-22.06,196.71c-1.79-0.14-3.56-0.31-5.3-0.52
		c17.3-73.75,21.31-171,22.08-196.5C262.73,1454.53,264.5,1454.64,266.21,1454.71z"/>
</g>
<polygon class="st25" points="1422.67,1032.29 1355.51,977.34 1285.6,990.85 1185.51,1221.22 1411.55,1125.38 "/>
<polygon class="st26" points="1161.81,918.94 1247.81,930.54 1285.63,990.86 1185.54,1221.23 1101.35,990.59 "/>
<polygon class="st25" points="855.66,367.26 769.34,358.38 718.44,408.16 761.76,655.57 897.65,451.08 "/>
<polygon class="st26" points="575.51,416.32 653.68,378.63 718.47,408.15 761.8,655.56 564.5,509.42 "/>
<g>
	<polygon class="st25" points="935.8,723.88 893.86,701.7 857.86,716.51 829.14,850.8 939.91,774.97 	"/>
	<polygon class="st26" points="783.73,691.37 831.08,688.28 857.87,716.51 829.16,850.8 759.08,736.31 	"/>
</g>
<g>
	<polygon class="st25" points="788.47,1612.93 736.48,1563.39 677.95,1570.18 580.98,1754.04 773.49,1689.05 	"/>
	<polygon class="st26" points="580.29,1503.13 650.53,1518.06 677.98,1570.2 581.01,1754.05 525.92,1558.48 	"/>
</g>
<g>
	<polygon class="st25" points="854.38,1593 807.61,1605.86 791.17,1642.11 863.86,1762.24 893.24,1628.17 	"/>
	<polygon class="st26" points="718.36,1675.31 751.45,1639.84 791.19,1642.1 863.88,1762.23 731.48,1726.05 	"/>
</g>
<g>
	<polygon class="st25" points="1005.49,1568.99 965.49,1554.19 935.17,1571.64 925.48,1694.71 1015.21,1614.03 	"/>
	<polygon class="st26" points="866.14,1558.02 907.96,1549.66 935.18,1571.65 925.5,1694.71 849.49,1600.99 	"/>
</g>
<g>
	<polygon class="st25" points="891.78,1434.44 837.73,1414.44 796.75,1438.03 783.66,1604.33 904.91,1495.31 	"/>
	<polygon class="st26" points="703.48,1419.62 759.99,1408.32 796.77,1438.03 783.68,1604.33 680.98,1477.68 	"/>
</g>
<g>
	<polygon class="st25" points="983.93,1272.87 940.41,1251.64 904.17,1267.94 879.35,1405.89 989.83,1324.86 	"/>
	<polygon class="st26" points="827.72,1244.76 875.92,1240.03 904.19,1267.94 879.37,1405.9 804.07,1291.43 	"/>
</g>
<g>
	<polygon class="st25" points="707.93,1250.57 678.21,1219.59 643.07,1222.07 580.2,1329.27 696.93,1295.64 	"/>
	<polygon class="st26" points="586.54,1179.38 628.09,1190.2 643.08,1222.07 580.21,1329.28 552.57,1210.98 	"/>
</g>
<g>
	<polygon class="st25" points="827.59,1286.62 796.15,1288.23 780.66,1308.9 809.92,1395.19 847.3,1314.34 	"/>
	<polygon class="st26" points="729.87,1319.75 755.8,1301.91 780.67,1308.89 809.93,1395.19 731.09,1353.74 	"/>
</g>
<g>
	<polygon class="st25" points="753.62,881.01 723.42,884.91 710.02,906 744.68,987.06 774.7,906.28 	"/>
	<polygon class="st26" points="661.84,920.26 685.52,901.11 710.03,906 744.7,987.06 665.55,952.96 	"/>
</g>
<path class="st0" d="M1352.64,1170.65c-12.05-2.98-14.02-14.78-13.85-21.87c0.05-2.12,0.04-5.44,2.97-5.26
	c1.26,0.09,2.25,1.08,2.37,2.3c0.19,5.94,2.79,12.1,7.67,15.56C1356.23,1164.77,1356.97,1174.16,1352.64,1170.65z"/>
<path class="st0" d="M1172.69,1209.4c7.6-3.82,11.1-11.54,11.97-18.59c0.27-2.11,0.76-5.39-2.17-5.64
	c-1.26-0.09-2.38,0.74-2.68,1.93c-1.06,5.85-4.53,11.56-9.86,14.27C1165.07,1204.07,1167.9,1212.24,1172.69,1209.4z"/>
<path class="st0" d="M1146.52,216.64c-71.13,155.08-171.73,136.42-275.66,225.92c-36.44,35.17-86.75,67.14-95.16,38.74
	c-5.2-17.55,0.72-93.76,78.21-125.32c17.97-20.48,25.5-58.02,29.78-74.98C883.68,281,1012.28,217.38,1146.52,216.64z"/>
<path class="st2" d="M791.3,492.21c0,0-2.2-33.25,48.32-60.44c0,0,17.51,9,22.39,19C862.01,450.77,822.98,494.18,791.3,492.21z"/>
<g>
	<polygon class="st25" points="971.91,1405.07 939.01,1407.85 923.5,1430.05 957.16,1519.48 993.52,1433.44 	"/>
	<polygon class="st26" points="870.65,1443.19 897.21,1423.59 923.51,1430.05 957.17,1519.47 873.11,1478.77 	"/>
</g>
<g>
	<polygon class="st25" points="716.86,1424.58 697.17,1403.04 673.26,1404.16 628.82,1475.97 708.66,1455.01 	"/>
	<polygon class="st26" points="635.55,1374.25 663.6,1382.27 673.27,1404.17 628.83,1475.98 611.96,1395.17 	"/>
</g>
</svg>
