<svg id="Layer_2_copy" data-name="Layer 2 copy" xmlns="http://www.w3.org/2000/svg" xmlns:xlink="http://www.w3.org/1999/xlink" viewBox="0 0 929.9 1002.9"><defs><style>.cls-1{fill:none;}.cls-2{fill:#a4d3f1;opacity:0.47;}.cls-13,.cls-2{isolation:isolate;}.cls-3{fill:#2b2950;}.cls-4{fill:#2e67b1;}.cls-5{fill:#265b96;}.cls-6{fill:#4078bb;}.cls-7{fill:#3067b1;}.cls-8{fill:#f59386;}.cls-9{fill:#f27465;}.cls-10{fill:#eaf0f8;}.cls-11{fill:#98cef0;}.cls-12{fill:#faac18;}.cls-14{fill:#2ca5b6;}.cls-15{fill:#4e5b9a;}.cls-16{fill:#4b88b2;}.cls-17{fill:#8a4c8d;}.cls-18{fill:#7a5ca2;}.cls-19{fill:#475e69;}.cls-20{fill:#359bc1;}.cls-21{fill:#903941;}.cls-22{fill:#80333e;}.cls-23{fill:#b14d53;}.cls-24{fill:#6fc1a8;}.cls-25{fill:#fff;}.cls-26{fill:#89cebb;}.cls-27{fill:#a5bcd0;}.cls-28{fill:#f68d1f;}.cls-29{fill:#39414b;}.cls-30{fill:#505862;}.cls-31{fill:#dcdcdc;}.cls-32{clip-path:url(#clip-path);}.cls-33{fill:#493862;}.cls-34{fill:#47365e;}.cls-35{clip-path:url(#clip-path-2);}.cls-36{fill:#523e6d;}.cls-37{fill:#4f3c69;}.cls-38{fill:#4c3a66;}.cls-39{fill:#2f302f;}.cls-40{fill:#d8d8d8;}.cls-41{fill:url(#linear-gradient);}.cls-42{fill:#e73251;}</style><clipPath id="clip-path"><path class="cls-1" d="M135.1,485.7l.1-20.4a4.48,4.48,0,0,0,.4,2l-.1,20.4A4.48,4.48,0,0,1,135.1,485.7Z"/></clipPath><clipPath id="clip-path-2"><path class="cls-1" d="M173.3,530.4l-.1,20.4a20.37,20.37,0,0,1-6.9-2.5,11.22,11.22,0,0,1-4.3-4l.1-20.4c.6,1.4,2.2,2.8,4.3,4A20.37,20.37,0,0,0,173.3,530.4Z"/></clipPath><linearGradient id="linear-gradient" x1="744.55" y1="414.56" x2="744.55" y2="325.76" gradientTransform="matrix(1, 0, 0, -1, 0, 1001.46)" gradientUnits="userSpaceOnUse"><stop offset="0" stop-color="#e73251"/><stop offset="0.21" stop-color="#c6334c"/><stop offset="0.68" stop-color="#733740"/><stop offset="1" stop-color="#383938"/></linearGradient></defs><ellipse class="cls-2" cx="759.4" cy="827.5" rx="54.2" ry="13.1"/><path class="cls-3" d="M729.2,828c.4-.5,15-4.2,17.1-4s11.7,2.5,12,5.5,1.1,8.2-.3,8.8a10.43,10.43,0,0,1-6.4.7c-2.7-.6-6.2-4.2-8.5-4.2a41.15,41.15,0,0,1-11.2-1.8C727.6,831.3,727.9,829.4,729.2,828Z"/><path class="cls-4" d="M760.4,719.5l-.3,4.5c-.6,8.8-6,51.5-6,51.5s4.2,36.6,4.2,54.1c-1,1.8-2.4,3.2-4.7,2.9a6.48,6.48,0,0,1-2.1-.5,6.92,6.92,0,0,1-1.9-1,13.88,13.88,0,0,1-4.3-5.1s-11.7-47-12.2-54.6c-.9-13.8,2.6-32.1,3.1-47.3v-.5c1-23,18.1-22.3,21.7-20C760.8,705.3,760.8,712.2,760.4,719.5Z"/><path class="cls-5" d="M760.4,719.5a34.56,34.56,0,0,1-17,4.5,42,42,0,0,1-7.2-.6c1-23,18.1-22.3,21.7-20C760.8,705.3,760.8,712.2,760.4,719.5Z"/><path class="cls-5" d="M751.5,832a6.92,6.92,0,0,1-1.9-1c-2.7-14.6-9.3-51-10.2-57.9-1.1-8.8,8.4-58.5,8.8-60.5l1.7.3c-.1.5-9.9,51.5-8.8,60C742,780,749,818.3,751.5,832Z"/><path class="cls-6" d="M741.1,723.9c-8.2,16.4-22.9,37.8-22.9,37.8S730,796,731.9,801.2c.6,4.4-1.7,6.7-4.4,7a5,5,0,0,1-2.1-.1,8.63,8.63,0,0,1-4-2.1c-8.3-9.5-24.7-37.7-25.9-45.8-.8-5.5,10.7-28.8,19.6-44.5,4.3-7.6,8-13.4,9.3-14.5,4.1-3.2,22.4-4.8,22,7.6C746.3,712.3,744.1,717.8,741.1,723.9Z"/><path class="cls-7" d="M746.4,708.9c-.1,3.4-2.2,8.8-5.3,15-11.8-.6-21.8-5.7-26-8.1,4.3-7.6,8-13.4,9.3-14.5C728.4,698.1,746.8,696.5,746.4,708.9Z"/><path class="cls-4" d="M703.3,763.1c1.2,8.4,21.8,41.5,24.1,45.2a5,5,0,0,1-2.1-.1c-4.2-6.8-22.5-36.5-23.7-44.9-1.3-9.3,29.8-58.6,31.1-60.7l1.4.9C725.2,717.7,702.3,755.9,703.3,763.1Z"/><path class="cls-3" d="M730.5,798.1c-3.5-1.8-10.4.6-11.2,6.8s1.1,25,4,24.6,9.3-7.8,9.1-12.7-2.3-5.1-1.7-7.2S735.1,800.4,730.5,798.1Z"/><path class="cls-8" d="M771.4,580.1a6.13,6.13,0,0,0-.6.4c-.1.1-.2.1-.3.2-.4.2-.7.5-1.1.7s-.6.3-.9.5a9.17,9.17,0,0,1-2.5.8,1.27,1.27,0,0,0-.6.1,31.66,31.66,0,0,1-7.2-.3,17,17,0,0,0-.7,2.3c-1.2,4.4-3.6,13.5-5.9,20.6-1.7,5.2-3.2,9.5-4.3,10.1-4.1,2.4-11-.5-11.5-3.7-.1-1,.9-4.3,2.4-8.6,3.4-9.5,9.6-23.6,12.1-26.1,3.6-3.6,8.4-3.4,11.6-2.7a48.74,48.74,0,0,1,6.5,2.1,7.14,7.14,0,0,1,1.5.8C771.7,578.1,772.6,579.2,771.4,580.1Z"/><path class="cls-9" d="M751.7,605.2c-1.7,5.2-3.2,9.5-4.3,10.1-4.1,2.4-11-.5-11.5-3.7-.1-1,.9-4.3,2.4-8.6a15.47,15.47,0,0,1,7.2-.2A15.78,15.78,0,0,1,751.7,605.2Z"/><path class="cls-9" d="M769.9,577.1a4.58,4.58,0,0,1-3.4.6,15,15,0,0,1-2.7-.7,5.16,5.16,0,0,1-3.5.2,13.39,13.39,0,0,1-3.9-1.6c.3.1,4.2,1.4,6.8,0,3.1.9,4,1.2,5.1.8A12.62,12.62,0,0,1,769.9,577.1Z"/><path class="cls-9" d="M758.2,582.3a17,17,0,0,0-.7,2.3,12.76,12.76,0,0,1-6.1-4.3A19.6,19.6,0,0,0,758.2,582.3Z"/><path class="cls-9" d="M766,582.6a1.27,1.27,0,0,0-.6.1c-1.6-1.2-3.8-1.6-5.9-1.9a14.22,14.22,0,0,0-4.9-1.9c1.7-.1,3.4-.4,5.9,1.2C763.8,580.5,765.6,581.6,766,582.6Z"/><polygon class="cls-9" points="757.8 579.4 766 576.7 766.8 577 759.5 579.9 757.8 579.4"/><path class="cls-9" d="M771.4,580.1a6.13,6.13,0,0,0-.6.4c-.1.1-.2.1-.3.2a29.64,29.64,0,0,0-6.4-2.6.36.36,0,0,1,.1-.7,14,14,0,0,1,4,1.1A12,12,0,0,1,771.4,580.1Z"/><path class="cls-9" d="M769.4,581.3c-.3.2-.6.3-.9.5-.5-.3-1-.6-1.6-.9a42,42,0,0,0-5.3-2.2c-.4-.1-.3-.7.1-.6a18.48,18.48,0,0,1,5,1.7Q768.2,580.55,769.4,581.3Z"/><path class="cls-10" d="M735.9,611.6s5.3-6.3,11.6-3.1a9.21,9.21,0,0,1,4.3,5c6.8,18.2,9.4,28.7,10.4,34.4,1,6,1.7,10.2-2.9,11.5s-13.2-3.2-16.7-14.7S735.3,615.4,735.9,611.6Z"/><path class="cls-11" d="M734.7,610.7s2.5-4.4,9.2-4.2c7.3.2,8.9,4.9,8.9,4.9V616s-13-4.6-16.3,3.2C735,617.1,733.9,612.8,734.7,610.7Z"/><path class="cls-8" d="M728.1,617.9c-1.3,4.7-2,15,.5,16.3s5.2.3,6.3,2,1.4,5.3,1.4,5.3,8.7-.4,11-1.7c-.1-5.4-.6-6.7.1-8.4s5-9,3.1-14.8S730.5,608.9,728.1,617.9Z"/><path class="cls-3" d="M752,618.4c-.1-3.6-3.5-6.2-4.9-6.8-2.5-1.1-11.1-3.8-12.5-2.9a5,5,0,0,0-1.5,2.6,18.57,18.57,0,0,0-3.4.6c-1.6.5-3.7,4.3-2.8,6.5.3.8,4.8,3.7,4.8,3.7s.3,4.4,1,4.6c1-1.5,1.3-4.1,3.2-2.8s1.1,4.3.8,5.5-.7,1.7-1,1.6l.4,1.6,10.9.7a22.66,22.66,0,0,1,1.9-4.4C750.2,626.7,752.1,622,752,618.4Z"/><path class="cls-12" d="M739.7,639.3s-13.8,3-18.6,8.7c-3.6,4.2-2.5,5.1-3.8,12.5-1.2,6.6-1.8,27.1-1.5,49.9,1.5,2.8,15,8.8,25.2,7.9s16.6-3.9,19.9-7.8c.5-14.1,4.4-57.9.8-64.6C759.7,642.3,750.7,637.7,739.7,639.3Z"/><path class="cls-11" d="M729.6,642.8s3.3-4.2,10.7-5.7a15.73,15.73,0,0,1,12.8,3.4C752.6,641.2,739.7,642.6,729.6,642.8Z"/><path class="cls-8" d="M741.9,585.3l-.2.2c-.1.1-.2.1-.3.2a8.78,8.78,0,0,1-2,.4h-.2a31.9,31.9,0,0,1-4.3-.1,2.77,2.77,0,0,1-.9-.1,54,54,0,0,1-6.5-1.1,17.14,17.14,0,0,0-.6,2.6,14.91,14.91,0,0,1-.4,1.8c-.9,4.9-2.2,12.4-3.8,18.6-1.4,5.4-3.1,9.9-5.1,10.6-4.5,1.6-9.9.3-10.5-2.9-.2-1.2.9-5.5,2.5-10.8,3-9.5,7.6-22,9.7-24.5,2.3-2.9,5.8-3.9,9-4,1.8,0,5.3,1.4,8.3,3.2a10.54,10.54,0,0,1,1.1.7C740.7,582,742.8,584.1,741.9,585.3Z"/><path class="cls-9" d="M722.6,607.8c-1.4,5.4-3.1,9.9-5.1,10.6-4.5,1.6-9.9.3-10.5-2.9-.2-1.2.9-5.5,2.5-10.8C712.3,604,718.1,603.4,722.6,607.8Z"/><path class="cls-9" d="M727.4,584.8a20.74,20.74,0,0,0-.6,2.6c-2.5-1-5.4-2.7-5.3-4.8A37.4,37.4,0,0,0,727.4,584.8Z"/><path class="cls-9" d="M734.8,585.9a2.77,2.77,0,0,1-.9-.1l-.1-.1c-2.4-3.1-5.1-2.7-6.8-4-1.9-1.4-3.3-2-4.7-1.7a5.5,5.5,0,0,1,4.4-.4,34.12,34.12,0,0,0,4.6,2.2A6.7,6.7,0,0,1,734.8,585.9Z"/><path class="cls-9" d="M737.7,580l-7.3,2.3-1.2-1.1,7.4-2A3.83,3.83,0,0,0,737.7,580Z"/><path class="cls-9" d="M741.6,585.5c-.1.1-.2.1-.3.2-2.6-1.7-7-5.1-7-5.1l1.1-.1C735.4,580.4,740.2,583.7,741.6,585.5Z"/><path class="cls-9" d="M739.3,586h-.2l-7-4.6.8-.4Z"/><path class="cls-10" d="M706,615.9c.1-1.8,1.8-6.4,8.7-6.7a13.86,13.86,0,0,1,5.5,1,4.06,4.06,0,0,1,2.5,2.9l8.8,34.8s4.7,10.3-1.8,15.1-11.5,4.2-14.4-7.3C711.4,640.2,705.6,621.8,706,615.9Z"/><path class="cls-11" d="M705.4,618.5c0-.3-.7-4.2.6-6.7s4.3-4.9,10.2-3.9,6.6,3.8,7,4.7a23,23,0,0,1,.8,3.7s-6.6-3.4-12-1.7S705.4,618.5,705.4,618.5Z"/><g class="cls-13"><path class="cls-14" d="M548.5,386.3a11.22,11.22,0,0,1,4.3,4l26.5,56.6c1.3,2.8-.5,6.8-4,8.8l-71.4,41.5c-3.5,2-10.4,3.1-15.2,2.4l-97.9-15.2a20.37,20.37,0,0,1-6.9-2.5,11.22,11.22,0,0,1-4.3-4l-26.5-56.7c-1.3-2.8.5-6.8,4-8.8l71.4-41.5c3.5-2,10.4-3.1,15.2-2.4l97.9,15.2A29.86,29.86,0,0,1,548.5,386.3Z"/></g><g class="cls-13"><path class="cls-15" d="M766,341.9a11.22,11.22,0,0,1,4.3,4l26.5,56.6c1.3,2.8-.5,6.8-4,8.8l-71.4,41.5c-3.5,2-10.4,3.1-15.2,2.4L608.4,440a20.37,20.37,0,0,1-6.9-2.5,11.22,11.22,0,0,1-4.3-4l-26.5-56.7c-1.3-2.8.5-6.8,4-8.8l71.4-41.5c3.5-2,10.4-3.1,15.2-2.4l97.9,15.2A22.32,22.32,0,0,1,766,341.9Z"/></g><g class="cls-13"><path class="cls-16" d="M212.6,177.1a11.22,11.22,0,0,1,4.3,4l26.5,56.6c1.3,2.8-.5,6.8-4,8.8L168,288c-3.5,2-10.4,3.1-15.2,2.4L54.9,275.2a20.37,20.37,0,0,1-6.9-2.5,11.22,11.22,0,0,1-4.3-4L17.2,212.1c-1.3-2.8.5-6.8,4-8.8l71.4-41.5c3.5-2.1,10.4-3.1,15.2-2.4l97.9,15.2A20.37,20.37,0,0,1,212.6,177.1Z"/></g><g class="cls-13"><path class="cls-17" d="M430.1,131.1a11.22,11.22,0,0,1,4.3,4l26.5,56.7c1.3,2.8-.5,6.8-4,8.8l-71.4,41.5c-3.5,2.1-10.4,3.1-15.2,2.4l-97.9-15.2a20.37,20.37,0,0,1-6.9-2.5,11.22,11.22,0,0,1-4.3-4l-26.5-56.7c-1.3-2.8.5-6.8,4-8.8l71.4-41.5c3.5-2.1,10.4-3.1,15.2-2.4l97.9,15.2A25.76,25.76,0,0,1,430.1,131.1Z"/></g><g class="cls-13"><path class="cls-18" d="M647.7,86.7a11.22,11.22,0,0,1,4.3,4l26.5,56.7c1.3,2.8-.5,6.8-4,8.8l-71.4,41.5c-3.5,2.1-10.4,3.1-15.2,2.4L490,184.8a20.37,20.37,0,0,1-6.9-2.5,11.22,11.22,0,0,1-4.3-4l-26.5-56.7c-1.3-2.8.5-6.8,4-8.8l71.4-41.5c3.5-2.1,10.4-3.1,15.2-2.4l97.9,15.2A27.29,27.29,0,0,1,647.7,86.7Z"/></g><g class="cls-13"><path class="cls-19" d="M382.2,284.2a11.22,11.22,0,0,1,4.3,4L413,344.8c1.3,2.8-.5,6.8-4,8.8l-71.4,41.5c-3.5,2-10.4,3.1-15.2,2.4l-97.9-15.2a20.37,20.37,0,0,1-6.9-2.5,11.22,11.22,0,0,1-4.3-4l-26.5-56.6c-1.3-2.8.5-6.8,4-8.8l71.4-41.5c3.5-2,10.4-3.1,15.2-2.4l97.9,15.2A20.37,20.37,0,0,1,382.2,284.2Z"/></g><g class="cls-13"><path class="cls-20" d="M817.2,193.8a11.22,11.22,0,0,1,4.3,4L848,254.4c1.3,2.8-.5,6.8-4,8.8l-71.4,41.5c-3.5,2-10.4,3.1-15.2,2.4l-97.9-15.2a20.37,20.37,0,0,1-6.9-2.5,11.22,11.22,0,0,1-4.3-4l-26.5-56.6c-1.3-2.8.5-6.8,4-8.8l71.4-41.5c3.5-2.1,10.4-3.1,15.2-2.4l97.9,15.2A19.63,19.63,0,0,1,817.2,193.8Z"/></g><path class="cls-2" d="M900.7,895.9c0,7.2-20,13.1-44.7,13.1s-44.7-5.9-44.7-13.1,20-13.1,44.7-13.1S900.7,888.7,900.7,895.9Z"/><path class="cls-3" d="M835.8,892c.4-.5,15-4.2,17.1-4s11.7,2.5,12,5.5,1.1,8.2-.3,8.8a10.43,10.43,0,0,1-6.4.7c-2.7-.6-6.2-4.2-8.5-4.2a41.15,41.15,0,0,1-11.2-1.8C834.2,895.2,834.5,893.4,835.8,892Z"/><path class="cls-21" d="M867,783.5l-.3,4.5c-.6,8.8-6,51.5-6,51.5s4.2,36.6,4.2,54.1c-1,1.8-2.4,3.2-4.7,2.9a6.48,6.48,0,0,1-2.1-.5,6.92,6.92,0,0,1-1.9-1,13.88,13.88,0,0,1-4.3-5.1s-11.7-47-12.2-54.6c-.9-13.8,2.6-32.1,3.1-47.3v-.5c1-23,18.1-22.3,21.7-20C867.5,769.2,867.4,776.2,867,783.5Z"/><path class="cls-22" d="M867,783.5a34.56,34.56,0,0,1-17,4.5,42,42,0,0,1-7.2-.6c1-23,18.1-22.3,21.7-20C867.5,769.2,867.4,776.2,867,783.5Z"/><path class="cls-22" d="M858.1,895.9a6.92,6.92,0,0,1-1.9-1c-2.7-14.6-9.3-51-10.2-57.9-1.1-8.8,8.4-58.5,8.8-60.5l1.7.3c-.1.5-9.9,51.5-8.8,60C848.6,843.9,855.6,882.3,858.1,895.9Z"/><path class="cls-23" d="M847.7,787.9c-8.2,16.4-22.9,37.8-22.9,37.8s11.8,34.3,13.7,39.5c.6,4.4-1.7,6.7-4.4,7a5,5,0,0,1-2.1-.1,8.63,8.63,0,0,1-4-2.1c-8.3-9.5-24.7-37.7-25.9-45.9-.8-5.5,10.7-28.8,19.6-44.5,4.3-7.6,8-13.4,9.3-14.5,4.1-3.2,22.4-4.8,22,7.6C852.9,776.3,850.8,781.7,847.7,787.9Z"/><path class="cls-21" d="M853,772.9c-.1,3.4-2.2,8.8-5.3,15-11.8-.6-21.8-5.7-26-8.1,4.3-7.6,8-13.4,9.3-14.5C835,762.1,853.4,760.5,853,772.9Z"/><path class="cls-21" d="M809.9,827.1c1.2,8.4,21.8,41.5,24.1,45.2a5,5,0,0,1-2.1-.1c-4.2-6.8-22.5-36.5-23.7-44.9-1.3-9.3,29.8-58.6,31.1-60.7l1.4.9C831.8,781.7,808.9,819.9,809.9,827.1Z"/><path class="cls-3" d="M837.1,862c-3.5-1.8-10.4.6-11.2,6.8s1.1,25,4,24.6,9.3-7.8,9.1-12.7-2.3-5.1-1.7-7.2S841.7,864.4,837.1,862Z"/><path class="cls-8" d="M878.1,644a6.13,6.13,0,0,0-.6.4c-.1.1-.2.1-.3.2-.4.2-.7.5-1.1.7s-.6.3-.9.5a9.17,9.17,0,0,1-2.5.8,1.27,1.27,0,0,0-.6.1,31.66,31.66,0,0,1-7.2-.3,17,17,0,0,0-.7,2.3c-1.2,4.4-3.6,13.5-5.9,20.6-1.7,5.2-3.2,9.5-4.3,10.1-4.1,2.4-11-.5-11.5-3.7-.1-1,.9-4.3,2.4-8.6,3.4-9.5,9.6-23.6,12.1-26.1,3.6-3.6,8.4-3.4,11.6-2.7a48.74,48.74,0,0,1,6.5,2.1,7.14,7.14,0,0,1,1.5.8C878.3,642.1,879.2,643.2,878.1,644Z"/><path class="cls-9" d="M858.3,669.2c-1.7,5.2-3.2,9.5-4.3,10.1-4.1,2.4-11-.5-11.5-3.7-.1-1,.9-4.3,2.4-8.6a15.47,15.47,0,0,1,7.2-.2A15.78,15.78,0,0,1,858.3,669.2Z"/><path class="cls-9" d="M876.5,641.1a4.58,4.58,0,0,1-3.4.6,15,15,0,0,1-2.7-.7,5.16,5.16,0,0,1-3.5.2,13.39,13.39,0,0,1-3.9-1.6c.3.1,4.2,1.4,6.8,0,3.1.9,4,1.2,5.1.8A4.79,4.79,0,0,1,876.5,641.1Z"/><path class="cls-9" d="M864.8,646.3a17,17,0,0,0-.7,2.3,12.76,12.76,0,0,1-6.1-4.3A19.6,19.6,0,0,0,864.8,646.3Z"/><path class="cls-9" d="M872.7,646.6a1.27,1.27,0,0,0-.6.1c-1.6-1.2-3.8-1.6-5.9-1.9a14.22,14.22,0,0,0-4.9-1.9c1.7-.1,3.4-.4,5.9,1.2C870.5,644.5,872.2,645.6,872.7,646.6Z"/><polygon class="cls-9" points="864.4 643.4 872.6 640.6 873.4 641 866.1 643.8 864.4 643.4"/><path class="cls-9" d="M878,644a6.13,6.13,0,0,0-.6.4c-.1.1-.2.1-.3.2a29.64,29.64,0,0,0-6.4-2.6.36.36,0,0,1,.1-.7,14,14,0,0,1,4,1.1A23.87,23.87,0,0,1,878,644Z"/><path class="cls-9" d="M876,645.3c-.3.2-.6.3-.9.5-.5-.3-1-.6-1.6-.9a42,42,0,0,0-5.3-2.2c-.4-.1-.3-.7.1-.6a18.48,18.48,0,0,1,5,1.7A21.77,21.77,0,0,1,876,645.3Z"/><path class="cls-10" d="M842.5,675.5s5.3-6.3,11.6-3.1a9.21,9.21,0,0,1,4.3,5c6.8,18.2,9.4,28.7,10.4,34.4,1,6,1.7,10.2-2.9,11.5s-13.2-3.2-16.7-14.7S841.9,679.4,842.5,675.5Z"/><path class="cls-11" d="M841.3,674.7s2.5-4.4,9.2-4.2c7.3.2,8.9,4.9,8.9,4.9V680s-13-4.6-16.3,3.2C841.6,681.1,840.6,676.8,841.3,674.7Z"/><path class="cls-8" d="M834.7,681.8c-1.3,4.7-2,15,.5,16.3s5.2.3,6.3,2,1.4,5.3,1.4,5.3,8.7-.4,11-1.7c-.1-5.4-.6-6.7.1-8.4s5-9,3.1-14.8S837.2,672.9,834.7,681.8Z"/><path class="cls-3" d="M858.6,682.4c-.1-3.6-3.5-6.2-4.9-6.8-2.5-1.1-11.1-3.8-12.5-2.9a5,5,0,0,0-1.5,2.6,18.57,18.57,0,0,0-3.4.6c-1.6.5-3.7,4.3-2.8,6.5.3.8,4.8,3.7,4.8,3.7s.3,4.4,1,4.6c1-1.5,1.3-4.1,3.2-2.8s1.1,4.3.8,5.5-.7,1.7-1,1.6l.4,1.6,10.9.7a22.66,22.66,0,0,1,1.9-4.4A22,22,0,0,0,858.6,682.4Z"/><path class="cls-12" d="M846.3,703.3s-13.8,3-18.6,8.7c-3.6,4.2-2.5,5.1-3.8,12.5-1.2,6.6-1.8,27.1-1.5,49.9,1.5,2.8,15,8.8,25.2,7.9s16.6-3.9,19.9-7.8c.5-14.1,4.4-57.9.8-64.6C866.3,706.3,857.3,701.7,846.3,703.3Z"/><path class="cls-11" d="M836.2,706.7s3.3-4.2,10.7-5.7a15.73,15.73,0,0,1,12.8,3.4C859.2,705.1,846.3,706.6,836.2,706.7Z"/><path class="cls-8" d="M848.5,649.2l-.2.2c-.1.1-.2.1-.3.2a8.78,8.78,0,0,1-2,.4h-.2a31.9,31.9,0,0,1-4.3-.1,2.77,2.77,0,0,1-.9-.1,54,54,0,0,1-6.5-1.1,17.14,17.14,0,0,0-.6,2.6,14.91,14.91,0,0,1-.4,1.8c-.9,4.9-2.2,12.4-3.8,18.6-1.4,5.4-3.1,9.9-5.1,10.6-4.5,1.6-9.9.3-10.5-2.9-.2-1.2.9-5.5,2.5-10.8,3-9.5,7.6-22,9.7-24.5,2.3-2.9,5.8-3.9,9-4,1.8,0,5.3,1.4,8.3,3.2a10.54,10.54,0,0,1,1.1.7C847.3,645.9,849.4,648.1,848.5,649.2Z"/><path class="cls-9" d="M829.2,671.7c-1.4,5.4-3.1,9.9-5.1,10.6-4.5,1.6-9.9.3-10.5-2.9-.2-1.2.9-5.5,2.5-10.8C818.9,668,824.8,667.4,829.2,671.7Z"/><path class="cls-9" d="M834,648.7a20.74,20.74,0,0,0-.6,2.6c-2.5-1-5.4-2.7-5.3-4.8A28.9,28.9,0,0,0,834,648.7Z"/><path class="cls-9" d="M841.4,649.9a2.77,2.77,0,0,1-.9-.1l-.1-.1c-2.4-3.1-5.1-2.7-6.8-4-1.9-1.4-3.3-2-4.7-1.7a5.5,5.5,0,0,1,4.4-.4,34.12,34.12,0,0,0,4.6,2.2A6.4,6.4,0,0,1,841.4,649.9Z"/><path class="cls-9" d="M844.3,644l-7.3,2.3-1.2-1.1,7.5-2A3.51,3.51,0,0,0,844.3,644Z"/><path class="cls-9" d="M848.3,649.4c-.1.1-.2.1-.3.2-2.6-1.7-7-5.1-7-5.1l1.1-.1C842,644.4,846.8,647.7,848.3,649.4Z"/><path class="cls-9" d="M845.9,650h-.2l-7-4.6.8-.4Z"/><path class="cls-10" d="M812.6,679.8c.1-1.8,1.8-6.4,8.7-6.7a13.86,13.86,0,0,1,5.5,1,4.06,4.06,0,0,1,2.5,2.9l8.8,34.8s4.7,10.3-1.8,15.1-11.5,4.2-14.4-7.3C818.1,704.2,812.2,685.8,812.6,679.8Z"/><path class="cls-11" d="M812,682.5c0-.3-.7-4.2.6-6.7s4.3-4.9,10.2-3.9,6.6,3.8,7,4.7a23,23,0,0,1,.8,3.7s-6.6-3.4-12-1.7S812,682.5,812,682.5Z"/><ellipse class="cls-2" cx="774.9" cy="951.2" rx="60.3" ry="13.1"/><path class="cls-6" d="M771.9,842.8c-2.5,18.2-9.7,43.2-9.7,43.2s22.1,28.7,25.5,33.1c2,4,.6,6.9-2,8.1a6.64,6.64,0,0,1-2,.6,7.61,7.61,0,0,1-4.4-.7c-10.9-6.4-35.5-27.9-39.1-35.2-2.5-5,1-30.8,4.4-48.4,1.7-8.6,3.3-15.3,4.2-16.7,2.8-4.3,19.7-11.7,23.3.2C773.1,830.1,772.8,836,771.9,842.8Z"/><path class="cls-7" d="M772.2,826.9c1,3.2.7,9.1-.3,15.9-11.3,3.2-22.5,1.6-27.3.6,1.7-8.6,3.3-15.3,4.2-16.7C751.7,822.4,768.6,815,772.2,826.9Z"/><path class="cls-4" d="M748.5,892c3.8,7.6,33.9,32.4,37.2,35.2a6.64,6.64,0,0,1-2,.6c-6.2-5.1-33-27.5-36.7-35-4.2-8.4,9.6-65,10.2-67.4l1.6.4C754.9,842,745.3,885.5,748.5,892Z"/><path class="cls-3" d="M785.4,916.5c-3.9-.5-9.7,3.9-8.5,10s9,23.4,11.7,22.1,6.4-10.4,4.6-15-3.8-4.1-3.9-6.3S790.6,917.2,785.4,916.5Z"/><path class="cls-3" d="M724.7,947.6c.4-.5,15-4.2,17.1-4s11.7,2.5,12,5.5,1.1,8.2-.3,8.8a10.43,10.43,0,0,1-6.4.7c-2.7-.6-6.2-4.2-8.5-4.2a41.15,41.15,0,0,1-11.2-1.8C723.2,950.8,723.5,949,724.7,947.6Z"/><path class="cls-4" d="M756,839.1c-.1,1.5-.2,3-.3,4.4a2.77,2.77,0,0,1-.1.9c-.8,10.5-6,50.6-6,50.6s4.2,36.6,4.2,54c-1,1.8-2.4,3.2-4.7,2.9a12.91,12.91,0,0,1-2.1-.5,11.4,11.4,0,0,1-1.9-1,13.88,13.88,0,0,1-4.3-5.1s-11.7-46.9-12.2-54.6c-.9-13.7,2.6-32,3.1-47.3v-.5c.9-23,18.1-22.3,21.6-20,.1,0,.2.1.3.2s.2.1.3.2.1.1.2.2C756.4,826.1,756.3,832.4,756,839.1Z"/><path class="cls-5" d="M756,839.1c-.1,1.5-.2,3-.3,4.4a2.77,2.77,0,0,1-.1.9c-5,.2-11.7-.9-16.7-.9a42,42,0,0,1-7.2-.6c.9-23,18.1-22.3,21.6-20,.1,0,.2.1.3.2s.2.1.3.2.1.1.2.2C756.4,826.1,756.3,832.4,756,839.1Z"/><path class="cls-5" d="M747,951.5a6.92,6.92,0,0,1-1.9-1c-2.7-14.6-9.3-51-10.2-57.9-1.1-8.8,8.4-58.5,8.8-60.5l1.7.3c-.1.5-9.9,51.5-8.8,60C737.5,899.5,744.5,937.9,747,951.5Z"/><path class="cls-8" d="M783.7,698.5a6.13,6.13,0,0,0-.6.4c-.1.1-.2.1-.3.2-.4.2-.7.5-1.1.7s-.6.3-.9.5a9.17,9.17,0,0,1-2.5.8,1.27,1.27,0,0,0-.6.1,31.66,31.66,0,0,1-7.2-.3,17,17,0,0,0-.7,2.3c-1.2,4.4-3.6,13.5-5.9,20.6-1.7,5.2-3.2,9.5-4.3,10.1-4.1,2.4-11-.5-11.5-3.7-.1-1,.9-4.3,2.4-8.6,3.4-9.5,9.6-23.6,12.1-26.1,3.6-3.6,8.4-3.4,11.6-2.7a48.74,48.74,0,0,1,6.5,2.1,7.14,7.14,0,0,1,1.5.8C784,696.5,784.9,697.6,783.7,698.5Z"/><path class="cls-9" d="M764,723.6c-1.7,5.2-3.2,9.5-4.3,10.1-4.1,2.4-11-.5-11.5-3.7-.1-1,.9-4.3,2.4-8.6a15.47,15.47,0,0,1,7.2-.2A15.78,15.78,0,0,1,764,723.6Z"/><path class="cls-9" d="M782.2,695.5a4.58,4.58,0,0,1-3.4.6,15,15,0,0,1-2.7-.7,5.16,5.16,0,0,1-3.5.2,13.39,13.39,0,0,1-3.9-1.6c.3.1,4.2,1.4,6.8,0,3.1.9,4,1.2,5.1.8A12.62,12.62,0,0,1,782.2,695.5Z"/><path class="cls-9" d="M770.5,700.7a17,17,0,0,0-.7,2.3,12.76,12.76,0,0,1-6.1-4.3A19.6,19.6,0,0,0,770.5,700.7Z"/><path class="cls-9" d="M778.4,701a1.27,1.27,0,0,0-.6.1c-1.6-1.2-3.8-1.6-5.9-1.9a14.22,14.22,0,0,0-4.9-1.9c1.7-.1,3.4-.4,5.9,1.2C776.1,698.9,777.9,700,778.4,701Z"/><polygon class="cls-9" points="770.1 697.8 778.3 695.1 779.1 695.4 771.8 698.3 770.1 697.8"/><path class="cls-9" d="M783.7,698.5a6.13,6.13,0,0,0-.6.4c-.1.1-.2.1-.3.2a29.64,29.64,0,0,0-6.4-2.6.36.36,0,0,1,.1-.7,14,14,0,0,1,4,1.1A16,16,0,0,1,783.7,698.5Z"/><path class="cls-9" d="M781.7,699.8c-.3.2-.6.3-.9.5-.5-.3-1-.6-1.6-.9a42,42,0,0,0-5.3-2.2c-.4-.1-.3-.7.1-.6a18.48,18.48,0,0,1,5,1.7A11.74,11.74,0,0,1,781.7,699.8Z"/><path class="cls-10" d="M748.2,730s5.3-6.3,11.6-3.1a9.21,9.21,0,0,1,4.3,5c6.8,18.2,9.4,28.7,10.4,34.4,1,6,1.7,10.2-2.9,11.5s-13.2-3.2-16.7-14.7S747.6,733.9,748.2,730Z"/><path class="cls-11" d="M747,729.1s2.5-4.4,9.2-4.2c7.3.2,8.9,4.9,8.9,4.9v4.6s-13-4.6-16.3,3.2C747.3,735.5,746.2,731.2,747,729.1Z"/><path class="cls-8" d="M740.4,736.3c-1.3,4.7-2,15,.5,16.3s5.2.3,6.3,2,1.4,5.3,1.4,5.3,8.7-.4,11-1.7c-.1-5.4-.6-6.7.1-8.4s5-9,3.1-14.8S742.8,727.4,740.4,736.3Z"/><path class="cls-3" d="M764.3,736.8c-.1-3.6-3.5-6.2-4.9-6.8-2.5-1.1-11.1-3.8-12.5-2.9a5,5,0,0,0-1.5,2.6,18.57,18.57,0,0,0-3.4.6c-1.6.5-3.7,4.3-2.8,6.5.3.8,4.8,3.7,4.8,3.7s.3,4.4,1,4.6c1-1.5,1.3-4.1,3.2-2.8s1.1,4.3.8,5.5-.7,1.7-1,1.6l.4,1.6,10.9.7a22.66,22.66,0,0,1,1.9-4.4C762.5,745.2,764.4,740.5,764.3,736.8Z"/><path class="cls-12" d="M752,757.7s-13.8,3-18.6,8.7c-3.6,4.2-2.5,5.1-3.8,12.5-1.2,6.6-1.8,27.1-1.5,49.9,1.5,2.8,15,8.8,25.2,7.9s16.6-3.9,19.9-7.8c.5-14.1,4.4-57.9.8-64.6C772,760.7,763,756.1,752,757.7Z"/><path class="cls-11" d="M741.9,761.2s3.3-4.2,10.7-5.7a15.73,15.73,0,0,1,12.8,3.4C764.9,759.6,752,761,741.9,761.2Z"/><path class="cls-8" d="M754.2,703.7l-.2.2c-.1.1-.2.1-.3.2a8.78,8.78,0,0,1-2,.4h-.2a31.9,31.9,0,0,1-4.3-.1,2.77,2.77,0,0,1-.9-.1,54,54,0,0,1-6.5-1.1,17.14,17.14,0,0,0-.6,2.6,14.91,14.91,0,0,1-.4,1.8c-.9,4.9-2.2,12.4-3.8,18.6-1.4,5.4-3.1,9.9-5.1,10.6-4.5,1.6-9.9.3-10.5-2.9-.2-1.2.9-5.5,2.5-10.8,3-9.5,7.6-22,9.7-24.5,2.3-2.9,5.8-3.9,9-4,1.8,0,5.3,1.4,8.3,3.2a10.54,10.54,0,0,1,1.1.7C753,700.4,755.1,702.5,754.2,703.7Z"/><path class="cls-9" d="M734.9,726.2c-1.4,5.4-3.1,9.9-5.1,10.6-4.5,1.6-9.9.3-10.5-2.9-.2-1.2.9-5.5,2.5-10.8C724.6,722.5,730.5,721.8,734.9,726.2Z"/><path class="cls-9" d="M739.7,703.2a20.74,20.74,0,0,0-.6,2.6c-2.5-1-5.4-2.7-5.3-4.8A37.4,37.4,0,0,0,739.7,703.2Z"/><path class="cls-9" d="M747.1,704.3a2.77,2.77,0,0,1-.9-.1l-.1-.1c-2.4-3.1-5.1-2.7-6.8-4-1.9-1.4-3.3-2-4.7-1.7a5.5,5.5,0,0,1,4.4-.4,34.12,34.12,0,0,0,4.6,2.2A7,7,0,0,1,747.1,704.3Z"/><path class="cls-9" d="M750,698.5l-7.3,2.3-1.2-1.1,7.4-2Z"/><path class="cls-9" d="M753.9,703.9c-.1.1-.2.1-.3.2-2.6-1.7-7-5.1-7-5.1l1.1-.1C747.7,698.8,752.5,702.1,753.9,703.9Z"/><path class="cls-9" d="M751.6,704.5h-.2l-7-4.6.8-.4Z"/><path class="cls-10" d="M718.3,734.3c.1-1.8,1.8-6.4,8.7-6.7a13.86,13.86,0,0,1,5.5,1,4.06,4.06,0,0,1,2.5,2.9l8.8,34.8s4.7,10.3-1.8,15.1-11.5,4.2-14.4-7.3C723.8,758.6,717.9,740.2,718.3,734.3Z"/><path class="cls-11" d="M717.7,737c0-.3-.7-4.2.6-6.7s4.3-4.9,10.2-3.9,6.6,3.8,7,4.7a23,23,0,0,1,.8,3.7s-6.6-3.4-12-1.7S717.7,737,717.7,737Z"/><ellipse class="cls-2" cx="663.5" cy="893.6" rx="49.7" ry="13.1"/><path class="cls-3" d="M638.8,891c.4-.5,15-4.2,17.1-4s11.7,2.5,12,5.5,1.1,8.2-.3,8.8a10.43,10.43,0,0,1-6.4.7c-2.7-.6-6.2-4.2-8.5-4.2a41.15,41.15,0,0,1-11.2-1.8C637.3,894.3,637.6,892.4,638.8,891Z"/><path class="cls-21" d="M670.1,782.5l-.3,4.5c-.6,8.8-6,51.5-6,51.5s4.2,36.6,4.2,54.1c-1,1.8-2.4,3.2-4.7,2.9a6.48,6.48,0,0,1-2.1-.5,6.92,6.92,0,0,1-1.9-1,13.88,13.88,0,0,1-4.3-5.1s-11.7-47-12.2-54.6c-.9-13.8,2.6-32.1,3.1-47.3v-.5c1-23,18.1-22.3,21.7-20C670.5,768.3,670.5,775.2,670.1,782.5Z"/><path class="cls-22" d="M670.1,782.5a34.56,34.56,0,0,1-17,4.5,42,42,0,0,1-7.2-.6c1-23,18.1-22.3,21.7-20C670.5,768.3,670.5,775.2,670.1,782.5Z"/><path class="cls-22" d="M661.2,895a6.92,6.92,0,0,1-1.9-1c-2.7-14.6-9.3-51-10.2-57.9-1.1-8.8,8.4-58.5,8.8-60.5l1.7.3c-.1.5-9.9,51.5-8.8,60C651.7,843,658.7,881.3,661.2,895Z"/><path class="cls-23" d="M650.7,786.9c-8.2,16.4-22.9,37.8-22.9,37.8s11.8,34.3,13.7,39.5c.6,4.4-1.7,6.7-4.4,7a5,5,0,0,1-2.1-.1,8.63,8.63,0,0,1-4-2.1c-8.3-9.5-24.7-37.7-25.9-45.8-.8-5.5,10.7-28.8,19.6-44.5,4.3-7.6,8-13.4,9.3-14.5,4.1-3.2,22.4-4.8,22,7.6C655.9,775.3,653.8,780.8,650.7,786.9Z"/><path class="cls-21" d="M656,771.9c-.1,3.4-2.2,8.8-5.3,15-11.8-.6-21.8-5.7-26-8.1,4.3-7.6,8-13.4,9.3-14.5C638.1,761.1,656.4,759.5,656,771.9Z"/><path class="cls-21" d="M612.9,826.2c1.2,8.4,21.8,41.5,24.1,45.2a5,5,0,0,1-2.1-.1c-4.2-6.8-22.5-36.5-23.7-44.9-1.3-9.3,29.8-58.6,31.1-60.7l1.4.9C634.9,780.7,611.9,818.9,612.9,826.2Z"/><path class="cls-3" d="M640.1,861.1c-3.5-1.8-10.4.6-11.2,6.8s1.1,25,4,24.6,9.3-7.8,9.1-12.7-2.3-5.1-1.7-7.2S644.8,863.4,640.1,861.1Z"/><path class="cls-8" d="M681.1,643.1a6.13,6.13,0,0,0-.6.4c-.1.1-.2.1-.3.2-.4.2-.7.5-1.1.7s-.6.3-.9.5a9.17,9.17,0,0,1-2.5.8,1.27,1.27,0,0,0-.6.1,31.66,31.66,0,0,1-7.2-.3,17,17,0,0,0-.7,2.3c-1.2,4.4-3.6,13.5-5.9,20.6-1.7,5.2-3.2,9.5-4.3,10.1-4.1,2.4-11-.5-11.5-3.7-.1-1,.9-4.3,2.4-8.6,3.4-9.5,9.6-23.6,12.1-26.1,3.6-3.6,8.4-3.4,11.6-2.7a48.74,48.74,0,0,1,6.5,2.1,7.14,7.14,0,0,1,1.5.8C681.3,641.1,682.2,642.2,681.1,643.1Z"/><path class="cls-9" d="M661.3,668.2c-1.7,5.2-3.2,9.5-4.3,10.1-4.1,2.4-11-.5-11.5-3.7-.1-1,.9-4.3,2.4-8.6a15.47,15.47,0,0,1,7.2-.2A15.19,15.19,0,0,1,661.3,668.2Z"/><path class="cls-9" d="M679.6,640.1a4.58,4.58,0,0,1-3.4.6,15,15,0,0,1-2.7-.7,5.16,5.16,0,0,1-3.5.2,13.39,13.39,0,0,1-3.9-1.6c.3.1,4.2,1.4,6.8,0,3.1.9,4,1.2,5.1.8C678.6,639.6,679.1,639.9,679.6,640.1Z"/><path class="cls-9" d="M667.9,645.3a17,17,0,0,0-.7,2.3,12.76,12.76,0,0,1-6.1-4.3A19.6,19.6,0,0,0,667.9,645.3Z"/><path class="cls-9" d="M675.7,645.6a1.27,1.27,0,0,0-.6.1c-1.6-1.2-3.8-1.6-5.9-1.9a14.22,14.22,0,0,0-4.9-1.9c1.7-.1,3.4-.4,5.9,1.2C673.5,643.5,675.3,644.6,675.7,645.6Z"/><polygon class="cls-9" points="667.4 642.4 675.6 639.7 676.5 640 669.1 642.9 667.4 642.4"/><path class="cls-9" d="M681.1,643.1a6.13,6.13,0,0,0-.6.4c-.1.1-.2.1-.3.2a29.64,29.64,0,0,0-6.4-2.6.36.36,0,0,1,.1-.7,14,14,0,0,1,4,1.1A19.12,19.12,0,0,1,681.1,643.1Z"/><path class="cls-9" d="M679.1,644.3c-.3.2-.6.3-.9.5-.5-.3-1-.6-1.6-.9a42,42,0,0,0-5.3-2.2c-.4-.1-.3-.7.1-.6a18.48,18.48,0,0,1,5,1.7C677.4,643.3,678.2,643.8,679.1,644.3Z"/><path class="cls-10" d="M645.5,674.6s5.3-6.3,11.6-3.1a9.21,9.21,0,0,1,4.3,5c6.8,18.2,9.4,28.7,10.4,34.4,1,6,1.7,10.2-2.9,11.5s-13.2-3.2-16.7-14.7S644.9,678.5,645.5,674.6Z"/><path class="cls-11" d="M644.3,673.7s2.5-4.4,9.2-4.2c7.3.2,8.9,4.9,8.9,4.9V679s-13-4.6-16.3,3.2C644.7,680.1,643.6,675.8,644.3,673.7Z"/><path class="cls-8" d="M637.8,680.9c-1.3,4.7-2,15,.5,16.3s5.2.3,6.3,2,1.4,5.3,1.4,5.3,8.7-.4,11-1.7c-.1-5.4-.6-6.7.1-8.4s5-9,3.1-14.8S640.2,672,637.8,680.9Z"/><path class="cls-3" d="M661.7,681.4c-.1-3.6-3.5-6.2-4.9-6.8-2.5-1.1-11.1-3.8-12.5-2.9a5,5,0,0,0-1.5,2.6,18.57,18.57,0,0,0-3.4.6c-1.6.5-3.7,4.3-2.8,6.5.3.8,4.8,3.7,4.8,3.7s.3,4.4,1,4.6c1-1.5,1.3-4.1,3.2-2.8s1.1,4.3.8,5.5-.7,1.7-1,1.6l.4,1.6,10.9.7a22.66,22.66,0,0,1,1.9-4.4C659.9,689.8,661.8,685,661.7,681.4Z"/><path class="cls-12" d="M649.4,702.3s-13.8,3-18.6,8.7c-3.6,4.2-2.5,5.1-3.8,12.5-1.2,6.6-1.8,27.1-1.5,49.9,1.5,2.8,15,8.8,25.2,7.9s16.6-3.9,19.9-7.8c.5-14.1,4.4-57.9.8-64.6C669.3,705.3,660.3,700.7,649.4,702.3Z"/><path class="cls-11" d="M639.3,705.8s3.3-4.2,10.7-5.7a15.73,15.73,0,0,1,12.8,3.4C662.2,704.2,649.3,705.6,639.3,705.8Z"/><path class="cls-8" d="M651.5,648.3l-.2.2c-.1.1-.2.1-.3.2a8.78,8.78,0,0,1-2,.4h-.2a31.9,31.9,0,0,1-4.3-.1,2.77,2.77,0,0,1-.9-.1,54,54,0,0,1-6.5-1.1,17.14,17.14,0,0,0-.6,2.6,14.91,14.91,0,0,1-.4,1.8c-.9,4.9-2.2,12.4-3.8,18.6-1.4,5.4-3.1,9.9-5.1,10.6-4.5,1.6-9.9.3-10.5-2.9-.2-1.2.9-5.5,2.5-10.8,3-9.5,7.6-22,9.7-24.5,2.3-2.9,5.8-3.9,9-4,1.8,0,5.3,1.4,8.3,3.2a10.54,10.54,0,0,1,1.1.7C650.3,645,652.5,647.1,651.5,648.3Z"/><path class="cls-9" d="M632.2,670.8c-1.4,5.4-3.1,9.9-5.1,10.6-4.5,1.6-9.9.3-10.5-2.9-.2-1.2.9-5.5,2.5-10.8C622,667,627.8,666.4,632.2,670.8Z"/><path class="cls-9" d="M637,647.8a20.74,20.74,0,0,0-.6,2.6c-2.5-1-5.4-2.7-5.3-4.8A37.4,37.4,0,0,0,637,647.8Z"/><path class="cls-9" d="M644.4,648.9a2.77,2.77,0,0,1-.9-.1l-.1-.1c-2.4-3.1-5.1-2.7-6.8-4-1.9-1.4-3.3-2-4.7-1.7a5.5,5.5,0,0,1,4.4-.4,34.12,34.12,0,0,0,4.6,2.2A6.64,6.64,0,0,1,644.4,648.9Z"/><path class="cls-9" d="M647.3,643.1l-7.3,2.3-1.2-1.1,7.5-2C646.6,642.6,647,642.8,647.3,643.1Z"/><path class="cls-9" d="M651.3,648.5c-.1.1-.2.1-.3.2-2.6-1.7-7-5.1-7-5.1l1.1-.1C645,643.4,649.8,646.7,651.3,648.5Z"/><path class="cls-9" d="M648.9,649.1h-.2l-7-4.6.8-.4Z"/><path class="cls-10" d="M615.7,678.9c.1-1.8,1.8-6.4,8.7-6.7a13.86,13.86,0,0,1,5.5,1,4.06,4.06,0,0,1,2.5,2.9l8.8,34.8s4.7,10.3-1.8,15.1-11.5,4.2-14.4-7.3C621.1,703.2,615.3,684.8,615.7,678.9Z"/><path class="cls-11" d="M615.1,681.6c0-.3-.7-4.2.6-6.7s4.3-4.9,10.2-3.9,6.6,3.8,7,4.7a23,23,0,0,1,.8,3.7s-6.6-3.4-12-1.7S615.1,681.6,615.1,681.6Z"/><path class="cls-2" d="M304.1,189.3c1.9,7.3,4,14.6,8.3,20.8s11.1,11,18.6,11c10.6.1,18.7-8.8,28.1-13.5,7.5-3.8,16.1-4.9,24.4-6.4s16.8-3.4,23.6-8.4,11.4-13.8,9.1-21.9c-2.4-8.4-10.9-13.2-19-16.4a130.17,130.17,0,0,0-74.6-5.9C301.9,153.3,299.1,170.1,304.1,189.3Z"/><path class="cls-3" d="M385.4,162.9c1.8-1.8,5.2-8.5,1.1-12.2s-22.5-7.6-45-10.3c-25.1,2.7-36.2,5.3-38,6.6-.8,7.8,4.1,31.2,15.2,37S381,167.2,385.4,162.9Z"/><path class="cls-9" d="M387.4,156.6c-1.3-2.2-3.6-5-8.5-4.3-3.9.6-25.1,18.4-36.1,27.7a19.78,19.78,0,0,1-9.4,4.6c-2.6.4-2.7,1.1-2.7,3.1a104.6,104.6,0,0,1-.6,11.1c-.5,5,.2,10,1.8,11.4s6-3.7,6.7-6.1a39.74,39.74,0,0,0,1.6-6.9,12.37,12.37,0,0,1,8-10C362.8,181.7,394.5,168.3,387.4,156.6Z"/><path class="cls-3" d="M339.7,201.7s-1,10.3-8.5,10.4c-2.6-.1-2-7.6-1.9-9.4.4-6,.5-12.3.8-17.9a1.76,1.76,0,0,1,.8-1.5,6.45,6.45,0,0,1,5.3-1.4l-1.2,1.9a17.15,17.15,0,0,0-2.6,9.6l.1,2.6a4.05,4.05,0,0,0,3,3.8A12.79,12.79,0,0,1,339.7,201.7Z"/><path class="cls-8" d="M320,185.8c9.5,3.4,53.5-5.8,53.5-5.8a49.8,49.8,0,0,0,5.1,6.6,23.29,23.29,0,0,0,3.7,3.4c4.2,3,10.5.1,12.2-1.9.6-.8-1.3-3.2-4-6-.8-.9-1.8-1.7-2.7-2.6-4.5-4.1-9.7-8.2-11-8.6-2.6-.8-26.8-2.2-38.1-3.6-8.9-1.1-16.6,1.1-20.5,5.1C318.1,172.4,310.6,182.4,320,185.8Z"/><path class="cls-3" d="M376.7,170.9l10.9,12,2.8-.7c-.8-.9-1.8-1.7-2.7-2.6C383.3,175.4,378.1,171.3,376.7,170.9Z"/><path class="cls-3" d="M378.6,186.6a23.29,23.29,0,0,0,3.7,3.4c4.2,3,10.5.1,12.2-1.9.8-1-2.7-4.8-6.8-8.6C385.6,180.6,380.3,183.6,378.6,186.6Z"/><path class="cls-8" d="M374.9,137.5c-.5,0-10.5-5.5-16.7-8.9-2.8-1.5-4.8-2.7-4.8-2.7a20.21,20.21,0,0,1,.7-6.2c.9-3,5.5-1.7,5.5-1.7a25.49,25.49,0,0,1,2.4,2.4c2.1,2.3,4.9,5.4,4.9,5.4.3-.2,4.4-.5,5.9.5a6.59,6.59,0,0,1,2.5,4.2C375.6,132,375.7,137.5,374.9,137.5Z"/><path class="cls-9" d="M362,120.4a16.5,16.5,0,0,0-3.7,8.2c-2.8-1.5-4.8-2.7-4.8-2.7a20.21,20.21,0,0,1,.7-6.2c.9-3,5.5-1.7,5.5-1.7C360,118.3,360.9,119.2,362,120.4Z"/><path class="cls-24" d="M341.2,86.7s3.9,2,5.6,4.2,5.8,20.3,5.8,20.3l7.1,6.8a8.45,8.45,0,0,0-6.2,7.9c-2.1-1.4-11.4-5.8-13.9-10.3s-3.6-24.2-3.2-26.8S340.4,86.1,341.2,86.7Z"/><path class="cls-25" d="M359.3,115.1s-5.4-.5-6.9,4.1a20.49,20.49,0,0,0-.7,7.3l3.6,1.5a19.16,19.16,0,0,1,1.9-6.4,9,9,0,0,1,4.4-3.6Z"/><path class="cls-3" d="M338.8,84.4a4.1,4.1,0,0,0,2.7-.4c.9-.8.9-2.2,1.6-3.2,1.5-2,5-.7,6.8-2.4a3.63,3.63,0,0,0,.9-3,8.86,8.86,0,0,0-1.1-3.1c-1.6-3.4,3.4-4.9,2.6-8.1-.7-2.6-3.6-3.6-4.6-6s-1.2-5-2.3-7.2-3.3-4.2-5.6-3.6-3.4,3.2-5.4,4.5a8.26,8.26,0,0,1-5.8.5c-2-.4-3.9-1.1-5.9-1.1s-4.2.9-4.9,2.8c-1.3,3.2-2.6,7.2-5.8,8.6-2.1.9-4.8,1.3-5.9,3.3-1.4,2.5.2,5.1,2.1,6.6a9.62,9.62,0,0,1,3.7,7.5c0,1.8-.6,3.7,0,5.4.9,2.4,3.9,3.5,6.4,3.1s4.8-1.9,6.9-3.3c1.9-1.2,4.5-3,6.9-3C334.3,82.2,336.5,84,338.8,84.4Z"/><path class="cls-8" d="M333.5,96.9c-5.3,1.5-13.3-12.8-13.3-12.8a4,4,0,0,0,3.2-3.3c.6-2.4.1-7.5.1-7.8l.2-.1,2.3-1.4s7.5,5.3,7.6,6.5a13.71,13.71,0,0,0,.8,4.4,3.48,3.48,0,0,0,1.1,1.3C335.9,85.1,336,92.5,333.5,96.9Z"/><path class="cls-9" d="M334.4,82.3a37.11,37.11,0,0,1-4.4-.2c-4.7-.4-6-5.3-6.3-9.3l2.3-1.4s7.5,5.3,7.6,6.5A13.71,13.71,0,0,0,334.4,82.3Z"/><path class="cls-9" d="M340.1,69.1s1.3-2.2,2.4-1.5.7,2.8-.1,4.1-2.4,2.1-3,1.8S340.1,69.1,340.1,69.1Z"/><path class="cls-8" d="M340.9,66.9c-.1,3.8-.8,10.4-2.2,11.6-1.8,1.6-5.6,2.6-9.8.2-2.8-1.6-3.7-5.9-3.9-8.6a3.43,3.43,0,0,1,1.7-2.2c1.3-.6,3.4-.5,6-2.2a11.06,11.06,0,0,0,3.7-4S340.7,64.2,340.9,66.9Z"/><path class="cls-8" d="M325.4,70.5s-2.2-3.9-3.6-3.2-1.4,2.9-.3,4.8c1.2,2.2,3.6,2.7,4.3,1.2Z"/><path class="cls-26" d="M341.8,117.6c-.4,7.7,1.4,16.7,2.7,23.1-5.2,9.2-11,11.6-15.7,12.1s-12.1,2.1-25.3-5.9c-.3-3,1.2-8.1,3.6-13.4a33.07,33.07,0,0,0,2.6-16.3c-.5-4.7-7.8-18.3-5.2-23.7,2.1-4.4,11-7.9,14.4-9.1a8.33,8.33,0,0,1,1.4-.4H323a63.47,63.47,0,0,0,7.1,10,11.33,11.33,0,0,0,3.4,2.8,11.79,11.79,0,0,0,1.2-4.1,73.74,73.74,0,0,0,.8-9.2s2.1,1,3.8,1.9a4.35,4.35,0,0,1,.7.4h0a6.29,6.29,0,0,1,1.1.8c1.8,1.8,5,14.3,4.6,18a16,16,0,0,1-3.4,8.5A34.41,34.41,0,0,0,341.8,117.6Z"/><path class="cls-10" d="M338.7,91.6s-.6,2.9-1.5,6.2a37.37,37.37,0,0,1-2.5,7c-1.4-.1-3.8-2.2-5.9-4.3-2.3-2.4-4.3-4.9-4.3-4.9l5.6-1.6a11.33,11.33,0,0,0,3.4,2.8,11.79,11.79,0,0,0,1.2-4.1Z"/><path class="cls-25" d="M333.5,96.9c-1.7,1.3-3.2,2.6-4.7,3.6-2.3,1.7-4.2,2.7-5.2,1.3-1.5-2.1-4.6-16.2-4.8-17.3v-.1l3.5-1.7s.3.5.7,1.3a63.47,63.47,0,0,0,7.1,10A11.92,11.92,0,0,0,333.5,96.9Z"/><path class="cls-25" d="M341.2,98c-.6.8-1.8.4-4-.2-1-.3-2.3-.7-3.7-1a11.79,11.79,0,0,0,1.2-4.1,73.74,73.74,0,0,0,.8-9.2s2.1,1,3.8,1.9C340.1,89.2,341.7,97.3,341.2,98Z"/><path class="cls-24" d="M342.3,113.1a30.59,30.59,0,0,0-.6,4.5c-2.8,1.5-8.6,2.8-15.2,2.9-11,.3-11.2-8.1-11.2-8.1s.7,4.8,9,4.7S342.3,113.1,342.3,113.1Z"/><polygon class="cls-27" points="354.6 133.8 382.1 149.7 382.1 151.2 340.8 175.1 313.3 159.2 313.3 157.6 354.6 133.8"/><polygon class="cls-10" points="340.8 173.5 313.3 157.6 354.6 133.8 382.1 149.7 340.8 173.5"/><polygon class="cls-27" points="340.5 170.7 324.9 161.4 361 140 377.3 149.4 340.5 170.7"/><polygon class="cls-27" points="340.2 150.9 333.8 147.2 340.6 143.2 347.1 146.9 340.2 150.9"/><polygon class="cls-10" points="339.6 172.8 353.3 149 394.6 125.2 395.8 125.9 392.6 128.7 380.9 149 345.7 169.3 340.8 173.5 339.6 172.8"/><polygon class="cls-25" points="395.8 125.9 382.1 149.7 340.8 173.5 354.6 149.7 395.8 125.9"/><path class="cls-8" d="M346.1,135.1a2.11,2.11,0,0,1,.5,1.3,2.33,2.33,0,0,1-1,1.7,3.88,3.88,0,0,1-1.9.6,25.06,25.06,0,0,1-6.1.4c-2-.1-4-.8-6-1-3.2-.3-6.7.4-9.9.4-2.8,0-5.2,0-5.6-.3-.8-.7-3.1-5.5,3.3-10l4.2,1,8.5,1.9a17.28,17.28,0,0,1,5.4-2.3c2.7-.5,6.1,3.6,8,5.4A3.49,3.49,0,0,0,346.1,135.1Z"/><path class="cls-9" d="M323.6,129.4a19.11,19.11,0,0,0-2,9.3c-2.8,0-5.2,0-5.6-.3-.8-.7-3.1-5.5,3.3-10Z"/><path class="cls-24" d="M303.6,94.5s-5.1,21.8-2.8,33.4c1.2,6.4,3.2,10.8,10,11s7.6.1,7.6.1-2.6-6.8,2.9-11.6c-6.4-2.1-7.1-2.9-7.1-2.9s5.9-20,4-26.2S308.3,86.4,303.6,94.5Z"/><path class="cls-25" d="M318.9,126s-4.4,2.8-4.7,7.4,1.8,6.3,1.8,6.3l4.1.1s-1.8-3.4-1-6.6a16.06,16.06,0,0,1,3.6-6.1Z"/><path class="cls-2" d="M535.9,410.3c-5.6-9.6-23.4-13.8-33-16.4a119.93,119.93,0,0,0-39.1-3.8c-19.9,1.3-39.6,7.6-56,18.9-7.3,5-15.7,10.8-18.5,19.5-2.7,8.5-2.1,18.2,5.9,23.8,4.8,3.4,10.8,4.3,16.5,5.1l31,4.5c9.1,1.3,17.2,4,26.6,3.2,18.8-1.8,36.1-11.5,51.5-21.9,5.4-3.6,10.7-7.8,14-13.6C538.3,423.9,539.3,416,535.9,410.3Z"/><path class="cls-3" d="M487.9,398.4s4.3-3.2,6.8-2.5,4.2,4.1,6.8,5,5.9-4.2,10.1,2.4c-15,4.9-20.4,8.6-20.4,8.6Z"/><path class="cls-4" d="M498.7,408.4c-2.3-8-12.1-14.8-13.3-14,0,0-12.9,8.1-23.2,13.8,2.7-10.3,7.1-18.1,5.5-21.2-3.2-6.3-17.2-7.5-25.1,1.2,0,0-19.9,46.3-17.9,51.4s9.1,10.9,18.8,6.4a26,26,0,0,0,4-2.3h0C447.5,443.8,479.8,422,498.7,408.4Z"/><path class="cls-3" d="M504.3,406.5s4.2-3.4,7.4-3.2,5.6,4.3,9.6,4.9c2.6.4,6.1.1,9,.3a1.61,1.61,0,0,1,.7,3c-7.6,4.1-21.7,10.3-21.7,10.3S499,413.1,504.3,406.5Z"/><path class="cls-6" d="M514.4,420.6c-13.8,10.5-43.8,34.7-54,33.4s-10.9-10.7-10.2-17.2,15.2-51.4,15.2-51.4,17.2-12.5,25.3-8.2c0,0,2.9,2.4,3.4,8.4.4,5.7-9.1,29.4-9.8,31,.4-.4,3.5-2.5,7-4.8,4.1-2.7,8.8-5.6,10.4-6.5C504.8,403.8,516.9,407.5,514.4,420.6Z"/><path class="cls-4" d="M491.2,411.9c-4.5,8.6-12,21.5-12.5,21.4s5.5-16.5,5.5-16.5v-.1h0C484.7,416.2,487.8,414.1,491.2,411.9Z"/><path class="cls-8" d="M400.9,403.8a62.42,62.42,0,0,1-7.6,2.8c-2.4,4.1-7.6,10.2-16.3,10.4-.9-12.9,11.6-15.8,11.6-15.8l4.4-4.6C395,398.4,398.3,401.4,400.9,403.8Z"/><path class="cls-28" d="M417.4,393.2c-2.1,2.7-8.9,7.9-16.7,11.4-2.6-2.4-6.1-6.7-8.1-8.5l12.1-12.7s-1.3-14.8-1.7-22.4.1-10.8,4.1-12.1,5.5.8,7.3,4S419.6,386.1,417.4,393.2Z"/><path class="cls-12" d="M404.5,350.4c.2.8-4.3,4.1,1.5,10.3s42.2,36.6,44.9,37.8,12.1,2,19,0c6.2-1.8,18.5-10.1,21.9-18.9a4.39,4.39,0,0,0-.9-4.5c-13.8-15-37.9-35.1-57.6-36.5C410.1,337.5,404.5,350.4,404.5,350.4Z"/><path class="cls-8" d="M422.1,425,416,436.3s-5.1.7-8.9,7.5-2.9,9.2-1.4,9.4,10.3-1.3,13.5-5.2a28.29,28.29,0,0,0,4-7.8s9.7-6.9,10.6-10.5S425.2,423.2,422.1,425Z"/><path class="cls-28" d="M420.6,426.2a22.09,22.09,0,0,1,12.1,6.4c9.1-9.2,14.7-18.9,16.9-24.9,2.4-6.3,4-44.5.5-50.3s-11.7-7.6-15.7-2.1S431,401,431,401Z"/><path class="cls-3" d="M414,358.7s1.2,2.7,2.2,3,4.2,0,4.6-.5a8.66,8.66,0,0,0,.9-3.6,13.47,13.47,0,0,0-4.6-1C416.5,356.8,413.8,357.1,414,358.7Z"/><path class="cls-3" d="M417,361s-1.9,38.8-.5,40.6,8.9,7,8.9,7,4.7-7.5,4.3-10.1-10.2-38-10.2-38Z"/><path class="cls-28" d="M422,340.6a26.72,26.72,0,0,0-8.2,1.9c-2,3.8,8.8,4.6,8.8,4.6l1.1-4.6Z"/><path class="cls-9" d="M419.1,339.2a7.68,7.68,0,0,0,5.5,3.2c2,.3-2,15.4-7.4,15.4-5.1.1-8.5-3.1-8.1-4.8s2.8-3.9,2.7-6,2.9-6.8,3.8-7.4A10.33,10.33,0,0,1,419.1,339.2Z"/><path class="cls-28" d="M417.2,357.9a30.83,30.83,0,0,0-3,2.4,15.92,15.92,0,0,0-1.6,2.4s-4.4-5.8-5.3-9c0-3.8,2-4.8,2-4.8S411.6,357.3,417.2,357.9Z"/><path class="cls-28" d="M417.2,357.9a17.82,17.82,0,0,0,4.7-5.5,34.62,34.62,0,0,0,.1-11.8,7.49,7.49,0,0,1,3.2,1.8c1,1.2,2,4.8,2.2,9.6a51.86,51.86,0,0,1-3.3,9.9,36.33,36.33,0,0,0-3.4-3.4A32.21,32.21,0,0,0,417.2,357.9Z"/><path class="cls-3" d="M399.5,345.8s-3.8-2.4-4.5-3.7-1.5-5.4-1.5-5.4a4.21,4.21,0,0,1-.4-3.5c.7-1.8,10-8.7,17.9-7.4s7.6,15.3,7.6,15.3a32.21,32.21,0,0,1-3.5-.6C414.7,340.5,399.5,345.8,399.5,345.8Z"/><path class="cls-9" d="M399.3,343s-2-2.6-4.4-1c-1.5,1.1.4,5.6,3.1,6.2,2.9.7,3.2-1.8,3.2-1.8Z"/><path class="cls-8" d="M395.9,337.1c-1.9-1.5,6.5,16.2,9.9,17.3,5.2,1.9,12.1-6.2,12.3-9.7s-2.8-11.1-2.8-11.1S399.8,340.2,395.9,337.1Z"/><path class="cls-8" d="M416,336.9c-.1-.6.9-2.9,3.4-3.6s3,9.8-2.1,8.6C415.5,341.5,416,336.9,416,336.9Z"/><path class="cls-2" d="M822.1,244.2c.6,6-6.4,11.6-18.7,11.8-16,.3-25.8-6-42.8.7-10.3,4.1-20.1,9.5-31,11.5a52.08,52.08,0,0,1-30.9-3.6c-8.4-3.7-16.1-10.3-18.3-19.2-4.7-19,21-29.8,35.8-30.5,19.1-1,37.7,6.2,56.2,9.6,12.7,2.3,26,3.9,38.1,8.6C818.1,236.2,821.7,240.3,822.1,244.2Z"/><path class="cls-3" d="M696,41.4c-.3-.4-4.4-5.7-2.1-7.8s3-2.2,3-2.2,4.6-6.4,9.7-4.4c6.9,2.6,12,7.8,9.1,17C712.1,55.4,698.2,44.2,696,41.4Z"/><path class="cls-8" d="M709.4,66.4c8.2-2.9,7.6-9.5,7.6-9.5a4.15,4.15,0,0,1-3.3-3.5c-.6-2.5-.2-7.8-.2-8.1l-.2-.1-2.4-1.5s-7.8,5.5-7.9,6.8a12.28,12.28,0,0,1-.9,4.5,3.74,3.74,0,0,1-1.2,1.3c-1.7,1.4-4.2,3.8-1.6,7.4A9,9,0,0,0,709.4,66.4Z"/><path class="cls-9" d="M702.2,55a38.69,38.69,0,0,0,4.5-.2c4.8-.5,6.3-5.6,6.6-9.7l-2.4-1.5s-7.8,5.5-7.9,6.8A12,12,0,0,1,702.2,55Z"/><path class="cls-9" d="M696.3,41.3s-1.3-2.2-2.5-1.6-.7,2.9.1,4.3,2.5,2.1,3.1,1.9S696.3,41.3,696.3,41.3Z"/><path class="cls-8" d="M695.6,42.2c.1,2,1.3,9.8,3.3,10.5a9.43,9.43,0,0,0,8.4-1c2-1.3,3.7-4.4,4.3-6.6a7.49,7.49,0,0,0-.4-5.5,6.15,6.15,0,0,0-1.6-2,41.51,41.51,0,0,1-6-.1,10.5,10.5,0,0,1-5.3-2c-.2,0-.3.1-.5.2-1.3.6-1.8,1.9-2.1,3.4A10.86,10.86,0,0,0,695.6,42.2Z"/><path class="cls-8" d="M711.6,42.7s2.3-4.1,3.7-3.3,1.5,3,.4,5c-1.3,2.3-3.7,2.8-4.5,1.2Z"/><path class="cls-29" d="M688.8,118.7s-3.1,11.3-3,12.6,5.6-2.2,8-6.2c2-3.2,2.6-4.9,1.5-8.8-.1-.3-.2-.6-.3-1-1-3.1-6.4-22.6-6.4-22.6s8.5-16,10.5-21.2c2.3-5.9.1-11.4-4-12.1,0,0-11.8,4.9-18.8,33.3C674.7,99.5,688.8,118.7,688.8,118.7Z"/><path class="cls-8" d="M685.8,131.3c.1,1.3,5.6-2.2,8-6.2,2-3.2,2.6-4.9,1.5-8.8a6.19,6.19,0,0,0-6.6,2.4S685.7,130,685.8,131.3Z"/><path class="cls-3" d="M704.4,219.1s.1,4.1,0,5.6c-.2,2.1-16.3,17.5-21.4,16.1-1.2-.3-1.1-9.4,3.8-13.7,3.6-3.1,9.6-8.9,9.6-8.9Z"/><path class="cls-4" d="M691.7,115.9s.1,3.8.2,9.9c.4,25.6,1.5,91.9,1.7,92.5.4,1.2,1.3,4.6,4.1,5,1.7.2,6.2-2.1,8.2-3.6,2.1-5.4,5.7-54.6,7.7-82.6.8-11.4,1.3-19.2,1.3-19.2S700,98.5,691.7,115.9Z"/><path class="cls-5" d="M691.7,115.9s.1,3.8.2,9.9c3.2,4.1,8.7,9.3,16.8,10.9a25.92,25.92,0,0,0,4.8.4c.8-11.4,1.3-19.2,1.3-19.2S700,98.5,691.7,115.9Z"/><path class="cls-3" d="M715.9,231.7a133.76,133.76,0,0,0,.2,16.6c.3,6.9,1.1,13.4,3,13.7,4.2.7,10.9-5.2,10.9-11.7a24.62,24.62,0,0,0-.2-2.6c-.7-5.2-2.8-10.1-3.7-15.3-.7-4.2-1.7-9.8-7.8-8.1C716.9,224.8,716.2,227.9,715.9,231.7Z"/><path class="cls-6" d="M708.7,123.9l.8,13,5.8,90.6s2.5,6.5,5.5,6.5,7.8-5.3,7.8-5.3,2.8-31.6,3.1-57.1c.2-13.7.5-30.7.8-41.4.1-6.2.2-10.2.2-10.2C715.9,113.9,708.7,123.9,708.7,123.9Z"/><path class="cls-7" d="M708.7,123.9l.8,13c9.1,1.4,18.1-3.4,22.9-6.6.1-6.2.2-10.2.2-10.2C715.9,113.9,708.7,123.9,708.7,123.9Z"/><path class="cls-30" d="M691.7,115.9c5.4,9.5,11.4,12.1,16.3,12.6s12.6,2.1,26.2-6.1c.3-3.1-1.5-8.2-1.9-14.2-.6-5.9,3.6-35.7.9-41.4-1.9-4.1-9.6-7.4-13.7-9-.5-.2-.9-.3-1.3-.5-.9-.3-1.4-.5-1.4-.5s-2.3,9.1-12.2,7.1c-6.2-1.6-3.7-7.7-3.7-7.7l-2.8,1.4c-.4.2-.7.4-1.1.6a5.74,5.74,0,0,1-.7.4h0c-.5.3-.9.6-1.2.8-1.8,1.9-3.1,3.7-2.8,18.7C692.5,83.8,691.7,107.9,691.7,115.9Z"/><path class="cls-29" d="M705.2,66c8.3,1.6,12.8-4.9,14.5-8.1-.5-.2-.9-.3-1.3-.5-.9-.3-1.4-.5-1.4-.5S714.7,66,704.8,64c-6.2-1.6-3.7-7.7-3.7-7.7l-2.8,1.4C698.1,60.5,698.8,64.8,705.2,66Z"/><path class="cls-8" d="M704.4,121.2v.7c.2,1,1.3,1.5,2.3,1.8,5.4,1.4,10-1.6,14.4-4.3,0,0,5.4-1.6,9.7-3,2.8-.9,5.1-1.8,5.4-2.2.6-.9,1.2-6.5-6.6-8.7l-3.8,2.4c-1.9,1.2-3.8,2.3-5.6,3.5-3,1.9-6.9,1.1-10.1,3a15.71,15.71,0,0,0-4.7,4.9A3.91,3.91,0,0,0,704.4,121.2Z"/><path class="cls-9" d="M725.8,108a19.86,19.86,0,0,1,5.1,8.4c2.8-.9,5.1-1.8,5.4-2.2.6-.9,1.2-6.5-6.6-8.7Z"/><path class="cls-29" d="M733.3,66.8s12.5,19.7,14.3,31.8c1,6.7.6,11.7-6,14.2s-7.4,2.7-7.4,2.7a9.2,9.2,0,0,0-6.1-9.6c4.4-4.3,5.3-6.1,5.3-6.1s-12.7-17.7-13-24.4C720.1,68.9,726,60.5,733.3,66.8Z"/><path class="cls-2" d="M167.1,548.7c.4,6.5-6,12.8-17,13.4-6.9.4-13.5-2.4-20.3-3.7-22.6-4.4-45.8,6.8-68.7,11.8-7.6,1.7-16.6,2-21.2-5.2-3.1-5-3-12.4-.6-18.3s7.4-11.1,11.3-15.7c17.9-21.3,50.4-6.6,72.8-2.2,11.2,2.2,23,3.6,33.7,8.3C163.8,540,166.9,544.4,167.1,548.7Z"/><path class="cls-3" d="M86.7,332.3s2.2-7.3,1.5-9.9-6-2.5-6-2.5-6.4-6.3-14.3-2.9-5.1,8.9-14.4,14.1-14.4,5.6-17.1,9.4-5.1,7.8-4.2,15.1S39.6,372,51.6,370s16.3-4.9,21.1-15.5,5.2-18.2,8-19.5S86.7,332.3,86.7,332.3Z"/><path class="cls-8" d="M78.7,362.5c-5.7,1.6-14.2-13.6-14.2-13.6a4.41,4.41,0,0,0,3.4-3.6c.6-2.5.2-8,.2-8.4l.2-.1,2.4-1.5s8,5.7,8.1,6.9a13.61,13.61,0,0,0,.9,4.7,4.07,4.07,0,0,0,1.2,1.4C81.3,349.9,81.4,357.9,78.7,362.5Z"/><path class="cls-9" d="M79.8,346.9a42,42,0,0,1-4.7-.2c-5-.5-6.4-5.7-6.8-9.9l2.4-1.5s8,5.7,8.1,6.9A13.24,13.24,0,0,0,79.8,346.9Z"/><path class="cls-9" d="M85.8,332.8s1.4-2.3,2.6-1.6.7,3-.1,4.4-2.5,2.2-3.2,1.9S85.8,332.8,85.8,332.8Z"/><path class="cls-8" d="M86.7,330.4c-.1,4-.9,11.1-2.3,12.4-2,1.8-6,2.8-10.4.2-3-1.8-3.9-6.4-4.2-9.2a3.7,3.7,0,0,1,1.8-2.4c1.4-.6,3.6-.5,6.4-2.3a11.1,11.1,0,0,0,3.9-4.2S86.5,327.6,86.7,330.4Z"/><path class="cls-8" d="M70,334.3s-2.3-4.2-3.8-3.4-1.5,3.1-.4,5.1c1.3,2.3,3.8,2.9,4.6,1.2Z"/><path class="cls-8" d="M123,405.9c-.6,0-11.2-5.8-17.8-9.5-3-1.6-5.2-2.9-5.2-2.9a21,21,0,0,1,.8-6.6c1-3.2,5.8-1.8,5.8-1.8a29.75,29.75,0,0,1,2.6,2.6c2.3,2.5,5.2,5.8,5.2,5.8.3-.2,4.7-.5,6.2.5s2.2,2.7,2.6,4.4S123.8,405.9,123,405.9Z"/><path class="cls-9" d="M109.2,387.7a17.23,17.23,0,0,0-4,8.7c-3-1.6-5.2-2.9-5.2-2.9a21,21,0,0,1,.8-6.6c1-3.2,5.8-1.8,5.8-1.8A29.75,29.75,0,0,1,109.2,387.7Z"/><path class="cls-28" d="M87,351.6s4.2,2.2,6,4.5,6.2,21.7,6.2,21.7l7.5,7.2a9,9,0,0,0-6.6,8.5c-2.2-1.5-12.1-6.2-14.8-11s-3.9-25.9-3.5-28.6S86.2,351,87,351.6Z"/><path class="cls-25" d="M106.3,381.9s-5.7-.6-7.3,4.4a20.69,20.69,0,0,0-.7,7.8l3.8,1.6a19.24,19.24,0,0,1,2.1-6.9,9.65,9.65,0,0,1,4.7-3.8Z"/><path class="cls-8" d="M64.8,535.8s.4,8.8,0,17.1c-.3,7.1-1.1,13.8-3.1,14.1-4.3.8-11.2-5.4-11.2-12a26.45,26.45,0,0,1,.2-2.7c.9-6.5,4.5-14.8,4.1-19.7-.4-5.7-9.7-41-5.8-54s16.1-5.4,17.9,1.3Z"/><path class="cls-3" d="M64.8,552.8c-.3,7.1-1.1,13.8-3.1,14.1-4.3.8-11.2-5.4-11.2-12a26.45,26.45,0,0,1,.2-2.7Z"/><path class="cls-3" d="M77,515.1a3.52,3.52,0,0,0-1.3,4.8c.8,1.5,4.9,5.5,9.1,10s9.6,9.4,16.1,8.3c2.5-.7,3.4-1.5,1.8-5.8S82.3,512.2,77,515.1Z"/><path class="cls-8" d="M91.7,467s-2.7,27.6-3.3,40.9c-.2,4.4,2.6,7.8,5.7,10.9,5.3,5.3,9.1,9.4,9.7,10.2,2.1,3.2-3.8,8.1-7.8,7-2-.5-5.5-3.4-8.2-6.7-2.9-3.3-3.7-5.9-7.6-8-1.9-1.1-3.7-2.4-3.8-3.7-.2-2.9,2.3-7.5.3-14.8s-5.5-19.3-2.6-28.1C77,466.1,87.4,463.3,91.7,467Z"/><path class="cls-3" d="M89.9,532.2s8.6,8.3,13.4,5.9c2.4-2.4,4.4-6.6-2.4-13C93.2,525.2,90.6,528.2,89.9,532.2Z"/><path class="cls-6" d="M97.5,462.7c0,1.1-1.5,4-4.1,7.2-.7.8-1.4,1.7-2.2,2.6a35.16,35.16,0,0,1-5.7,5c-.9.6-1.7,1.2-2.7,1.8a33.39,33.39,0,0,1-9.9,4.1c-.2,0-.5.1-.8.1-.8.1-1.7.3-2.5.4a43.06,43.06,0,0,1-14.2-.9c-1-.2-1.9-.5-2.8-.7a44.66,44.66,0,0,1-7.4-2.8s-1.8-24.8-1.3-38.6a109.72,109.72,0,0,1,2.3-18.2c1-5.2,2-8.6,2-8.6,9.7-15.9,27.9-14.1,40.1-7.2A68.46,68.46,0,0,1,91.2,417C95.6,434.4,97.5,458.3,97.5,462.7Z"/><path class="cls-7" d="M91.5,417c-3.9,4.6-11.4,11.5-21.3,12.5-9.5.9-18.5-3.4-23.8-6.8,1-5.2,2-8.6,2-8.6,9.7-15.9,27.9-14.1,40.1-7.2A60.52,60.52,0,0,1,91.5,417Z"/><path class="cls-7" d="M55.5,483c-1-.2-1.9-.5-2.8-.7a337.9,337.9,0,0,1,.3-41.5c0-.6,1.1-.6,1.1,0C53.8,455,54.4,469,55.5,483Z"/><path class="cls-7" d="M72.2,483.5c-.8.1-1.7.3-2.5.4-1.2-14-2.1-28.1-2.7-42.2,0-.7,1.2-.8,1.2-.1C69.9,455.6,71.2,469.6,72.2,483.5Z"/><path class="cls-7" d="M85.6,477.5c-.9.6-1.7,1.2-2.7,1.8-.8-13.2-1.9-26.3-3.6-39.4a.76.76,0,1,1,1.5-.2C82.9,452.2,84.6,464.8,85.6,477.5Z"/><path class="cls-7" d="M93.5,469.9c-.7.8-1.4,1.7-2.2,2.6a408.12,408.12,0,0,0-3.4-41.3c-.1-.8,1.1-1.2,1.3-.3A363.31,363.31,0,0,1,93.5,469.9Z"/><path class="cls-12" d="M87.6,384.7c-.4,8.2,1.5,17.9,2.9,24.7-5.5,9.8-11.7,12.4-16.8,13s-13,2.2-27-6.3c-.3-3.2,1.3-8.7,3.8-14.3a36.79,36.79,0,0,0,2.8-17.5c-.6-5-8.3-19.5-5.6-25.4,2.2-4.7,11.7-8.4,15.4-9.7.9-.3,1.4-.5,1.4-.5l3.1-.1a79.43,79.43,0,0,0,7.5,10.7,11.37,11.37,0,0,0,3.6,3,13.57,13.57,0,0,0,1.3-4.4,72.54,72.54,0,0,0,.9-9.8s2.3,1,4.1,2c.3.1.5.3.8.4h0c.5.3.9.6,1.2.8,1.9,2,5.3,15.3,4.9,19.2a16,16,0,0,1-3.7,9.1A47,47,0,0,0,87.6,384.7Z"/><path class="cls-10" d="M84.3,356.9s-.6,3.1-1.6,6.6A36,36,0,0,1,80,371c-1.5-.1-4-2.3-6.3-4.6-2.5-2.6-4.6-5.2-4.6-5.2l6-1.7a11.37,11.37,0,0,0,3.6,3,13.57,13.57,0,0,0,1.3-4.4Z"/><path class="cls-25" d="M78.7,362.5c-1.8,1.4-3.5,2.8-5,3.9-2.5,1.9-4.5,2.9-5.5,1.4-1.6-2.2-4.9-17.3-5.1-18.5v-.1l3.7-1.9s.3.5.8,1.4a79.43,79.43,0,0,0,7.5,10.7A13.24,13.24,0,0,0,78.7,362.5Z"/><path class="cls-25" d="M87,363.7c-.6.9-1.9.5-4.3-.2-1.1-.3-2.4-.7-4-1a13.57,13.57,0,0,0,1.3-4.4,72.54,72.54,0,0,0,.9-9.8s2.3,1,4.1,2C85.8,354.2,87.5,363,87,363.7Z"/><path class="cls-28" d="M88.2,379.9a35,35,0,0,0-.6,4.8c-3,1.6-9.2,2.9-16.2,3.1-11.7.3-12-8.6-12-8.6s.7,5.1,9.7,5C77.9,384,88.2,379.9,88.2,379.9Z"/><path class="cls-8" d="M77.4,416.1a3.72,3.72,0,0,1-2.2,1,15.37,15.37,0,0,1-9.7-.8c-1.8-.9-3.3-2.8-5.3-3.3,0,0-5.5-1.6-10-3.1-2.9-1-5.3-1.9-5.5-2.2-.6-1-1.2-6.7,6.8-8.9l3.9,2.5,7.9,4.9c3.2-.6,7-.6,9.8,1.4a15.38,15.38,0,0,1,4,4.4,3.85,3.85,0,0,1,.8,3.4A1,1,0,0,1,77.4,416.1Z"/><path class="cls-9" d="M55.5,401.3a20.16,20.16,0,0,0-5.2,8.6c-2.9-1-5.3-1.9-5.5-2.2-.6-1-1.2-6.7,6.8-8.9Z"/><path class="cls-28" d="M47.7,359S34.9,379.2,33,391.7c-1,6.9-.6,12,6.1,14.6s7.6,2.8,7.6,2.8-.3-7.8,7-10.7C48,394,47.6,393,47.6,393s13-18.1,13.3-25S55.2,352.5,47.7,359Z"/><path class="cls-25" d="M51.9,396.2s-5.4,1.3-7.4,5.8-.4,7-.4,7l4.1,1.6s-.6-4.1,1.3-7a17.57,17.57,0,0,1,5.8-4.9Z"/><path class="cls-31" d="M171.3,238.4c-14.6,12.2-41.4,16.7-65.3,10.9a8,8,0,0,1-1.7-.6,4.35,4.35,0,0,1-.7-.6,1.59,1.59,0,0,1,.3-1.8l12.8-16.8c1-1.3,2.6-1.7,4.9-1.2a22.73,22.73,0,0,0,14-1c3.2-1.4,5.2-3.4,5.7-5.7s-.7-4.5-3.3-6.3l-.9-.6c-4.9-2.8-12.7-3.2-18.4-.9-5.4,2.3-7.4,6.1-5,9.8,1,1.5.4,2.4-2.1,3l-29.1,7.5a6.21,6.21,0,0,1-2.7.1,3.58,3.58,0,0,1-1.1-.4,3.45,3.45,0,0,1-.9-.8c-5.3-7-6-14.9-1.9-22.2,3.3-6,8.5-9.4,11.6-11.4l.9-.6.5.3-.5-.3c20.1-11.3,49.3-12.6,70.9-3.1,2,.9,3.8,1.8,5.6,2.8C183.2,209.1,186.3,225.9,171.3,238.4Zm-36.9,9.4c12.3-1.2,22.4-4.6,29.9-10.1,7.7-5.7,11.3-13.1,9.8-20.3-1.3-6.1-6.1-11.7-13.7-16.1a41.56,41.56,0,0,0-4.7-2.4c-18.7-8.4-44.9-7.4-62.3,2.4a10.54,10.54,0,0,1-1.1.7c-.7.4-1.3.9-2,1.3-10.4,7.2-13.3,17.2-7.6,26.8,7.3-1.9,15.3-4,24.3-6.3-1.8-4.9.3-8.9,6.4-12.2a27.68,27.68,0,0,1,12.7-3,31.7,31.7,0,0,1,15.7,3.5,13.22,13.22,0,0,1,5.5,5.5c2.1,4.6-.6,9.5-7.1,12.4a32.58,32.58,0,0,1-18.3,2.2c-4.3,5.5-7.7,10-10.9,14.1a76.77,76.77,0,0,0,23.4,1.5"/><path class="cls-31" d="M692.3,392.1c1.9,1.1,1.9,2.8,0,3.9a7.42,7.42,0,0,1-6.8,0c-1.9-1.1-1.9-2.8,0-3.9A7.42,7.42,0,0,1,692.3,392.1Z"/><path class="cls-31" d="M729.2,407.1c-2.6,1.8-5.3,3.6-8.3,5.3-4,2.3-8.3,4.5-12.5,6.4a4.88,4.88,0,0,1-.7.3,3,3,0,0,0-.8.4c-13.5,5.8-16.3,5.5-17.7,5.4-5.2-.6-23.4-9.7-37.8-18.1s-30.3-18.8-31.3-21.9c-1.2-3.8,13.8-14.1,21.3-18.4,2.9-1.7,6-3.3,9.1-4.8,6.4-3.1,17.8-8.1,22.6-7.6,5.2.6,23.4,9.7,37.8,18.1s30.3,18.8,31.3,21.9c.3.8.8,2.4-9.2,10.3-.2.2-.4.3-.6.5a2.18,2.18,0,0,1-.5.4C731.1,405.8,730.2,406.5,729.2,407.1Zm-39,13.8a73.15,73.15,0,0,0,10.6-3.7l-25.8-15c-7.9-4.5-8-11.9-.2-16.5s20.5-4.5,28.4,0l25.9,14.9c4.6-3.7,6.1-5.6,6.4-6.2-1.3-1.7-11.9-9.6-29.4-19.7s-31.3-16.3-34.1-17c-1.6.2-8.1,2.3-17.2,6.7-2.9,1.4-5.8,3-8.6,4.6-12.4,7.2-19.2,13.9-19.4,15,.9,1.5,12.4,9.9,29.4,19.7,17.4,10.3,31,16.5,34,17.2m16.1-6.1c3.3-1.5,6.7-3.3,9.8-5.1,2.8-1.6,5.4-3.3,7.9-5l1-.7-26.5-15.3c-5.2-3-13.7-3-18.8,0s-5.1,7.9.1,10.9l26.5,15.2"/><g class="cls-13"><path class="cls-31" d="M605.7,119.9a2.18,2.18,0,0,1,.5.4c.7.8,1.3,1.6,1.9,2.4a1.05,1.05,0,0,1,0,1.3,2.75,2.75,0,0,1-1.5.9,4.66,4.66,0,0,1-3.1-.4c-.3-.2-.5-.3-.6-.6a15.66,15.66,0,0,0-1.7-2.1c-.7-.8-.2-1.8,1.2-2.2A4.17,4.17,0,0,1,605.7,119.9Z"/><path class="cls-31" d="M564.2,124.3l-10.7,11.5-4.5-2.6,2.5-2.6-4-2.3-4.4,1.6-4.3-2.5,19.7-6.3Zm-13,2.6,2.8,1.6,2-2c.6-.6,1.6-1.5,2.3-2.2h0c-1.1.4-2.6,1-3.7,1.4l-3.4,1.2"/><polygon class="cls-31" points="588.6 138.4 573.3 147.3 569.2 144.9 584.5 136 588.6 138.4"/><path class="cls-31" d="M610,127a1.42,1.42,0,0,1,.8.9c2.2,6.5.2,13.3-5.4,19a3.85,3.85,0,0,1-1.7.8,4.16,4.16,0,0,1-2.2-.2l-.6-.3c-.9-.5-1.1-1.3-.5-2,5-5.1,6.7-11,4.8-16.8a1,1,0,0,1,.4-1.2,3.26,3.26,0,0,1,1.8-.7A4.36,4.36,0,0,1,610,127Z"/><path class="cls-31" d="M520.6,132.3a1.67,1.67,0,0,1,.8,1.1c.2,5.6,3.7,11.1,10,15.4,1,.7.9,1.7-.3,2.3a4.23,4.23,0,0,1-3.8-.1l-.2-.1c-7.1-4.9-11.1-11.1-11.3-17.4a1.55,1.55,0,0,1,.8-1.2,4.25,4.25,0,0,1,4,0Z"/><path class="cls-31" d="M590.5,117.4c14.9,8.6,15,22.7.2,31.3s-39.1,8.6-54,0-15-22.6-.2-31.3S575.6,108.8,590.5,117.4Zm-49.8,29c12.7,7.3,33.3,7.3,46,0s12.6-19.3-.2-26.6-33.3-7.3-46,0-12.5,19.2.2,26.6"/></g><path class="cls-31" d="M522.3,124.5c.7.4,1,1,.7,1.6a24.43,24.43,0,0,0-1,2.4,2.19,2.19,0,0,1-1.2,1.1,7.11,7.11,0,0,1-2.1.3,5.41,5.41,0,0,1-1.5-.4c-.7-.4-1-.9-.8-1.5.3-.9.7-1.9,1.1-2.8a2.23,2.23,0,0,1,1.4-1,4.07,4.07,0,0,1,2.2-.1A2.84,2.84,0,0,1,522.3,124.5Z"/><path class="cls-31" d="M579.6,134.5c.3,1.1-.3,2.2-1.9,3.1a9.5,9.5,0,0,1-5.3,1.3,14.87,14.87,0,0,1-6.7-2,8.79,8.79,0,0,1-1-.6l-5.2,3-4.1-2.4,15-8.7a44.24,44.24,0,0,1,5.4,2.7C578.1,132.2,579.3,133.4,579.6,134.5Zm-10.8.6a5,5,0,0,0,4.7.3c1.1-.7,1.2-1.5-.4-2.4a4.49,4.49,0,0,0-1.3-.6l-3.9,2.3c.2-.1.4.1.9.4"/><path class="cls-31" d="M596.4,162.1c1,2.1-1.2,4.2-4.8,4.8l-22.7,3.5a10.88,10.88,0,0,1-5.1-.4c-.5-.2-1-.4-1.4-.6a5.16,5.16,0,0,1-1.8-1.8l-1.1-2.4a90.93,90.93,0,0,1-19.9-3.1l-3,1.7a10.8,10.8,0,0,1-9.6,0l-16.7-9.6c-2.6-1.5-2.7-4,0-5.5l3-1.7a23.37,23.37,0,0,1-5.4-11.5l-4.1-.6a8.15,8.15,0,0,1-3-1c-1.7-1-2.4-2.4-1.8-3.8l6-13.2c1-2.1,4.7-3.3,8.3-2.8l4.1.7a39.68,39.68,0,0,1,6.5-4.6,52.64,52.64,0,0,1,7.9-3.8l-1.1-2.4a2.54,2.54,0,0,1,.7-3,7.09,7.09,0,0,1,4.1-1.8l22.7-3.5a10.88,10.88,0,0,1,5.1.4c.5.2,1,.4,1.4.6a5.16,5.16,0,0,1,1.8,1.8l1.1,2.4a90.93,90.93,0,0,1,19.9,3.1l3-1.7a10.8,10.8,0,0,1,9.6,0l16.7,9.7c2.7,1.5,2.7,4,0,5.5l-3,1.7a23.37,23.37,0,0,1,5.4,11.5l4.1.6a8.15,8.15,0,0,1,3,1,4.44,4.44,0,0,1,1.1.8,2.54,2.54,0,0,1,.7,3l-6,13.2a5.23,5.23,0,0,1-3.1,2.4,10.88,10.88,0,0,1-5.1.4l-4.1-.6a53.66,53.66,0,0,1-6.5,4.6,64.54,64.54,0,0,1-7.9,3.8Zm-6.2,1.6c.6-.1.9-.4.8-.8l-1.7-3.5c-.3-.7.2-1.4,1.2-1.8a58.45,58.45,0,0,0,8.7-4,36.29,36.29,0,0,0,6.9-5.1,3.93,3.93,0,0,1,3.1-.7l6.1.9a1.06,1.06,0,0,0,.8-.1,1,1,0,0,0,.5-.4l6-13.2c.1-.2,0-.3-.1-.5a1.33,1.33,0,0,0-.7-.3l-6.1-.9a5,5,0,0,1-1.3-.4,1.4,1.4,0,0,1-.8-1.1,20.62,20.62,0,0,0-5.8-12.4c-.6-.7-.4-1.4.5-1.9l4.4-2.6c.4-.2.4-.6,0-.9L596,104.4a2,2,0,0,0-1.5,0l-4.4,2.6a4.64,4.64,0,0,1-3.3.3,81.23,81.23,0,0,0-21.4-3.3,3.83,3.83,0,0,1-1.9-.5,1.58,1.58,0,0,1-.7-.7l-1.7-3.6q0-.15-.3-.3a2.56,2.56,0,0,0-1.1-.2L537,102.2a.91.91,0,0,0-.7.3c-.2.1-.2.3-.1.5l1.7,3.6c.3.7-.2,1.4-1.2,1.8a58.45,58.45,0,0,0-8.7,4,36.29,36.29,0,0,0-6.9,5.1,3.93,3.93,0,0,1-3.1.7l-6.1-.9c-.6-.1-1.2.1-1.3.4l-6,13.2c-.1.2,0,.3.1.5a1.33,1.33,0,0,0,.7.3l6.1.9a5,5,0,0,1,1.3.4,1.4,1.4,0,0,1,.8,1.1,20.62,20.62,0,0,0,5.8,12.4c.6.6.4,1.4-.5,1.9l-4.4,2.6c-.4.2-.4.6,0,.9l16.7,9.6a2,2,0,0,0,1.5,0l4.4-2.6a4.64,4.64,0,0,1,3.3-.3,81.23,81.23,0,0,0,21.4,3.3,3.83,3.83,0,0,1,1.9.5,5.72,5.72,0,0,1,.8.7l1.7,3.6c0,.1.2.2.3.3a2.4,2.4,0,0,0,1,.2l22.7-3.5"/><path class="cls-31" d="M343.6,348.6c2.8,2.5,2.3,5.8-1.3,7.9s-9.4,2.4-13.7.8c-18.5,7.2-43.1,7.2-61.6,0-4.2,1.6-10,1.3-13.7-.8s-4.2-5.5-1.4-7.9c-12.5-10.7-12.6-25-.2-35.7-2.8-2.5-2.3-5.8,1.3-7.9s9.4-2.4,13.7-.8c18.5-7.2,43.1-7.2,61.6,0,4.2-1.6,10-1.3,13.7.8s4.2,5.5,1.4,7.9C355.9,323.6,356,337.8,343.6,348.6ZM271,354.4c16.2,6.1,37.5,6.1,53.5,0-1.6-2.3-.8-5,2.3-6.8s7.7-2.3,11.8-1.4c10.5-9.3,10.4-21.7-.2-31a16.9,16.9,0,0,1-11.8-1.4c-3.2-1.8-4-4.5-2.4-6.8-16.1-6.1-37.5-6.1-53.5,0,1.7,2.3.8,5-2.3,6.8s-7.7,2.3-11.8,1.4c-10.5,9.3-10.4,21.7.2,31a16.83,16.83,0,0,1,11.8,1.4c3.1,1.8,4,4.5,2.4,6.8m-11.7-42.5a7.06,7.06,0,0,0,4.6-.6c1.2-.7,1.6-1.7,1.1-2.7a2.71,2.71,0,0,0-1.1-1,5,5,0,0,0-1.3-.5,7.62,7.62,0,0,0-5,.5c-1.3.8-1.7,1.9-.9,2.9a3.63,3.63,0,0,0,.9.8,10.72,10.72,0,0,0,1.7.6m73.5,42.5a7,7,0,0,0,5-.5c1.3-.8,1.7-1.9.9-2.9a3.63,3.63,0,0,0-.9-.8,4.92,4.92,0,0,0-1.7-.6,7.06,7.06,0,0,0-4.6.6c-1.2.7-1.6,1.7-1,2.7a2.71,2.71,0,0,0,1.1,1,2.25,2.25,0,0,0,1.2.5m-70,0a5,5,0,0,0,1.3-.5,3.57,3.57,0,0,0,1.1-1c.5-1,.1-2-1.1-2.7a7.06,7.06,0,0,0-4.6-.6,4.28,4.28,0,0,0-1.7.6,2.36,2.36,0,0,0-.9.8c-.8,1-.4,2.2.9,2.9a6.55,6.55,0,0,0,5,.5M332.5,307a3.92,3.92,0,0,0-1.3.5,3.57,3.57,0,0,0-1.1,1c-.5,1-.1,2,1.1,2.7a6.48,6.48,0,0,0,4.6.6,4.28,4.28,0,0,0,1.7-.6,2.36,2.36,0,0,0,.9-.8c.8-1,.4-2.2-.9-2.9a7.62,7.62,0,0,0-5-.5"/><g class="cls-13"><path class="cls-31" d="M295.6,331.9c1.6.9,1.6,2.4,0,3.3a6.31,6.31,0,0,1-3.4.7,2.09,2.09,0,0,0-.6.4c-2,1.2-4.4,1.6-5.3,1.1s-.1-1.9,1.9-3.1l.6-.3a1.82,1.82,0,0,1,1.1-2A6.06,6.06,0,0,1,295.6,331.9Z"/><path class="cls-31" d="M314.9,332.7l6.5,3.8-11.8,6.8c-9.3,5.3-24.3,5.2-33.5-.1s-9.3-14-.3-19.4l11.8-6.8,6.5,3.8,3-1.7c5.7-3.3,15-3.3,20.7,0s5.8,8.7.1,12Zm-9.7,8,7.2-4.2-24.8-14.3-7.3,4.2c-6.6,3.9-6.5,10.3.2,14.2,6.9,3.9,17.9,3.9,24.7.1m-3.6-19.1-3,1.7,11.7,6.8,3-1.7c3.2-1.9,3.2-4.9,0-6.8a12.72,12.72,0,0,0-11.7,0"/></g><g class="cls-13"><g class="cls-13"><g class="cls-32"><g class="cls-13"><path class="cls-33" d="M135.6,467.3l-.1,20.4a4.48,4.48,0,0,1-.4-2l.1-20.4a4.48,4.48,0,0,0,.4,2"/></g></g></g><polygon class="cls-34" points="162.1 524 162.1 544.3 135.5 487.7 135.6 467.3 162.1 524"/><g class="cls-13"><g class="cls-35"><g class="cls-13"><path class="cls-36" d="M173.3,530.4l-.1,20.4a2.92,2.92,0,0,1-.9-.2l.1-20.4a2.92,2.92,0,0,0,.9.2"/><path class="cls-37" d="M172.4,530.2l-.1,20.4-1.4-.3.1-20.4a7,7,0,0,0,1.4.3"/><path class="cls-38" d="M171,529.9l-.1,20.4a14.58,14.58,0,0,1-1.9-.7l.1-20.4a14.58,14.58,0,0,0,1.9.7"/><path class="cls-33" d="M169.1,529.2l-.1,20.4a16.94,16.94,0,0,1-2.7-1.3,11.22,11.22,0,0,1-4.3-4l.1-20.4c.6,1.4,2.2,2.8,4.3,4a11.26,11.26,0,0,0,2.7,1.3"/></g></g></g><path class="cls-18" d="M331,432.3a11.22,11.22,0,0,1,4.3,4l26.5,56.6c1.3,2.8-.5,6.8-4,8.8l-71.4,41.5c-3.5,2-10.4,3.1-15.2,2.4l-97.9-15.2a20.37,20.37,0,0,1-6.9-2.5,11.22,11.22,0,0,1-4.3-4l-26.5-56.7c-1.3-2.8.5-6.8,4-8.8L211,417c3.5-2,10.4-3.1,15.2-2.4l97.9,15.2A20.37,20.37,0,0,1,331,432.3Z"/></g><path class="cls-31" d="M273.6,490.1l.1,14.5H219.5L207,497.3l12.5-7.2Zm-41.5,9.7h20.8V495H232l.1,4.8m29.1-4.8v4.8h4.1V495h-4.1M223,499.8h.8V495H223l-4.1,2.4,4.1,2.4"/><polygon class="cls-31" points="309.8 475.2 283.4 490.6 277.5 487.1 298 475.2 250.8 447.9 192 482 206.8 490.6 200.9 494 180.3 482 250.7 441.1 309.8 475.2"/><polygon class="cls-31" points="245.1 478.6 239.2 482 221.4 471.8 227.3 468.4 245.1 478.6"/><polygon class="cls-31" points="286.3 475.2 280.4 478.6 244.9 458.1 250.8 454.7 286.3 475.2"/><polygon class="cls-31" points="268.6 478.6 262.8 482 233.2 465 239.1 461.6 268.6 478.6"/><ellipse class="cls-2" cx="169.4" cy="644.7" rx="50.6" ry="16.6"/><path class="cls-24" d="M190.9,523.3a78.21,78.21,0,0,1-9,25.2c-5.9-7.1,2.1-21.1,2.1-21.1a.77.77,0,0,0-.1-.3c-1.4-6-19.5-87.6,1.3-77.9C186.4,449.8,197.4,488.8,190.9,523.3Z"/><path class="cls-8" d="M190.9,523.3a78.21,78.21,0,0,1-9,25.2c-5.9-7.1,2.1-21.1,2.1-21.1a.77.77,0,0,0-.1-.3A33.82,33.82,0,0,0,190.9,523.3Z"/><path class="cls-3" d="M152.4,633c.4-.5,15.5-4.4,17.7-4.1s12.1,2.6,12.4,5.7,1.1,8.5-.4,9.1a11.1,11.1,0,0,1-6.6.7c-2.8-.6-6.4-4.4-8.8-4.4a41.6,41.6,0,0,1-11.6-1.9C150.8,636.4,151.1,634.5,152.4,633Z"/><path class="cls-4" d="M184.7,520.8c-.1,1.5-.2,3.1-.3,4.6-.6,9.1-6.2,53.3-6.2,53.3s4.4,37.9,4.3,55.9c-1,1.8-2.5,3.3-4.8,3a14.19,14.19,0,0,1-2.2-.5,12.44,12.44,0,0,1-2-1,13.43,13.43,0,0,1-4.4-5.3s-12.1-48.5-12.6-56.5c-1-14.2,2.7-33.1,3.2-48.9v-.5c1-23.8,18.7-23,22.4-20.7C185.2,506.1,185.1,513.3,184.7,520.8Z"/><path class="cls-5" d="M184.7,520.8a35.92,35.92,0,0,1-17.6,4.6,45.57,45.57,0,0,1-7.5-.6c1-23.8,18.7-23,22.4-20.7C185.2,506.1,185.1,513.3,184.7,520.8Z"/><path class="cls-5" d="M175.5,637.1a12.44,12.44,0,0,1-2-1c-2.8-15.1-9.6-52.7-10.5-59.9-1.2-9.1,8.6-60.4,9.1-62.6l1.7.3c-.1.5-10.2,53.2-9.1,62C165.7,583.3,172.9,623,175.5,637.1Z"/><path class="cls-3" d="M134.8,641.3c.4-.5,15.5-4.4,17.7-4.1s12.1,2.6,12.4,5.7,1.1,8.5-.4,9.1a11.1,11.1,0,0,1-6.6.7c-2.8-.6-6.4-4.4-8.8-4.4a41.6,41.6,0,0,1-11.6-1.9C133.2,644.7,133.5,642.8,134.8,641.3Z"/><path class="cls-4" d="M168.8,525l-8.3,62s4.4,37.9,4.3,55.9c-1,1.8-2.5,3.3-4.8,3a14.19,14.19,0,0,1-2.2-.5,12.44,12.44,0,0,1-2-1,13.43,13.43,0,0,1-4.4-5.3s-12.1-48.5-12.6-56.5c-.8-11.2,1.2-49,2.1-64.8.2-4.3.4-7,.4-7,1.5-20.4,21.1-7.2,24-4C169.8,511.8,170.3,515.7,168.8,525Z"/><path class="cls-5" d="M152.9,500c-2.1,22.9-6.7,77.3-5.8,84.2,1,7.4,8.2,47,10.8,61.1a12.44,12.44,0,0,1-2-1c-2.8-15.1-9.6-52.7-10.5-59.9s3.6-61.7,5.8-84.7Z"/><path class="cls-5" d="M168.8,525s-10.6,4-27.8-7.1c.2-4.3.4-7,.4-7,1.5-20.4,21.1-7.2,24-4C169.8,511.8,170.3,515.7,168.8,525Z"/><path class="cls-26" d="M152.9,441.5s-.6.3-2.1,1.1a10.38,10.38,0,0,0-4.8,5.5c-4.5,12.3-6.7,17.1-6.5,19.6.3,4.7,4.3,11.2,4.3,11.2l-4.9,45.9s7.4,3.8,29.5,6.1c9.1,1,17.6-4.3,17.6-4.3s2.4-78.6-.2-83.2S165.2,436.3,152.9,441.5Z"/><path class="cls-11" d="M152.9,441.5s3.4-4.4,11-5.9,13.2,3.5,13.2,3.5C176.6,439.9,163.3,441.3,152.9,441.5Z"/><path class="cls-8" d="M151.3,415.8c-1.3,4.8-2,15.6.5,16.9s5.4.4,6.5,2,1.4,5.5,1.4,5.5,9-.4,11.4-1.8c-.1-5.6-.6-6.9.1-8.6s5.1-9.4,3.2-15.3S153.8,406.5,151.3,415.8Z"/><path class="cls-3" d="M176,416.3c-.1-3.8-3.6-6.4-5.1-7-2.6-1.1-11.5-3.9-12.9-3a4.79,4.79,0,0,0-1.6,2.7,18.22,18.22,0,0,0-3.5.6c-1.6.6-3.9,4.5-2.9,6.8.3.8,4.9,3.8,4.9,3.8s.4,4.6,1,4.8c1.1-1.5,1.4-4.2,3.3-2.9s1.2,4.5.9,5.7-.7,1.7-1,1.7l.4,1.6,11.2.7a24,24,0,0,1,2-4.6C174.2,424.9,176.1,420.1,176,416.3Z"/><path class="cls-3" d="M192.4,434.8c-1.4-1.3-2.8-2.5-4.2-3.9a35.67,35.67,0,0,1-7.1-9.7c-1.9-3.7-3.2-7.7-5.7-11-5.1-6.9-18-7.6-23.3-.4a7.47,7.47,0,0,0-1.5,3.7,4.23,4.23,0,0,0,1.4,3.6c2.2,1.9,5.6.6,8.4,1.6a5.17,5.17,0,0,1,3.3,4.1,5.42,5.42,0,0,1-2,4.9c-1,1-1.9,1.7-2.2,3a28.81,28.81,0,0,0-.2,7.2,61.47,61.47,0,0,0,1.9,14.2c.7,2.7,1.5,5.5,3.2,7.7a16.15,16.15,0,0,0,9,5.6,32.6,32.6,0,0,0,10.8.5,21.06,21.06,0,0,0,7.5-1.7c4.8-2.3,7.6-7.7,7.9-13a19.89,19.89,0,0,0-4.3-13.5A39.67,39.67,0,0,0,192.4,434.8Z"/><path class="cls-24" d="M157.3,457.5c-3.1,9.8-17.7,28.8-17.7,28.8s8.1,14.3,10.9,23.3a13.73,13.73,0,0,1-10.2,3.9s-22.4-25.3-21.8-31.7,25.2-36.7,32.3-39C159.6,439.8,160,449,157.3,457.5Z"/><path class="cls-8" d="M150.5,509.5a13.4,13.4,0,0,1-10.2,3.8h0c-.3.5-3.3,14.7-1.9,15.8,1.8,1.3,4.2-1.6,5.3-3.2,3-4.3,6.2-9.3,6.9-11.4A7.15,7.15,0,0,0,150.5,509.5Z"/><path class="cls-39" d="M718.4,612a2.92,2.92,0,0,1,.9.2c12.6,2.2,16.9,9.3,22.2,20.4s11,19,26.5,21.6c.4.1.9.1,1.3.2a56.68,56.68,0,0,0,29.6-3.5L774.6,667l-54.1,3.4-40-19.6-1.8-22.7c1.8,7,10.3,12.6,22,14.5.3.1.6.1,1,.2,12.3,1.9,23.5-1,34.1-5.1l-2.2-4.4c-9.9,4-19.6,6.9-29.7,5.3-.2,0-.4-.1-.7-.1-13-2.2-20.1-9.9-15.7-17.2S705.7,610.1,718.4,612Z"/><path class="cls-40" d="M813.1,610.3l2.6,33.2-39.1,26.1-57.9,3.6-42.9-21L673.1,619l39-26.1,58-3.6Zm-17.4,36.4,7.5,1.3,5.5-3.7-.8-.1L771.8,638l2.6-4.2,28.7,4.9c1.9-6.8-4.9-13.2-16.2-15-.2,0-.4-.1-.6-.1-9.8-1.5-19.4,1.4-29.2,5.4l-2.1-4.4c10.5-4.1,21.5-7.1,33.6-5.2.3,0,.6.1.9.1,8.7,1.4,15.7,5,19.3,9.7a9.39,9.39,0,0,1,1.4,2.6l-1.6-20.2-40-19.6-54.1,3.4-24.7,16.5c8.8-4.2,20.3-5.8,30.8-4.2.5.1.9.1,1.4.2,15.4,2.7,21.4,10.9,26.5,21.6s9.6,18.2,22.2,20.4c.3.1.6.1,1,.2a41.39,41.39,0,0,0,24-3.4M774.6,667l24.2-16.2a56.68,56.68,0,0,1-29.6,3.5c-.4-.1-.9-.1-1.3-.2-15.4-2.7-21.1-10.5-26.5-21.6s-9.6-18.2-22.2-20.4c-.3-.1-.6-.1-.9-.2-12.7-1.9-26.4,2.1-30.9,9.2-4.4,7.3,2.7,15,15.7,17.2.2,0,.4.1.7.1,10.1,1.5,19.8-1.3,29.7-5.3l2.2,4.4c-10.6,4.1-21.8,7-34.1,5.1a4.4,4.4,0,0,1-1-.2c-11.7-1.9-20.2-7.5-22-14.5l1.8,22.7,40,19.6,54.2-3.2"/><path class="cls-41" d="M771.8,586.9l45.4,22.2,2.9,35.2-41.4,27.6-61.4,3.8-45.4-22.2L669,618.3l41.4-27.6Zm4.9,82.7,39.1-26.1-2.6-33.2-42.9-21-58,3.6-39,26.1,2.7,33.2,42.9,21,57.8-3.6"/><path class="cls-42" d="M768.6,592.1l-54.1,3.4L689.8,612a54.38,54.38,0,0,1,8.3-3,17.42,17.42,0,0,1,2.2-.5c.2-.1.5-.1.7-.2a5,5,0,0,1,1.2-.2c1.1-.2,2.3-.4,3.4-.5,1.9-.2,3.9-.3,5.9-.4h0a66.91,66.91,0,0,1,9,.6c.5.1.9.1,1.4.2,15.4,2.7,21.4,10.9,26.5,21.6s9.6,18.2,22.2,20.4c.3.1.6.1,1,.2a51.08,51.08,0,0,0,5.5.5h.8a39.77,39.77,0,0,0,17.8-3.9h0l7.5,1.3,5.5-3.7-.8-.1-36.1-6.2,2.6-4.2h0l28.7,4.9v-.1c0-.2.1-.3.1-.5v-.1c.1-.5.1-1,.2-1.5h0c0-5.9-6.5-11.1-16.5-12.8-.2,0-.4-.1-.6-.1s-.6-.1-.9-.1c-.6-.1-1.2-.1-1.8-.2a24.37,24.37,0,0,0-2.7-.1h-1.8a2.77,2.77,0,0,0-.9.1,37.76,37.76,0,0,0-4.7.6,15.54,15.54,0,0,0-2.3.5l-1.1.3a91.15,91.15,0,0,0-12.7,4.4l-2.1-4.4c1.6-.6,3.3-1.3,5-1.8.7-.2,1.3-.5,2-.7l5.1-1.5a56.54,56.54,0,0,1,13.7-1.8,53.24,53.24,0,0,1,7.8.6c.3,0,.6.1.9.1,7.6,1.3,13.9,4.1,17.8,8l.4.4c.3.3.5.6.8.9.1.1.2.3.3.4a9.39,9.39,0,0,1,1.4,2.6l-1.6-20.2Z"/><path class="cls-31" d="M884.7,647.9c1.2,3.5-1.7,8.5-6.4,11l-96.2,51.7c-4.7,2.5-13.3,3.8-19.3,2.9L642,694c-6-1-11.8-4.6-13-8.1l-24.5-71.2c-1.2-3.5,1.7-8.5,6.4-11L707,552c4.7-2.5,13.3-3.8,19.3-2.9l120.9,19.5c6,1,11.8,4.6,13,8.1Zm-106,23.9,41.4-27.6L817.2,609l-45.4-22.2-61.3,3.8-41.4,27.6,2.9,35.2,45.4,22.2,61.3-3.8"/></svg>