<?xml version="1.0" encoding="UTF-8" standalone="no"?>
<svg
   id="Layer_1"
   data-name="Layer 1"
   viewBox="0 0 414.88002 132.9"
   version="1.1"
   sodipodi:docname="ACF-logo.svg"
   width="414.88"
   height="132.89999"
   inkscape:version="1.2.1 (9c6d41e, 2022-07-14)"
   xmlns:inkscape="http://www.inkscape.org/namespaces/inkscape"
   xmlns:sodipodi="http://sodipodi.sourceforge.net/DTD/sodipodi-0.dtd"
   xmlns="http://www.w3.org/2000/svg"
   xmlns:svg="http://www.w3.org/2000/svg">
  <sodipodi:namedview
     id="namedview707"
     pagecolor="#ffffff"
     bordercolor="#000000"
     borderopacity="0.25"
     inkscape:showpageshadow="2"
     inkscape:pageopacity="0.0"
     inkscape:pagecheckerboard="0"
     inkscape:deskcolor="#d1d1d1"
     showgrid="false"
     inkscape:zoom="0.90828623"
     inkscape:cx="210.28613"
     inkscape:cy="69.361395"
     inkscape:window-width="1309"
     inkscape:window-height="456"
     inkscape:window-x="41"
     inkscape:window-y="38"
     inkscape:window-maximized="0"
     inkscape:current-layer="Layer_1" />
  <defs
     id="defs650">
    <style
       id="style639">.cls-1{fill:#242424;}.cls-2{fill:#282560;}.cls-3{fill:#c51e7c;}.cls-4{fill:url(#linear-gradient);}</style>
    <linearGradient
       id="linear-gradient"
       x1="116.51"
       y1="61.139999"
       x2="116.51"
       y2="193.96001"
       gradientUnits="userSpaceOnUse"
       gradientTransform="translate(-50.06,-61.1)">
      <stop
         offset="0"
         stop-color="#c51e7c"
         id="stop641" />
      <stop
         offset="0.23"
         stop-color="#a41f75"
         id="stop643" />
      <stop
         offset="0.74"
         stop-color="#512162"
         id="stop645" />
      <stop
         offset="1"
         stop-color="#252258"
         id="stop647" />
    </linearGradient>
  </defs>
  <path
     class="cls-1"
     d="m 174.54,101.99 a 8.41,8.41 0 0 1 -2.79,-0.44 6.15,6.15 0 0 1 -2.25,-1.35 6.31,6.31 0 0 1 -1.56,-2.3 9.07,9.07 0 0 1 -0.54,-3.29 v -2 a 8.4,8.4 0 0 1 0.56,-3.23 6.37,6.37 0 0 1 1.54,-2.31 6.52,6.52 0 0 1 2.26,-1.39 7.82,7.82 0 0 1 2.7,-0.46 h 0.52 a 8.22,8.22 0 0 1 2.56,0.39 5.64,5.64 0 0 1 2.1,1.21 5.58,5.58 0 0 1 1.42,2.09 8.16,8.16 0 0 1 0.51,3 h -3.73 a 5.45,5.45 0 0 0 -0.38,-2.26 2.35,2.35 0 0 0 -1.09,-1.15 3.86,3.86 0 0 0 -1.67,-0.33 3.31,3.31 0 0 0 -1.25,0.22 2.5,2.5 0 0 0 -1,0.64 2.9,2.9 0 0 0 -0.63,1.09 4.83,4.83 0 0 0 -0.23,1.62 v 3.66 a 4.74,4.74 0 0 0 0.38,2 2.45,2.45 0 0 0 1.07,1.17 3.34,3.34 0 0 0 1.62,0.37 4.25,4.25 0 0 0 1.82,-0.34 2.15,2.15 0 0 0 1.09,-1.13 5.37,5.37 0 0 0 0.37,-2.24 h 3.59 a 7.9,7.9 0 0 1 -0.5,2.9 5.66,5.66 0 0 1 -1.4,2.1 6.08,6.08 0 0 1 -2.09,1.28 7.66,7.66 0 0 1 -2.55,0.42 z"
     id="path652" />
  <path
     class="cls-1"
     d="m 195.85,101.95 a 4,4 0 0 1 -1.56,-0.28 2,2 0 0 1 -1,-0.94 3.91,3.91 0 0 1 -0.35,-1.83 6.75,6.75 0 0 0 -0.12,-1.3 3.29,3.29 0 0 0 -0.43,-1.07 2.15,2.15 0 0 0 -0.75,-0.72 2,2 0 0 0 -1.07,-0.26 h -2.4 v 6.23 h -3.93 V 85.44 h 8.51 a 5,5 0 0 1 2.18,0.49 4.22,4.22 0 0 1 1.65,1.39 3.66,3.66 0 0 1 0.65,2.19 4.42,4.42 0 0 1 -0.41,1.91 4.7,4.7 0 0 1 -1.06,1.48 4.39,4.39 0 0 1 -1.44,0.91 v 0.09 a 3.81,3.81 0 0 1 1,0.48 3.23,3.23 0 0 1 0.82,0.79 4.46,4.46 0 0 1 0.58,1.13 4.33,4.33 0 0 1 0.23,1.43 9,9 0 0 0 0,1.07 4.43,4.43 0 0 0 0.16,0.89 1.64,1.64 0 0 0 0.37,0.66 1.55,1.55 0 0 0 0.63,0.38 v 0.83 a 4.19,4.19 0 0 1 -1.07,0.27 7.75,7.75 0 0 1 -1.19,0.12 z m -7.73,-9.4 h 3.23 a 1.38,1.38 0 0 0 0.9,-0.32 2.13,2.13 0 0 0 0.64,-0.83 2.63,2.63 0 0 0 0.24,-1.13 1.64,1.64 0 0 0 -1.73,-1.81 h -3.28 z"
     id="path654" />
  <path
     class="cls-1"
     d="M 204.05,101.76 V 95.5 L 198.53,85.44 H 203 l 3.16,6.28 h 0.1 l 3.21,-6.28 h 4.06 l -5.49,10.06 v 6.26 z"
     id="path656" />
  <path
     class="cls-1"
     d="M 215.18,101.76 V 85.44 h 8.13 a 4.85,4.85 0 0 1 2.44,0.63 4.73,4.73 0 0 1 1.74,1.7 4.61,4.61 0 0 1 0.65,2.41 v 0.4 a 4.78,4.78 0 0 1 -0.67,2.46 5.12,5.12 0 0 1 -1.77,1.81 4.65,4.65 0 0 1 -2.46,0.68 h -4.09 v 6.23 z m 4,-9.21 h 3 a 1.82,1.82 0 0 0 1,-0.26 1.86,1.86 0 0 0 0.68,-0.71 2.25,2.25 0 0 0 0.25,-1.07 2.12,2.12 0 0 0 -0.53,-1.44 1.81,1.81 0 0 0 -1.45,-0.61 h -3 z"
     id="path658" />
  <path
     class="cls-1"
     d="m 233.06,101.76 v -13.2 h -4.5 v -3.12 h 13 v 3.12 h -4.5 v 13.2 z"
     id="path660" />
  <path
     class="cls-1"
     d="m 249.94,101.99 a 7.06,7.06 0 0 1 -2.68,-0.5 6.29,6.29 0 0 1 -2.21,-1.45 6.57,6.57 0 0 1 -1.49,-2.33 8.45,8.45 0 0 1 -0.53,-3.11 v -2 a 8.4,8.4 0 0 1 0.54,-3.1 7,7 0 0 1 1.5,-2.32 6.64,6.64 0 0 1 2.2,-1.45 7.1,7.1 0 0 1 2.65,-0.5 h 1 a 7.25,7.25 0 0 1 2.68,0.5 6.59,6.59 0 0 1 2.19,1.45 6.71,6.71 0 0 1 1.49,2.32 8.4,8.4 0 0 1 0.54,3.1 v 2 a 8.45,8.45 0 0 1 -0.54,3.11 6.57,6.57 0 0 1 -1.49,2.33 6.3,6.3 0 0 1 -2.19,1.45 7.06,7.06 0 0 1 -2.68,0.5 z m 0.48,-3 a 3.4,3.4 0 0 0 1.26,-0.22 2.75,2.75 0 0 0 1,-0.65 3,3 0 0 0 0.66,-1.09 4.67,4.67 0 0 0 0.24,-1.59 v -3.66 a 4.67,4.67 0 0 0 -0.24,-1.59 3.06,3.06 0 0 0 -0.66,-1.11 2.72,2.72 0 0 0 -1,-0.64 3.79,3.79 0 0 0 -1.24,-0.2 3.59,3.59 0 0 0 -1.24,0.21 3,3 0 0 0 -1,0.65 2.72,2.72 0 0 0 -0.67,1.09 4.67,4.67 0 0 0 -0.24,1.59 v 3.64 a 4.67,4.67 0 0 0 0.24,1.59 2.8,2.8 0 0 0 0.67,1.11 2.87,2.87 0 0 0 1,0.65 3.37,3.37 0 0 0 1.17,0.23 z"
     id="path662" />
  <path
     class="cls-1"
     d="M 265.42,101.76 V 85.44 h 11.2 l -0.4,3.05 h -6.87 v 3.73 h 6.23 v 3 h -6.23 v 6.57 z"
     id="path664" />
  <path
     class="cls-1"
     d="m 284.99,101.99 a 7.11,7.11 0 0 1 -2.69,-0.5 6.38,6.38 0 0 1 -2.21,-1.45 6.55,6.55 0 0 1 -1.48,-2.33 8.45,8.45 0 0 1 -0.54,-3.11 v -2 a 8.2,8.2 0 0 1 0.55,-3.1 6.73,6.73 0 0 1 1.5,-2.32 6.54,6.54 0 0 1 2.2,-1.45 7.1,7.1 0 0 1 2.65,-0.5 h 1 a 7.16,7.16 0 0 1 2.67,0.5 6.64,6.64 0 0 1 2.2,1.45 6.86,6.86 0 0 1 1.49,2.32 8.61,8.61 0 0 1 0.53,3.1 v 2 a 8.67,8.67 0 0 1 -0.53,3.11 6.71,6.71 0 0 1 -1.49,2.33 6.34,6.34 0 0 1 -2.2,1.45 7,7 0 0 1 -2.67,0.5 z m 0.48,-3 a 3.4,3.4 0 0 0 1.26,-0.22 2.75,2.75 0 0 0 1,-0.65 3.12,3.12 0 0 0 0.66,-1.09 4.67,4.67 0 0 0 0.24,-1.59 v -3.66 a 4.67,4.67 0 0 0 -0.24,-1.59 3.21,3.21 0 0 0 -0.66,-1.11 2.72,2.72 0 0 0 -1,-0.64 3.84,3.84 0 0 0 -1.24,-0.2 3.69,3.69 0 0 0 -1.25,0.21 2.82,2.82 0 0 0 -1.7,1.74 4.67,4.67 0 0 0 -0.24,1.59 v 3.64 a 4.67,4.67 0 0 0 0.24,1.59 2.94,2.94 0 0 0 0.68,1.11 2.78,2.78 0 0 0 1,0.65 3.33,3.33 0 0 0 1.25,0.23 z"
     id="path666" />
  <path
     class="cls-1"
     d="m 301.45,101.99 a 7,7 0 0 1 -3.21,-0.69 4.9,4.9 0 0 1 -2.08,-1.92 5.56,5.56 0 0 1 -0.73,-2.88 V 85.44 h 4 V 96.5 a 2.42,2.42 0 0 0 0.73,1.8 2.62,2.62 0 0 0 1.89,0.7 2.56,2.56 0 0 0 1.87,-0.7 2.43,2.43 0 0 0 0.7,-1.8 V 85.44 h 4 V 96.5 a 5.24,5.24 0 0 1 -0.8,2.88 5.44,5.44 0 0 1 -2.25,1.92 7.53,7.53 0 0 1 -3.29,0.69 z"
     id="path668" />
  <path
     class="cls-1"
     d="M 311.86,101.76 V 85.44 h 3.33 l 5.28,7.8 0.81,1.45 h 0.12 v -9.21 h 3.64 v 16.32 h -3.43 l -5.44,-8.07 -0.57,-1.07 -0.1,0.05 v 9.09 z"
     id="path670" />
  <path
     class="cls-1"
     d="M 328.39,101.76 V 85.44 h 6.75 a 7.66,7.66 0 0 1 2.7,0.47 6.54,6.54 0 0 1 2.21,1.36 6.31,6.31 0 0 1 1.5,2.22 7.83,7.83 0 0 1 0.53,3 v 1.8 a 8.26,8.26 0 0 1 -0.53,3.06 7,7 0 0 1 -1.5,2.35 6.64,6.64 0 0 1 -2.21,1.51 6.88,6.88 0 0 1 -2.7,0.53 z m 4,-3.05 h 2.43 a 3,3 0 0 0 1.54,-0.4 2.85,2.85 0 0 0 1.1,-1.2 4.38,4.38 0 0 0 0.4,-2 v -3.3 a 4,4 0 0 0 -0.4,-1.92 2.54,2.54 0 0 0 -1.1,-1.1 3.27,3.27 0 0 0 -1.54,-0.36 h -2.43 z"
     id="path672" />
  <path
     class="cls-1"
     d="m 343.13,101.76 5.8,-16.32 h 4.83 l 5.8,16.32 h -4.13 l -1.17,-3.21 h -6.13 l -1.19,3.21 z m 5.95,-6 h 4.21 l -2,-6.16 h -0.11 z"
     id="path674" />
  <path
     class="cls-1"
     d="m 364.18,101.76 v -13.2 h -4.5 v -3.12 h 13 v 3.12 h -4.5 v 13.2 z"
     id="path676" />
  <path
     class="cls-1"
     d="M 374.24,101.76 V 98.9 h 1.92 V 88.34 h -1.92 v -2.9 h 7.82 v 2.9 h -1.9 V 98.9 h 1.9 v 2.91 z"
     id="path678" />
  <path
     class="cls-1"
     d="m 391.12,101.99 a 7.11,7.11 0 0 1 -2.69,-0.5 6.29,6.29 0 0 1 -2.21,-1.45 6.71,6.71 0 0 1 -1.49,-2.33 8.67,8.67 0 0 1 -0.53,-3.11 v -2 a 8.2,8.2 0 0 1 0.55,-3.1 6.86,6.86 0 0 1 1.49,-2.32 6.74,6.74 0 0 1 2.2,-1.45 7.19,7.19 0 0 1 2.66,-0.5 h 1 a 7.18,7.18 0 0 1 2.68,0.5 6.64,6.64 0 0 1 2.2,1.45 6.86,6.86 0 0 1 1.49,2.32 8.61,8.61 0 0 1 0.53,3.1 v 2 a 8.67,8.67 0 0 1 -0.53,3.11 6.71,6.71 0 0 1 -1.49,2.33 6.34,6.34 0 0 1 -2.2,1.45 7,7 0 0 1 -2.68,0.5 z m 0.48,-3 a 3.48,3.48 0 0 0 1.26,-0.22 2.63,2.63 0 0 0 1,-0.65 3,3 0 0 0 0.67,-1.09 4.67,4.67 0 0 0 0.24,-1.59 v -3.66 a 4.67,4.67 0 0 0 -0.24,-1.59 3.08,3.08 0 0 0 -0.67,-1.11 2.6,2.6 0 0 0 -1,-0.64 3.88,3.88 0 0 0 -1.24,-0.2 3.64,3.64 0 0 0 -1.25,0.21 2.87,2.87 0 0 0 -1,0.65 2.74,2.74 0 0 0 -0.68,1.09 4.67,4.67 0 0 0 -0.24,1.59 v 3.64 a 4.67,4.67 0 0 0 0.24,1.59 2.82,2.82 0 0 0 0.68,1.11 2.78,2.78 0 0 0 1,0.65 3.33,3.33 0 0 0 1.23,0.23 z"
     id="path680" />
  <path
     class="cls-1"
     d="M 401.7,101.76 V 85.44 h 3.33 l 5.28,7.8 0.81,1.45 h 0.12 v -9.21 h 3.64 v 16.32 h -3.43 l -5.45,-8.07 -0.57,-1.07 -0.09,0.05 v 9.09 z"
     id="path682" />
  <path
     class="cls-2"
     d="M 123.2,69.23 H 91.44 v -6.22 h 25.24 A 20.24,20.24 0 0 0 96.5,46.52 c -8.85,0 -15.17,6.23 -21.12,14.12 l -3.85,-5.46 c 6.5,-8.23 14,-14.88 25,-14.88 a 27.08,27.08 0 0 1 20.09,8.6 24.92,24.92 0 0 1 2.42,3.13 L 107.86,25.03 66.45,7.9 25.04,25.04 13.42,53.1 A 27.54,27.54 0 0 1 37.09,40.3 c 13.57,0 22.32,9.72 31.59,23 9.27,13.28 16.57,22.4 27.63,22.4 a 21.15,21.15 0 0 0 18.37,-10.26 h 6.59 l 2.59,-6.25 z"
     id="path684" />
  <path
     class="cls-3"
     d="m 96.31,91.97 c -13.57,0 -22,-9.31 -31.6,-23.07 C 55.11,55.14 48.16,46.53 37.09,46.53 25.65,46.45 16.31,55.22 16.2,66.13 c 0.11,10.91 9.45,19.69 20.89,19.61 9,0 15.51,-6.21 21.59,-14.11 l 3.91,5.49 C 55.95,85.34 48.28,91.97 37.09,91.97 A 27.47,27.47 0 0 1 12.45,77.48 l 12.59,30.42 41.41,17.15 41.41,-17.15 11.4,-27.53 a 27.89,27.89 0 0 1 -22.95,11.6 z"
     id="path686" />
  <path
     class="cls-4"
     d="m 66.45,132.9 -47,-19.45 -19.45,-47 19.45,-47 47,-19.45 47,19.45 19.45,47 -19.45,47 z M 22.11,110.79 66.45,129.16 110.79,110.79 129.15,66.45 110.79,22.11 66.45,3.74 22.11,22.11 3.74,66.45 Z"
     id="path688"
     style="fill:url(#linear-gradient)" />
  <path
     class="cls-1"
     d="m 178.63,62.64 c 5.59,0 10.73,-2.25 13.24,-6.87 2.38,4.3 6.74,6.87 13.3,6.87 8.54,0 14.26,-4.24 14.26,-10.79 v -0.58 h -6.81 v 0.51 c 0,2.89 -2.06,4.69 -7.39,4.69 -6.49,0 -8.86,-2.82 -9.06,-8.73 h 23.19 a 25.61,25.61 0 0 0 0.33,-4.37 c 0,-8.8 -6,-13.94 -14.46,-13.94 a 15,15 0 0 0 -11.56,4.75 c -2.19,-3 -5.91,-4.75 -11,-4.75 -8.48,0 -14,5.14 -14,12.27 v 0.64 h 6.75 v -0.58 c 0,-4.88 2.38,-6.23 7,-6.23 4.62,0 7.26,1.16 7.26,6.55 v 1.61 l -11.24,1.41 c -6.68,0.77 -10.67,3.73 -10.67,8.93 -0.06,5.78 4.44,8.61 10.86,8.61 z m 26.31,-27.37 c 5.46,0 8.42,2.38 8.16,7.78 h -16.86 c 0.38,-4.89 2.63,-7.78 8.7,-7.78 z m -30.45,18.18 c 0,-2.31 1.28,-3.27 4.95,-3.72 l 10.34,-1.29 c 0,6.81 -4.88,8.74 -9.64,8.74 -4.01,0 -5.68,-1.09 -5.68,-3.73 z"
     id="path690" />
  <path
     class="cls-1"
     d="m 238.26,62 a 27.11,27.11 0 0 0 5.72,-0.58 v -5.65 h -3.92 c -4.3,0 -5.72,-0.58 -5.72,-3.92 V 35.9 h 9.6 v -5.83 h -9.6 v -7.9 h -5.33 l -1.48,7.9 h -5.46 v 5.83 h 5.34 v 16.32 c 0,7.14 3.72,9.78 10.85,9.78 z"
     id="path692" />
  <path
     class="cls-1"
     d="m 261.75,62.64 c 8.6,0 14.32,-4.24 14.32,-10.79 v -0.58 h -6.87 v 0.51 c 0,2.89 -2.06,4.69 -7.39,4.69 -6.68,0 -8.8,-2.95 -9.06,-8.8 h 23.19 a 24.17,24.17 0 0 0 0.39,-4.37 c 0,-8.73 -6,-13.87 -14.65,-13.87 -9.51,0 -15.42,6.68 -15.42,16.57 0,9.89 4.95,16.64 15.49,16.64 z m -0.2,-27.37 c 5.46,0 8.42,2.32 8.16,7.78 h -16.89 c 0.38,-4.95 2.69,-7.78 8.73,-7.78 z"
     id="path694" />
  <path
     class="cls-1"
     d="M 288.8,62 V 41.18 c 0,-4.24 1.55,-5.84 5.72,-5.84 4.17,0 5.27,1.54 5.27,5.78 v 1.28 h 6.94 v -2.12 c 0,-6 -2.57,-10.85 -9.25,-10.85 a 9.28,9.28 0 0 0 -8.93,5.52 h -0.32 V 29.9 h -6.36 V 62 Z"
     id="path696" />
  <path
     class="cls-1"
     d="M 317.94,62 V 43.56 c 0,-6 2.57,-8.16 8.22,-8.16 5.84,0 7.64,2.38 7.64,8.1 V 62 h 6.94 V 42 c 0,-7.26 -3.72,-12.52 -12,-12.52 -6.23,0 -9.64,3.21 -11.12,6.61 h -0.25 v -6 h -6.33 V 62 Z"
     id="path698" />
  <path
     class="cls-1"
     d="m 353.94,26.02 v -7.07 h -7 l 0.06,7.07 z m 0.07,36 V 29.9 h -6.97 V 62 Z"
     id="path700" />
  <path
     class="cls-1"
     d="m 373.46,62 a 27.19,27.19 0 0 0 5.72,-0.58 v -5.65 h -3.92 c -4.3,0 -5.72,-0.58 -5.72,-3.92 V 35.9 h 9.64 v -5.83 h -9.64 v -7.9 h -5.33 l -1.48,7.9 h -5.46 v 5.83 h 5.33 v 16.32 c 0,7.14 3.73,9.78 10.86,9.78 z"
     id="path702" />
  <path
     class="cls-1"
     d="m 388.21,72.9 c 5,0 8.09,-1.48 10.47,-7.13 l 15.1,-35.72 h -7.65 l -5.85,15.48 -2.63,6.94 h -0.51 l -2.89,-6.94 -6.43,-15.48 h -7.64 l 13.55,31.09 -1.22,2.7 c -1,2.38 -2,2.83 -4.75,2.83 h -4.37 v 5.65 a 19.77,19.77 0 0 0 4.82,0.58 z"
     id="path704" />
</svg>
