<?xml version="1.0" encoding="UTF-8" standalone="no"?>
<!-- Created with Inkscape (http://www.inkscape.org/) -->

<svg
   width="91.815758mm"
   height="29.395201mm"
   viewBox="0 0 91.815758 29.395201"
   version="1.1"
   id="svg570"
   inkscape:version="1.2.1 (9c6d41e, 2022-07-14)"
   sodipodi:docname="ACF-logo-white.svg"
   xmlns:inkscape="http://www.inkscape.org/namespaces/inkscape"
   xmlns:sodipodi="http://sodipodi.sourceforge.net/DTD/sodipodi-0.dtd"
   xmlns:xlink="http://www.w3.org/1999/xlink"
   xmlns="http://www.w3.org/2000/svg"
   xmlns:svg="http://www.w3.org/2000/svg">
  <sodipodi:namedview
     id="namedview572"
     pagecolor="#ffffff"
     bordercolor="#000000"
     borderopacity="0.25"
     inkscape:showpageshadow="2"
     inkscape:pageopacity="0.0"
     inkscape:pagecheckerboard="0"
     inkscape:deskcolor="#d1d1d1"
     inkscape:document-units="mm"
     showgrid="false"
     inkscape:zoom="2.124213"
     inkscape:cx="175.59444"
     inkscape:cy="56.49151"
     inkscape:window-width="1431"
     inkscape:window-height="642"
     inkscape:window-x="41"
     inkscape:window-y="38"
     inkscape:window-maximized="0"
     inkscape:current-layer="layer1" />
  <defs
     id="defs567">
    <linearGradient
       id="linear-gradient-3"
       x1="165.32001"
       y1="377.57001"
       x2="165.32001"
       y2="488.67001"
       xlink:href="#linear-gradient"
       gradientTransform="matrix(0.26458333,0,0,0.26458333,29.512807,33.903668)" />
    <linearGradient
       id="linear-gradient"
       x1="165.32001"
       y1="49.52"
       x2="165.32001"
       y2="160.62"
       gradientUnits="userSpaceOnUse">
      <stop
         offset="0"
         stop-color="#c41b7b"
         id="stop4" />
      <stop
         offset="0.23"
         stop-color="#a31c74"
         id="stop6" />
      <stop
         offset="0.75"
         stop-color="#501f62"
         id="stop8" />
      <stop
         offset="1"
         stop-color="#252158"
         id="stop10" />
    </linearGradient>
  </defs>
  <g
     inkscape:label="Layer 1"
     inkscape:groupmode="layer"
     id="layer1"
     transform="translate(-58.545536,-133.8024)">
    <polygon
       class="cls-1"
       points="165.32,486.75 127.39,471.05 111.68,433.12 127.39,395.19 165.32,379.49 203.24,395.19 218.95,433.12 203.24,471.05 "
       id="polygon142"
       style="fill:#ffffff"
       transform="matrix(0.26458333,0,0,0.26458333,29.512807,33.903668)" />
    <path
       class="cls-1"
       d="m 97.172056,156.36606 a 1.8520833,1.8520833 0 0 1 -0.613833,-0.0979 1.3387916,1.3387916 0 0 1 -0.836084,-0.80963 1.9579166,1.9579166 0 0 1 -0.121708,-0.7276 v -0.44186 a 1.905,1.905 0 0 1 0.121708,-0.71437 1.4605,1.4605 0 0 1 0.343959,-0.51065 1.4366875,1.4366875 0 0 1 0.500062,-0.30691 1.7224375,1.7224375 0 0 1 0.597959,-0.10319 h 0.11377 a 1.7991666,1.7991666 0 0 1 0.566209,0.0873 1.254125,1.254125 0 0 1 0.465666,0.26458 1.2038542,1.2038542 0 0 1 0.312209,0.46302 1.778,1.778 0 0 1 0.113771,0.67205 h -0.8255 a 1.2065,1.2065 0 0 0 -0.08467,-0.50007 0.50799999,0.50799999 0 0 0 -0.238125,-0.26458 0.88635416,0.88635416 0 0 0 -0.373063,-0.0714 0.75935416,0.75935416 0 0 0 -0.264583,0.045 0.58737499,0.58737499 0 0 0 -0.214312,0.14288 0.63764583,0.63764583 0 0 0 -0.137584,0.24341 1.0874375,1.0874375 0 0 0 -0.05027,0.35719 v 0.80963 a 1.0583333,1.0583333 0 0 0 0.08467,0.44979 0.55297916,0.55297916 0 0 0 0.235479,0.26458 0.77258332,0.77258332 0 0 0 0.357188,0.0794 1.0080625,1.0080625 0 0 0 0.404812,-0.0714 0.48683333,0.48683333 0 0 0 0.240771,-0.25136 1.190625,1.190625 0 0 0 0.08202,-0.49741 h 0.79375 a 1.7224375,1.7224375 0 0 1 -0.111125,0.64294 1.2514792,1.2514792 0 0 1 -0.309563,0.46566 1.3229166,1.3229166 0 0 1 -0.46302,0.28046 1.6377708,1.6377708 0 0 1 -0.563563,0.0952 z"
       id="path144"
       style="fill:#241c1c;stroke-width:0.264583" />
    <path
       class="cls-1"
       d="m 101.88958,156.35548 a 0.91281249,0.91281249 0 0 1 -0.34661,-0.0609 0.44714583,0.44714583 0 0 1 -0.22489,-0.20637 0.84137499,0.84137499 0 0 1 -0.082,-0.4101 1.4208125,1.4208125 0 0 0 -0.0291,-0.2884 0.64822916,0.64822916 0 0 0 -0.0953,-0.23548 0.47889583,0.47889583 0 0 0 -0.16404,-0.1614 0.46037499,0.46037499 0 0 0 -0.23812,-0.0582 h -0.52917 v 1.37848 h -0.870481 v -3.61157 h 1.883831 a 1.0583333,1.0583333 0 0 1 0.48154,0.10848 0.95514582,0.95514582 0 0 1 0.36513,0.30692 0.79374999,0.79374999 0 0 1 0.14287,0.48419 0.97102082,0.97102082 0 0 1 -0.09,0.42333 1.0424583,1.0424583 0 0 1 -0.23284,0.32544 1.0107083,1.0107083 0 0 1 -0.32014,0.20373 v 0.0264 a 0.80697916,0.80697916 0 0 1 0.21431,0.10584 0.71172916,0.71172916 0 0 1 0.18256,0.17462 0.97366665,0.97366665 0 0 1 0.127,0.25136 0.91545832,0.91545832 0 0 1 0.0503,0.31485 2.25425,2.25425 0 0 0 0,0.23813 1.0292292,1.0292292 0 0 0 0.037,0.19579 0.3730625,0.3730625 0 0 0 0.082,0.14552 0.33866666,0.33866666 0 0 0 0.14022,0.0847 v 0.18256 a 0.92339582,0.92339582 0 0 1 -0.23812,0.0608 1.698625,1.698625 0 0 1 -0.24606,0.0212 z m -1.71186,-2.0664 h 0.71702 a 0.30427083,0.30427083 0 0 0 0.19844,-0.0714 0.47889583,0.47889583 0 0 0 0.14288,-0.18521 0.59002083,0.59002083 0 0 0 0.0529,-0.24871 0.396875,0.396875 0 0 0 -0.10848,-0.29898 0.381,0.381 0 0 0 -0.26458,-0.10319 h -0.7276 z"
       id="path146"
       style="fill:#241c1c;stroke-width:0.264583" />
    <path
       class="cls-1"
       d="m 103.70462,156.31315 v -1.38378 l -1.22238,-2.22779 h 0.98955 l 0.70114,1.38907 h 0.0212 l 0.70908,-1.38907 h 0.89958 l -1.21443,2.22515 v 1.38377 z"
       id="path148"
       style="fill:#241c1c;stroke-width:0.264583" />
    <path
       class="cls-1"
       d="m 106.16789,156.31315 v -3.61157 h 1.79917 a 1.0583333,1.0583333 0 0 1 0.92075,0.52917 1.000125,1.000125 0 0 1 0.14287,0.52917 v 0.0873 a 1.0583333,1.0583333 0 0 1 -0.14817,0.54504 1.1324167,1.1324167 0 0 1 -0.39158,0.39952 1.0239375,1.0239375 0 0 1 -0.54504,0.15081 h -0.91017 v 1.37848 z m 0.86783,-2.02407 h 0.67204 a 0.41010416,0.41010416 0 0 0 0.37307,-0.21696 0.47889583,0.47889583 0 0 0 0.0529,-0.23812 0.47360416,0.47360416 0 0 0 -0.11377,-0.3175 0.40216666,0.40216666 0 0 0 -0.32279,-0.13494 h -0.66146 z"
       id="path150"
       style="fill:#241c1c;stroke-width:0.264583" />
    <path
       class="cls-1"
       d="m 110.12341,156.31315 v -2.91042 h -0.99483 v -0.70115 h 2.87337 v 0.68792 h -0.99748 v 2.91042 z"
       id="path152"
       style="fill:#241c1c;stroke-width:0.264583" />
    <path
       class="cls-1"
       d="m 113.84874,156.36606 a 1.5875,1.5875 0 0 1 -0.59266,-0.11112 1.4022916,1.4022916 0 0 1 -0.48948,-0.32015 1.4790208,1.4790208 0 0 1 -0.33073,-0.52917 1.9446875,1.9446875 0 0 1 -0.11642,-0.68791 v -0.42863 a 1.8071041,1.8071041 0 0 1 0.12171,-0.68527 1.49225,1.49225 0 0 1 0.33073,-0.51329 1.42875,1.42875 0 0 1 0.48683,-0.32015 1.5478125,1.5478125 0 0 1 0.58738,-0.11112 h 0.2196 a 1.5875,1.5875 0 0 1 0.59267,0.11112 1.4552083,1.4552083 0 0 1 0.48683,0.32015 1.4869583,1.4869583 0 0 1 0.32809,0.51329 1.8520833,1.8520833 0 0 1 0.11906,0.68527 v 0.43921 a 1.8864791,1.8864791 0 0 1 -0.11906,0.68792 1.4737291,1.4737291 0 0 1 -0.32809,0.52916 1.4155208,1.4155208 0 0 1 -0.48683,0.32015 1.5875,1.5875 0 0 1 -0.59267,0.11113 z m 0.10584,-0.6641 a 0.79374999,0.79374999 0 0 0 0.28046,-0.045 0.61383333,0.61383333 0 0 0 0.2196,-0.14552 0.66145832,0.66145832 0 0 0 0.14817,-0.24342 1.031875,1.031875 0 0 0 0.0529,-0.34925 v -0.80962 a 1.0583333,1.0583333 0 0 0 -0.0529,-0.3519 0.65087499,0.65087499 0 0 0 -0.14817,-0.24606 0.60589583,0.60589583 0 0 0 -0.2196,-0.14288 0.84402082,0.84402082 0 0 0 -0.26459,-0.045 0.79374999,0.79374999 0 0 0 -0.26458,0.0476 0.63764583,0.63764583 0 0 0 -0.22754,0.14287 0.62177083,0.62177083 0 0 0 -0.14817,0.24342 0.99483332,0.99483332 0 0 0 -0.0529,0.3519 v 0.79375 a 0.99483332,0.99483332 0 0 0 0.0529,0.35189 0.65087499,0.65087499 0 0 0 0.14817,0.24606 0.65881249,0.65881249 0 0 0 0.22489,0.14553 0.76464582,0.76464582 0 0 0 0.25136,0.0556 z"
       id="path154"
       style="fill:#241c1c;stroke-width:0.264583" />
    <path
       class="cls-1"
       d="m 117.28568,156.31315 v -3.61157 h 2.47915 l -0.09,0.67204 h -1.52665 v 0.82815 h 1.38113 v 0.65617 h -1.38113 v 1.45256 z"
       id="path156"
       style="fill:#241c1c;stroke-width:0.264583" />
    <path
       class="cls-1"
       d="m 121.61691,156.36606 a 1.6086666,1.6086666 0 0 1 -0.59531,-0.11112 1.4022916,1.4022916 0 0 1 -0.48948,-0.32015 1.4737291,1.4737291 0 0 1 -0.32808,-0.52917 1.8864791,1.8864791 0 0 1 -0.11907,-0.68791 v -0.42863 a 1.8520833,1.8520833 0 0 1 0.12171,-0.68527 1.5319375,1.5319375 0 0 1 0.33073,-0.51329 1.4552083,1.4552083 0 0 1 0.48683,-0.32015 1.5663333,1.5663333 0 0 1 0.58738,-0.11112 h 0.22225 a 1.5610416,1.5610416 0 0 1 0.59002,0.11112 1.42875,1.42875 0 0 1 0.48683,0.32015 1.49225,1.49225 0 0 1 0.33073,0.51329 1.9182291,1.9182291 0 0 1 0.11642,0.68527 v 0.43921 a 1.9446875,1.9446875 0 0 1 -0.11642,0.68792 1.4790208,1.4790208 0 0 1 -0.33073,0.52916 1.3917083,1.3917083 0 0 1 -0.48683,0.32015 1.5610416,1.5610416 0 0 1 -0.59002,0.11113 z m 0.10583,-0.6641 a 0.79374999,0.79374999 0 0 0 0.27782,-0.045 0.62441666,0.62441666 0 0 0 0.22225,-0.14552 0.65616666,0.65616666 0 0 0 0.14552,-0.24342 0.97102082,0.97102082 0 0 0 0.0529,-0.34925 v -0.80962 a 0.99483332,0.99483332 0 0 0 -0.0397,-0.34925 0.64822916,0.64822916 0 0 0 -0.14553,-0.24607 0.61647916,0.61647916 0 0 0 -0.22224,-0.14287 0.82814582,0.82814582 0 0 0 -0.26459,-0.045 0.79374999,0.79374999 0 0 0 -0.26458,0.0476 0.62706249,0.62706249 0 0 0 -0.2249,0.14288 0.59531249,0.59531249 0 0 0 -0.15081,0.24342 1.0583333,1.0583333 0 0 0 -0.0529,0.35189 v 0.79375 a 1.0583333,1.0583333 0 0 0 0.0529,0.3519 0.62441666,0.62441666 0 0 0 0.15081,0.24606 0.64822916,0.64822916 0 0 0 0.22225,0.14552 0.79374999,0.79374999 0 0 0 0.24077,0.0529 z"
       id="path158"
       style="fill:#241c1c;stroke-width:0.264583" />
    <path
       class="cls-1"
       d="m 125.25758,156.36606 a 1.524,1.524 0 0 1 -0.70909,-0.15346 1.0742083,1.0742083 0 0 1 -0.46037,-0.42598 1.2197292,1.2197292 0 0 1 -0.1614,-0.635 v -2.45004 h 0.88371 v 2.4474 a 0.52916666,0.52916666 0 0 0 0.1614,0.39687 0.57414583,0.57414583 0 0 0 0.41804,0.15346 0.55827083,0.55827083 0 0 0 0.41275,-0.15346 0.52916666,0.52916666 0 0 0 0.1561,-0.39687 v -2.4474 h 0.88371 v 2.4474 a 1.1165417,1.1165417 0 0 1 -0.17992,0.635 1.1721042,1.1721042 0 0 1 -0.49741,0.42598 1.6430625,1.6430625 0 0 1 -0.72761,0.15346 z"
       id="path160"
       style="fill:#241c1c;stroke-width:0.264583" />
    <path
       class="cls-1"
       d="m 127.56474,156.31315 v -3.61157 h 0.73554 l 1.16946,1.72509 0.17727,0.32279 h 0.0265 v -2.04788 h 0.80698 v 3.60892 h -0.75935 l -1.20386,-1.78329 -0.127,-0.23813 h -0.0212 v 2.01084 z"
       id="path162"
       style="fill:#241c1c;stroke-width:0.264583" />
    <path
       class="cls-1"
       d="m 131.22128,156.31315 v -3.61157 h 1.4949 a 1.6748125,1.6748125 0 0 1 0.59531,0.10319 1.3943541,1.3943541 0 0 1 0.48948,0.30163 1.3626041,1.3626041 0 0 1 0.33338,0.48947 1.7488958,1.7488958 0 0 1 0.11641,0.6694 v 0.39952 a 1.8229791,1.8229791 0 0 1 -0.11641,0.67469 1.5451666,1.5451666 0 0 1 -0.33338,0.52917 1.4393333,1.4393333 0 0 1 -0.48948,0.33337 1.476375,1.476375 0 0 1 -0.59531,0.11642 z m 0.88371,-0.67205 h 0.52917 a 0.66939582,0.66939582 0 0 0 0.34131,-0.0899 0.62970833,0.62970833 0 0 0 0.24342,-0.26459 0.97366665,0.97366665 0 0 0 0.09,-0.43921 v -0.73025 a 0.89693749,0.89693749 0 0 0 -0.09,-0.42333 0.57414583,0.57414583 0 0 0 -0.24342,-0.24606 0.72231249,0.72231249 0 0 0 -0.34131,-0.0794 h -0.52917 z"
       id="path164"
       style="fill:#241c1c;stroke-width:0.264583" />
    <path
       class="cls-1"
       d="m 134.4836,156.31315 1.28323,-3.61157 h 1.05833 l 1.28323,3.60892 h -0.91017 l -0.26458,-0.70908 h -1.35731 l -0.26459,0.70908 z m 1.32291,-1.32292 h 0.93134 l -0.44715,-1.36261 h -0.0265 z"
       id="path166"
       style="fill:#241c1c;stroke-width:0.264583" />
    <path
       class="cls-1"
       d="m 139.14026,156.31315 v -2.91042 h -0.99483 v -0.70115 h 2.87338 v 0.68792 h -0.99484 v 2.91042 z"
       id="path168"
       style="fill:#241c1c;stroke-width:0.264583" />
    <path
       class="cls-1"
       d="m 141.36806,156.31315 v -0.6403 h 0.42597 v -2.32833 h -0.42597 v -0.64294 h 1.73037 v 0.64029 h -0.42069 v 2.32834 h 0.42069 v 0.64029 z"
       id="path170"
       style="fill:#241c1c;stroke-width:0.264583" />
    <path
       class="cls-1"
       d="m 145.10397,156.36606 a 1.5875,1.5875 0 0 1 -0.59531,-0.11112 1.4022916,1.4022916 0 0 1 -0.48948,-0.32015 1.4737291,1.4737291 0 0 1 -0.32808,-0.52917 1.8864791,1.8864791 0 0 1 -0.11907,-0.68791 v -0.42863 a 1.8071041,1.8071041 0 0 1 0.12171,-0.68527 1.49225,1.49225 0 0 1 0.33073,-0.51329 1.42875,1.42875 0 0 1 0.48684,-0.32015 1.5663333,1.5663333 0 0 1 0.58737,-0.11112 h 0.2196 a 1.5875,1.5875 0 0 1 0.59267,0.11112 1.42875,1.42875 0 0 1 0.48683,0.32015 1.4499166,1.4499166 0 0 1 0.32809,0.51329 1.8520833,1.8520833 0 0 1 0.11906,0.68527 v 0.43921 a 1.8864791,1.8864791 0 0 1 -0.11906,0.68792 1.4366875,1.4366875 0 0 1 -0.32809,0.52916 1.3917083,1.3917083 0 0 1 -0.48683,0.32015 1.5875,1.5875 0 0 1 -0.59267,0.11113 z m 0.10584,-0.6641 a 0.79374999,0.79374999 0 0 0 0.27781,-0.045 0.62441666,0.62441666 0 0 0 0.22225,-0.14552 0.69320832,0.69320832 0 0 0 0.14552,-0.24342 1.031875,1.031875 0 0 0 0.0529,-0.34925 v -0.80962 a 1.0583333,1.0583333 0 0 0 -0.0529,-0.3519 0.68262499,0.68262499 0 0 0 -0.14552,-0.24606 0.61647916,0.61647916 0 0 0 -0.22225,-0.14288 0.82814582,0.82814582 0 0 0 -0.26459,-0.045 0.79374999,0.79374999 0 0 0 -0.27781,0.0476 0.62706249,0.62706249 0 0 0 -0.22489,0.14287 0.59531249,0.59531249 0 0 0 -0.15082,0.24342 1.0583333,1.0583333 0 0 0 -0.0529,0.3519 v 0.79375 a 1.0583333,1.0583333 0 0 0 0.0529,0.35189 0.63235416,0.63235416 0 0 0 0.37307,0.39159 0.76993749,0.76993749 0 0 0 0.26723,0.0556 z"
       id="path172"
       style="fill:#241c1c;stroke-width:0.264583" />
    <path
       class="cls-1"
       d="m 147.44553,156.31315 v -3.61157 h 0.73555 l 1.16945,1.72509 0.17728,0.32279 h 0.0265 v -2.04788 h 0.80698 v 3.60892 h -0.75935 l -1.20386,-1.78329 -0.127,-0.23813 h -0.0212 v 2.01084 z"
       id="path174"
       style="fill:#241c1c;stroke-width:0.264583" />
    <path
       class="cls-2"
       d="M 85.813494,149.11648 H 78.783515 V 147.738 h 5.585354 a 4.4793958,4.4793958 0 0 0 -4.466167,-3.6486 c -1.957916,0 -3.357562,1.37847 -4.672541,3.12472 l -0.851959,-1.2065 c 1.436688,-1.82297 3.100917,-3.29406 5.5245,-3.29406 a 5.9981041,5.9981041 0 0 1 4.452938,1.90765 5.5562499,5.5562499 0 0 1 0.529166,0.69056 l -2.455333,-5.97694 -9.162521,-3.79412 -9.165166,3.79412 -2.574396,6.223 a 6.1012916,6.1012916 0 0 1 5.23875,-2.83104 c 3.003021,0 4.939771,2.15106 6.990291,5.09852 2.050521,2.94746 3.645959,4.94506 6.106584,4.94506 a 4.6857708,4.6857708 0 0 0 4.064,-2.27277 h 1.457854 l 0.574146,-1.38112 z"
       id="path176"
       style="fill:#272361;stroke-width:0.264583" />
    <path
       class="cls-3"
       d="m 79.863015,154.14885 c -3.003021,0 -4.860396,-2.0611 -6.995584,-5.10645 -2.135187,-3.04536 -3.661833,-4.95036 -6.111874,-4.95036 -2.529417,-0.0185 -4.598459,1.92352 -4.622271,4.33917 0.02381,2.413 2.090208,4.35504 4.622271,4.33916 2.002895,0 3.439583,-1.37583 4.778374,-3.12472 l 0.865188,1.21708 c -1.468438,1.82033 -3.175,3.28612 -5.643562,3.28612 a 6.0854166,6.0854166 0 0 1 -5.453063,-3.20939 l 2.786063,6.72571 9.165166,3.79412 9.17575,-3.79412 2.524125,-6.08542 a 6.1806666,6.1806666 0 0 1 -5.090583,2.5691 z"
       id="path178"
       style="fill:#c41b7b;stroke-width:0.264583" />
    <path
       class="cls-8"
       d="M 73.253723,163.1976 62.850307,158.89283 58.545536,148.5 62.850307,138.10717 73.24314,133.8024 83.633327,138.10717 87.938098,148.5 83.64391,158.89283 Z m -9.813396,-4.8842 9.813396,4.064 9.81075,-4.064 4.066646,-9.8134 -4.066646,-9.82133 -9.81075,-4.064 -9.813396,4.064 -4.064,9.81339 z"
       id="path180"
       style="fill:url(#linear-gradient-3);stroke-width:0.264583" />
    <path
       class="cls-1"
       d="m 98.079577,147.65862 c 1.23825,0 2.381253,-0.50006 2.928933,-1.52135 0.52917,0.9525 1.49225,1.52135 2.94217,1.52135 1.89177,0 3.15648,-0.93927 3.15648,-2.38125 v -0.12964 h -1.50548 v 0.11377 c 0,0.64029 -0.45508,1.03981 -1.63512,1.03981 -1.43669,0 -1.96321,-0.62706 -2.00555,-1.9341 h 5.13292 a 5.9002083,5.9002083 0 0 0 0.0714,-0.96838 c 0,-1.94733 -1.32292,-3.08504 -3.19881,-3.08504 a 3.3231666,3.3231666 0 0 0 -2.55852,1.05833 c -0.48419,-0.65352 -1.32292,-1.05833 -2.447401,-1.05833 -1.875895,0 -3.09827,1.13771 -3.09827,2.71727 v 0.14552 h 1.49225 v -0.12964 c 0,-1.0795 0.529166,-1.37848 1.550458,-1.37848 1.021292,0 1.606023,0.26458 1.606023,1.44991 v 0.35455 l -2.487086,0.31485 c -1.47902,0.16933 -2.360083,0.82285 -2.360083,1.97379 -0.0053,1.27 0.994833,1.89706 2.415646,1.89706 z m 5.820833,-6.05895 c 1.20915,0 1.85208,0.52916 1.80446,1.72243 h -3.72798 c 0.0847,-1.08214 0.58208,-1.73302 1.91823,-1.73302 z m -6.738937,4.02431 c 0,-0.51065 0.283104,-0.72496 1.095375,-0.8255 l 2.288642,-0.28311 c 0,1.50813 -1.082142,1.93411 -2.132538,1.93411 -0.886354,0 -1.256771,-0.24342 -1.256771,-0.8255 z"
       id="path182"
       style="fill:#241c1c;stroke-width:0.264583" />
    <path
       class="cls-1"
       d="m 111.26906,147.51575 a 5.9610624,5.9610624 0 0 0 1.2647,-0.12965 v -1.24883 h -0.86783 c -0.9525,0 -1.26471,-0.12965 -1.26471,-0.86783 v -3.54013 h 2.13254 v -1.28058 h -2.13254 v -1.7489 h -1.18004 l -0.32808,1.7489 h -1.2065 v 1.28058 h 1.20121 v 3.61156 c 0,1.59015 0.80962,2.17488 2.38125,2.17488 z"
       id="path184"
       style="fill:#241c1c;stroke-width:0.264583" />
    <path
       class="cls-1"
       d="m 116.47341,147.65862 c 1.905,0 3.175,-0.93927 3.175,-2.38125 v -0.12964 h -1.52665 v 0.11377 c 0,0.64029 -0.45508,1.03981 -1.63512,1.03981 -1.47902,0 -1.94733,-0.65616 -2.0029,-1.94733 h 5.13027 a 5.5562499,5.5562499 0 0 0 0.0873,-0.96838 c 0,-1.9341 -1.33879,-3.07181 -3.24379,-3.07181 -2.10344,0 -3.41048,1.47902 -3.41048,3.66977 0,2.19075 1.09537,3.67506 3.42635,3.67506 z m -0.0423,-6.05895 c 1.2065,0 1.85208,0.51329 1.80446,1.72243 H 114.497 c 0.0847,-1.09537 0.59796,-1.73302 1.93411,-1.73302 z"
       id="path186"
       style="fill:#241c1c;stroke-width:0.264583" />
    <path
       class="cls-1"
       d="M 122.46093,147.51575 V 142.912 c 0,-0.93927 0.34131,-1.29381 1.26471,-1.29381 0.92339,0 1.16681,0.34131 1.16681,1.27793 v 0.28046 h 1.53458 v -0.46831 c 0,-1.32292 -0.56885,-2.40506 -2.04787,-2.40506 a 2.0558125,2.0558125 0 0 0 -1.97644,1.22502 h -0.0688 v -1.12448 h -1.40758 v 7.112 z"
       id="path188"
       style="fill:#241c1c;stroke-width:0.264583" />
    <path
       class="cls-1"
       d="m 128.91676,147.51575 v -4.07458 c 0,-1.32292 0.56886,-1.80711 1.82034,-1.80711 1.29381,0 1.69068,0.52917 1.69068,1.79123 v 4.09046 h 1.53723 v -4.43706 c 0,-1.60602 -0.8255,-2.77284 -2.64583,-2.77284 -1.37848,0 -2.13254,0.71173 -2.46062,1.4658 h -0.0556 v -1.32292 h -1.42081 v 7.06702 z"
       id="path190"
       style="fill:#241c1c;stroke-width:0.264583" />
    <path
       class="cls-1"
       d="m 136.87014,139.55444 v -1.56369 h -1.524 l 0.0132,1.56369 z m 0.0132,7.96131 v -7.10935 h -1.53723 v 7.10935 z"
       id="path192"
       style="fill:#241c1c;stroke-width:0.264583" />
    <path
       class="cls-1"
       d="m 141.19608,147.51575 a 5.9610624,5.9610624 0 0 0 1.2647,-0.12965 v -1.24883 h -0.86783 c -0.9525,0 -1.26471,-0.12965 -1.26471,-0.86783 v -3.54013 h 2.13254 v -1.28058 h -2.13254 v -1.7489 h -1.18004 l -0.32808,1.7489 h -1.2065 v 1.28058 h 1.1721 v 3.61156 c 0,1.59015 0.83079,2.17488 2.41036,2.17488 z"
       id="path194"
       style="fill:#241c1c;stroke-width:0.264583" />
    <path
       class="cls-1"
       d="m 144.45839,149.9314 c 1.1086,0 1.79123,-0.32544 2.31775,-1.5875 l 3.34169,-7.90575 h -1.69069 l -1.29646,3.42635 -0.58208,1.53723 h -0.11377 l -0.6403,-1.53723 -1.42081,-3.42635 h -1.69069 l 2.99773,6.87916 -0.28045,0.62177 c -0.22755,0.52917 -0.43921,0.62442 -1.05834,0.62442 h -0.96837 v 1.25148 a 4.3709166,4.3709166 0 0 0 1.08479,0.11642 z"
       id="path196"
       style="fill:#241c1c;stroke-width:0.264583" />
  </g>
</svg>
