<svg id="Layer_1" data-name="Layer 1" xmlns="http://www.w3.org/2000/svg" xmlns:xlink="http://www.w3.org/1999/xlink" viewBox="0 0 362.13 125.46"><defs><style>.cls-1{fill:#383938;}.cls-2{fill:#e73251;}.cls-3{fill:url(#linear-gradient);}.cls-4{fill:#010101;}</style><linearGradient id="linear-gradient" x1="63.12" y1="118.28" x2="63.12" y2="7.19" gradientUnits="userSpaceOnUse"><stop offset="0" stop-color="#e73251"/><stop offset="0.21" stop-color="#c6334c"/><stop offset="0.68" stop-color="#733740"/><stop offset="1" stop-color="#383938"/></linearGradient></defs><path class="cls-1" d="M153.53,92.46a7.07,7.07,0,0,1-2.33-.37A5.09,5.09,0,0,1,149.32,91,5.18,5.18,0,0,1,148,89a7.58,7.58,0,0,1-.45-2.75V84.61a7.22,7.22,0,0,1,.46-2.71,5.26,5.26,0,0,1,1.3-1.93,5.63,5.63,0,0,1,1.88-1.16,6.55,6.55,0,0,1,2.26-.39h.44a6.8,6.8,0,0,1,2.14.33,5,5,0,0,1,1.76,1A4.67,4.67,0,0,1,159,81.51a6.72,6.72,0,0,1,.43,2.54h-3.12a4.56,4.56,0,0,0-.32-1.89,1.88,1.88,0,0,0-.91-1,3.18,3.18,0,0,0-1.4-.28,2.87,2.87,0,0,0-1,.18,2.19,2.19,0,0,0-.81.53,2.65,2.65,0,0,0-.53.92,4.41,4.41,0,0,0-.18,1.35V87a4,4,0,0,0,.31,1.7,2.1,2.1,0,0,0,.9,1,2.86,2.86,0,0,0,1.35.31,3.72,3.72,0,0,0,1.52-.28,1.86,1.86,0,0,0,.92-1,4.67,4.67,0,0,0,.31-1.88h3a6.51,6.51,0,0,1-.42,2.43A4.85,4.85,0,0,1,157.85,91a5.16,5.16,0,0,1-1.75,1.07,6.52,6.52,0,0,1-2.13.35Z"/><path class="cls-1" d="M171.35,92.42a3.22,3.22,0,0,1-1.3-.23,1.69,1.69,0,0,1-.85-.78,3.18,3.18,0,0,1-.31-1.55,5.37,5.37,0,0,0-.11-1.09,2.82,2.82,0,0,0-.36-.89,1.93,1.93,0,0,0-.63-.61,1.8,1.8,0,0,0-.89-.22h-2v5.21h-3.28V78.62h7.12a4.18,4.18,0,0,1,1.82.41,3.61,3.61,0,0,1,1.38,1.16,3.07,3.07,0,0,1,.54,1.83,3.82,3.82,0,0,1-.34,1.6,3.9,3.9,0,0,1-.89,1.24,3.81,3.81,0,0,1-1.2.76v.1a3.39,3.39,0,0,1,.81.4,2.66,2.66,0,0,1,.68.66,3.87,3.87,0,0,1,.49,1,3.5,3.5,0,0,1,.19,1.19,8.52,8.52,0,0,0,0,.9,3,3,0,0,0,.14.74,1.3,1.3,0,0,0,.31.55,1.2,1.2,0,0,0,.52.32v.69a3.31,3.31,0,0,1-.89.23A6.55,6.55,0,0,1,171.35,92.42Zm-6.46-7.85h2.7a1.2,1.2,0,0,0,.76-.27,2,2,0,0,0,.54-.7,2.23,2.23,0,0,0,.2-.94,1.5,1.5,0,0,0-.41-1.13,1.44,1.44,0,0,0-1.05-.38h-2.74Z"/><path class="cls-1" d="M178.21,92.26V87l-4.61-8.41h3.74L180,83.87h.07l2.69-5.25h3.4L181.56,87v5.23Z"/><path class="cls-1" d="M187.52,92.26V78.62h6.81a4,4,0,0,1,2,.53,3.83,3.83,0,0,1,2,3.43v.34a3.94,3.94,0,0,1-.55,2,4.34,4.34,0,0,1-1.49,1.52,3.9,3.9,0,0,1-2,.56h-3.43v5.21Zm3.32-7.69h2.55a1.64,1.64,0,0,0,.84-.22,1.7,1.7,0,0,0,.56-.6,1.8,1.8,0,0,0,.21-.89,1.75,1.75,0,0,0-.44-1.21,1.52,1.52,0,0,0-1.21-.5h-2.51Z"/><path class="cls-1" d="M202.48,92.26v-11h-3.76V78.62h10.86v2.61h-3.76v11Z"/><path class="cls-1" d="M216.56,92.46a6.28,6.28,0,0,1-2.25-.41,5.47,5.47,0,0,1-1.85-1.22,5.57,5.57,0,0,1-1.24-2,7.09,7.09,0,0,1-.45-2.6V84.63a7,7,0,0,1,.46-2.6,5.66,5.66,0,0,1,1.26-1.94,5.46,5.46,0,0,1,1.83-1.21,5.92,5.92,0,0,1,2.22-.42h.84a6,6,0,0,1,2.24.42A5.4,5.4,0,0,1,222.7,82a7.05,7.05,0,0,1,.45,2.6v1.65a7.09,7.09,0,0,1-.45,2.6,5.57,5.57,0,0,1-1.24,2,5.63,5.63,0,0,1-1.84,1.22,6.19,6.19,0,0,1-2.24.41ZM217,90a2.93,2.93,0,0,0,1-.18,2.23,2.23,0,0,0,.84-.55,2.6,2.6,0,0,0,.56-.91,4,4,0,0,0,.2-1.33V83.93a4,4,0,0,0-.2-1.33,2.69,2.69,0,0,0-.56-.93,2.18,2.18,0,0,0-.84-.53,2.86,2.86,0,0,0-1-.17,3,3,0,0,0-1,.18,2.39,2.39,0,0,0-.86.53,2.44,2.44,0,0,0-.57.92,4,4,0,0,0-.2,1.33v3a4.11,4.11,0,0,0,.2,1.34,2.44,2.44,0,0,0,.57.92,2.35,2.35,0,0,0,.85.55A2.86,2.86,0,0,0,217,90Z"/><path class="cls-1" d="M229.55,92.26V78.62h9.37l-.34,2.55h-5.75v3.12H238v2.48h-5.21v5.49Z"/><path class="cls-1" d="M245.92,92.46a6.2,6.2,0,0,1-2.25-.41,5.41,5.41,0,0,1-3.09-3.17,7.09,7.09,0,0,1-.45-2.6V84.63a6.85,6.85,0,0,1,.46-2.6,5.64,5.64,0,0,1,1.25-1.94,5.4,5.4,0,0,1,1.84-1.21,5.88,5.88,0,0,1,2.22-.42h.83a6,6,0,0,1,2.24.42,5.4,5.4,0,0,1,1.84,1.21A5.62,5.62,0,0,1,252.05,82a7.05,7.05,0,0,1,.45,2.6v1.65a7.09,7.09,0,0,1-.45,2.6,5.57,5.57,0,0,1-1.24,2A5.43,5.43,0,0,1,249,92.05a6.15,6.15,0,0,1-2.24.41Zm.4-2.5a3,3,0,0,0,1.05-.18,2.12,2.12,0,0,0,.83-.55,2.46,2.46,0,0,0,.56-.91A4,4,0,0,0,249,87V83.93a4,4,0,0,0-.2-1.33,2.54,2.54,0,0,0-.56-.93,2.08,2.08,0,0,0-.83-.53,2.89,2.89,0,0,0-1-.17,3,3,0,0,0-1.05.18,2.35,2.35,0,0,0-.85.53,2.32,2.32,0,0,0-.57.92,4,4,0,0,0-.2,1.33v3a4.11,4.11,0,0,0,.2,1.34,2.32,2.32,0,0,0,.57.92,2.23,2.23,0,0,0,.84.55A2.91,2.91,0,0,0,246.32,90Z"/><path class="cls-1" d="M259.68,92.46a5.88,5.88,0,0,1-2.68-.57,4.18,4.18,0,0,1-1.74-1.61,4.64,4.64,0,0,1-.61-2.41V78.62H258v9.25a2,2,0,0,0,.61,1.5,2.18,2.18,0,0,0,1.58.59,2.11,2.11,0,0,0,1.56-.59,2,2,0,0,0,.59-1.5V78.62h3.34v9.25a4.33,4.33,0,0,1-.68,2.41,4.64,4.64,0,0,1-1.88,1.61,6.35,6.35,0,0,1-2.75.57Z"/><path class="cls-1" d="M268.39,92.26V78.62h2.79l4.41,6.52.68,1.22.1,0v-7.7h3V92.26h-2.86L272,85.52l-.47-.89-.08,0v7.59Z"/><path class="cls-1" d="M282.22,92.26V78.62h5.64a6.39,6.39,0,0,1,2.26.39A5.51,5.51,0,0,1,292,80.15,5.09,5.09,0,0,1,293.22,82a6.6,6.6,0,0,1,.45,2.53V86a6.89,6.89,0,0,1-.45,2.55,5.71,5.71,0,0,1-3.1,3.24,5.8,5.8,0,0,1-2.26.43Zm3.34-2.54h2a2.49,2.49,0,0,0,1.29-.34,2.34,2.34,0,0,0,.91-1,3.63,3.63,0,0,0,.34-1.67V84a3.3,3.3,0,0,0-.34-1.6,2.15,2.15,0,0,0-.91-.93,2.91,2.91,0,0,0-1.29-.29h-2Z"/><path class="cls-1" d="M294.55,92.26l4.85-13.64h4l4.85,13.64h-3.46l-1-2.68h-5.14l-1,2.68Zm5-5.05H303l-1.69-5.15h-.1Z"/><path class="cls-1" d="M312.15,92.26v-11h-3.76V78.62h10.86v2.61h-3.76v11Z"/><path class="cls-1" d="M320.56,92.26V89.84h1.61V81.05h-1.61V78.62h6.55v2.43h-1.59v8.79h1.59v2.42Z"/><path class="cls-1" d="M334.68,92.46a6.19,6.19,0,0,1-2.24-.41,5.38,5.38,0,0,1-1.85-1.22,5.59,5.59,0,0,1-1.25-2,7.31,7.31,0,0,1-.44-2.6V84.63a7.05,7.05,0,0,1,.45-2.6,5.81,5.81,0,0,1,1.26-1.94,5.4,5.4,0,0,1,1.84-1.21,5.83,5.83,0,0,1,2.21-.42h.84a6,6,0,0,1,2.24.42,5.5,5.5,0,0,1,1.84,1.21A5.62,5.62,0,0,1,340.82,82a7.05,7.05,0,0,1,.45,2.6v1.65a7.09,7.09,0,0,1-.45,2.6,5.43,5.43,0,0,1-3.08,3.17,6.15,6.15,0,0,1-2.24.41Zm.4-2.5a3,3,0,0,0,1.06-.18,2.27,2.27,0,0,0,.83-.55,2.46,2.46,0,0,0,.56-.91,4,4,0,0,0,.2-1.33V83.93a4,4,0,0,0-.2-1.33,2.54,2.54,0,0,0-.56-.93,2.22,2.22,0,0,0-.83-.53,3.18,3.18,0,0,0-2.08,0,2.39,2.39,0,0,0-.86.53,2.42,2.42,0,0,0-.56.92,3.76,3.76,0,0,0-.2,1.33v3a3.86,3.86,0,0,0,.2,1.34,2.42,2.42,0,0,0,.56.92,2.35,2.35,0,0,0,.85.55A2.9,2.9,0,0,0,335.08,90Z"/><path class="cls-1" d="M343.54,92.26V78.62h2.78l4.42,6.52.67,1.22.1,0v-7.7h3V92.26h-2.86l-4.55-6.74-.48-.89-.08,0v7.59Z"/><path class="cls-2" d="M110.6,65.06H84v-5.2h21.11a16.93,16.93,0,0,0-16.88-13.8c-7.4,0-12.69,5.21-17.66,11.81l-3.22-4.56c5.43-6.89,11.71-12.45,20.88-12.45a22.68,22.68,0,0,1,16.83,7.21,22.12,22.12,0,0,1,2,2.62L97.76,28.1,63.12,13.75,28.49,28.1,18.77,51.56a23.08,23.08,0,0,1,19.8-10.7C49.92,40.86,57.24,49,65,60.14S78.85,78.87,88.1,78.87a17.72,17.72,0,0,0,15.37-8.58H109l2.16-5.23Z"/><path class="cls-1" d="M88.1,84.08c-11.35,0-18.37-7.79-26.43-19.3S47.83,46.07,38.57,46.07C29,46,21.18,53.34,21.09,62.47c.09,9.13,7.91,16.46,17.48,16.4,7.57,0,13-5.2,18.06-11.8l3.26,4.59c-5.54,6.88-12,12.42-21.32,12.42A23,23,0,0,1,18,72L28.49,97.37l34.63,14.34L97.76,97.37l9.54-23A23.37,23.37,0,0,1,88.1,84.08Z"/><path class="cls-3" d="M63.12,118.28,23.85,102,7.58,62.73,23.85,23.45,63.12,7.19,102.4,23.45l16.27,39.28L102.4,102ZM26,99.82l37.08,15.36,37.09-15.36,15.36-37.09L100.21,25.65,63.12,10.28,26,25.65,10.67,62.73Z"/><path class="cls-4" d="M157,59.61c4.69,0,9-1.88,11.11-5.77,2,3.62,5.66,5.77,11.17,5.77,7.17,0,12-3.56,12-9.06v-.48h-5.71v.43c0,2.42-1.73,3.93-6.21,3.93-5.45,0-7.44-2.37-7.61-7.33H191.2a22.53,22.53,0,0,0,.27-3.67c0-7.39-5-11.71-12.14-11.71a12.64,12.64,0,0,0-9.71,4c-1.83-2.48-5-4-9.28-4-7.12,0-11.76,4.32-11.76,10.31v.54h5.66v-.49c0-4.1,2-5.23,5.88-5.23s6.1,1,6.1,5.5V43.7l-9.44,1.19c-5.61.64-9,3.12-9,7.49C147.82,57.24,151.6,59.61,157,59.61Zm22.06-23c4.59,0,7.07,2,6.85,6.53H171.78C172.1,39.06,174,36.63,179.06,36.63ZM153.49,51.9c0-1.94,1.08-2.75,4.15-3.13l8.69-1.08c0,5.72-4.1,7.34-8.09,7.34C154.89,55,153.49,54.11,153.49,51.9Z"/><path class="cls-4" d="M207.07,59.07a22.74,22.74,0,0,0,4.8-.48V53.84h-3.29c-3.61,0-4.8-.48-4.8-3.29V37.12h8.09V32.26h-8.09V25.63H199.3l-1.24,6.63h-4.59v4.86H198v13.7C198,56.86,201.08,59.07,207.07,59.07Z"/><path class="cls-4" d="M226.79,59.61c7.23,0,12-3.56,12-9.06v-.48h-5.77v.43c0,2.42-1.73,3.93-6.2,3.93-5.62,0-7.4-2.48-7.61-7.39h19.47a20,20,0,0,0,.33-3.66c0-7.34-5.07-11.66-12.3-11.66-8,0-13,5.61-13,13.92S217.94,59.61,226.79,59.61Zm-.16-23c4.58,0,7.07,1.94,6.85,6.53H219.29C219.62,39,221.56,36.63,226.63,36.63Z"/><path class="cls-4" d="M249.51,59.07V41.59c0-3.56,1.3-4.9,4.81-4.9s4.42,1.29,4.42,4.85v1.08h5.83V40.84c0-5-2.16-9.12-7.77-9.12a7.8,7.8,0,0,0-7.5,4.64H249V32.1h-5.34v27Z"/><path class="cls-4" d="M274,59.07V43.59c0-5,2.16-6.85,6.91-6.85,4.91,0,6.42,2,6.42,6.8V59.07h5.82V42.24c0-6.09-3.12-10.52-10.08-10.52-5.24,0-8.1,2.7-9.34,5.56h-.21v-5h-5.34V59.07Z"/><path class="cls-4" d="M304.19,28.86V22.93h-5.82l.05,5.93Zm.06,30.21v-27h-5.83v27Z"/><path class="cls-4" d="M320.61,59.07a22.74,22.74,0,0,0,4.8-.48V53.84h-3.29c-3.62,0-4.8-.48-4.8-3.29V37.12h8.09V32.26h-8.09V25.63h-4.48l-1.24,6.63H307v4.86h4.48v13.7C311.49,56.86,314.62,59.07,320.61,59.07Z"/><path class="cls-4" d="M333,68.25c4.21,0,6.8-1.24,8.79-6l12.68-30H348l-4.91,13-2.21,5.83h-.43l-2.43-5.83-5.39-13h-6.42l11.38,26.11-1,2.27c-.87,2-1.68,2.37-4,2.37H329v4.75A16.5,16.5,0,0,0,333,68.25Z"/></svg>