<?xml version="1.0" encoding="UTF-8" standalone="no"?>
<svg
   width="43"
   height="24"
   viewBox="0 0 43 24"
   fill="none"
   version="1.1"
   id="svg27"
   sodipodi:docname="aeternity-logo-small.svg"
   inkscape:version="1.2.1 (9c6d41e, 2022-07-14)"
   xmlns:inkscape="http://www.inkscape.org/namespaces/inkscape"
   xmlns:sodipodi="http://sodipodi.sourceforge.net/DTD/sodipodi-0.dtd"
   xmlns="http://www.w3.org/2000/svg"
   xmlns:svg="http://www.w3.org/2000/svg">
  <sodipodi:namedview
     id="namedview29"
     pagecolor="#ffffff"
     bordercolor="#000000"
     borderopacity="0.25"
     inkscape:showpageshadow="2"
     inkscape:pageopacity="0.0"
     inkscape:pagecheckerboard="0"
     inkscape:deskcolor="#d1d1d1"
     showgrid="false"
     inkscape:zoom="8.06"
     inkscape:cx="56.327543"
     inkscape:cy="11.042184"
     inkscape:window-width="1309"
     inkscape:window-height="456"
     inkscape:window-x="53"
     inkscape:window-y="43"
     inkscape:window-maximized="0"
     inkscape:current-layer="g20" />
  <g
     clip-path="url(#clip0_2877_17403)"
     id="g20">
    <path
       fill-rule="evenodd"
       clip-rule="evenodd"
       d="M 24.6491,10.7878 23.2077,8.74325 c 2.432,-3.0853 5.2467,-5.57646 9.3524,-5.57646 2.8762,-0.02124 5.6227,1.15621 7.538,3.23166 1.9152,2.07545 2.8139,4.84795 2.4665,7.60945 H 30.6664 V 11.676 h 9.4525 C 39.5013,8.10554 36.303,5.49181 32.5601,5.49876 c -3.3147,0 -5.6834,2.33198 -7.911,5.28904 z M 10.3056,3.16675 c 5.0835,0 8.3613,3.64457 11.8331,8.63425 3.4717,4.9897 6.207,8.3903 10.352,8.3903 2.8554,0.0067 5.4897,-1.465 6.8803,-3.8436 h 2.7278 c -1.5736,3.7419 -5.3809,6.1901 -9.6081,6.1783 -5.0835,0 -8.2284,-3.4877 -11.8404,-8.6428 C 17.0383,8.72814 14.4507,5.50092 10.3056,5.50092 6.01966,5.47274 2.51825,8.75822 2.47795,12.8459 c 0.03973,4.0878 3.54098,7.3739 7.82715,7.346 3.3885,0 5.8095,-2.3277 8.0871,-5.2869 l 1.4631,2.0581 C 17.3705,20.043 14.4966,22.526 10.3056,22.526 4.65974,22.5609 0.0495918,18.2306 0,12.8459 0.0501695,7.46161 4.66015,3.13188 10.3056,3.16675 Z"
       fill="#f5274e"
       id="path18" />
  </g>
  <defs
     id="defs25">
    <clipPath
       id="clip0_2877_17403">
      <rect
         width="150"
         height="24"
         fill="#ffffff"
         id="rect22"
         x="0"
         y="0" />
    </clipPath>
  </defs>
</svg>
