<svg id="Layer_1" data-name="Layer 1" xmlns="http://www.w3.org/2000/svg" xmlns:xlink="http://www.w3.org/1999/xlink" viewBox="0 0 520.48 259.83"><defs><style>.cls-1{fill:#242424;}.cls-2{fill:#282560;}.cls-3{fill:#c51e7c;}.cls-4{fill:url(#linear-gradient);}</style><linearGradient id="linear-gradient" x1="116.51" y1="61.14" x2="116.51" y2="193.96" gradientUnits="userSpaceOnUse"><stop offset="0" stop-color="#c51e7c"/><stop offset="0.23" stop-color="#a41f75"/><stop offset="0.74" stop-color="#512162"/><stop offset="1" stop-color="#252258"/></linearGradient></defs><path class="cls-1" d="M224.6,163.09a8.41,8.41,0,0,1-2.79-.44,6.15,6.15,0,0,1-2.25-1.35A6.31,6.31,0,0,1,218,159a9.07,9.07,0,0,1-.54-3.29v-2a8.4,8.4,0,0,1,.56-3.23,6.37,6.37,0,0,1,1.54-2.31,6.52,6.52,0,0,1,2.26-1.39,7.82,7.82,0,0,1,2.7-.46h.52a8.22,8.22,0,0,1,2.56.39,5.64,5.64,0,0,1,2.1,1.21,5.58,5.58,0,0,1,1.42,2.09,8.16,8.16,0,0,1,.51,3h-3.73a5.45,5.45,0,0,0-.38-2.26,2.35,2.35,0,0,0-1.09-1.15,3.86,3.86,0,0,0-1.67-.33,3.31,3.31,0,0,0-1.25.22,2.5,2.5,0,0,0-1,.64,2.9,2.9,0,0,0-.63,1.09,4.83,4.83,0,0,0-.23,1.62v3.66a4.74,4.74,0,0,0,.38,2,2.45,2.45,0,0,0,1.07,1.17,3.34,3.34,0,0,0,1.62.37,4.25,4.25,0,0,0,1.82-.34,2.15,2.15,0,0,0,1.09-1.13,5.37,5.37,0,0,0,.37-2.24h3.59a7.9,7.9,0,0,1-.5,2.9,5.66,5.66,0,0,1-1.4,2.1,6.08,6.08,0,0,1-2.09,1.28,7.66,7.66,0,0,1-2.55.42Z"/><path class="cls-1" d="M245.91,163.05a4,4,0,0,1-1.56-.28,2,2,0,0,1-1-.94A3.91,3.91,0,0,1,243,160a6.75,6.75,0,0,0-.12-1.3,3.29,3.29,0,0,0-.43-1.07,2.15,2.15,0,0,0-.75-.72,2,2,0,0,0-1.07-.26h-2.4v6.23h-3.93V146.54h8.51a5,5,0,0,1,2.18.49,4.22,4.22,0,0,1,1.65,1.39,3.66,3.66,0,0,1,.65,2.19,4.42,4.42,0,0,1-.41,1.91,4.7,4.7,0,0,1-1.06,1.48,4.39,4.39,0,0,1-1.44.91V155a3.81,3.81,0,0,1,1,.48,3.23,3.23,0,0,1,.82.79,4.46,4.46,0,0,1,.58,1.13,4.33,4.33,0,0,1,.23,1.43,9,9,0,0,0,0,1.07,4.43,4.43,0,0,0,.16.89,1.64,1.64,0,0,0,.37.66,1.55,1.55,0,0,0,.63.38v.83a4.19,4.19,0,0,1-1.07.27A7.75,7.75,0,0,1,245.91,163.05Zm-7.73-9.4h3.23a1.38,1.38,0,0,0,.9-.32,2.13,2.13,0,0,0,.64-.83,2.63,2.63,0,0,0,.24-1.13,1.64,1.64,0,0,0-1.73-1.81h-3.28Z"/><path class="cls-1" d="M254.11,162.86V156.6l-5.52-10.06h4.47l3.16,6.28h.1l3.21-6.28h4.06L258.1,156.6v6.26Z"/><path class="cls-1" d="M265.24,162.86V146.54h8.13a4.85,4.85,0,0,1,2.44.63,4.73,4.73,0,0,1,1.74,1.7,4.61,4.61,0,0,1,.65,2.41v.4a4.78,4.78,0,0,1-.67,2.46,5.12,5.12,0,0,1-1.77,1.81,4.65,4.65,0,0,1-2.46.68h-4.09v6.23Zm4-9.21h3a1.82,1.82,0,0,0,1-.26,1.86,1.86,0,0,0,.68-.71,2.25,2.25,0,0,0,.25-1.07,2.12,2.12,0,0,0-.53-1.44,1.81,1.81,0,0,0-1.45-.61h-3Z"/><path class="cls-1" d="M283.12,162.86v-13.2h-4.5v-3.12h13v3.12h-4.5v13.2Z"/><path class="cls-1" d="M300,163.09a7.06,7.06,0,0,1-2.68-.5,6.29,6.29,0,0,1-2.21-1.45,6.57,6.57,0,0,1-1.49-2.33,8.45,8.45,0,0,1-.53-3.11v-2a8.4,8.4,0,0,1,.54-3.1,7,7,0,0,1,1.5-2.32,6.64,6.64,0,0,1,2.2-1.45,7.1,7.1,0,0,1,2.65-.5h1a7.25,7.25,0,0,1,2.68.5,6.59,6.59,0,0,1,2.19,1.45,6.71,6.71,0,0,1,1.49,2.32,8.4,8.4,0,0,1,.54,3.1v2a8.45,8.45,0,0,1-.54,3.11,6.57,6.57,0,0,1-1.49,2.33,6.3,6.3,0,0,1-2.19,1.45,7.06,7.06,0,0,1-2.68.5Zm.48-3a3.4,3.4,0,0,0,1.26-.22,2.75,2.75,0,0,0,1-.65,3,3,0,0,0,.66-1.09,4.67,4.67,0,0,0,.24-1.59v-3.66a4.67,4.67,0,0,0-.24-1.59,3.06,3.06,0,0,0-.66-1.11,2.72,2.72,0,0,0-1-.64,3.79,3.79,0,0,0-1.24-.2,3.59,3.59,0,0,0-1.24.21,3,3,0,0,0-1,.65,2.72,2.72,0,0,0-.67,1.09,4.67,4.67,0,0,0-.24,1.59v3.64a4.67,4.67,0,0,0,.24,1.59,2.8,2.8,0,0,0,.67,1.11,2.87,2.87,0,0,0,1,.65A3.37,3.37,0,0,0,300.43,160.1Z"/><path class="cls-1" d="M315.48,162.86V146.54h11.2l-.4,3.05h-6.87v3.73h6.23v3h-6.23v6.57Z"/><path class="cls-1" d="M335.05,163.09a7.11,7.11,0,0,1-2.69-.5,6.38,6.38,0,0,1-2.21-1.45,6.55,6.55,0,0,1-1.48-2.33,8.45,8.45,0,0,1-.54-3.11v-2a8.2,8.2,0,0,1,.55-3.1,6.73,6.73,0,0,1,1.5-2.32,6.54,6.54,0,0,1,2.2-1.45,7.1,7.1,0,0,1,2.65-.5h1a7.16,7.16,0,0,1,2.67.5,6.64,6.64,0,0,1,2.2,1.45,6.86,6.86,0,0,1,1.49,2.32,8.61,8.61,0,0,1,.53,3.1v2a8.67,8.67,0,0,1-.53,3.11,6.71,6.71,0,0,1-1.49,2.33,6.34,6.34,0,0,1-2.2,1.45,7,7,0,0,1-2.67.5Zm.48-3a3.4,3.4,0,0,0,1.26-.22,2.75,2.75,0,0,0,1-.65,3.12,3.12,0,0,0,.66-1.09,4.67,4.67,0,0,0,.24-1.59v-3.66a4.67,4.67,0,0,0-.24-1.59,3.21,3.21,0,0,0-.66-1.11,2.72,2.72,0,0,0-1-.64,3.84,3.84,0,0,0-1.24-.2,3.69,3.69,0,0,0-1.25.21,2.82,2.82,0,0,0-1.7,1.74,4.67,4.67,0,0,0-.24,1.59v3.64a4.67,4.67,0,0,0,.24,1.59,2.94,2.94,0,0,0,.68,1.11,2.78,2.78,0,0,0,1,.65A3.33,3.33,0,0,0,335.53,160.1Z"/><path class="cls-1" d="M351.51,163.09a7,7,0,0,1-3.21-.69,4.9,4.9,0,0,1-2.08-1.92,5.56,5.56,0,0,1-.73-2.88V146.54h4V157.6a2.42,2.42,0,0,0,.73,1.8,2.62,2.62,0,0,0,1.89.7,2.56,2.56,0,0,0,1.87-.7,2.43,2.43,0,0,0,.7-1.8V146.54h4V157.6a5.24,5.24,0,0,1-.8,2.88,5.44,5.44,0,0,1-2.25,1.92,7.53,7.53,0,0,1-3.29.69Z"/><path class="cls-1" d="M361.92,162.86V146.54h3.33l5.28,7.8.81,1.45.12,0v-9.21h3.64v16.32h-3.43l-5.44-8.07-.57-1.07-.1.05v9.09Z"/><path class="cls-1" d="M378.45,162.86V146.54h6.75a7.66,7.66,0,0,1,2.7.47,6.54,6.54,0,0,1,2.21,1.36,6.31,6.31,0,0,1,1.5,2.22,7.83,7.83,0,0,1,.53,3v1.8a8.26,8.26,0,0,1-.53,3.06,7,7,0,0,1-1.5,2.35,6.64,6.64,0,0,1-2.21,1.51,6.88,6.88,0,0,1-2.7.53Zm4-3.05h2.43a3,3,0,0,0,1.54-.4,2.85,2.85,0,0,0,1.1-1.2,4.38,4.38,0,0,0,.4-2v-3.3a4,4,0,0,0-.4-1.92,2.54,2.54,0,0,0-1.1-1.1,3.27,3.27,0,0,0-1.54-.36h-2.43Z"/><path class="cls-1" d="M393.19,162.86l5.8-16.32h4.83l5.8,16.32h-4.13l-1.17-3.21h-6.13L397,162.86Zm5.95-6h4.21l-2-6.16h-.11Z"/><path class="cls-1" d="M414.24,162.86v-13.2h-4.5v-3.12h13v3.12h-4.5v13.2Z"/><path class="cls-1" d="M424.3,162.86V160h1.92V149.44H424.3v-2.9h7.82v2.9h-1.9V160h1.9v2.91Z"/><path class="cls-1" d="M441.18,163.09a7.11,7.11,0,0,1-2.69-.5,6.29,6.29,0,0,1-2.21-1.45,6.71,6.71,0,0,1-1.49-2.33,8.67,8.67,0,0,1-.53-3.11v-2a8.2,8.2,0,0,1,.55-3.1,6.86,6.86,0,0,1,1.49-2.32,6.74,6.74,0,0,1,2.2-1.45,7.19,7.19,0,0,1,2.66-.5h1a7.18,7.18,0,0,1,2.68.5,6.64,6.64,0,0,1,2.2,1.45,6.86,6.86,0,0,1,1.49,2.32,8.61,8.61,0,0,1,.53,3.1v2a8.67,8.67,0,0,1-.53,3.11,6.71,6.71,0,0,1-1.49,2.33,6.34,6.34,0,0,1-2.2,1.45,7,7,0,0,1-2.68.5Zm.48-3a3.48,3.48,0,0,0,1.26-.22,2.63,2.63,0,0,0,1-.65,3,3,0,0,0,.67-1.09,4.67,4.67,0,0,0,.24-1.59v-3.66a4.67,4.67,0,0,0-.24-1.59,3.08,3.08,0,0,0-.67-1.11,2.6,2.6,0,0,0-1-.64,3.88,3.88,0,0,0-1.24-.2,3.64,3.64,0,0,0-1.25.21,2.87,2.87,0,0,0-1,.65,2.74,2.74,0,0,0-.68,1.09,4.67,4.67,0,0,0-.24,1.59v3.64a4.67,4.67,0,0,0,.24,1.59,2.82,2.82,0,0,0,.68,1.11,2.78,2.78,0,0,0,1,.65A3.33,3.33,0,0,0,441.66,160.1Z"/><path class="cls-1" d="M451.76,162.86V146.54h3.33l5.28,7.8.81,1.45.12,0v-9.21h3.64v16.32h-3.43l-5.45-8.07-.57-1.07-.09.05v9.09Z"/><path class="cls-2" d="M173.26,130.33H141.5v-6.22h25.24a20.24,20.24,0,0,0-20.18-16.49c-8.85,0-15.17,6.23-21.12,14.12l-3.85-5.46c6.5-8.23,14-14.88,25-14.88A27.08,27.08,0,0,1,166.68,110a24.92,24.92,0,0,1,2.42,3.13l-11.18-27L116.51,69,75.1,86.14,63.48,114.2a27.54,27.54,0,0,1,23.67-12.8c13.57,0,22.32,9.72,31.59,23s16.57,22.4,27.63,22.4a21.15,21.15,0,0,0,18.37-10.26h6.59l2.59-6.25Z"/><path class="cls-3" d="M146.37,153.07c-13.57,0-22-9.31-31.6-23.07s-16.55-22.37-27.62-22.37c-11.44-.08-20.78,8.69-20.89,19.6.11,10.91,9.45,19.69,20.89,19.61,9,0,15.51-6.21,21.59-14.11l3.91,5.49c-6.64,8.22-14.31,14.85-25.5,14.85a27.47,27.47,0,0,1-24.64-14.49L75.1,169l41.41,17.15L157.92,169l11.4-27.53A27.89,27.89,0,0,1,146.37,153.07Z"/><path class="cls-4" d="M116.51,194l-47-19.45-19.45-47,19.45-47,47-19.45,47,19.45,19.45,47-19.45,47ZM72.17,171.89l44.34,18.37,44.34-18.37,18.36-44.34L160.85,83.21,116.51,64.84,72.17,83.21,53.8,127.55Z"/><path class="cls-1" d="M228.69,123.74c5.59,0,10.73-2.25,13.24-6.87,2.38,4.3,6.74,6.87,13.3,6.87,8.54,0,14.26-4.24,14.26-10.79v-.58h-6.81v.51c0,2.89-2.06,4.69-7.39,4.69-6.49,0-8.86-2.82-9.06-8.73h23.19a25.61,25.61,0,0,0,.33-4.37c0-8.8-6-13.94-14.46-13.94a15,15,0,0,0-11.56,4.75c-2.19-3-5.91-4.75-11-4.75-8.48,0-14,5.14-14,12.27v.64h6.75v-.58c0-4.88,2.38-6.23,7-6.23s7.26,1.16,7.26,6.55v1.61l-11.24,1.41c-6.68.77-10.67,3.73-10.67,8.93C217.77,120.91,222.27,123.74,228.69,123.74ZM255,96.37c5.46,0,8.42,2.38,8.16,7.78H246.3C246.68,99.26,248.93,96.37,255,96.37Zm-30.45,18.18c0-2.31,1.28-3.27,4.95-3.72l10.34-1.29c0,6.81-4.88,8.74-9.64,8.74C226.19,118.28,224.52,117.19,224.52,114.55Z"/><path class="cls-1" d="M288.32,123.1a27.11,27.11,0,0,0,5.72-.58v-5.65h-3.92c-4.3,0-5.72-.58-5.72-3.92V97H294V91.17H284.4v-7.9h-5.33l-1.48,7.9h-5.46V97h5.34v16.32C277.47,120.46,281.19,123.1,288.32,123.1Z"/><path class="cls-1" d="M311.81,123.74c8.6,0,14.32-4.24,14.32-10.79v-.58h-6.87v.51c0,2.89-2.06,4.69-7.39,4.69-6.68,0-8.8-2.95-9.06-8.8H326a24.17,24.17,0,0,0,.39-4.37c0-8.73-6-13.87-14.65-13.87-9.51,0-15.42,6.68-15.42,16.57S301.27,123.74,311.81,123.74Zm-.2-27.37c5.46,0,8.42,2.32,8.16,7.78H302.88C303.26,99.2,305.57,96.37,311.61,96.37Z"/><path class="cls-1" d="M338.86,123.1V102.28c0-4.24,1.55-5.84,5.72-5.84s5.27,1.54,5.27,5.78v1.28h6.94v-2.12c0-6-2.57-10.85-9.25-10.85a9.28,9.28,0,0,0-8.93,5.52h-.32V91h-6.36V123.1Z"/><path class="cls-1" d="M368,123.1V104.66c0-6,2.57-8.16,8.22-8.16,5.84,0,7.64,2.38,7.64,8.1v18.5h6.94v-20c0-7.26-3.72-12.52-12-12.52-6.23,0-9.64,3.21-11.12,6.61h-.25v-6H361.1V123.1Z"/><path class="cls-1" d="M404,87.12V80.05H397l.06,7.07Zm.07,36V91H397.1V123.1Z"/><path class="cls-1" d="M423.52,123.1a27.19,27.19,0,0,0,5.72-.58v-5.65h-3.92c-4.3,0-5.72-.58-5.72-3.92V97h9.64V91.17H419.6v-7.9h-5.33l-1.48,7.9h-5.46V97h5.33v16.32C412.66,120.46,416.39,123.1,423.52,123.1Z"/><path class="cls-1" d="M438.27,134c5,0,8.09-1.48,10.47-7.13l15.1-35.72h-7.65l-5.85,15.48-2.63,6.94h-.51l-2.89-6.94-6.43-15.48h-7.64l13.55,31.09-1.22,2.7c-1,2.38-2,2.83-4.75,2.83h-4.37v5.65A19.77,19.77,0,0,0,438.27,134Z"/></svg>