<svg id="logo" xmlns="http://www.w3.org/2000/svg" xmlns:xlink="http://www.w3.org/1999/xlink" viewBox="0 0 566.93 742.92"><defs><style>.cls-1{fill:#fff;}.cls-2{fill:#272361;}.cls-3{fill:#c41b7b;}.cls-4{fill:url(#linear-gradient);}.cls-5{fill:#c9c8d7;}.cls-6{fill:#242424;}.cls-7{fill:url(#linear-gradient-2);}.cls-8{fill:url(#linear-gradient-3);}.cls-9{fill:url(#linear-gradient-4);}</style><linearGradient id="linear-gradient" x1="165.32" y1="49.52" x2="165.32" y2="160.62" gradientUnits="userSpaceOnUse"><stop offset="0" stop-color="#c41b7b"/><stop offset="0.23" stop-color="#a31c74"/><stop offset="0.75" stop-color="#501f62"/><stop offset="1" stop-color="#252158"/></linearGradient><linearGradient id="linear-gradient-2" x1="165.32" y1="212.63" x2="165.32" y2="323.72" xlink:href="#linear-gradient"/><linearGradient id="linear-gradient-3" x1="165.32" y1="377.57" x2="165.32" y2="488.67" xlink:href="#linear-gradient"/><linearGradient id="linear-gradient-4" x1="165.32" y1="540.68" x2="165.32" y2="651.77" gradientUnits="userSpaceOnUse"><stop offset="0" stop-color="#c41b7b"/><stop offset="0.17" stop-color="#cd3c8e"/><stop offset="0.54" stop-color="#e290bf"/><stop offset="1" stop-color="#fff"/></linearGradient></defs><rect x="33.56" y="37.06" width="499.4" height="141.73"/><polygon class="cls-1" points="165.32 158.7 127.39 143 111.68 105.07 127.39 67.14 165.32 51.44 203.24 67.14 218.95 105.07 203.24 143 165.32 158.7"/><path class="cls-1" d="M255.72,134.8a7,7,0,0,1-2.32-.37,5.06,5.06,0,0,1-3.16-3.06,7.4,7.4,0,0,1-.46-2.75V127a7.22,7.22,0,0,1,.46-2.71,5.52,5.52,0,0,1,1.3-1.93,5.43,5.43,0,0,1,1.89-1.16,6.51,6.51,0,0,1,2.26-.39h.43a6.8,6.8,0,0,1,2.14.33,4.74,4.74,0,0,1,1.76,1,4.55,4.55,0,0,1,1.18,1.75,6.72,6.72,0,0,1,.43,2.54h-3.12a4.56,4.56,0,0,0-.32-1.89,1.92,1.92,0,0,0-.9-1,3.35,3.35,0,0,0-1.41-.27,3.11,3.11,0,0,0-1,.17,2.22,2.22,0,0,0-.81.54,2.49,2.49,0,0,0-.52.92,4.11,4.11,0,0,0-.19,1.35v3.06a4,4,0,0,0,.32,1.7,2.09,2.09,0,0,0,.89,1,2.92,2.92,0,0,0,1.35.31,3.8,3.8,0,0,0,1.53-.28,1.84,1.84,0,0,0,.91-1,4.5,4.5,0,0,0,.31-1.88h3a6.51,6.51,0,0,1-.42,2.43,4.73,4.73,0,0,1-1.17,1.76,5,5,0,0,1-1.75,1.06,6.19,6.19,0,0,1-2.13.36Z"/><path class="cls-1" d="M273.55,134.76a3.27,3.27,0,0,1-1.31-.23,1.69,1.69,0,0,1-.85-.78,3.18,3.18,0,0,1-.31-1.55,5.37,5.37,0,0,0-.11-1.09,2.52,2.52,0,0,0-.36-.89,1.81,1.81,0,0,0-.62-.61,1.74,1.74,0,0,0-.9-.22h-2v5.21H263.8V121h7.12a4,4,0,0,1,1.82.41,3.61,3.61,0,0,1,1.38,1.16,3,3,0,0,1,.54,1.83,3.67,3.67,0,0,1-.34,1.6,3.87,3.87,0,0,1-2.09,2v.1a3.05,3.05,0,0,1,.81.4,2.69,2.69,0,0,1,.69.66,3.68,3.68,0,0,1,.48.95,3.46,3.46,0,0,1,.19,1.19,8.52,8.52,0,0,0,0,.9,3.89,3.89,0,0,0,.14.74,1.41,1.41,0,0,0,.31.55,1.28,1.28,0,0,0,.53.32v.69a3.49,3.49,0,0,1-.9.23A6.42,6.42,0,0,1,273.55,134.76Zm-6.47-7.85h2.71a1.15,1.15,0,0,0,.75-.27,1.81,1.81,0,0,0,.54-.7,2.23,2.23,0,0,0,.2-.94,1.5,1.5,0,0,0-.41-1.13,1.44,1.44,0,0,0-1-.39h-2.75Z"/><path class="cls-1" d="M280.41,134.6v-5.23L275.79,121h3.74l2.65,5.25h.08l2.68-5.25h3.4l-4.59,8.41v5.23Z"/><path class="cls-1" d="M289.72,134.6V121h6.8a4,4,0,0,1,3.5,2,3.78,3.78,0,0,1,.54,2v.33a4,4,0,0,1-.56,2.06,4.28,4.28,0,0,1-1.48,1.51,3.87,3.87,0,0,1-2.06.57H293v5.21Zm3.32-7.69h2.54a1.55,1.55,0,0,0,1.41-.82,1.81,1.81,0,0,0,.2-.9,1.79,1.79,0,0,0-.43-1.2,1.52,1.52,0,0,0-1.22-.51H293Z"/><path class="cls-1" d="M304.67,134.6v-11h-3.76V121h10.86v2.6H308v11Z"/><path class="cls-1" d="M318.75,134.8a6,6,0,0,1-2.24-.42,5.3,5.3,0,0,1-1.85-1.21,5.59,5.59,0,0,1-1.25-1.95,7.35,7.35,0,0,1-.44-2.6V127a6.83,6.83,0,0,1,.46-2.59,5.64,5.64,0,0,1,1.25-1.94,5.4,5.4,0,0,1,1.84-1.21,5.85,5.85,0,0,1,2.22-.42h.83a6,6,0,0,1,2.24.42,5.5,5.5,0,0,1,1.84,1.21,5.62,5.62,0,0,1,1.24,1.94,7,7,0,0,1,.45,2.59v1.66a7.13,7.13,0,0,1-.45,2.6,5.57,5.57,0,0,1-1.24,1.95,5.35,5.35,0,0,1-1.84,1.21,6,6,0,0,1-2.24.42Zm.4-2.5a3,3,0,0,0,1.06-.18,2.32,2.32,0,0,0,.83-.55,2.5,2.5,0,0,0,.56-.92,3.9,3.9,0,0,0,.2-1.32v-3.06a4,4,0,0,0-.2-1.33A2.46,2.46,0,0,0,321,124a2.29,2.29,0,0,0-.83-.54,3.19,3.19,0,0,0-1-.17,3,3,0,0,0-1,.18,2.41,2.41,0,0,0-.86.54,2.35,2.35,0,0,0-.56.92,3.76,3.76,0,0,0-.2,1.33v3a3.76,3.76,0,0,0,.2,1.33,2.46,2.46,0,0,0,.56.93,2.49,2.49,0,0,0,.85.55A2.9,2.9,0,0,0,319.15,132.3Z"/><path class="cls-1" d="M331.74,134.6V121h9.37l-.34,2.54H335v3.13h5.22v2.48H335v5.49Z"/><path class="cls-1" d="M348.11,134.8a6.08,6.08,0,0,1-2.25-.42,5.3,5.3,0,0,1-1.85-1.21,5.57,5.57,0,0,1-1.24-1.95,7.13,7.13,0,0,1-.45-2.6V127a7,7,0,0,1,.46-2.59,5.79,5.79,0,0,1,1.25-1.94,5.5,5.5,0,0,1,1.84-1.21,5.92,5.92,0,0,1,2.22-.42h.84a5.9,5.9,0,0,1,2.23.42,5.4,5.4,0,0,1,1.84,1.21,5.64,5.64,0,0,1,1.25,1.94,7.25,7.25,0,0,1,.44,2.59v1.66a7.35,7.35,0,0,1-.44,2.6,5.59,5.59,0,0,1-1.25,1.95,5.26,5.26,0,0,1-1.84,1.21,5.9,5.9,0,0,1-2.23.42Zm.4-2.5a3,3,0,0,0,1.05-.18,2.36,2.36,0,0,0,.84-.55,2.48,2.48,0,0,0,.55-.92,3.67,3.67,0,0,0,.2-1.32v-3.06a3.76,3.76,0,0,0-.2-1.33,2.45,2.45,0,0,0-.55-.93,2.33,2.33,0,0,0-.84-.54,3.13,3.13,0,0,0-1-.17,3,3,0,0,0-1,.18,2.37,2.37,0,0,0-.85.54,2.25,2.25,0,0,0-.57.92,4,4,0,0,0-.2,1.33v3a4,4,0,0,0,.2,1.33,2.36,2.36,0,0,0,.57.93,2.45,2.45,0,0,0,.84.55A3,3,0,0,0,348.51,132.3Z"/><path class="cls-1" d="M361.87,134.8a5.76,5.76,0,0,1-2.68-.58,4.06,4.06,0,0,1-1.74-1.61,4.61,4.61,0,0,1-.61-2.4V121h3.34v9.25a2,2,0,0,0,.61,1.5,2.18,2.18,0,0,0,1.58.59,2.11,2.11,0,0,0,1.56-.59,2,2,0,0,0,.59-1.5V121h3.34v9.25a4.22,4.22,0,0,1-.68,2.4,4.43,4.43,0,0,1-1.88,1.61,6.21,6.21,0,0,1-2.75.58Z"/><path class="cls-1" d="M370.59,134.6V121h2.78l4.42,6.52.67,1.22.1,0V121h3.05V134.6h-2.87l-4.55-6.74-.48-.9-.08,0v7.6Z"/><path class="cls-1" d="M384.41,134.6V121h5.65a6.33,6.33,0,0,1,2.25.39,5.27,5.27,0,0,1,1.85,1.14,5.15,5.15,0,0,1,1.26,1.85,6.61,6.61,0,0,1,.44,2.53v1.51a6.89,6.89,0,0,1-.44,2.55,5.74,5.74,0,0,1-1.26,2,5.44,5.44,0,0,1-1.85,1.26,5.58,5.58,0,0,1-2.25.44Zm3.34-2.54h2a2.53,2.53,0,0,0,1.29-.34,2.38,2.38,0,0,0,.92-1,3.68,3.68,0,0,0,.34-1.66v-2.76a3.39,3.39,0,0,0-.34-1.6,2.17,2.17,0,0,0-.92-.93,2.73,2.73,0,0,0-1.29-.3h-2Z"/><path class="cls-1" d="M396.74,134.6,401.59,121h4l4.85,13.64H407l-1-2.68h-5.13l-1,2.68Zm5-5h3.52l-1.69-5.15h-.1Z"/><path class="cls-1" d="M414.34,134.6v-11h-3.76V121h10.86v2.6h-3.76v11Z"/><path class="cls-1" d="M422.76,134.6v-2.42h1.61v-8.8h-1.61V121h6.54v2.42h-1.59v8.8h1.59v2.42Z"/><path class="cls-1" d="M436.88,134.8a6,6,0,0,1-2.25-.42,5.3,5.3,0,0,1-1.85-1.21,5.57,5.57,0,0,1-1.24-1.95,7.13,7.13,0,0,1-.45-2.6V127a6.83,6.83,0,0,1,.46-2.59,5.64,5.64,0,0,1,1.25-1.94,5.4,5.4,0,0,1,1.84-1.21,5.92,5.92,0,0,1,2.22-.42h.83a6,6,0,0,1,2.24.42,5.4,5.4,0,0,1,1.84,1.21,5.48,5.48,0,0,1,1.24,1.94,7,7,0,0,1,.45,2.59v1.66a7.13,7.13,0,0,1-.45,2.6,5.43,5.43,0,0,1-1.24,1.95,5.26,5.26,0,0,1-1.84,1.21,6,6,0,0,1-2.24.42Zm.4-2.5a3,3,0,0,0,1.05-.18,2.36,2.36,0,0,0,.84-.55,2.62,2.62,0,0,0,.55-.92,3.9,3.9,0,0,0,.2-1.32v-3.06a4,4,0,0,0-.2-1.33,2.58,2.58,0,0,0-.55-.93,2.33,2.33,0,0,0-.84-.54,3.13,3.13,0,0,0-1-.17,3,3,0,0,0-1.05.18,2.37,2.37,0,0,0-.85.54,2.25,2.25,0,0,0-.57.92,4,4,0,0,0-.2,1.33v3a4,4,0,0,0,.2,1.33,2.39,2.39,0,0,0,1.41,1.48A2.91,2.91,0,0,0,437.28,132.3Z"/><path class="cls-1" d="M445.73,134.6V121h2.78l4.42,6.52.67,1.22.1,0V121h3.05V134.6h-2.87l-4.55-6.74-.48-.9-.08,0v7.6Z"/><path class="cls-2" d="M212.79,107.4H186.22v-5.21h21.11A16.93,16.93,0,0,0,190.45,88.4c-7.4,0-12.69,5.21-17.66,11.81l-3.22-4.56C175,88.76,181.29,83.2,190.45,83.2a22.67,22.67,0,0,1,16.83,7.21,21,21,0,0,1,2,2.61L200,70.43,165.32,56.09,130.68,70.43,121,93.9a23.06,23.06,0,0,1,19.8-10.7c11.35,0,18.67,8.13,26.42,19.27S181,121.21,190.3,121.21a17.72,17.72,0,0,0,15.36-8.58h5.51l2.17-5.23Z"/><path class="cls-3" d="M190.3,126.42c-11.35,0-18.37-7.79-26.44-19.3S150,88.41,140.76,88.41c-9.56-.07-17.38,7.27-17.47,16.4.09,9.12,7.9,16.46,17.47,16.4,7.57,0,13-5.2,18.06-11.81l3.27,4.6c-5.55,6.88-12,12.42-21.33,12.42a23,23,0,0,1-20.61-12.13l10.53,25.42,34.64,14.34L200,139.71l9.54-23A23.36,23.36,0,0,1,190.3,126.42Z"/><path class="cls-4" d="M165.32,160.62,126,144.35l-16.27-39.28L126,65.79l39.28-16.27,39.27,16.27,16.27,39.28-16.27,39.28Zm-37.09-18.46,37.09,15.36,37.08-15.36,15.37-37.09L202.4,68,165.32,52.62,128.23,68l-15.36,37.09Z"/><path class="cls-1" d="M259.15,101.89c4.68,0,9-1.89,11.07-5.75,2,3.6,5.64,5.75,11.12,5.75,7.15,0,11.93-3.55,11.93-9v-.49h-5.69v.43c0,2.42-1.72,3.93-6.18,3.93-5.43,0-7.42-2.37-7.58-7.31h19.4a22.3,22.3,0,0,0,.27-3.66c0-7.36-5-11.66-12.09-11.66a12.56,12.56,0,0,0-9.67,4c-1.83-2.47-5-4-9.25-4-7.09,0-11.71,4.3-11.71,10.27v.54h5.64v-.49c0-4.08,2-5.21,5.86-5.21s6.07,1,6.07,5.48V86l-9.4,1.19c-5.59.64-8.92,3.11-8.92,7.46C250,99.52,253.78,101.89,259.15,101.89Zm22-22.9c4.57,0,7,2,6.82,6.51H273.88C274.2,81.41,276.08,79,281.13,79ZM255.66,94.2c0-1.93,1.07-2.74,4.14-3.12L268.45,90c0,5.7-4.09,7.31-8.06,7.31C257.06,97.32,255.66,96.4,255.66,94.2Z"/><path class="cls-1" d="M309,101.35a22.53,22.53,0,0,0,4.78-.49V96.14h-3.28c-3.6,0-4.78-.49-4.78-3.28V79.48h8.06V74.64h-8.06V68h-4.46l-1.24,6.61h-4.56v4.84H300V93.13C300,99.14,303.06,101.35,309,101.35Z"/><path class="cls-1" d="M328.67,101.89c7.2,0,12-3.55,12-9v-.49H334.9v.43c0,2.42-1.72,3.93-6.18,3.93-5.59,0-7.36-2.47-7.57-7.36h19.39a21,21,0,0,0,.33-3.66c0-7.31-5.06-11.61-12.26-11.61-7.95,0-12.89,5.59-12.89,13.87S319.86,101.89,328.67,101.89ZM328.51,79c4.56,0,7,1.94,6.82,6.51H321.2C321.52,81.36,323.46,79,328.51,79Z"/><path class="cls-1" d="M351.3,101.35V83.94c0-3.55,1.29-4.89,4.78-4.89s4.41,1.29,4.41,4.83V85h5.8V83.19c0-5-2.15-9.09-7.74-9.09a7.77,7.77,0,0,0-7.47,4.63h-.26V74.48H345.5v26.87Z"/><path class="cls-1" d="M375.7,101.35V85.93c0-5,2.15-6.83,6.88-6.83,4.89,0,6.39,2,6.39,6.77v15.48h5.81V84.58c0-6.07-3.12-10.48-10-10.48-5.21,0-8.06,2.69-9.3,5.54h-.21v-5H369.9v26.71Z"/><path class="cls-1" d="M405.76,71.26V65.35H400l.05,5.91Zm.05,30.09V74.48H400v26.87Z"/><path class="cls-1" d="M422.11,101.35a22.53,22.53,0,0,0,4.78-.49V96.14h-3.28c-3.6,0-4.78-.49-4.78-3.28V79.48h8.06V74.64h-8.06V68h-4.46l-1.24,6.61h-4.56v4.84H413V93.13C413,99.14,416.14,101.35,422.11,101.35Z"/><path class="cls-1" d="M434.44,110.48c4.19,0,6.77-1.23,8.76-6l12.63-29.88h-6.39l-4.9,13-2.2,5.81h-.43l-2.42-5.81-5.37-13h-6.39l11.33,26-1,2.26c-.86,2-1.66,2.36-4,2.36h-3.66V110A16.52,16.52,0,0,0,434.44,110.48Z"/><rect class="cls-5" x="33.56" y="200.17" width="499.4" height="141.73"/><path class="cls-6" d="M255.72,297.91a7,7,0,0,1-2.32-.37,5,5,0,0,1-1.89-1.13,5.12,5.12,0,0,1-1.27-1.93,7.46,7.46,0,0,1-.46-2.76v-1.67a7.2,7.2,0,0,1,.46-2.7,5.41,5.41,0,0,1,3.19-3.1,6.74,6.74,0,0,1,2.26-.38h.43a7.1,7.1,0,0,1,2.14.32,4.76,4.76,0,0,1,1.76,1A4.55,4.55,0,0,1,261.2,287a6.68,6.68,0,0,1,.43,2.54h-3.12a4.56,4.56,0,0,0-.32-1.89,1.88,1.88,0,0,0-.9-1,3.34,3.34,0,0,0-1.41-.28,2.87,2.87,0,0,0-1,.18,2.22,2.22,0,0,0-.81.54,2.44,2.44,0,0,0-.52.91,4.17,4.17,0,0,0-.19,1.36v3.06a4,4,0,0,0,.32,1.7,2.06,2.06,0,0,0,.89,1,2.8,2.8,0,0,0,1.35.31,3.64,3.64,0,0,0,1.53-.28,1.82,1.82,0,0,0,.91-.94,4.5,4.5,0,0,0,.31-1.88h3a6.58,6.58,0,0,1-.42,2.43,4.73,4.73,0,0,1-1.17,1.76,5,5,0,0,1-1.75,1.06,6.19,6.19,0,0,1-2.13.36Z"/><path class="cls-6" d="M273.55,297.87a3.45,3.45,0,0,1-1.31-.23,1.67,1.67,0,0,1-.85-.79,3.15,3.15,0,0,1-.31-1.55,5.34,5.34,0,0,0-.11-1.08,2.58,2.58,0,0,0-.36-.9,1.78,1.78,0,0,0-.62-.6,1.74,1.74,0,0,0-.9-.22h-2v5.21H263.8V284.06h7.12a4.15,4.15,0,0,1,1.82.41,3.64,3.64,0,0,1,1.38,1.17,3,3,0,0,1,.54,1.83,3.7,3.7,0,0,1-.34,1.6,3.94,3.94,0,0,1-.88,1.23,4,4,0,0,1-1.21.77v.1a3.35,3.35,0,0,1,.81.39,2.92,2.92,0,0,1,.69.67,3.78,3.78,0,0,1,.48.94,3.51,3.51,0,0,1,.19,1.2,8.33,8.33,0,0,0,0,.89,3.85,3.85,0,0,0,.14.75,1.41,1.41,0,0,0,.31.55,1.17,1.17,0,0,0,.53.31v.7a4,4,0,0,1-.9.23A8.05,8.05,0,0,1,273.55,297.87ZM267.08,290h2.71a1.15,1.15,0,0,0,.75-.27,1.85,1.85,0,0,0,.54-.69,2.28,2.28,0,0,0,.2-.95,1.48,1.48,0,0,0-.41-1.12,1.44,1.44,0,0,0-1-.39h-2.75Z"/><path class="cls-6" d="M280.41,297.71v-5.23l-4.62-8.42h3.74l2.65,5.26h.08l2.68-5.26h3.4l-4.59,8.42v5.23Z"/><path class="cls-6" d="M289.72,297.71V284.06h6.8A4.05,4.05,0,0,1,300,286a3.83,3.83,0,0,1,.54,2v.34a4,4,0,0,1-.56,2.06,4.37,4.37,0,0,1-1.48,1.51,3.87,3.87,0,0,1-2.06.57H293v5.21ZM293,290h2.54a1.56,1.56,0,0,0,1.41-.81,1.84,1.84,0,0,0,.2-.9,1.79,1.79,0,0,0-.43-1.2,1.52,1.52,0,0,0-1.22-.51H293Z"/><path class="cls-6" d="M304.67,297.71v-11h-3.76v-2.61h10.86v2.61H308v11Z"/><path class="cls-6" d="M318.75,297.91a6,6,0,0,1-2.24-.42,5.45,5.45,0,0,1-1.85-1.21,5.59,5.59,0,0,1-1.25-1.95,7.36,7.36,0,0,1-.44-2.61v-1.65a6.8,6.8,0,0,1,.46-2.59,5.55,5.55,0,0,1,1.25-1.94,5.43,5.43,0,0,1,1.84-1.22,6,6,0,0,1,2.22-.41h.83a6.15,6.15,0,0,1,2.24.41,5.45,5.45,0,0,1,3.08,3.16,7,7,0,0,1,.45,2.59v1.65a7.14,7.14,0,0,1-.45,2.61,5.57,5.57,0,0,1-1.24,1.95,5.5,5.5,0,0,1-1.84,1.21,6,6,0,0,1-2.24.42Zm.4-2.51a3,3,0,0,0,1.06-.18,2.29,2.29,0,0,0,.83-.54,2.5,2.5,0,0,0,.56-.92,3.9,3.9,0,0,0,.2-1.32v-3.06a4.07,4.07,0,0,0-.2-1.34,2.42,2.42,0,0,0-.56-.92,2.06,2.06,0,0,0-.83-.54,3.19,3.19,0,0,0-1-.17,3,3,0,0,0-1,.18,2.41,2.41,0,0,0-.86.54,2.38,2.38,0,0,0-.56.91,3.82,3.82,0,0,0-.2,1.34v3a3.76,3.76,0,0,0,.2,1.33,2.54,2.54,0,0,0,.56.93,2.46,2.46,0,0,0,.85.54A2.9,2.9,0,0,0,319.15,295.4Z"/><path class="cls-6" d="M331.74,297.71V284.06h9.37l-.34,2.55H335v3.12h5.22v2.49H335v5.49Z"/><path class="cls-6" d="M348.11,297.91a6.08,6.08,0,0,1-2.25-.42,5.45,5.45,0,0,1-1.85-1.21,5.57,5.57,0,0,1-1.24-1.95,7.14,7.14,0,0,1-.45-2.61v-1.65a7,7,0,0,1,.46-2.59,5.69,5.69,0,0,1,1.25-1.94,5.53,5.53,0,0,1,1.84-1.22,6.12,6.12,0,0,1,2.22-.41h.84a6.09,6.09,0,0,1,2.23.41,5.43,5.43,0,0,1,1.84,1.22,5.55,5.55,0,0,1,1.25,1.94,7.21,7.21,0,0,1,.44,2.59v1.65a7.36,7.36,0,0,1-.44,2.61,5.59,5.59,0,0,1-1.25,1.95,5.4,5.4,0,0,1-1.84,1.21,5.9,5.9,0,0,1-2.23.42Zm.4-2.51a3,3,0,0,0,1.05-.18,2.33,2.33,0,0,0,.84-.54,2.48,2.48,0,0,0,.55-.92,3.67,3.67,0,0,0,.2-1.32v-3.06A3.82,3.82,0,0,0,351,288a2.4,2.4,0,0,0-.55-.92,2.09,2.09,0,0,0-.84-.54,3.13,3.13,0,0,0-1-.17,3,3,0,0,0-1,.18,2.37,2.37,0,0,0-.85.54,2.28,2.28,0,0,0-.57.91,4.07,4.07,0,0,0-.2,1.34v3a4,4,0,0,0,.2,1.33,2.34,2.34,0,0,0,1.41,1.47A3,3,0,0,0,348.51,295.4Z"/><path class="cls-6" d="M361.87,297.91a5.76,5.76,0,0,1-2.68-.58,4.06,4.06,0,0,1-1.74-1.61,4.62,4.62,0,0,1-.61-2.41v-9.25h3.34v9.25a2.05,2.05,0,0,0,.61,1.51,2.17,2.17,0,0,0,1.58.58,2.11,2.11,0,0,0,1.56-.58,2.07,2.07,0,0,0,.59-1.51v-9.25h3.34v9.25a4.23,4.23,0,0,1-.68,2.41,4.43,4.43,0,0,1-1.88,1.61,6.21,6.21,0,0,1-2.75.58Z"/><path class="cls-6" d="M370.59,297.71V284.06h2.78l4.42,6.53.67,1.21.1,0v-7.7h3.05v13.65h-2.87L374.19,291l-.48-.9-.08,0v7.6Z"/><path class="cls-6" d="M384.41,297.71V284.06h5.65a6.33,6.33,0,0,1,2.25.39,5.29,5.29,0,0,1,1.85,1.15,5.15,5.15,0,0,1,1.26,1.85,6.59,6.59,0,0,1,.44,2.52v1.51a6.91,6.91,0,0,1-.44,2.56,5.84,5.84,0,0,1-1.26,2,5.44,5.44,0,0,1-1.85,1.26,5.75,5.75,0,0,1-2.25.44Zm3.34-2.55h2a2.53,2.53,0,0,0,1.29-.33,2.38,2.38,0,0,0,.92-1,3.71,3.71,0,0,0,.34-1.66V289.4a3.46,3.46,0,0,0-.34-1.61,2.2,2.2,0,0,0-.92-.92,2.73,2.73,0,0,0-1.29-.3h-2Z"/><path class="cls-6" d="M396.74,297.71l4.85-13.65h4l4.85,13.65H407l-1-2.69h-5.13l-1,2.69Zm5-5h3.52l-1.69-5.15h-.1Z"/><path class="cls-6" d="M414.34,297.71v-11h-3.76v-2.61h10.86v2.61h-3.76v11Z"/><path class="cls-6" d="M422.76,297.71v-2.43h1.61v-8.79h-1.61v-2.43h6.54v2.43h-1.59v8.79h1.59v2.43Z"/><path class="cls-6" d="M436.88,297.91a6,6,0,0,1-2.25-.42,5.45,5.45,0,0,1-1.85-1.21,5.57,5.57,0,0,1-1.24-1.95,7.14,7.14,0,0,1-.45-2.61v-1.65a6.8,6.8,0,0,1,.46-2.59,5.55,5.55,0,0,1,1.25-1.94,5.43,5.43,0,0,1,1.84-1.22,6.12,6.12,0,0,1,2.22-.41h.83a6.15,6.15,0,0,1,2.24.41,5.45,5.45,0,0,1,3.08,3.16,7,7,0,0,1,.45,2.59v1.65a7.14,7.14,0,0,1-.45,2.61,5.38,5.38,0,0,1-3.08,3.16,6,6,0,0,1-2.24.42Zm.4-2.51a3,3,0,0,0,1.05-.18,2.33,2.33,0,0,0,.84-.54,2.62,2.62,0,0,0,.55-.92,3.9,3.9,0,0,0,.2-1.32v-3.06a4.07,4.07,0,0,0-.2-1.34,2.53,2.53,0,0,0-.55-.92,2.09,2.09,0,0,0-.84-.54,3.13,3.13,0,0,0-1-.17,3,3,0,0,0-1.05.18,2.37,2.37,0,0,0-.85.54,2.28,2.28,0,0,0-.57.91,4.07,4.07,0,0,0-.2,1.34v3a4,4,0,0,0,.2,1.33,2.43,2.43,0,0,0,.57.93,2.33,2.33,0,0,0,.84.54A2.91,2.91,0,0,0,437.28,295.4Z"/><path class="cls-6" d="M445.73,297.71V284.06h2.78l4.42,6.53.67,1.21.1,0v-7.7h3.05v13.65h-2.87L449.33,291l-.48-.9-.08,0v7.6Z"/><path class="cls-2" d="M212.79,270.5H186.22V265.3h21.11a16.92,16.92,0,0,0-16.88-13.79c-7.4,0-12.69,5.21-17.66,11.81l-3.22-4.57c5.43-6.88,11.72-12.45,20.88-12.45a22.68,22.68,0,0,1,16.83,7.22,21,21,0,0,1,2,2.61L200,233.54l-34.63-14.35-34.64,14.35L121,257a23.07,23.07,0,0,1,19.8-10.71c11.35,0,18.67,8.14,26.42,19.28S181,284.31,190.3,284.31a17.7,17.7,0,0,0,15.36-8.58h5.51l2.17-5.23Z"/><path class="cls-3" d="M190.3,289.53c-11.35,0-18.37-7.79-26.44-19.3s-13.84-18.72-23.1-18.72c-9.56-.06-17.38,7.28-17.47,16.4.09,9.13,7.9,16.47,17.47,16.41,7.57,0,13-5.2,18.06-11.81l3.27,4.6c-5.55,6.87-12,12.42-21.33,12.42a23,23,0,0,1-20.61-12.13l10.53,25.41,34.64,14.35L200,302.81l9.54-23A23.36,23.36,0,0,1,190.3,289.53Z"/><path class="cls-7" d="M165.32,323.72,126,307.46l-16.27-39.28L126,228.9l39.28-16.27,39.27,16.27,16.27,39.28-16.27,39.28Zm-37.09-18.46,37.09,15.37,37.08-15.37,15.37-37.08L202.4,231.09l-37.08-15.36-37.09,15.36-15.36,37.09Z"/><path class="cls-6" d="M259.15,265c4.68,0,9-1.88,11.07-5.75,2,3.6,5.64,5.75,11.12,5.75,7.15,0,11.93-3.54,11.93-9v-.48h-5.69v.43c0,2.42-1.72,3.92-6.18,3.92-5.43,0-7.42-2.36-7.58-7.3h19.4a22.3,22.3,0,0,0,.27-3.66c0-7.36-5-11.66-12.09-11.66a12.53,12.53,0,0,0-9.67,4c-1.83-2.47-5-4-9.25-4-7.09,0-11.71,4.3-11.71,10.26V248h5.64v-.48c0-4.09,2-5.21,5.86-5.21s6.07,1,6.07,5.48v1.34l-9.4,1.18c-5.59.65-8.92,3.12-8.92,7.47C250,262.63,253.78,265,259.15,265Zm22-22.89c4.57,0,7,2,6.82,6.5H273.88C274.2,244.52,276.08,242.1,281.13,242.1Zm-25.47,15.21c0-1.94,1.07-2.74,4.14-3.12l8.65-1.07c0,5.69-4.09,7.3-8.06,7.3C257.06,260.42,255.66,259.51,255.66,257.31Z"/><path class="cls-6" d="M309,264.45a22.61,22.61,0,0,0,4.78-.48v-4.73h-3.28c-3.6,0-4.78-.48-4.78-3.28V242.59h8.06v-4.84h-8.06v-6.61h-4.46l-1.24,6.61h-4.56v4.84H300v13.64C300,262.25,303.06,264.45,309,264.45Z"/><path class="cls-6" d="M328.67,265c7.2,0,12-3.54,12-9v-.48H334.9v.43c0,2.42-1.72,3.92-6.18,3.92-5.59,0-7.36-2.47-7.57-7.36h19.39a20.72,20.72,0,0,0,.33-3.65c0-7.31-5.06-11.61-12.26-11.61-7.95,0-12.89,5.59-12.89,13.87S319.86,265,328.67,265Zm-.16-22.89c4.56,0,7,1.94,6.82,6.5H321.2C321.52,244.47,323.46,242.1,328.51,242.1Z"/><path class="cls-6" d="M351.3,264.45v-17.4c0-3.55,1.29-4.89,4.78-4.89s4.41,1.28,4.41,4.83v1.08h5.8v-1.78c0-5-2.15-9.08-7.74-9.08a7.77,7.77,0,0,0-7.47,4.62h-.26v-4.24H345.5v26.86Z"/><path class="cls-6" d="M375.7,264.45V249c0-5,2.15-6.82,6.88-6.82,4.89,0,6.39,2,6.39,6.77v15.47h5.81V247.69c0-6.07-3.12-10.48-10-10.48-5.21,0-8.06,2.69-9.3,5.54h-.21v-5H369.9v26.7Z"/><path class="cls-6" d="M405.76,234.36v-5.91H400l.05,5.91Zm.05,30.09V237.59H400v26.86Z"/><path class="cls-6" d="M422.11,264.45a22.61,22.61,0,0,0,4.78-.48v-4.73h-3.28c-3.6,0-4.78-.48-4.78-3.28V242.59h8.06v-4.84h-8.06v-6.61h-4.46l-1.24,6.61h-4.56v4.84H413v13.64C413,262.25,416.14,264.45,422.11,264.45Z"/><path class="cls-6" d="M434.44,273.59c4.19,0,6.77-1.24,8.76-6l12.63-29.88h-6.39l-4.9,12.95-2.2,5.8h-.43l-2.42-5.8-5.37-12.95h-6.39l11.33,26L438,266c-.86,2-1.66,2.37-4,2.37h-3.66v4.73A17,17,0,0,0,434.44,273.59Z"/><rect class="cls-2" x="33.56" y="365.11" width="499.4" height="141.73"/><polygon class="cls-1" points="165.32 486.75 127.39 471.05 111.68 433.12 127.39 395.19 165.32 379.49 203.24 395.19 218.95 433.12 203.24 471.05 165.32 486.75"/><path class="cls-1" d="M255.72,462.85a7,7,0,0,1-2.32-.37,5.06,5.06,0,0,1-3.16-3.06,7.4,7.4,0,0,1-.46-2.75V455a7.2,7.2,0,0,1,.46-2.7,5.52,5.52,0,0,1,1.3-1.93,5.43,5.43,0,0,1,1.89-1.16,6.51,6.51,0,0,1,2.26-.39h.43a6.8,6.8,0,0,1,2.14.33,4.74,4.74,0,0,1,1.76,1,4.55,4.55,0,0,1,1.18,1.75,6.72,6.72,0,0,1,.43,2.54h-3.12a4.56,4.56,0,0,0-.32-1.89,1.92,1.92,0,0,0-.9-1,3.35,3.35,0,0,0-1.41-.27,2.87,2.87,0,0,0-1,.17,2.22,2.22,0,0,0-.81.54,2.41,2.41,0,0,0-.52.92,4.11,4.11,0,0,0-.19,1.35v3.06a4,4,0,0,0,.32,1.7,2.09,2.09,0,0,0,.89,1,2.92,2.92,0,0,0,1.35.3,3.81,3.81,0,0,0,1.53-.27,1.84,1.84,0,0,0,.91-.95,4.5,4.5,0,0,0,.31-1.88h3a6.51,6.51,0,0,1-.42,2.43,4.73,4.73,0,0,1-1.17,1.76,5,5,0,0,1-1.75,1.06,6.19,6.19,0,0,1-2.13.36Z"/><path class="cls-1" d="M273.55,462.81a3.45,3.45,0,0,1-1.31-.23,1.69,1.69,0,0,1-.85-.78,3.18,3.18,0,0,1-.31-1.55,5.37,5.37,0,0,0-.11-1.09,2.45,2.45,0,0,0-.36-.89,1.81,1.81,0,0,0-.62-.61,1.74,1.74,0,0,0-.9-.22h-2v5.21H263.8V449h7.12a4,4,0,0,1,1.82.41,3.61,3.61,0,0,1,1.38,1.16,3,3,0,0,1,.54,1.83,3.67,3.67,0,0,1-.34,1.6,3.94,3.94,0,0,1-.88,1.23,3.82,3.82,0,0,1-1.21.77v.1a3.05,3.05,0,0,1,.81.4,2.69,2.69,0,0,1,.69.66,3.68,3.68,0,0,1,.48.95,3.46,3.46,0,0,1,.19,1.19,8.52,8.52,0,0,0,0,.9,3.89,3.89,0,0,0,.14.74,1.41,1.41,0,0,0,.31.55,1.28,1.28,0,0,0,.53.32v.69a3.49,3.49,0,0,1-.9.23A6.42,6.42,0,0,1,273.55,462.81ZM267.08,455h2.71a1.15,1.15,0,0,0,.75-.27,1.81,1.81,0,0,0,.54-.7,2.23,2.23,0,0,0,.2-.94,1.5,1.5,0,0,0-.41-1.13,1.44,1.44,0,0,0-1-.39h-2.75Z"/><path class="cls-1" d="M280.41,462.65v-5.23L275.79,449h3.74l2.65,5.25h.08l2.68-5.25h3.4l-4.59,8.41v5.23Z"/><path class="cls-1" d="M289.72,462.65V449h6.8A4,4,0,0,1,300,451a3.78,3.78,0,0,1,.54,2v.33a4,4,0,0,1-.56,2.06,4.28,4.28,0,0,1-1.48,1.51,3.87,3.87,0,0,1-2.06.57H293v5.21ZM293,455h2.54a1.55,1.55,0,0,0,1.41-.82,1.81,1.81,0,0,0,.2-.9,1.79,1.79,0,0,0-.43-1.2,1.52,1.52,0,0,0-1.22-.51H293Z"/><path class="cls-1" d="M304.67,462.65v-11h-3.76V449h10.86v2.6H308v11Z"/><path class="cls-1" d="M318.75,462.85a6,6,0,0,1-2.24-.42,5.3,5.3,0,0,1-1.85-1.21,5.59,5.59,0,0,1-1.25-2,7.35,7.35,0,0,1-.44-2.6V455a6.83,6.83,0,0,1,.46-2.59,5.64,5.64,0,0,1,1.25-1.94,5.4,5.4,0,0,1,1.84-1.21,5.85,5.85,0,0,1,2.22-.42h.83a6,6,0,0,1,2.24.42,5.5,5.5,0,0,1,1.84,1.21,5.62,5.62,0,0,1,1.24,1.94,7,7,0,0,1,.45,2.59v1.66a7.13,7.13,0,0,1-.45,2.6,5.57,5.57,0,0,1-1.24,2,5.35,5.35,0,0,1-1.84,1.21,6,6,0,0,1-2.24.42Zm.4-2.51a3,3,0,0,0,1.06-.17,2.32,2.32,0,0,0,.83-.55,2.5,2.5,0,0,0,.56-.92,3.9,3.9,0,0,0,.2-1.32v-3.06a4,4,0,0,0-.2-1.33,2.46,2.46,0,0,0-.56-.93,2.29,2.29,0,0,0-.83-.54,3.19,3.19,0,0,0-1-.17,3,3,0,0,0-1,.18,2.41,2.41,0,0,0-.86.54,2.35,2.35,0,0,0-.56.92,3.76,3.76,0,0,0-.2,1.33v3a3.76,3.76,0,0,0,.2,1.33,2.46,2.46,0,0,0,.56.93,2.49,2.49,0,0,0,.85.55A2.89,2.89,0,0,0,319.15,460.34Z"/><path class="cls-1" d="M331.74,462.65V449h9.37l-.34,2.54H335v3.13h5.22v2.48H335v5.49Z"/><path class="cls-1" d="M348.11,462.85a6.08,6.08,0,0,1-2.25-.42,5.3,5.3,0,0,1-1.85-1.21,5.57,5.57,0,0,1-1.24-2,7.13,7.13,0,0,1-.45-2.6V455a7,7,0,0,1,.46-2.59,5.79,5.79,0,0,1,1.25-1.94,5.5,5.5,0,0,1,1.84-1.21,5.92,5.92,0,0,1,2.22-.42h.84a5.9,5.9,0,0,1,2.23.42,5.4,5.4,0,0,1,1.84,1.21,5.64,5.64,0,0,1,1.25,1.94,7.25,7.25,0,0,1,.44,2.59v1.66a7.35,7.35,0,0,1-.44,2.6,5.59,5.59,0,0,1-1.25,2,5.26,5.26,0,0,1-1.84,1.21,5.9,5.9,0,0,1-2.23.42Zm.4-2.51a3,3,0,0,0,1.05-.17,2.36,2.36,0,0,0,.84-.55,2.48,2.48,0,0,0,.55-.92,3.67,3.67,0,0,0,.2-1.32v-3.06A3.76,3.76,0,0,0,351,453a2.45,2.45,0,0,0-.55-.93,2.33,2.33,0,0,0-.84-.54,3.13,3.13,0,0,0-1-.17,3,3,0,0,0-1,.18,2.37,2.37,0,0,0-.85.54,2.25,2.25,0,0,0-.57.92,4,4,0,0,0-.2,1.33v3a4,4,0,0,0,.2,1.33,2.36,2.36,0,0,0,.57.93,2.45,2.45,0,0,0,.84.55A3,3,0,0,0,348.51,460.34Z"/><path class="cls-1" d="M361.87,462.85a5.76,5.76,0,0,1-2.68-.58,4.06,4.06,0,0,1-1.74-1.61,4.61,4.61,0,0,1-.61-2.4V449h3.34v9.25a2,2,0,0,0,.61,1.5,2.17,2.17,0,0,0,1.58.58,2.11,2.11,0,0,0,1.56-.58,2,2,0,0,0,.59-1.5V449h3.34v9.25a4.22,4.22,0,0,1-.68,2.4,4.43,4.43,0,0,1-1.88,1.61,6.21,6.21,0,0,1-2.75.58Z"/><path class="cls-1" d="M370.59,462.65V449h2.78l4.42,6.52.67,1.22.1,0V449h3.05v13.64h-2.87l-4.55-6.74-.48-.9-.08,0v7.6Z"/><path class="cls-1" d="M384.41,462.65V449h5.65a6.33,6.33,0,0,1,2.25.39,5.27,5.27,0,0,1,1.85,1.14,5.15,5.15,0,0,1,1.26,1.85,6.61,6.61,0,0,1,.44,2.53v1.51a6.89,6.89,0,0,1-.44,2.55,5.84,5.84,0,0,1-1.26,2,5.44,5.44,0,0,1-1.85,1.26,5.58,5.58,0,0,1-2.25.44Zm3.34-2.54h2a2.53,2.53,0,0,0,1.29-.34,2.38,2.38,0,0,0,.92-1,3.68,3.68,0,0,0,.34-1.66v-2.76a3.39,3.39,0,0,0-.34-1.6,2.17,2.17,0,0,0-.92-.93,2.73,2.73,0,0,0-1.29-.3h-2Z"/><path class="cls-1" d="M396.74,462.65,401.59,449h4l4.85,13.64H407l-1-2.68h-5.13l-1,2.68Zm5-5h3.52l-1.69-5.15h-.1Z"/><path class="cls-1" d="M414.34,462.65v-11h-3.76V449h10.86v2.6h-3.76v11Z"/><path class="cls-1" d="M422.76,462.65v-2.42h1.61v-8.8h-1.61V449h6.54v2.42h-1.59v8.8h1.59v2.42Z"/><path class="cls-1" d="M436.88,462.85a6,6,0,0,1-2.25-.42,5.3,5.3,0,0,1-1.85-1.21,5.57,5.57,0,0,1-1.24-2,7.13,7.13,0,0,1-.45-2.6V455a6.83,6.83,0,0,1,.46-2.59,5.64,5.64,0,0,1,1.25-1.94,5.4,5.4,0,0,1,1.84-1.21,5.92,5.92,0,0,1,2.22-.42h.83a6,6,0,0,1,2.24.42,5.4,5.4,0,0,1,1.84,1.21,5.48,5.48,0,0,1,1.24,1.94,7,7,0,0,1,.45,2.59v1.66a7.13,7.13,0,0,1-.45,2.6,5.43,5.43,0,0,1-1.24,2,5.26,5.26,0,0,1-1.84,1.21,6,6,0,0,1-2.24.42Zm.4-2.51a3,3,0,0,0,1.05-.17,2.36,2.36,0,0,0,.84-.55,2.62,2.62,0,0,0,.55-.92,3.9,3.9,0,0,0,.2-1.32v-3.06a4,4,0,0,0-.2-1.33,2.58,2.58,0,0,0-.55-.93,2.33,2.33,0,0,0-.84-.54,3.13,3.13,0,0,0-1-.17,3,3,0,0,0-1.05.18,2.37,2.37,0,0,0-.85.54,2.25,2.25,0,0,0-.57.92,4,4,0,0,0-.2,1.33v3a4,4,0,0,0,.2,1.33,2.39,2.39,0,0,0,1.41,1.48A2.91,2.91,0,0,0,437.28,460.34Z"/><path class="cls-1" d="M445.73,462.65V449h2.78l4.42,6.52.67,1.22.1,0V449h3.05v13.64h-2.87l-4.55-6.74-.48-.9-.08,0v7.6Z"/><path class="cls-2" d="M212.79,435.45H186.22v-5.21h21.11a16.93,16.93,0,0,0-16.88-13.79c-7.4,0-12.69,5.21-17.66,11.81l-3.22-4.56c5.43-6.89,11.72-12.45,20.88-12.45a22.67,22.67,0,0,1,16.83,7.21,21,21,0,0,1,2,2.61L200,398.48l-34.63-14.34-34.64,14.34L121,422a23.06,23.06,0,0,1,19.8-10.7c11.35,0,18.67,8.13,26.42,19.27S181,449.26,190.3,449.26a17.71,17.71,0,0,0,15.36-8.59h5.51l2.17-5.22Z"/><path class="cls-3" d="M190.3,454.47c-11.35,0-18.37-7.79-26.44-19.3s-13.84-18.71-23.1-18.71c-9.56-.07-17.38,7.27-17.47,16.4.09,9.12,7.9,16.46,17.47,16.4,7.57,0,13-5.2,18.06-11.81l3.27,4.6c-5.55,6.88-12,12.42-21.33,12.42a23,23,0,0,1-20.61-12.13l10.53,25.42,34.64,14.34L200,467.76l9.54-23A23.36,23.36,0,0,1,190.3,454.47Z"/><path class="cls-8" d="M165.32,488.67,126,472.4l-16.27-39.28L126,393.84l39.28-16.27,39.27,16.27,16.27,39.28L204.59,472.4Zm-37.09-18.46,37.09,15.36,37.08-15.36,15.37-37.09L202.4,396l-37.08-15.36L128.23,396l-15.36,37.09Z"/><path class="cls-1" d="M259.15,429.94c4.68,0,9-1.89,11.07-5.75,2,3.6,5.64,5.75,11.12,5.75,7.15,0,11.93-3.55,11.93-9v-.49h-5.69v.43c0,2.42-1.72,3.93-6.18,3.93-5.43,0-7.42-2.37-7.58-7.31h19.4a22.3,22.3,0,0,0,.27-3.66c0-7.36-5-11.66-12.09-11.66a12.56,12.56,0,0,0-9.67,4c-1.83-2.47-5-4-9.25-4-7.09,0-11.71,4.3-11.71,10.27V413h5.64v-.49c0-4.08,2-5.21,5.86-5.21s6.07,1,6.07,5.48v1.34l-9.4,1.19c-5.59.64-8.92,3.11-8.92,7.46C250,427.57,253.78,429.94,259.15,429.94Zm22-22.9c4.57,0,7,2,6.82,6.51H273.88C274.2,409.46,276.08,407,281.13,407Zm-25.47,15.21c0-1.93,1.07-2.74,4.14-3.12l8.65-1.07c0,5.7-4.09,7.31-8.06,7.31C257.06,425.37,255.66,424.45,255.66,422.25Z"/><path class="cls-1" d="M309,429.4a22.53,22.53,0,0,0,4.78-.49v-4.72h-3.28c-3.6,0-4.78-.49-4.78-3.28V407.53h8.06v-4.84h-8.06v-6.61h-4.46l-1.24,6.61h-4.56v4.84H300v13.65C300,427.19,303.06,429.4,309,429.4Z"/><path class="cls-1" d="M328.67,429.94c7.2,0,12-3.55,12-9v-.49H334.9v.43c0,2.42-1.72,3.93-6.18,3.93-5.59,0-7.36-2.48-7.57-7.36h19.39a21,21,0,0,0,.33-3.66c0-7.31-5.06-11.61-12.26-11.61-7.95,0-12.89,5.59-12.89,13.87S319.86,429.94,328.67,429.94Zm-.16-22.9c4.56,0,7,1.94,6.82,6.51H321.2C321.52,409.41,323.46,407,328.51,407Z"/><path class="cls-1" d="M351.3,429.4V412c0-3.55,1.29-4.89,4.78-4.89s4.41,1.29,4.41,4.83V413h5.8v-1.77c0-5-2.15-9.09-7.74-9.09a7.77,7.77,0,0,0-7.47,4.63h-.26v-4.25H345.5V429.4Z"/><path class="cls-1" d="M375.7,429.4V414c0-5,2.15-6.83,6.88-6.83,4.89,0,6.39,2,6.39,6.77V429.4h5.81V412.63c0-6.07-3.12-10.48-10-10.48-5.21,0-8.06,2.69-9.3,5.54h-.21v-5H369.9V429.4Z"/><path class="cls-1" d="M405.76,399.31V393.4H400l.05,5.91Zm.05,30.09V402.53H400V429.4Z"/><path class="cls-1" d="M422.11,429.4a22.53,22.53,0,0,0,4.78-.49v-4.72h-3.28c-3.6,0-4.78-.49-4.78-3.28V407.53h8.06v-4.84h-8.06v-6.61h-4.46l-1.24,6.61h-4.56v4.84H413v13.65C413,427.19,416.14,429.4,422.11,429.4Z"/><path class="cls-1" d="M434.44,438.53c4.19,0,6.77-1.23,8.76-6l12.63-29.88h-6.39l-4.9,12.95-2.2,5.81h-.43l-2.42-5.81-5.37-12.95h-6.39l11.33,26L438,431c-.86,2-1.66,2.36-4,2.36h-3.66v4.73A16.52,16.52,0,0,0,434.44,438.53Z"/><rect class="cls-2" x="33.56" y="528.22" width="499.4" height="141.73"/><path class="cls-1" d="M255.72,626a7,7,0,0,1-2.32-.37,5.18,5.18,0,0,1-1.89-1.13,5.12,5.12,0,0,1-1.27-1.93,7.46,7.46,0,0,1-.46-2.76V618.1a7.2,7.2,0,0,1,.46-2.7,5.41,5.41,0,0,1,3.19-3.1,6.74,6.74,0,0,1,2.26-.38h.43a7.1,7.1,0,0,1,2.14.32,4.76,4.76,0,0,1,1.76,1A4.55,4.55,0,0,1,261.2,615a6.67,6.67,0,0,1,.43,2.53h-3.12a4.55,4.55,0,0,0-.32-1.88,1.88,1.88,0,0,0-.9-1,3.34,3.34,0,0,0-1.41-.28,2.87,2.87,0,0,0-1,.18,2.22,2.22,0,0,0-.81.54,2.44,2.44,0,0,0-.52.91,4.17,4.17,0,0,0-.19,1.36v3.06a4,4,0,0,0,.32,1.7,2.06,2.06,0,0,0,.89,1,2.8,2.8,0,0,0,1.35.31,3.64,3.64,0,0,0,1.53-.28,1.82,1.82,0,0,0,.91-.94,4.53,4.53,0,0,0,.31-1.88h3a6.58,6.58,0,0,1-.42,2.43,4.73,4.73,0,0,1-1.17,1.76,5,5,0,0,1-1.75,1.06,6.19,6.19,0,0,1-2.13.36Z"/><path class="cls-1" d="M273.55,625.92a3.45,3.45,0,0,1-1.31-.23,1.67,1.67,0,0,1-.85-.79,3.15,3.15,0,0,1-.31-1.55,5.34,5.34,0,0,0-.11-1.08,2.58,2.58,0,0,0-.36-.9,1.78,1.78,0,0,0-.62-.6,1.74,1.74,0,0,0-.9-.22h-2v5.21H263.8V612.11h7.12a4.15,4.15,0,0,1,1.82.41,3.55,3.55,0,0,1,1.38,1.17,3,3,0,0,1,.54,1.83,3.7,3.7,0,0,1-.34,1.6,3.94,3.94,0,0,1-.88,1.23,4,4,0,0,1-1.21.77v.1a3.35,3.35,0,0,1,.81.39,2.92,2.92,0,0,1,.69.67,3.78,3.78,0,0,1,.48.94,3.51,3.51,0,0,1,.19,1.2,8.33,8.33,0,0,0,0,.89,3.85,3.85,0,0,0,.14.75,1.41,1.41,0,0,0,.31.55,1.17,1.17,0,0,0,.53.31v.7a4,4,0,0,1-.9.23A8.05,8.05,0,0,1,273.55,625.92Zm-6.47-7.86h2.71a1.15,1.15,0,0,0,.75-.27,1.85,1.85,0,0,0,.54-.69,2.28,2.28,0,0,0,.2-1,1.48,1.48,0,0,0-.41-1.12,1.44,1.44,0,0,0-1-.39h-2.75Z"/><path class="cls-1" d="M280.41,625.76v-5.23l-4.62-8.42h3.74l2.65,5.26h.08l2.68-5.26h3.4l-4.59,8.42v5.23Z"/><path class="cls-1" d="M289.72,625.76V612.11h6.8a4.05,4.05,0,0,1,3.5,1.95,3.83,3.83,0,0,1,.54,2v.34a4,4,0,0,1-.56,2.06,4.37,4.37,0,0,1-1.48,1.51,3.87,3.87,0,0,1-2.06.57H293v5.21Zm3.32-7.7h2.54a1.56,1.56,0,0,0,1.41-.81,1.84,1.84,0,0,0,.2-.9,1.79,1.79,0,0,0-.43-1.2,1.52,1.52,0,0,0-1.22-.51H293Z"/><path class="cls-1" d="M304.67,625.76v-11h-3.76v-2.61h10.86v2.61H308v11Z"/><path class="cls-1" d="M318.75,626a6,6,0,0,1-2.24-.42,5.45,5.45,0,0,1-1.85-1.21,5.59,5.59,0,0,1-1.25-2,7.36,7.36,0,0,1-.44-2.61v-1.65a6.8,6.8,0,0,1,.46-2.59,5.55,5.55,0,0,1,1.25-1.94,5.43,5.43,0,0,1,1.84-1.22,6,6,0,0,1,2.22-.41h.83a6.15,6.15,0,0,1,2.24.41,5.45,5.45,0,0,1,3.08,3.16,7,7,0,0,1,.45,2.59v1.65a7.14,7.14,0,0,1-.45,2.61,5.57,5.57,0,0,1-1.24,2,5.5,5.5,0,0,1-1.84,1.21,6,6,0,0,1-2.24.42Zm.4-2.51a3,3,0,0,0,1.06-.18,2.29,2.29,0,0,0,.83-.54,2.5,2.5,0,0,0,.56-.92,3.9,3.9,0,0,0,.2-1.32v-3.06a4.07,4.07,0,0,0-.2-1.34,2.42,2.42,0,0,0-.56-.92,2.06,2.06,0,0,0-.83-.54,3.19,3.19,0,0,0-1-.17,3,3,0,0,0-1,.18,2.41,2.41,0,0,0-.86.54,2.38,2.38,0,0,0-.56.91,3.82,3.82,0,0,0-.2,1.34v3a3.76,3.76,0,0,0,.2,1.33,2.54,2.54,0,0,0,.56.93,2.46,2.46,0,0,0,.85.54A2.9,2.9,0,0,0,319.15,623.45Z"/><path class="cls-1" d="M331.74,625.76V612.11h9.37l-.34,2.55H335v3.12h5.22v2.49H335v5.49Z"/><path class="cls-1" d="M348.11,626a6.08,6.08,0,0,1-2.25-.42,5.45,5.45,0,0,1-1.85-1.21,5.57,5.57,0,0,1-1.24-2,7.14,7.14,0,0,1-.45-2.61v-1.65a7,7,0,0,1,.46-2.59,5.69,5.69,0,0,1,1.25-1.94,5.53,5.53,0,0,1,1.84-1.22,6.12,6.12,0,0,1,2.22-.41h.84a6.09,6.09,0,0,1,2.23.41,5.43,5.43,0,0,1,1.84,1.22,5.55,5.55,0,0,1,1.25,1.94,7.21,7.21,0,0,1,.44,2.59v1.65a7.36,7.36,0,0,1-.44,2.61,5.59,5.59,0,0,1-1.25,2,5.4,5.4,0,0,1-1.84,1.21,5.9,5.9,0,0,1-2.23.42Zm.4-2.51a3,3,0,0,0,1.05-.18,2.33,2.33,0,0,0,.84-.54,2.48,2.48,0,0,0,.55-.92,3.67,3.67,0,0,0,.2-1.32v-3.06a3.82,3.82,0,0,0-.2-1.34,2.4,2.4,0,0,0-.55-.92,2.09,2.09,0,0,0-.84-.54,3.13,3.13,0,0,0-1-.17,3,3,0,0,0-1,.18,2.37,2.37,0,0,0-.85.54,2.28,2.28,0,0,0-.57.91,4.07,4.07,0,0,0-.2,1.34v3a4,4,0,0,0,.2,1.33,2.34,2.34,0,0,0,1.41,1.47A3,3,0,0,0,348.51,623.45Z"/><path class="cls-1" d="M361.87,626a5.76,5.76,0,0,1-2.68-.58,4.06,4.06,0,0,1-1.74-1.61,4.62,4.62,0,0,1-.61-2.41v-9.25h3.34v9.25a2.05,2.05,0,0,0,.61,1.51,2.17,2.17,0,0,0,1.58.58,2.11,2.11,0,0,0,1.56-.58,2.07,2.07,0,0,0,.59-1.51v-9.25h3.34v9.25a4.23,4.23,0,0,1-.68,2.41,4.43,4.43,0,0,1-1.88,1.61,6.21,6.21,0,0,1-2.75.58Z"/><path class="cls-1" d="M370.59,625.76V612.11h2.78l4.42,6.53.67,1.21.1,0v-7.7h3.05v13.65h-2.87L374.19,619l-.48-.9-.08,0v7.6Z"/><path class="cls-1" d="M384.41,625.76V612.11h5.65a6.33,6.33,0,0,1,2.25.39,5.29,5.29,0,0,1,1.85,1.15,5.15,5.15,0,0,1,1.26,1.85,6.59,6.59,0,0,1,.44,2.52v1.51a6.91,6.91,0,0,1-.44,2.56,5.84,5.84,0,0,1-1.26,2,5.44,5.44,0,0,1-1.85,1.26,5.75,5.75,0,0,1-2.25.44Zm3.34-2.55h2a2.53,2.53,0,0,0,1.29-.33,2.38,2.38,0,0,0,.92-1,3.71,3.71,0,0,0,.34-1.66v-2.76a3.46,3.46,0,0,0-.34-1.61,2.2,2.2,0,0,0-.92-.92,2.73,2.73,0,0,0-1.29-.3h-2Z"/><path class="cls-1" d="M396.74,625.76l4.85-13.65h4l4.85,13.65H407l-1-2.69h-5.13l-1,2.69Zm5-5h3.52l-1.69-5.15h-.1Z"/><path class="cls-1" d="M414.34,625.76v-11h-3.76v-2.61h10.86v2.61h-3.76v11Z"/><path class="cls-1" d="M422.76,625.76v-2.43h1.61v-8.79h-1.61v-2.43h6.54v2.43h-1.59v8.79h1.59v2.43Z"/><path class="cls-1" d="M436.88,626a6,6,0,0,1-2.25-.42,5.45,5.45,0,0,1-1.85-1.21,5.57,5.57,0,0,1-1.24-2,7.14,7.14,0,0,1-.45-2.61v-1.65a6.8,6.8,0,0,1,.46-2.59,5.55,5.55,0,0,1,1.25-1.94,5.43,5.43,0,0,1,1.84-1.22,6.12,6.12,0,0,1,2.22-.41h.83a6.15,6.15,0,0,1,2.24.41,5.45,5.45,0,0,1,3.08,3.16,7,7,0,0,1,.45,2.59v1.65a7.14,7.14,0,0,1-.45,2.61,5.38,5.38,0,0,1-3.08,3.16,6,6,0,0,1-2.24.42Zm.4-2.51a3,3,0,0,0,1.05-.18,2.33,2.33,0,0,0,.84-.54,2.62,2.62,0,0,0,.55-.92,3.9,3.9,0,0,0,.2-1.32v-3.06a4.07,4.07,0,0,0-.2-1.34,2.53,2.53,0,0,0-.55-.92,2.09,2.09,0,0,0-.84-.54,3.13,3.13,0,0,0-1-.17,3,3,0,0,0-1.05.18,2.37,2.37,0,0,0-.85.54,2.28,2.28,0,0,0-.57.91,4.07,4.07,0,0,0-.2,1.34v3a4,4,0,0,0,.2,1.33,2.43,2.43,0,0,0,.57.93,2.33,2.33,0,0,0,.84.54A2.91,2.91,0,0,0,437.28,623.45Z"/><path class="cls-1" d="M445.73,625.76V612.11h2.78l4.42,6.53.67,1.21.1,0v-7.7h3.05v13.65h-2.87L449.33,619l-.48-.9-.08,0v7.6Z"/><path class="cls-1" d="M212.79,598.55H186.22v-5.21h21.11a16.92,16.92,0,0,0-16.88-13.79c-7.4,0-12.69,5.21-17.66,11.81l-3.22-4.57c5.43-6.88,11.72-12.45,20.88-12.45a22.68,22.68,0,0,1,16.83,7.22,21,21,0,0,1,2,2.61L200,561.59l-34.63-14.35-34.64,14.35L121,585.06a23.07,23.07,0,0,1,19.8-10.71c11.35,0,18.67,8.14,26.42,19.28S181,612.36,190.3,612.36a17.7,17.7,0,0,0,15.36-8.58h5.51l2.17-5.23Z"/><path class="cls-3" d="M190.3,617.58c-11.35,0-18.37-7.79-26.44-19.3s-13.84-18.72-23.1-18.72c-9.56-.06-17.38,7.28-17.47,16.4.09,9.13,7.9,16.47,17.47,16.4,7.57,0,13-5.19,18.06-11.8l3.27,4.6c-5.55,6.87-12,12.42-21.33,12.42a23,23,0,0,1-20.61-12.13l10.53,25.41,34.64,14.35L200,630.86l9.54-23A23.36,23.36,0,0,1,190.3,617.58Z"/><path class="cls-9" d="M165.32,651.77,126,635.51l-16.27-39.28L126,557l39.28-16.27L204.59,557l16.27,39.28-16.27,39.28Zm-37.09-18.46,37.09,15.37,37.08-15.37,15.37-37.08L202.4,559.14l-37.08-15.36-37.09,15.36-15.36,37.09Z"/><path class="cls-1" d="M259.15,593c4.68,0,9-1.88,11.07-5.75,2,3.6,5.64,5.75,11.12,5.75,7.15,0,11.93-3.54,11.93-9v-.48h-5.69V584c0,2.42-1.72,3.92-6.18,3.92-5.43,0-7.42-2.36-7.58-7.3h19.4a22.3,22.3,0,0,0,.27-3.66c0-7.36-5-11.66-12.09-11.66a12.53,12.53,0,0,0-9.67,4c-1.83-2.47-5-4-9.25-4-7.09,0-11.71,4.3-11.71,10.26v.54h5.64v-.48c0-4.09,2-5.21,5.86-5.21s6.07,1,6.07,5.48v1.34l-9.4,1.18c-5.59.65-8.92,3.12-8.92,7.47C250,590.68,253.78,593,259.15,593Zm22-22.89c4.57,0,7,2,6.82,6.5H273.88C274.2,572.57,276.08,570.15,281.13,570.15Zm-25.47,15.21c0-1.94,1.07-2.74,4.14-3.12l8.65-1.07c0,5.69-4.09,7.3-8.06,7.3C257.06,588.47,255.66,587.56,255.66,585.36Z"/><path class="cls-1" d="M309,592.5a22.61,22.61,0,0,0,4.78-.48v-4.73h-3.28c-3.6,0-4.78-.48-4.78-3.28V570.64h8.06V565.8h-8.06v-6.61h-4.46l-1.24,6.61h-4.56v4.84H300v13.64C300,590.3,303.06,592.5,309,592.5Z"/><path class="cls-1" d="M328.67,593c7.2,0,12-3.54,12-9v-.48H334.9V584c0,2.42-1.72,3.92-6.18,3.92-5.59,0-7.36-2.47-7.57-7.36h19.39a20.72,20.72,0,0,0,.33-3.65c0-7.31-5.06-11.61-12.26-11.61-7.95,0-12.89,5.59-12.89,13.86S319.86,593,328.67,593Zm-.16-22.89c4.56,0,7,1.94,6.82,6.5H321.2C321.52,572.52,323.46,570.15,328.51,570.15Z"/><path class="cls-1" d="M351.3,592.5V575.09c0-3.54,1.29-4.88,4.78-4.88s4.41,1.28,4.41,4.83v1.08h5.8v-1.78c0-5-2.15-9.08-7.74-9.08a7.77,7.77,0,0,0-7.47,4.62h-.26v-4.24H345.5V592.5Z"/><path class="cls-1" d="M375.7,592.5V577.08c0-5,2.15-6.82,6.88-6.82,4.89,0,6.39,2,6.39,6.77V592.5h5.81V575.74c0-6.07-3.12-10.48-10-10.48-5.21,0-8.06,2.69-9.3,5.54h-.21v-5H369.9v26.7Z"/><path class="cls-1" d="M405.76,562.41V556.5H400l.05,5.91Zm.05,30.09V565.64H400V592.5Z"/><path class="cls-1" d="M422.11,592.5a22.61,22.61,0,0,0,4.78-.48v-4.73h-3.28c-3.6,0-4.78-.48-4.78-3.28V570.64h8.06V565.8h-8.06v-6.61h-4.46l-1.24,6.61h-4.56v4.84H413v13.64C413,590.3,416.14,592.5,422.11,592.5Z"/><path class="cls-1" d="M434.44,601.64c4.19,0,6.77-1.24,8.76-6l12.63-29.88h-6.39l-4.9,13-2.2,5.8h-.43l-2.42-5.8-5.37-13h-6.39l11.33,26-1,2.25c-.86,2-1.66,2.37-4,2.37h-3.66v4.73A17,17,0,0,0,434.44,601.64Z"/></svg>